<svg width="552" height="108" viewBox="0 0 552 108" fill="none" xmlns="http://www.w3.org/2000/svg">
<path d="M0 96.9397C0.471714 74.321 16.227 62.1646 32.6426 59.4743C49.0583 56.784 65.8513 61.2679 81.7009 65.951C97.5505 70.6342 113.966 75.716 130.57 74.2213C162.553 71.4314 190.101 44.9266 221.8 49.809C234.819 51.8019 245.952 58.9761 257.462 64.7553C268.971 70.5346 282.557 75.1181 295.104 71.6306C310.577 67.346 319.728 52.1008 335.011 47.318C357.748 40.1437 383.126 58.5775 405.957 51.6026C416.712 48.3144 424.543 39.9445 430.864 31.3752C437.279 22.9057 443.034 13.7386 451.902 7.36149C460.77 0.984399 474.167 -1.80558 483.601 3.97366C494.073 10.4504 498.319 25.9946 511.055 26.1938C519.923 26.2935 525.867 18.3221 530.679 11.6461C535.49 4.97008 543.698 -2.10451 552 0.585831L551.151 108L0 96.9397Z" fill="#D9F2EC"/>
</svg>
