<svg width="1920" height="425" viewBox="0 0 1920 425" fill="none" xmlns="http://www.w3.org/2000/svg">
<g opacity="0.2">
<path d="M2259.5 62.9162C2254.23 62.9901 2248.98 63.8164 2242.96 63.9009C2139.87 65.3476 2139.14 13.4285 2036.81 14.8646C1933.72 16.3113 1934.45 68.2304 1832.11 69.6665C1729.03 71.1132 1728.3 19.1941 1625.97 20.6302C1522.88 22.0769 1523.61 73.996 1421.27 75.4321C1318.19 76.8788 1317.46 24.9597 1215.13 26.3958C1112.04 27.8425 1112.77 79.7616 1010.43 81.1977C907.347 82.6444 906.619 30.7253 804.285 32.1614C701.198 33.6081 701.927 85.5272 599.593 86.9634C496.506 88.41 495.778 36.4909 392.691 37.9376C290.357 39.3737 291.086 91.2928 188 92.7395C85.6657 94.1756 84.9371 42.2565 -18.1493 43.7032C-120.483 45.1393 -119.755 97.0585 -222.841 98.5051C-286.047 99.3922 -310.401 80.1663 -343.72 65.5819L-353 561.5L962.5 561.5L2242.96 575.5L2259.5 62.9162Z" fill="url(#paint0_linear_34_69)"/>
</g>
<g opacity="0.2">
<path d="M2229.67 51.2037C2224.4 51.3015 2219.15 52.1517 2213.13 52.2635C2110.05 54.1784 2109.09 2.26314 2006.76 4.16405C1903.68 6.07894 1904.64 57.9942 1802.32 59.8951C1699.24 61.81 1698.27 9.89475 1595.95 11.7957C1492.87 13.7105 1493.83 65.6258 1391.51 67.5267C1288.43 69.4416 1287.46 17.5263 1185.14 19.4273C1082.06 21.3421 1083.02 73.2574 980.697 75.1583C877.618 77.0732 876.654 25.1579 774.328 27.0588C671.249 28.9737 672.214 80.889 569.887 82.7899C466.808 84.7048 465.844 32.7895 362.765 34.7044C260.439 36.6053 261.403 88.5206 158.324 90.4355C55.998 92.3364 55.0338 40.4211 -48.045 42.336C-150.371 44.2369 -149.407 96.1522 -252.486 98.0671C-315.687 99.2412 -340.128 80.1262 -373.513 65.6933L-362 487.5L973 454L2229.67 434.5L2229.67 51.2037Z" fill="url(#paint1_linear_34_69)"/>
</g>
<g opacity="0.04" clip-path="url(#clip0_34_69)" filter="url(#filter0_d_34_69)">
<path d="M41.7894 202.19C49.1469 205.307 66.9745 205.024 66.9745 205.024C67.2575 205.024 63.0128 193.404 62.7299 192.554C58.7682 184.335 46.3171 170.731 36.4128 172.148C29.0554 172.999 25.0936 180.367 26.7915 187.169C28.4894 194.254 35.5639 199.356 41.7894 202.19Z" fill="#1A7F72"/>
<path d="M48.0149 254.053C55.6554 255.187 71.5022 250.652 72.9171 250.085C75.4639 259.154 78.8597 267.94 82.5384 277.009C84.8022 282.11 87.066 287.212 89.6129 292.313C88.198 290.046 86.7831 288.345 86.5001 288.062C80.5575 281.26 64.9937 271.341 55.6554 275.309C48.8639 278.143 46.883 286.361 50.2788 292.596C53.6745 298.831 62.1639 301.949 68.6724 303.083C75.4639 304.216 89.0469 300.532 92.7256 299.398C93.5746 301.382 94.7065 303.366 95.5554 305.066C100.083 314.419 104.894 323.488 109.138 332.557C110.553 335.674 111.968 339.075 113.383 342.193C111.968 340.209 111.119 338.792 110.836 338.509C104.894 331.707 89.3299 321.787 79.9916 325.755C73.2001 328.589 71.2192 336.808 74.615 343.043C78.0107 349.278 86.5001 352.396 93.0086 353.529C99.5171 354.379 112.251 351.262 116.496 350.128C117.911 353.529 119.043 356.93 120.175 360.048C121.024 362.315 121.872 364.582 122.438 366.849C123.004 369.117 123.57 371.384 124.419 373.651C125.551 377.902 126.683 382.437 127.532 386.688C128.098 389.522 128.664 392.639 129.23 395.474C127.815 392.356 124.702 386.121 124.419 385.554C119.609 377.902 105.743 365.716 95.8384 368.266C88.7639 369.967 85.6511 377.902 87.915 384.421C90.4618 391.222 98.1022 395.474 104.611 397.457C111.685 399.725 127.532 397.741 129.513 397.457C130.362 402.275 131.211 406.81 132.06 411.061C133.758 419.847 134.89 428.065 135.738 434.867H142.247C141.115 427.782 139.7 419.28 137.719 409.927C136.87 405.109 135.738 400.008 134.607 394.623C135.738 394.057 142.53 391.506 148.472 388.105C153.566 393.773 167.149 400.292 168.847 401.142C167.149 405.676 165.168 409.927 163.47 413.895C160.075 421.547 156.962 428.632 154.132 434.584H161.207C163.753 429.199 166.3 422.964 169.13 416.162C171.111 411.628 172.809 406.81 174.79 401.709C176.77 401.992 192.334 405.393 199.692 403.692C206.2 402.275 214.407 398.308 217.236 391.789C220.066 385.271 217.519 377.335 210.445 375.068C200.824 371.951 186.109 382.72 180.732 390.089C180.449 390.656 177.619 395.474 175.638 398.874C176.487 396.891 177.053 394.907 177.902 392.639C179.317 388.388 180.732 384.137 182.43 379.603C182.996 377.335 183.845 375.068 184.411 372.801C185.26 370.534 185.543 367.983 186.109 365.716C187.524 360.331 188.373 354.663 189.504 348.711C193.183 350.128 206.2 354.663 213.275 354.096C220.066 353.529 228.556 351.262 232.517 345.027C236.479 339.075 235.064 330.857 228.556 327.456C219.5 322.638 203.37 331.423 196.862 337.942C196.579 338.225 192.334 343.61 190.07 346.444C190.636 343.043 191.202 339.642 191.485 335.958C192.617 325.755 193.749 315.553 194.598 305.35C194.881 302.232 195.164 299.115 195.447 295.997C196.862 296.564 212.143 302.232 219.783 301.665C226.575 301.099 235.064 298.831 239.026 292.596C242.988 286.645 241.573 278.426 235.064 275.025C226.009 270.207 209.879 278.993 203.37 285.511C202.804 286.078 196.862 293.447 195.447 295.431C196.296 288.629 196.862 281.544 197.994 275.025C199.409 265.673 201.39 256.604 203.936 248.101C204.502 248.385 220.632 254.336 228.556 253.77C235.347 253.203 243.836 250.935 247.798 244.7C251.76 238.749 250.345 230.53 243.836 227.129C234.781 222.311 218.651 231.097 212.143 237.615C211.577 238.182 205.351 246.118 204.219 247.535C204.502 246.968 204.502 246.401 204.502 245.834C207.332 236.765 211.294 228.263 215.256 220.327C217.519 215.793 220.066 211.542 222.613 207.574C225.443 208.991 238.743 215.509 245.817 215.793C252.609 216.076 261.381 214.659 265.909 208.991C270.436 203.606 269.87 195.104 263.928 191.136C255.439 185.468 238.46 192.27 231.102 197.938C230.819 198.222 227.141 201.906 224.594 204.457C225.726 202.756 226.858 200.772 227.99 199.072C232.234 192.553 236.479 186.885 240.441 182.067C242.705 179.233 244.685 176.683 246.666 174.415C250.345 174.415 264.777 173.848 271.002 171.014C277.228 168.18 284.302 162.796 285.717 155.71C287.132 148.909 282.888 141.54 275.53 140.973C265.343 139.84 253.458 153.726 249.779 162.229C249.496 163.079 245.817 174.699 245.817 174.699H246.1C244.119 176.966 242.139 179.233 239.875 181.784C235.913 186.602 231.385 192.27 227.141 198.505C222.613 204.74 218.085 211.825 213.841 219.761C209.596 227.696 205.634 236.198 202.521 245.267V245.551C202.521 242.433 202.521 234.214 202.239 233.648C201.107 224.579 193.466 207.857 183.562 205.874C176.204 204.457 170.262 210.125 169.696 217.21C169.13 224.295 174.224 231.664 179.317 236.198C184.977 241.3 200.824 246.401 202.239 246.684C199.409 255.47 197.145 264.822 195.447 274.458C194.598 279.843 193.749 285.511 192.9 290.896C192.9 288.345 192.9 286.078 192.9 285.795C191.768 276.726 184.128 260.005 174.224 258.021C166.866 256.604 160.924 262.272 160.358 269.357C159.792 276.442 164.885 283.811 169.979 288.345C175.073 292.88 188.656 297.414 192.051 298.548C191.768 300.815 191.485 302.799 191.202 305.066C190.07 315.269 188.938 325.472 187.241 335.391C186.675 338.792 186.109 342.476 185.543 345.877C185.543 343.61 185.543 341.626 185.543 341.343C184.411 332.274 176.77 315.553 166.866 313.569C159.509 312.152 153.566 317.82 153 324.905C152.434 331.99 157.528 339.359 162.621 343.893C167.432 348.144 179.883 352.679 184.128 353.813C183.279 357.213 182.713 360.898 181.864 364.299C181.298 366.566 180.732 368.833 179.883 371.1C179.034 373.368 178.468 375.635 177.619 377.902C176.204 382.153 174.507 386.405 172.809 390.656C171.677 393.49 170.545 396.324 169.413 398.874C169.979 395.474 170.828 388.388 170.828 387.822C170.828 381.87 168.847 371.951 164.602 365.149C164.602 364.299 164.602 363.448 164.319 362.598C163.187 355.513 156.679 350.412 149.604 352.396C139.7 354.946 133.475 372.234 132.909 381.303C132.909 381.87 133.192 387.822 133.475 391.506C132.909 389.239 132.626 387.255 132.06 384.987C130.928 380.736 129.796 376.202 128.664 371.667C128.098 369.4 127.249 367.133 126.683 364.866C126.117 362.598 124.985 360.331 124.419 358.064C122.438 352.679 120.175 347.294 117.911 342.193C121.589 341.343 135.172 337.942 140.549 333.691C145.926 329.439 151.585 322.638 151.585 315.553C151.585 308.467 145.926 302.516 138.568 303.083C128.381 304.216 119.609 320.37 117.911 329.156C117.911 329.723 117.062 336.241 117.062 339.926C115.647 336.808 114.232 333.691 112.534 330.29C108.006 321.221 103.196 312.152 98.3852 303.083C96.9703 300.248 95.5554 297.414 94.1405 294.58C95.5554 294.297 111.685 290.613 117.628 285.795C123.004 281.544 128.664 274.742 128.664 267.657C128.664 260.571 123.004 254.62 115.647 255.187C105.46 256.32 96.6873 272.474 94.9895 281.26C94.9895 281.827 94.1405 291.463 93.8575 293.73C91.0278 288.062 87.915 281.827 85.0852 275.875C81.1235 267.373 77.7277 258.587 75.1809 250.085C75.7469 249.802 92.7256 246.118 98.9512 241.3C104.328 237.048 109.987 230.247 109.987 223.161C109.987 216.076 104.328 210.125 96.9703 210.692C86.7831 211.825 78.0107 227.979 76.3128 236.765C76.0299 237.332 75.1809 247.535 75.1809 249.518C74.8979 248.952 74.8979 248.385 74.615 248.101C71.7852 239.032 70.3703 229.68 69.5213 220.894C68.9554 215.793 68.6724 210.975 68.6724 206.157C71.7852 205.874 86.5001 203.89 92.7256 200.205C98.6682 196.805 104.894 190.57 105.743 183.484C106.592 176.399 101.498 169.881 94.1405 169.881C83.9533 169.881 73.4831 184.901 70.6533 193.687C70.3703 194.254 69.5213 199.072 68.6724 202.756C68.6724 200.489 68.6724 198.505 68.6724 196.238C68.6724 188.586 69.2384 181.5 69.5213 175.266C69.8043 171.581 70.0873 168.464 70.6533 165.63C73.4831 163.646 85.3682 155.144 89.0469 149.192C92.4426 143.24 95.5554 135.022 92.7256 128.22C90.1788 121.701 82.5384 118.017 76.0299 121.418C66.9745 126.236 64.7107 144.374 66.1256 153.443C66.1256 154.293 69.8043 166.196 69.8043 165.913H70.0873C69.8043 168.747 69.2384 171.865 68.9554 175.266C68.3894 181.5 67.8235 188.586 67.5405 196.238C67.2575 203.89 67.2575 212.392 68.1064 221.178C68.9554 229.963 70.0873 239.316 72.6341 248.668V248.952C70.9362 246.401 66.4086 239.599 65.8426 239.032C59.9001 232.231 44.3362 222.311 34.9979 226.279C28.2064 229.113 26.2256 237.332 29.6213 243.567C33.0171 249.802 41.2234 252.919 48.0149 254.053Z" fill="#1A7F72"/>
<path d="M222.613 206.157C222.896 206.157 225.726 194.254 226.009 193.403C227.141 184.334 224.311 166.196 215.256 161.662C208.747 158.544 201.39 162.229 198.843 169.03C196.296 175.832 199.409 184.051 203.087 189.719C207.615 196.521 222.613 206.157 222.613 206.157Z" fill="#1A7F72"/>
<path d="M334.956 281.826C339.766 283.81 351.651 283.526 351.651 283.526C351.651 283.526 349.105 275.874 348.822 275.307C346.275 269.923 338.068 260.854 331.56 261.987C326.749 262.554 324.202 267.372 325.334 271.906C326.183 276.441 330.994 279.842 334.956 281.826Z" fill="#1A7F72"/>
<path d="M338.917 315.835C344.011 316.685 354.481 313.568 355.33 313.285C357.028 319.236 359.292 325.188 361.556 330.856C362.971 334.257 364.669 337.658 366.083 340.775C365.234 339.358 364.386 338.224 364.103 337.941C360.141 333.407 349.954 326.888 343.728 329.722C339.2 331.706 338.068 336.807 340.332 341.059C342.596 345.31 347.973 347.294 352.5 347.86C357.028 348.427 366.083 346.16 368.347 345.31C368.913 346.443 369.479 347.86 370.328 348.994C373.441 354.946 376.554 361.18 379.383 367.132C380.515 369.116 381.364 371.383 382.213 373.367C381.364 372.233 380.515 371.1 380.515 370.816C376.554 366.282 366.366 359.763 360.141 362.598C355.613 364.581 354.481 369.683 356.745 373.934C359.009 378.185 364.386 380.169 368.913 380.736C373.158 381.302 381.647 379.319 384.477 378.468C385.326 380.736 386.175 383.003 387.024 384.987C387.59 386.404 388.156 387.821 388.439 389.521C388.722 390.938 389.288 392.639 389.571 394.056C390.137 396.89 390.986 400.007 391.552 402.558C392.117 404.542 392.4 406.242 392.683 408.226C391.834 406.242 389.854 401.991 389.571 401.708C386.458 396.607 377.12 388.671 370.894 390.372C366.083 391.505 364.103 396.607 365.8 400.858C367.498 405.392 372.592 408.226 376.837 409.36C381.647 410.777 391.834 409.36 393.249 409.36C393.815 412.477 394.381 415.595 394.947 418.429C396.079 424.381 396.645 429.482 397.494 434.016H401.739C400.89 429.198 400.041 423.814 398.909 417.579C398.343 414.461 397.494 411.06 396.645 407.659C397.494 407.376 401.739 405.676 405.7 403.408C409.096 407.093 417.869 411.344 419 411.911C417.869 414.745 416.737 417.579 415.322 420.413C413.058 425.514 411.077 430.049 409.096 434.016H413.907C415.605 430.332 417.303 426.364 419 421.83C420.132 418.712 421.547 415.595 422.679 412.194C423.811 412.477 434.281 414.461 439.092 413.611C443.337 412.761 448.713 410.21 450.694 405.959C452.675 401.708 450.977 396.607 446.449 394.906C440.224 392.639 430.32 400.007 426.924 404.825C426.641 405.109 424.66 408.51 423.528 410.494C424.094 409.076 424.66 407.943 424.943 406.526C426.075 403.692 426.924 400.858 427.773 398.024C428.339 396.607 428.622 395.189 429.188 393.489C429.754 392.072 430.037 390.372 430.32 388.954C431.169 385.27 432.018 381.586 432.583 377.902C435.13 378.752 443.62 381.869 448.147 381.586C452.675 381.302 458.335 379.602 460.881 375.634C463.428 371.667 462.579 366.282 458.335 364.015C452.392 360.897 441.639 366.565 437.394 370.816C437.111 371.1 434.564 374.501 432.866 376.201C433.149 373.934 433.715 371.667 433.998 369.399C434.847 362.881 435.413 356.079 435.979 349.277C436.262 347.294 436.545 345.026 436.545 343.042C437.394 343.326 447.581 347.294 452.675 346.727C457.203 346.443 462.862 344.743 465.409 340.775C467.956 336.807 467.107 331.423 462.862 329.155C456.92 326.038 446.166 331.706 441.922 335.957C441.639 336.241 437.677 341.059 436.828 342.476C437.394 337.941 437.96 333.407 438.526 328.872C439.375 322.637 440.79 316.685 442.488 311.017C442.771 311.301 453.524 315.268 458.618 314.702C463.145 314.418 468.805 312.718 471.352 308.75C473.898 304.782 473.049 299.398 468.805 297.13C462.862 294.013 452.109 299.681 447.864 303.932C447.581 304.215 443.337 309.6 442.771 310.45C442.771 310.167 443.054 309.884 443.054 309.317C445.035 303.365 447.298 297.697 450.128 292.596C451.543 289.478 453.241 286.928 454.939 284.094C456.92 284.944 465.692 289.195 470.22 289.478C474.747 289.762 480.407 288.628 483.52 284.944C486.349 281.259 486.067 275.875 482.105 273.324C476.445 269.64 465.409 274.174 460.598 277.859C460.315 278.142 458.052 280.409 456.354 282.11C457.203 280.976 457.769 279.559 458.618 278.425C461.447 274.174 464.277 270.49 466.824 267.372C468.239 265.672 469.654 263.972 470.786 262.271C473.049 262.271 482.671 261.988 486.632 260.004C490.594 258.02 495.405 254.619 496.254 249.801C497.103 245.267 494.556 240.449 489.745 240.165C482.954 239.315 475.03 248.667 472.766 254.052C472.484 254.619 470.22 262.271 470.22 262.271C470.22 262.271 470.22 262.271 470.503 262.271C469.371 263.688 467.956 265.389 466.541 267.089C463.994 270.207 460.881 273.891 458.052 278.142C455.222 282.393 452.109 286.928 449.279 292.029C446.449 297.13 443.903 302.798 441.922 308.75V309.033C441.922 307.05 441.922 301.665 441.922 301.098C441.073 295.146 436.262 284.093 429.471 282.96C424.66 282.11 420.698 285.794 420.415 290.328C420.132 295.146 423.528 299.681 426.641 302.798C430.32 306.199 440.79 309.317 441.639 309.6C439.658 315.552 438.243 321.503 437.111 327.738C436.545 331.423 435.979 334.824 435.413 338.508C435.413 336.807 435.413 335.39 435.413 335.107C434.564 329.155 429.754 318.102 422.962 316.969C418.152 316.119 414.19 319.803 413.907 324.337C413.624 329.155 417.02 333.69 420.132 336.807C423.528 339.925 432.3 342.759 434.564 343.609C434.281 345.026 434.281 346.443 433.998 347.86C433.149 354.662 432.3 361.18 431.452 367.982C431.169 370.25 430.603 372.517 430.32 374.784C430.32 373.367 430.32 371.95 430.32 371.95C429.471 365.998 424.66 354.946 417.869 353.812C413.058 352.962 409.096 356.646 408.813 361.18C408.53 365.998 411.926 370.533 415.039 373.65C418.152 376.485 426.358 379.319 429.188 380.169C428.622 382.436 428.339 384.703 427.773 386.971C427.207 388.388 426.924 390.088 426.641 391.505C426.075 392.922 425.792 394.339 425.226 396.04C424.094 398.874 423.245 401.708 422.113 404.259C421.264 406.242 420.698 407.943 419.849 409.643C420.132 407.376 420.698 402.841 420.698 402.558C420.698 398.59 419.283 392.072 416.454 387.537C416.454 386.971 416.454 386.404 416.454 385.837C415.605 381.302 411.36 377.902 406.832 379.035C400.324 380.736 396.362 392.072 396.079 398.024C396.079 398.307 396.362 402.275 396.362 404.542C396.079 403.125 395.796 401.708 395.513 400.291C394.947 397.457 394.098 394.623 393.249 391.505C392.683 390.088 392.4 388.671 391.834 386.971C391.551 385.554 390.703 383.853 390.137 382.436C388.722 379.035 387.307 375.351 385.892 371.95C388.439 371.383 397.211 369.116 400.89 366.282C404.569 363.448 408.247 359.197 408.247 354.379C408.247 349.844 404.569 345.593 399.758 346.16C392.966 347.01 387.307 357.496 386.175 363.448C386.175 363.731 385.609 367.982 385.609 370.533C384.76 368.549 383.628 366.282 382.779 364.298C379.666 358.346 376.554 352.395 373.441 346.443C372.592 344.743 371.46 342.759 370.611 341.059C371.46 340.775 382.213 338.508 386.175 335.39C389.854 332.556 393.532 328.305 393.532 323.487C393.532 318.953 389.854 314.702 385.043 315.268C378.251 316.119 372.592 326.605 371.46 332.556C371.46 333.123 370.894 339.075 370.611 340.775C368.63 336.807 366.366 332.556 364.669 328.589C362.122 322.92 359.858 317.252 358.16 311.584C358.443 311.584 369.762 309.033 373.724 305.916C377.403 303.082 381.081 298.831 381.081 294.013C381.081 289.478 377.403 285.227 372.592 285.794C365.8 286.644 360.141 297.13 359.009 303.082C359.009 303.649 358.443 310.167 358.16 311.301C358.16 311.017 357.877 310.734 357.877 310.167C356.179 304.215 355.047 297.98 354.481 292.312C354.198 288.911 353.915 285.794 353.915 282.676C355.896 282.393 365.8 281.259 369.762 278.709C373.724 276.441 377.686 272.474 378.251 267.656C378.817 263.121 375.422 258.587 370.611 258.587C363.82 258.587 357.028 268.506 355.047 274.174C355.047 274.458 354.198 277.859 353.915 280.126C353.915 278.709 353.915 277.292 353.915 275.875C353.915 270.773 354.198 266.239 354.481 261.988C354.764 259.72 355.047 257.453 355.047 255.469C357.028 254.052 364.668 248.667 367.215 244.7C369.479 241.015 371.46 235.347 369.762 231.096C368.064 226.845 363.254 224.294 358.726 226.562C352.783 229.679 351.086 241.582 352.217 247.534C352.217 248.101 354.481 255.753 354.764 255.753C354.481 257.737 354.198 259.72 353.915 261.988C353.632 266.239 353.066 270.773 353.066 275.875C353.066 280.976 353.066 286.361 353.349 292.312C353.915 298.264 354.764 304.215 356.462 310.45C356.462 310.45 356.462 310.45 356.462 310.734C355.33 309.033 352.217 304.499 351.934 304.215C347.973 299.681 337.785 293.163 331.56 295.997C327.032 297.98 325.9 303.082 328.164 307.333C329.296 313.001 334.673 315.268 338.917 315.835Z" fill="#1A7F72"/>
<path d="M453.807 284.377C453.807 284.377 456.071 276.442 456.071 276.158C456.92 270.207 454.939 258.303 448.996 255.469C444.752 253.485 439.658 256.036 438.243 260.287C436.545 264.822 438.809 270.207 441.073 273.891C443.903 278.142 453.807 284.377 453.807 284.377Z" fill="#1A7F72"/>
<path d="M779.515 292.03C784.043 294.013 795.079 293.73 795.079 293.73C795.079 293.73 792.815 286.645 792.532 286.078C790.268 280.977 782.628 272.758 776.402 273.608C771.875 274.175 769.611 278.709 770.46 282.96C771.309 287.212 775.553 290.612 779.515 292.03Z" fill="#1A7F72"/>
<path d="M783.194 324.054C787.722 324.621 797.626 321.787 798.475 321.787C799.89 327.172 802.154 332.84 804.418 338.225C805.833 341.342 807.248 344.46 808.663 347.577C807.814 346.16 806.965 345.027 806.965 345.027C803.286 340.775 793.665 334.824 788.005 337.374C783.76 339.075 782.629 344.176 784.609 347.861C786.873 351.828 791.684 353.529 795.929 354.379C800.173 354.946 808.38 352.679 810.643 352.112C811.209 353.245 811.775 354.379 812.341 355.513C815.171 361.181 818.001 366.849 820.548 372.517C821.397 374.501 822.246 376.485 823.094 378.469C822.246 377.335 821.68 376.201 821.397 376.201C817.718 371.95 808.097 365.999 802.437 368.549C798.192 370.25 797.06 375.351 799.041 379.035C801.305 383.003 806.116 384.704 810.36 385.554C814.322 386.121 822.246 384.137 824.792 383.287C825.641 385.27 826.49 387.254 827.056 389.522C827.622 390.939 827.905 392.356 828.471 393.773C828.754 395.19 829.32 396.607 829.603 398.024C830.169 400.574 831.018 403.409 831.584 405.959C831.867 407.66 832.433 409.644 832.716 411.344C831.867 409.36 829.886 405.676 829.886 405.109C827.056 400.291 818.284 392.922 812.341 394.623C808.097 395.757 806.116 400.574 807.531 404.542C808.946 408.793 813.756 411.344 817.718 412.478C821.963 413.895 831.867 412.478 832.999 412.478C833.565 415.312 834.131 418.146 834.697 420.98C835.546 426.365 836.395 431.466 836.961 435.717H840.922C840.356 431.183 839.224 426.081 838.092 420.413C837.526 417.579 836.96 414.461 836.112 411.061C836.96 410.777 840.922 409.077 844.601 407.093C847.714 410.494 855.92 414.745 857.052 415.028C855.92 417.862 854.788 420.413 853.656 422.964C851.675 427.782 849.695 432.033 847.997 435.717H852.524C853.939 432.316 855.637 428.632 857.335 424.381C858.467 421.547 859.599 418.713 860.731 415.595C861.863 415.879 871.484 417.862 876.012 416.729C879.973 415.879 885.067 413.611 886.765 409.36C888.463 405.392 887.048 400.574 882.803 399.157C876.861 397.174 867.805 403.975 864.409 408.51C864.126 408.793 862.429 411.911 861.297 413.895C861.863 412.761 862.146 411.344 862.712 410.21C863.561 407.66 864.409 405.109 865.541 402.275C865.824 400.858 866.39 399.441 866.673 398.024C867.239 396.607 867.522 395.19 867.805 393.773C868.654 390.372 869.22 386.971 869.786 383.287C872.05 384.137 879.973 386.971 884.218 386.687C888.463 386.404 893.556 384.987 896.103 381.303C898.367 377.618 897.518 372.517 893.556 370.533C887.897 367.699 877.992 373.084 874.031 376.768C873.748 377.052 871.201 380.169 869.786 381.87C870.069 379.886 870.352 377.618 870.635 375.635C871.484 369.4 872.05 363.165 872.616 356.93C872.899 354.946 872.899 352.962 873.182 351.261C874.031 351.545 883.369 355.229 888.18 354.662C892.424 354.379 897.518 352.962 900.065 349.278C902.329 345.593 901.48 340.492 897.518 338.508C891.858 335.674 881.954 341.059 877.993 344.743C877.71 345.027 874.031 349.561 873.182 350.695C873.748 346.444 874.031 342.192 874.88 338.225C875.729 332.557 876.861 326.888 878.558 321.787C878.841 321.787 888.746 325.755 893.556 325.471C897.801 325.188 902.895 323.771 905.441 320.087C907.705 316.402 906.856 311.301 902.895 309.317C897.235 306.483 887.331 311.868 883.369 315.552C883.086 315.835 879.124 320.653 878.558 321.787C878.558 321.504 878.841 321.22 878.841 320.937C880.539 315.269 882.803 310.167 885.35 305.349C886.765 302.515 888.18 299.965 889.878 297.414C891.575 298.264 899.782 302.232 904.027 302.515C908.271 302.799 913.648 301.665 916.195 298.264C919.024 294.863 918.742 289.762 914.78 287.211C909.686 283.81 899.216 287.778 894.688 291.462C894.405 291.746 892.141 293.73 890.727 295.43C891.293 294.296 892.141 293.163 892.707 292.029C895.254 288.061 898.084 284.661 900.348 281.543C901.763 279.843 902.895 278.426 904.027 277.009C906.29 277.009 915.063 276.725 919.024 275.025C922.703 273.324 927.231 269.923 928.08 265.672C928.929 261.421 926.382 257.17 921.854 256.603C915.629 256.036 908.271 264.539 906.007 269.64C905.724 270.207 903.461 277.292 903.744 277.292C902.612 278.709 901.197 280.126 900.065 281.543C897.518 284.661 894.971 288.061 892.141 291.746C889.312 295.713 886.482 299.965 883.935 304.783C881.388 309.6 878.841 314.702 876.861 320.37C876.861 320.37 876.861 320.37 876.861 320.653C876.861 318.953 876.861 313.568 876.861 313.285C876.012 307.617 871.484 297.414 865.258 296.28C860.731 295.43 857.052 298.831 856.769 303.366C856.486 307.9 859.599 312.151 862.712 314.985C866.107 318.103 876.012 321.22 876.578 321.504C874.88 326.888 873.465 332.557 872.333 338.508C871.767 341.909 871.201 345.31 870.918 348.711C870.918 347.01 870.918 345.593 870.918 345.593C870.069 339.925 865.541 329.722 859.316 328.589C854.788 327.739 851.109 331.139 850.826 335.674C850.544 340.209 853.656 344.46 856.769 347.294C859.882 350.128 868.088 352.962 870.352 353.529C870.069 354.946 870.069 356.079 869.786 357.496C868.937 363.731 868.371 369.966 867.522 376.201C867.239 378.469 866.956 380.452 866.39 382.72C866.39 381.303 866.39 380.169 866.39 379.886C865.541 374.218 861.014 364.015 854.788 362.881C850.261 362.031 846.582 365.432 846.299 369.966C846.016 374.501 849.129 378.752 852.241 381.586C855.354 384.137 862.712 386.971 865.541 387.821C864.975 390.088 864.692 392.072 864.126 394.34C863.843 395.757 863.561 397.174 862.995 398.591C862.429 400.008 862.146 401.425 861.58 402.558C860.731 405.109 859.599 407.943 858.75 410.21C858.184 411.911 857.335 413.611 856.769 415.312C857.052 413.044 857.618 409.077 857.618 408.51C857.618 404.826 856.486 398.874 853.656 394.623C853.656 394.056 853.656 393.489 853.656 392.922C853.09 388.671 848.846 385.554 844.601 386.687C838.658 388.388 834.697 398.874 834.414 404.542C834.414 404.826 834.697 408.51 834.697 410.777C834.414 409.36 834.131 408.226 833.848 406.809C833.282 404.259 832.433 401.425 831.867 398.591C831.584 397.174 831.018 395.757 830.735 394.34C830.452 392.922 829.886 391.505 829.32 390.088C828.188 386.687 826.773 383.57 825.358 380.453C827.622 379.886 835.829 377.902 839.224 375.351C842.62 372.8 846.016 368.549 846.016 364.298C846.016 360.047 842.62 356.363 838.092 356.646C831.867 357.213 826.49 367.132 825.358 372.8C825.358 373.084 824.792 377.052 824.792 379.319C823.943 377.335 823.095 375.351 821.963 373.367C819.133 367.699 816.303 362.314 813.19 356.646C812.341 354.946 811.492 353.245 810.643 351.545C811.492 351.261 821.397 348.994 825.075 346.16C828.471 343.609 831.867 339.358 831.867 335.107C831.867 330.856 828.471 327.172 823.943 327.455C817.718 328.022 812.341 337.941 811.209 343.609C811.209 343.893 810.643 349.844 810.643 351.261C808.663 347.577 806.682 343.609 804.984 339.925C802.72 334.824 800.456 329.439 798.758 324.054C799.041 324.054 809.511 321.504 813.19 318.67C816.586 316.119 819.982 311.868 819.982 307.617C819.982 303.366 816.586 299.681 812.058 299.965C805.833 300.531 800.456 310.451 799.324 316.119C799.324 316.686 798.758 322.637 798.758 323.771C798.758 323.487 798.475 323.204 798.475 322.921C796.777 317.253 795.929 311.584 795.363 306.2C795.08 303.082 794.797 300.248 794.797 297.131C796.777 296.847 805.833 295.713 809.512 293.446C813.19 291.179 816.869 287.495 817.435 283.244C818.001 278.992 814.888 274.741 810.36 274.741C804.135 274.741 797.626 284.094 795.929 289.195C795.929 289.479 795.08 292.596 794.797 294.863C794.797 293.446 794.797 292.313 794.797 290.896C794.797 286.078 795.08 281.826 795.363 278.142C795.646 275.875 795.646 273.891 795.929 272.191C797.626 271.057 804.984 265.956 807.248 262.271C809.512 258.587 811.209 253.486 809.512 249.518C807.814 245.55 803.286 243.283 799.324 245.267C793.665 248.101 792.25 259.437 793.099 264.822C793.099 265.389 795.363 272.474 795.363 272.474C795.08 274.174 794.797 276.158 794.797 278.142C794.514 282.11 793.948 286.361 793.948 291.179C793.948 295.997 793.948 301.098 794.231 306.483C794.797 311.868 795.363 317.536 797.06 323.487C797.06 323.487 797.06 323.487 797.06 323.771C796.212 322.354 793.099 318.103 792.816 317.819C789.137 313.568 779.516 307.617 773.856 310.167C769.611 311.868 768.48 316.969 770.46 320.653C774.139 321.504 779.233 323.204 783.194 324.054Z" fill="#1A7F72"/>
<path d="M890.161 294.579C890.161 294.579 892.141 287.211 892.141 286.927C892.99 281.259 891.01 270.206 885.633 267.655C881.671 265.672 877.144 267.939 875.446 272.19C874.031 276.441 875.729 281.542 877.993 284.943C881.105 288.628 890.161 294.579 890.161 294.579Z" fill="#1A7F72"/>
<path d="M1005.62 202.188C1012.97 205.306 1030.8 205.022 1030.8 205.022C1031.08 205.022 1026.84 193.403 1026.56 192.552C1022.59 184.333 1010.14 170.73 1000.24 172.147C992.882 172.997 988.92 180.366 990.618 187.168C992.033 194.253 999.391 199.354 1005.62 202.188Z" fill="#1A7F72"/>
<path d="M1011.56 254.052C1019.2 255.186 1035.05 250.652 1036.46 250.085C1039.01 259.154 1042.4 267.939 1046.08 277.008C1048.35 282.11 1050.61 287.211 1053.16 292.312C1051.74 290.045 1050.33 288.345 1050.04 288.061C1044.1 281.26 1028.54 271.34 1019.2 275.308C1012.41 278.142 1010.43 286.361 1013.82 292.596C1017.22 298.831 1025.71 301.948 1032.22 303.082C1039.01 304.216 1052.59 300.531 1056.27 299.398C1057.12 301.382 1058.25 303.365 1059.1 305.066C1063.63 314.418 1068.44 323.487 1072.68 332.556C1074.1 335.674 1075.51 339.075 1076.93 342.192C1075.51 340.208 1074.66 338.791 1074.38 338.508C1068.44 331.706 1052.87 321.787 1043.54 325.755C1036.74 328.589 1034.76 336.808 1038.16 343.043C1041.55 349.277 1050.04 352.395 1056.55 353.529C1063.06 354.379 1075.79 351.261 1080.04 350.128C1081.45 353.529 1082.59 356.93 1083.72 360.047C1084.57 362.314 1085.42 364.582 1085.98 366.849C1086.55 369.116 1087.11 371.383 1087.96 373.651C1089.09 377.902 1090.23 382.436 1091.08 386.687C1091.64 389.521 1092.21 392.639 1092.77 395.473C1091.36 392.356 1088.25 386.121 1087.96 385.554C1083.15 377.902 1069.29 365.715 1059.38 368.266C1052.31 369.966 1049.19 377.902 1051.46 384.42C1054.01 391.222 1061.65 395.473 1068.15 397.457C1075.23 399.724 1091.08 397.74 1093.06 397.457C1093.91 402.275 1094.75 406.809 1095.6 411.06C1097.3 419.846 1098.43 428.065 1099.28 434.867H1105.79C1104.66 427.782 1103.24 419.279 1101.26 409.927C1100.41 405.109 1099.28 400.008 1098.15 394.623C1099.28 394.056 1106.07 391.505 1112.02 388.104C1117.11 393.773 1130.69 400.291 1132.39 401.141C1130.69 405.676 1128.71 409.927 1127.01 413.895C1123.62 421.547 1120.51 428.632 1117.68 434.583H1124.75C1127.3 429.199 1129.84 422.964 1132.67 416.162C1134.65 411.627 1136.35 406.809 1138.33 401.708C1140.31 401.991 1155.88 405.392 1163.24 403.692C1169.74 402.275 1177.95 398.307 1180.78 391.789C1183.61 385.27 1181.06 377.335 1173.99 375.068C1164.37 371.95 1149.65 382.72 1144.28 390.088C1143.99 390.655 1141.16 395.473 1139.18 398.874C1140.03 396.89 1140.6 394.906 1141.45 392.639C1142.86 388.388 1144.28 384.137 1145.97 379.602C1146.54 377.335 1147.39 375.068 1147.95 372.8C1148.8 370.533 1149.09 367.982 1149.65 365.715C1151.07 360.33 1151.92 354.662 1153.05 348.711C1156.73 350.128 1169.74 354.662 1176.82 354.095C1183.61 353.529 1192.1 351.261 1196.06 345.026C1200.02 339.075 1198.61 330.856 1192.1 327.455C1183.04 322.637 1166.91 331.423 1160.41 337.941C1160.12 338.225 1155.88 343.609 1153.61 346.443C1154.18 343.043 1154.75 339.642 1155.03 335.957C1156.16 325.755 1157.29 315.552 1158.14 305.349C1158.42 302.232 1158.71 299.114 1158.99 295.997C1160.41 296.564 1175.69 302.232 1183.33 301.665C1190.12 301.098 1198.61 298.831 1202.57 292.596C1206.53 286.644 1205.12 278.425 1198.61 275.025C1189.55 270.207 1173.42 278.992 1166.91 285.511C1166.35 286.078 1160.41 293.446 1158.99 295.43C1159.84 288.628 1160.41 281.543 1161.54 275.025C1162.95 265.672 1164.93 256.603 1167.48 248.101C1168.05 248.384 1184.18 254.336 1192.1 253.769C1198.89 253.202 1207.38 250.935 1211.34 244.7C1215.3 238.748 1213.89 230.53 1207.38 227.129C1198.32 222.311 1182.19 231.096 1175.69 237.615C1175.12 238.182 1168.89 246.117 1167.76 247.534C1168.05 246.967 1168.05 246.4 1168.05 245.834C1170.88 236.765 1174.84 228.262 1178.8 220.327C1181.06 215.792 1183.61 211.541 1186.16 207.573C1188.99 208.991 1202.29 215.509 1209.36 215.792C1216.15 216.076 1224.92 214.659 1229.45 208.991C1233.98 203.606 1233.41 195.104 1227.47 191.136C1218.98 185.468 1202 192.269 1194.65 197.938C1194.36 198.221 1190.68 201.905 1188.14 204.456C1189.27 202.756 1190.4 200.772 1191.53 199.071C1195.78 192.553 1200.02 186.885 1203.98 182.067C1206.25 179.233 1208.23 176.682 1210.21 174.415C1213.89 174.415 1228.32 173.848 1234.55 171.014C1240.77 168.18 1247.85 162.795 1249.26 155.71C1250.68 148.908 1246.43 141.539 1239.07 140.973C1228.89 139.839 1217 153.726 1213.32 162.228C1213.04 163.078 1209.36 174.698 1209.36 174.698H1209.64C1207.66 176.965 1205.68 179.233 1203.42 181.783C1199.46 186.601 1194.93 192.269 1190.68 198.504C1186.16 204.739 1181.63 211.825 1177.38 219.76C1173.14 227.695 1169.18 236.198 1166.07 245.267V245.55C1166.07 242.433 1166.07 234.214 1165.78 233.647C1164.65 224.578 1157.01 207.857 1147.11 205.873C1139.75 204.456 1133.81 210.124 1133.24 217.209C1132.67 224.295 1137.77 231.663 1142.86 236.198C1148.52 241.299 1164.37 246.4 1165.78 246.684C1162.95 255.469 1160.69 264.822 1158.99 274.458C1158.14 279.843 1157.29 285.511 1156.44 290.895C1156.44 288.345 1156.44 286.077 1156.44 285.794C1155.31 276.725 1147.67 260.004 1137.77 258.02C1130.41 256.603 1124.47 262.271 1123.9 269.356C1123.34 276.442 1128.43 283.81 1133.52 288.345C1138.62 292.879 1152.2 297.414 1155.59 298.547C1155.31 300.815 1155.03 302.799 1154.75 305.066C1153.61 315.269 1152.48 325.471 1150.78 335.391C1150.22 338.791 1149.65 342.476 1149.09 345.877C1149.09 343.609 1149.09 341.625 1149.09 341.342C1147.95 332.273 1140.31 315.552 1130.41 313.568C1123.05 312.151 1117.11 317.819 1116.54 324.904C1115.98 331.99 1121.07 339.358 1126.17 343.893C1130.98 348.144 1143.43 352.678 1147.67 353.812C1146.82 357.213 1146.26 360.897 1145.41 364.298C1144.84 366.565 1144.28 368.833 1143.43 371.1C1142.58 373.367 1142.01 375.634 1141.16 377.902C1139.75 382.153 1138.05 386.404 1136.35 390.655C1135.22 393.489 1134.09 396.323 1132.96 398.874C1133.52 395.473 1134.37 388.388 1134.37 387.821C1134.37 381.869 1132.39 371.95 1128.15 365.148C1128.15 364.298 1128.15 363.448 1127.86 362.598C1126.73 355.512 1120.22 350.411 1113.15 352.395C1103.24 354.946 1097.02 372.234 1096.45 381.303C1096.45 381.869 1096.74 387.821 1097.02 391.505C1096.45 389.238 1096.17 387.254 1095.6 384.987C1094.47 380.736 1093.34 376.201 1092.21 371.667C1091.64 369.399 1090.79 367.132 1090.23 364.865C1089.66 362.598 1088.53 360.33 1087.96 358.063C1085.98 352.678 1083.72 347.294 1081.45 342.192C1085.13 341.342 1098.72 337.941 1104.09 333.69C1109.47 329.439 1115.13 322.637 1115.13 315.552C1115.13 308.467 1109.47 302.515 1102.11 303.082C1091.92 304.216 1083.15 320.37 1081.45 329.156C1081.45 329.722 1080.61 336.241 1080.61 339.925C1079.19 336.808 1077.78 333.69 1076.08 330.289C1071.55 321.22 1066.74 312.151 1061.93 303.082C1060.51 300.248 1059.1 297.414 1057.68 294.58C1059.1 294.296 1075.23 290.612 1081.17 285.794C1086.55 281.543 1092.21 274.741 1092.21 267.656C1092.21 260.571 1086.55 254.619 1079.19 255.186C1069 256.32 1060.23 272.474 1058.53 281.26C1058.53 281.826 1057.68 291.462 1057.4 293.73C1054.29 287.495 1051.18 281.543 1048.35 275.308C1044.38 266.806 1040.99 258.02 1038.44 249.518C1039.01 249.234 1055.99 245.55 1062.21 240.732C1067.59 236.481 1073.25 229.679 1073.25 222.594C1073.25 215.509 1067.59 209.557 1060.23 210.124C1050.04 211.258 1041.27 227.412 1039.57 236.198C1039.29 236.765 1038.44 246.967 1038.44 248.951C1038.16 248.384 1038.16 247.817 1037.88 247.534C1035.05 238.465 1033.63 229.112 1032.78 220.327C1032.22 215.225 1031.93 210.408 1031.93 205.59C1035.05 205.306 1049.76 203.322 1055.99 199.638C1061.93 196.237 1068.15 190.002 1069 182.917C1069.85 175.832 1064.76 169.313 1057.4 169.313C1047.21 169.313 1036.74 184.334 1033.91 193.12C1033.63 193.686 1032.78 198.504 1031.93 202.189C1031.93 199.921 1031.93 197.938 1031.93 195.67C1031.93 188.018 1032.5 180.933 1032.78 174.698C1033.07 171.014 1033.35 167.896 1033.91 165.062C1036.74 163.078 1048.63 154.576 1052.31 148.625C1055.7 142.673 1058.82 134.454 1055.99 127.652C1053.44 121.134 1045.8 117.45 1039.29 120.851C1030.24 125.669 1027.97 143.807 1029.39 152.876C1029.39 153.726 1033.07 165.629 1033.07 165.346H1033.35C1033.07 168.18 1032.5 171.297 1032.22 174.698C1031.65 180.933 1031.08 188.018 1030.8 195.67C1030.52 203.322 1030.52 211.825 1031.37 220.61C1032.22 229.396 1033.35 238.748 1035.89 248.101V248.384C1034.2 245.834 1029.67 239.032 1029.1 238.465C1023.16 231.663 1007.6 221.744 998.259 225.712C991.467 228.546 989.486 236.765 992.882 242.999C996.561 249.801 1005.05 252.919 1011.56 254.052Z" fill="#1A7F72"/>
<path d="M1186.44 206.156C1186.72 206.156 1189.55 194.253 1189.84 193.403C1190.97 184.334 1188.14 166.196 1179.08 161.661C1172.57 158.544 1165.22 162.228 1162.67 169.03C1160.12 175.832 1163.24 184.05 1166.91 189.719C1171.16 196.52 1186.44 206.156 1186.44 206.156Z" fill="#1A7F72"/>
<path d="M1652.22 202.188C1659.58 205.306 1677.41 205.022 1677.41 205.022C1677.69 205.022 1673.45 193.403 1673.16 192.552C1669.2 184.333 1656.75 170.73 1646.85 172.147C1639.49 172.997 1635.53 180.366 1637.23 187.168C1638.92 194.253 1646 199.354 1652.22 202.188Z" fill="#1A7F72"/>
<path d="M1658.45 254.052C1666.09 255.186 1681.94 250.652 1683.35 250.085C1685.9 259.154 1689.29 267.939 1692.97 277.008C1695.24 282.11 1697.5 287.211 1700.05 292.312C1698.63 290.045 1697.22 288.345 1696.93 288.061C1690.99 281.26 1675.43 271.34 1666.09 275.308C1659.3 278.142 1657.32 286.361 1660.71 292.596C1664.11 298.831 1672.6 301.948 1679.11 303.082C1685.9 304.216 1699.48 300.531 1703.16 299.398C1704.01 301.382 1705.14 303.365 1705.99 305.066C1710.52 314.418 1715.33 323.487 1719.57 332.556C1720.99 335.674 1722.4 339.075 1723.82 342.192C1722.4 340.208 1721.55 338.791 1721.27 338.508C1715.33 331.706 1699.76 321.787 1690.43 325.755C1683.63 328.589 1681.65 336.808 1685.05 343.043C1688.44 349.277 1696.93 352.395 1703.44 353.529C1709.95 354.379 1722.69 351.261 1726.93 350.128C1728.34 353.529 1729.48 356.93 1730.61 360.047C1731.46 362.314 1732.31 364.582 1732.87 366.849C1733.44 369.116 1734 371.383 1734.85 373.651C1735.98 377.902 1737.12 382.436 1737.97 386.687C1738.53 389.521 1739.1 392.639 1739.66 395.473C1738.25 392.356 1735.14 386.121 1734.85 385.554C1730.04 377.902 1716.18 365.715 1706.27 368.266C1699.2 369.966 1696.08 377.902 1698.35 384.42C1700.9 391.222 1708.54 395.473 1715.04 397.457C1722.12 399.724 1737.97 397.74 1739.95 397.457C1740.8 402.275 1741.64 406.809 1742.49 411.06C1744.19 419.846 1745.32 428.065 1746.17 434.867H1752.68C1751.55 427.782 1750.13 419.279 1748.15 409.927C1747.3 405.109 1746.17 400.008 1745.04 394.623C1746.17 394.056 1752.96 391.505 1758.91 388.104C1764 393.773 1777.58 400.291 1779.28 401.141C1777.58 405.676 1775.6 409.927 1773.9 413.895C1770.51 421.547 1767.4 428.632 1764.57 434.583H1771.64C1774.19 429.199 1776.73 422.964 1779.56 416.162C1781.54 411.627 1783.24 406.809 1785.22 401.708C1787.2 401.991 1802.77 405.392 1810.13 403.692C1816.63 402.275 1824.84 398.307 1827.67 391.789C1830.5 385.27 1827.95 377.335 1820.88 375.068C1811.26 371.95 1796.54 382.72 1791.17 390.088C1790.88 390.655 1788.05 395.473 1786.07 398.874C1786.92 396.89 1787.49 394.906 1788.34 392.639C1789.75 388.388 1791.17 384.137 1792.86 379.602C1793.43 377.335 1794.28 375.068 1794.84 372.8C1795.69 370.533 1795.98 367.982 1796.54 365.715C1797.96 360.33 1798.81 354.662 1799.94 348.711C1803.62 350.128 1816.63 354.662 1823.71 354.095C1830.5 353.529 1838.99 351.261 1842.95 345.026C1846.91 339.075 1845.5 330.856 1838.99 327.455C1829.93 322.637 1813.8 331.423 1807.3 337.941C1807.01 338.225 1802.77 343.609 1800.5 346.443C1801.07 343.043 1801.64 339.642 1801.92 335.957C1803.05 325.755 1804.18 315.552 1805.03 305.349C1805.31 302.232 1805.6 299.114 1805.88 295.997C1807.3 296.564 1822.58 302.232 1830.22 301.665C1837.01 301.098 1845.5 298.831 1849.46 292.596C1853.42 286.644 1852.01 278.425 1845.5 275.025C1836.44 270.207 1820.31 278.992 1813.8 285.511C1813.24 286.078 1807.3 293.446 1805.88 295.43C1806.73 288.628 1807.3 281.543 1808.43 275.025C1809.84 265.672 1811.82 256.603 1814.37 248.101C1814.94 248.384 1831.07 254.336 1838.99 253.769C1845.78 253.202 1854.27 250.935 1858.23 244.7C1862.19 238.748 1860.78 230.53 1854.27 227.129C1845.21 222.311 1829.09 231.096 1822.58 237.615C1822.01 238.182 1815.79 246.117 1814.65 247.534C1814.94 246.967 1814.94 246.4 1814.94 245.834C1817.77 236.765 1821.73 228.262 1825.69 220.327C1827.95 215.792 1830.5 211.541 1833.05 207.573C1835.88 208.991 1849.18 215.509 1856.25 215.792C1863.04 216.076 1871.81 214.659 1876.34 208.991C1880.87 203.606 1880.3 195.104 1874.36 191.136C1865.87 185.468 1848.89 192.269 1841.54 197.938C1841.25 198.221 1837.57 201.905 1835.03 204.456C1836.16 202.756 1837.29 200.772 1838.42 199.071C1842.67 192.553 1846.91 186.885 1850.87 182.067C1853.14 179.233 1855.12 176.682 1857.1 174.415C1860.78 174.415 1875.21 173.848 1881.44 171.014C1887.66 168.18 1894.74 162.795 1896.15 155.71C1897.57 148.908 1893.32 141.539 1885.96 140.973C1875.78 139.839 1863.89 153.726 1860.21 162.228C1859.93 163.078 1856.25 174.698 1856.25 174.698H1856.53C1854.55 176.965 1852.57 179.233 1850.31 181.783C1846.35 186.601 1841.82 192.269 1837.57 198.504C1833.05 204.739 1828.52 211.825 1824.27 219.76C1820.03 227.695 1816.07 236.198 1812.96 245.267V245.55C1812.96 242.433 1812.96 234.214 1812.67 233.647C1811.54 224.578 1803.9 207.857 1794 205.873C1786.64 204.456 1780.7 210.124 1780.13 217.209C1779.56 224.295 1784.66 231.663 1789.75 236.198C1795.41 241.299 1811.26 246.4 1812.67 246.684C1809.84 255.469 1807.58 264.822 1805.88 274.458C1805.03 279.843 1804.18 285.511 1803.33 290.895C1803.33 288.345 1803.33 286.077 1803.33 285.794C1802.2 276.725 1794.56 260.004 1784.66 258.02C1777.3 256.603 1771.36 262.271 1770.79 269.356C1770.23 276.442 1775.32 283.81 1780.41 288.345C1785.51 292.879 1799.09 297.414 1802.49 298.547C1802.2 300.815 1801.92 302.799 1801.64 305.066C1800.5 315.269 1799.37 325.471 1797.67 335.391C1797.11 338.791 1796.54 342.476 1795.98 345.877C1795.98 343.609 1795.98 341.625 1795.98 341.342C1794.84 332.273 1787.2 315.552 1777.3 313.568C1769.94 312.151 1764 317.819 1763.43 324.904C1762.87 331.99 1767.96 339.358 1773.06 343.893C1777.87 348.144 1790.32 352.678 1794.56 353.812C1793.71 357.213 1793.15 360.897 1792.3 364.298C1791.73 366.565 1791.17 368.833 1790.32 371.1C1789.47 373.367 1788.9 375.634 1788.05 377.902C1786.64 382.153 1784.94 386.404 1783.24 390.655C1782.11 393.489 1780.98 396.323 1779.85 398.874C1780.41 395.473 1781.26 388.388 1781.26 387.821C1781.26 381.869 1779.28 371.95 1775.04 365.148C1775.04 364.298 1775.04 363.448 1774.75 362.598C1773.62 355.512 1767.11 350.411 1760.04 352.395C1750.13 354.946 1743.91 372.234 1743.34 381.303C1743.34 381.869 1743.63 387.821 1743.91 391.505C1743.34 389.238 1743.06 387.254 1742.49 384.987C1741.36 380.736 1740.23 376.201 1739.1 371.667C1738.53 369.399 1737.68 367.132 1737.12 364.865C1736.55 362.598 1735.42 360.33 1734.85 358.063C1732.87 352.678 1730.61 347.294 1728.34 342.192C1732.02 341.342 1745.61 337.941 1750.98 333.69C1756.36 329.439 1762.02 322.637 1762.02 315.552C1762.02 308.467 1756.36 302.515 1749 303.082C1738.81 304.216 1730.04 320.37 1728.34 329.156C1728.34 329.722 1727.5 336.241 1727.5 339.925C1726.08 336.808 1724.67 333.69 1722.97 330.289C1718.44 321.22 1713.63 312.151 1708.82 303.082C1707.4 300.248 1705.99 297.414 1704.57 294.58C1705.99 294.296 1722.12 290.612 1728.06 285.794C1733.44 281.543 1739.1 274.741 1739.1 267.656C1739.1 260.571 1733.44 254.619 1726.08 255.186C1715.89 256.32 1707.12 272.474 1705.42 281.26C1705.42 281.826 1704.57 291.462 1704.29 293.73C1701.18 287.495 1698.07 281.543 1695.24 275.308C1691.27 266.806 1687.88 258.02 1685.33 249.518C1685.9 249.234 1702.88 245.55 1709.1 240.732C1714.48 236.481 1720.14 229.679 1720.14 222.594C1720.14 215.509 1714.48 209.557 1707.12 210.124C1696.93 211.258 1688.16 227.412 1686.46 236.198C1686.18 236.765 1685.33 246.967 1685.33 248.951C1685.05 248.384 1685.05 247.817 1684.77 247.534C1681.94 238.465 1680.52 229.112 1679.67 220.327C1679.11 215.225 1678.82 210.408 1678.82 205.59C1681.94 205.306 1696.65 203.322 1702.88 199.638C1708.82 196.237 1715.04 190.002 1715.89 182.917C1716.74 175.832 1711.65 169.313 1704.29 169.313C1694.1 169.313 1683.63 184.334 1680.8 193.12C1680.52 193.686 1679.67 198.504 1678.82 202.189C1678.82 199.921 1678.82 197.938 1678.82 195.67C1678.82 188.018 1679.39 180.933 1679.67 174.698C1679.96 171.014 1680.24 167.896 1680.8 165.062C1683.63 163.078 1695.52 154.576 1699.2 148.625C1702.59 142.673 1705.71 134.454 1702.88 127.652C1700.33 121.134 1692.69 117.45 1686.18 120.851C1677.13 125.669 1674.86 143.807 1676.28 152.876C1676.28 153.726 1679.96 165.629 1679.96 165.346H1680.24C1679.96 168.18 1679.39 171.297 1679.11 174.698C1678.54 180.933 1677.97 188.018 1677.69 195.67C1677.41 203.322 1677.41 211.825 1678.26 220.61C1679.11 229.396 1680.24 238.748 1682.78 248.101V248.384C1681.09 245.834 1676.56 239.032 1675.99 238.465C1670.05 231.663 1654.49 221.744 1645.15 225.712C1638.36 228.546 1636.38 236.765 1639.77 242.999C1643.45 249.801 1651.66 252.919 1658.45 254.052Z" fill="#1A7F72"/>
<path d="M1833.05 206.156C1833.33 206.156 1836.16 194.253 1836.44 193.403C1837.57 184.334 1834.74 166.196 1825.69 161.661C1819.18 158.544 1811.82 162.228 1809.28 169.03C1806.73 175.832 1809.84 184.05 1813.52 189.719C1818.05 196.52 1833.05 206.156 1833.05 206.156Z" fill="#1A7F72"/>
<path d="M1301.9 202.188C1309.25 205.306 1327.08 205.022 1327.08 205.022C1327.36 205.022 1323.12 193.403 1322.84 192.552C1318.87 184.333 1306.42 170.73 1296.52 172.147C1289.16 172.997 1285.2 180.366 1286.9 187.168C1288.6 194.253 1295.67 199.354 1301.9 202.188Z" fill="#1A7F72"/>
<path d="M1308.12 254.052C1315.76 255.186 1331.61 250.652 1333.02 250.085C1335.57 259.154 1338.97 267.939 1342.64 277.008C1344.91 282.11 1347.17 287.211 1349.72 292.312C1348.3 290.045 1346.89 288.345 1346.61 288.061C1340.66 281.26 1325.1 271.34 1315.76 275.308C1308.97 278.142 1306.99 286.361 1310.38 292.596C1313.78 298.831 1322.27 301.948 1328.78 303.082C1335.57 304.216 1349.15 300.531 1352.83 299.398C1353.68 301.382 1354.81 303.365 1355.66 305.066C1360.19 314.418 1365 323.487 1369.24 332.556C1370.66 335.674 1372.07 339.075 1373.49 342.192C1372.07 340.208 1371.22 338.791 1370.94 338.508C1365 331.706 1349.44 321.787 1340.1 325.755C1333.31 328.589 1331.32 336.808 1334.72 343.043C1338.12 349.277 1346.61 352.395 1353.11 353.529C1359.62 354.379 1372.36 351.261 1376.6 350.128C1378.02 353.529 1379.15 356.93 1380.28 360.047C1381.13 362.314 1381.98 364.582 1382.54 366.849C1383.11 369.116 1383.68 371.383 1384.53 373.651C1385.66 377.902 1386.79 382.436 1387.64 386.687C1388.2 389.521 1388.77 392.639 1389.34 395.473C1387.92 392.356 1384.81 386.121 1384.53 385.554C1379.71 377.902 1365.85 365.715 1355.94 368.266C1348.87 369.966 1345.76 377.902 1348.02 384.42C1350.57 391.222 1358.21 395.473 1364.72 397.457C1371.79 399.724 1387.64 397.74 1389.62 397.457C1390.47 402.275 1391.32 406.809 1392.17 411.06C1393.86 419.846 1395 428.065 1395.84 434.867H1402.35C1401.22 427.782 1399.81 419.279 1397.83 409.927C1396.98 405.109 1395.84 400.008 1394.71 394.623C1395.84 394.056 1402.64 391.505 1408.58 388.104C1413.67 393.773 1427.25 400.291 1428.95 401.141C1427.25 405.676 1425.27 409.927 1423.58 413.895C1420.18 421.547 1417.07 428.632 1414.24 434.583H1421.31C1423.86 429.199 1426.41 422.964 1429.24 416.162C1431.22 411.627 1432.91 406.809 1434.9 401.708C1436.88 401.991 1452.44 405.392 1459.8 403.692C1466.31 402.275 1474.51 398.307 1477.34 391.789C1480.17 385.27 1477.63 377.335 1470.55 375.068C1460.93 371.95 1446.21 382.72 1440.84 390.088C1440.55 390.655 1437.73 395.473 1435.74 398.874C1436.59 396.89 1437.16 394.906 1438.01 392.639C1439.42 388.388 1440.84 384.137 1442.54 379.602C1443.1 377.335 1443.95 375.068 1444.52 372.8C1445.37 370.533 1445.65 367.982 1446.21 365.715C1447.63 360.33 1448.48 354.662 1449.61 348.711C1453.29 350.128 1466.31 354.662 1473.38 354.095C1480.17 353.529 1488.66 351.261 1492.62 345.026C1496.58 339.075 1495.17 330.856 1488.66 327.455C1479.61 322.637 1463.48 331.423 1456.97 337.941C1456.68 338.225 1452.44 343.609 1450.18 346.443C1450.74 343.043 1451.31 339.642 1451.59 335.957C1452.72 325.755 1453.85 315.552 1454.7 305.349C1454.99 302.232 1455.27 299.114 1455.55 295.997C1456.97 296.564 1472.25 302.232 1479.89 301.665C1486.68 301.098 1495.17 298.831 1499.13 292.596C1503.09 286.644 1501.68 278.425 1495.17 275.025C1486.11 270.207 1469.98 278.992 1463.48 285.511C1462.91 286.078 1456.97 293.446 1455.55 295.43C1456.4 288.628 1456.97 281.543 1458.1 275.025C1459.51 265.672 1461.5 256.603 1464.04 248.101C1464.61 248.384 1480.74 254.336 1488.66 253.769C1495.45 253.202 1503.94 250.935 1507.9 244.7C1511.87 238.748 1510.45 230.53 1503.94 227.129C1494.89 222.311 1478.76 231.096 1472.25 237.615C1471.68 238.182 1465.46 246.117 1464.33 247.534C1464.61 246.967 1464.61 246.4 1464.61 245.834C1467.44 236.765 1471.4 228.262 1475.36 220.327C1477.63 215.792 1480.17 211.541 1482.72 207.573C1485.55 208.991 1498.85 215.509 1505.92 215.792C1512.71 216.076 1521.49 214.659 1526.01 208.991C1530.54 203.606 1529.98 195.104 1524.03 191.136C1515.54 185.468 1498.57 192.269 1491.21 197.938C1490.93 198.221 1487.25 201.905 1484.7 204.456C1485.83 202.756 1486.96 200.772 1488.1 199.071C1492.34 192.553 1496.58 186.885 1500.55 182.067C1502.81 179.233 1504.79 176.682 1506.77 174.415C1510.45 174.415 1524.88 173.848 1531.11 171.014C1537.33 168.18 1544.41 162.795 1545.82 155.71C1547.24 148.908 1542.99 141.539 1535.64 140.973C1525.45 139.839 1513.56 153.726 1509.88 162.228C1509.6 163.078 1505.92 174.698 1505.92 174.698H1506.21C1504.23 176.965 1502.24 179.233 1499.98 181.783C1496.02 186.601 1491.49 192.269 1487.25 198.504C1482.72 204.739 1478.19 211.825 1473.95 219.76C1469.7 227.695 1465.74 236.198 1462.63 245.267V245.55C1462.63 242.433 1462.63 234.214 1462.34 233.647C1461.21 224.578 1453.57 207.857 1443.67 205.873C1436.31 204.456 1430.37 210.124 1429.8 217.209C1429.24 224.295 1434.33 231.663 1439.42 236.198C1445.08 241.299 1460.93 246.4 1462.34 246.684C1459.51 255.469 1457.25 264.822 1455.55 274.458C1454.7 279.843 1453.85 285.511 1453.01 290.895C1453.01 288.345 1453.01 286.077 1453.01 285.794C1451.87 276.725 1444.23 260.004 1434.33 258.02C1426.97 256.603 1421.03 262.271 1420.46 269.356C1419.9 276.442 1424.99 283.81 1430.08 288.345C1435.18 292.879 1448.76 297.414 1452.16 298.547C1451.87 300.815 1451.59 302.799 1451.31 305.066C1450.18 315.269 1449.04 325.471 1447.35 335.391C1446.78 338.791 1446.21 342.476 1445.65 345.877C1445.65 343.609 1445.65 341.625 1445.65 341.342C1444.52 332.273 1436.88 315.552 1426.97 313.568C1419.61 312.151 1413.67 317.819 1413.11 324.904C1412.54 331.99 1417.63 339.358 1422.73 343.893C1427.54 348.144 1439.99 352.678 1444.23 353.812C1443.38 357.213 1442.82 360.897 1441.97 364.298C1441.4 366.565 1440.84 368.833 1439.99 371.1C1439.14 373.367 1438.57 375.634 1437.73 377.902C1436.31 382.153 1434.61 386.404 1432.91 390.655C1431.78 393.489 1430.65 396.323 1429.52 398.874C1430.08 395.473 1430.93 388.388 1430.93 387.821C1430.93 381.869 1428.95 371.95 1424.71 365.148C1424.71 364.298 1424.71 363.448 1424.43 362.598C1423.29 355.512 1416.78 350.411 1409.71 352.395C1399.81 354.946 1393.58 372.234 1393.01 381.303C1393.01 381.869 1393.3 387.821 1393.58 391.505C1393.01 389.238 1392.73 387.254 1392.17 384.987C1391.03 380.736 1389.9 376.201 1388.77 371.667C1388.2 369.399 1387.35 367.132 1386.79 364.865C1386.22 362.598 1385.09 360.33 1384.53 358.063C1382.54 352.678 1380.28 347.294 1378.02 342.192C1381.7 341.342 1395.28 337.941 1400.65 333.69C1406.03 329.439 1411.69 322.637 1411.69 315.552C1411.69 308.467 1406.03 302.515 1398.67 303.082C1388.49 304.216 1379.71 320.37 1378.02 329.156C1378.02 329.722 1377.17 336.241 1377.17 339.925C1375.75 336.808 1374.34 333.69 1372.64 330.289C1368.11 321.22 1363.3 312.151 1358.49 303.082C1357.08 300.248 1355.66 297.414 1354.25 294.58C1355.66 294.296 1371.79 290.612 1377.73 285.794C1383.11 281.543 1388.77 274.741 1388.77 267.656C1388.77 260.571 1383.11 254.619 1375.75 255.186C1365.57 256.32 1356.79 272.474 1355.1 281.26C1355.1 281.826 1354.25 291.462 1353.96 293.73C1350.85 287.495 1347.74 281.543 1344.91 275.308C1340.95 266.806 1337.55 258.02 1335 249.518C1335.57 249.234 1352.55 245.55 1358.77 240.732C1364.15 236.481 1369.81 229.679 1369.81 222.594C1369.81 215.509 1364.15 209.557 1356.79 210.124C1346.61 211.258 1337.83 227.412 1336.14 236.198C1335.85 236.765 1335 246.967 1335 248.951C1334.72 248.384 1334.72 247.817 1334.44 247.534C1331.61 238.465 1330.19 229.112 1329.34 220.327C1328.78 215.225 1328.5 210.408 1328.5 205.59C1331.61 205.306 1346.32 203.322 1352.55 199.638C1358.49 196.237 1364.72 190.002 1365.57 182.917C1366.41 175.832 1361.32 169.313 1353.96 169.313C1343.78 169.313 1333.31 184.334 1330.48 193.12C1330.19 193.686 1329.34 198.504 1328.5 202.189C1328.5 199.921 1328.5 197.938 1328.5 195.67C1328.5 188.018 1329.06 180.933 1329.34 174.698C1329.63 171.014 1329.91 167.896 1330.48 165.062C1333.31 163.078 1345.19 154.576 1348.87 148.625C1352.27 142.673 1355.38 134.454 1352.55 127.652C1350 121.134 1342.36 117.45 1335.85 120.851C1326.8 125.669 1324.53 143.807 1325.95 152.876C1325.95 153.726 1329.63 165.629 1329.63 165.346H1329.91C1329.63 168.18 1329.06 171.297 1328.78 174.698C1328.21 180.933 1327.65 188.018 1327.36 195.67C1327.08 203.322 1327.08 211.825 1327.93 220.61C1328.78 229.396 1329.91 238.748 1332.46 248.101V248.384C1330.76 245.834 1326.23 239.032 1325.67 238.465C1319.72 231.663 1304.16 221.744 1294.82 225.712C1288.03 228.546 1286.05 236.765 1289.44 242.999C1293.12 249.801 1301.33 252.919 1308.12 254.052Z" fill="#1A7F72"/>
<path d="M1483 206.156C1483.28 206.156 1486.11 194.253 1486.4 193.403C1487.53 184.334 1484.7 166.196 1475.64 161.661C1469.14 158.544 1461.78 162.228 1459.23 169.03C1456.68 175.832 1459.8 184.05 1463.48 189.719C1467.72 196.52 1482.72 206.156 1483 206.156Z" fill="#1A7F72"/>
<path d="M1489.51 290.044C1494.04 292.028 1505.07 291.745 1505.07 291.745C1505.07 291.745 1502.81 284.376 1502.53 284.093C1499.98 278.992 1492.34 270.489 1486.11 271.34C1481.59 271.906 1479.04 276.441 1480.17 280.692C1481.3 285.226 1485.55 288.344 1489.51 290.044Z" fill="#1A7F72"/>
<path d="M1493.47 322.353C1498.28 322.92 1508.19 320.086 1508.75 319.803C1510.45 325.471 1512.43 330.856 1514.7 336.524C1516.11 339.641 1517.53 342.759 1518.94 345.876C1518.09 344.459 1517.24 343.326 1516.96 343.326C1513.28 339.075 1503.66 332.84 1497.72 335.39C1493.47 337.091 1492.34 342.192 1494.32 346.16C1496.58 350.127 1501.68 352.111 1505.92 352.678C1510.17 353.245 1518.66 350.978 1520.92 350.411C1521.49 351.545 1522.05 352.678 1522.62 354.095C1525.45 359.763 1528.28 365.432 1531.11 371.1C1531.96 373.084 1532.81 375.067 1533.65 377.051C1532.81 375.918 1532.24 374.784 1531.96 374.784C1528.28 370.533 1518.66 364.298 1512.71 366.849C1508.47 368.549 1507.34 373.65 1509.32 377.618C1511.58 381.586 1516.68 383.57 1520.92 384.136C1524.88 384.703 1532.81 382.719 1535.64 381.869C1536.48 383.853 1537.33 386.12 1537.9 388.104C1538.47 389.521 1538.75 390.938 1539.31 392.355C1539.6 393.772 1540.16 395.189 1540.45 396.606C1541.01 399.44 1541.86 401.991 1542.43 404.825C1542.71 406.809 1543.28 408.51 1543.56 410.21C1542.71 408.226 1540.73 404.258 1540.45 403.975C1537.33 399.157 1528.84 391.788 1522.62 393.206C1518.09 394.339 1516.11 399.157 1517.81 403.125C1519.22 407.376 1524.03 409.927 1528.28 411.344C1532.81 412.761 1542.43 411.344 1543.84 411.344C1544.41 414.178 1544.97 417.295 1545.54 419.846C1546.39 425.231 1547.24 430.332 1547.8 434.583H1552.05C1551.48 430.049 1550.35 424.947 1549.22 418.996C1548.65 415.878 1548.09 412.761 1547.24 409.643C1548.09 409.36 1552.05 407.659 1556.01 405.675C1559.12 409.076 1567.61 413.327 1568.74 413.894C1567.61 416.728 1566.48 419.279 1565.35 421.83C1563.37 426.648 1561.39 430.899 1559.41 434.583H1563.93C1565.35 431.182 1567.05 427.498 1568.74 423.247C1569.88 420.413 1571.01 417.295 1572.14 414.178C1573.27 414.461 1583.18 416.445 1587.7 415.311C1591.95 414.461 1596.76 411.91 1598.74 407.943C1600.44 403.975 1599.02 399.157 1594.5 397.457C1588.55 395.473 1579.21 402.275 1576.1 406.809C1575.82 407.092 1574.12 410.21 1572.99 412.194C1573.55 410.777 1573.84 409.643 1574.4 408.226C1575.25 405.675 1576.1 402.841 1577.23 400.007C1577.52 398.59 1578.08 397.173 1578.37 395.756C1578.93 394.339 1579.21 392.922 1579.5 391.505C1580.35 388.104 1580.91 384.42 1581.48 381.019C1583.74 381.869 1591.95 384.703 1596.19 384.42C1600.44 384.136 1605.81 382.436 1608.08 378.752C1610.34 375.067 1609.49 369.966 1605.53 367.982C1599.87 365.148 1589.68 370.533 1585.72 374.501C1585.44 374.784 1582.89 377.901 1581.48 379.602C1581.76 377.335 1582.04 375.351 1582.33 373.084C1583.18 366.849 1583.74 360.33 1584.31 354.095C1584.59 352.111 1584.59 350.127 1584.87 348.144C1585.72 348.427 1595.34 352.111 1600.15 351.828C1604.4 351.545 1609.78 349.844 1612.04 346.16C1614.3 342.475 1613.45 337.374 1609.49 335.39C1603.83 332.556 1593.65 337.941 1589.68 341.909C1589.4 342.192 1585.72 346.727 1584.87 348.144C1585.44 343.892 1585.72 339.641 1586.57 335.39C1587.42 329.722 1588.55 324.054 1590.25 318.669C1590.53 318.953 1600.72 322.637 1605.53 322.353C1609.78 322.07 1615.15 320.37 1617.42 316.685C1619.68 313.001 1618.83 307.9 1614.87 305.916C1609.21 303.082 1599.02 308.466 1595.06 312.434C1594.78 312.718 1590.82 317.819 1590.25 318.669C1590.25 318.386 1590.53 318.102 1590.53 317.819C1592.23 312.151 1594.78 306.766 1597.04 301.948C1598.46 299.114 1600.15 296.563 1601.57 294.013C1603.27 294.863 1611.76 298.831 1616 299.114C1620.25 299.397 1625.62 298.264 1628.45 294.863C1631.28 291.462 1631 286.361 1627.04 283.81C1621.66 280.409 1611.19 284.377 1606.66 288.061C1606.38 288.345 1604.12 290.612 1602.7 292.029C1603.55 290.895 1604.12 289.762 1604.97 288.628C1607.51 284.66 1610.34 281.259 1612.61 278.142C1614.02 276.441 1615.15 274.741 1616.57 273.324C1618.83 273.324 1627.89 273.04 1631.57 271.057C1635.53 269.356 1639.77 265.955 1640.62 261.421C1641.47 257.17 1638.92 252.635 1634.4 252.068C1628.17 251.501 1620.53 260.004 1618.27 265.105C1617.98 265.672 1615.72 272.757 1616 272.757C1614.87 274.174 1613.45 275.591 1612.32 277.292C1609.78 280.409 1607.23 283.81 1604.4 287.778C1601.57 291.745 1598.74 295.997 1596.19 300.814C1593.65 305.632 1591.1 311.017 1589.12 316.685C1589.12 316.685 1589.12 316.685 1589.12 316.969C1589.12 314.985 1589.12 309.884 1589.12 309.6C1588.27 303.932 1583.74 293.446 1577.52 292.312C1572.99 291.462 1569.31 294.863 1568.74 299.397C1568.46 303.932 1571.57 308.183 1574.69 311.017C1578.37 314.135 1587.99 317.252 1588.84 317.536C1587.14 322.92 1585.72 328.872 1584.59 334.823C1584.03 338.224 1583.46 341.625 1582.89 345.026C1582.89 343.326 1582.89 341.909 1582.89 341.909C1582.04 336.24 1577.52 325.754 1571.29 324.621C1566.76 323.771 1563.08 327.171 1562.52 331.706C1562.24 336.24 1565.35 340.492 1568.46 343.326C1571.57 346.16 1580.06 348.994 1582.33 349.561C1582.04 350.978 1582.04 352.111 1581.76 353.528C1580.91 359.763 1580.35 366.282 1579.5 372.517C1579.21 374.784 1578.65 376.768 1578.37 379.035C1578.37 377.618 1578.37 376.484 1578.37 376.201C1577.52 370.533 1572.99 360.047 1566.76 358.913C1562.24 358.063 1558.56 361.464 1557.99 365.998C1557.71 370.533 1560.82 374.784 1563.93 377.618C1567.05 380.452 1574.69 383.003 1577.23 383.853C1576.67 386.12 1576.38 388.104 1575.82 390.371C1575.54 391.788 1575.25 393.206 1574.69 394.623C1574.12 396.04 1573.84 397.457 1573.27 398.874C1572.42 401.424 1571.29 404.258 1570.44 406.809C1569.88 408.51 1569.03 410.21 1568.46 411.91C1568.74 409.643 1569.31 405.392 1569.31 405.109C1569.31 401.424 1568.18 395.189 1565.35 390.938C1565.35 390.371 1565.35 389.805 1565.35 389.238C1564.78 384.987 1560.54 381.586 1556.29 383.003C1550.07 384.703 1546.39 395.473 1546.11 401.141C1546.11 401.424 1546.39 405.109 1546.39 407.376C1546.11 405.959 1545.82 404.825 1545.54 403.408C1544.97 400.574 1544.13 398.023 1543.28 395.189C1542.99 393.772 1542.43 392.355 1542.14 390.938C1541.86 389.521 1541.3 388.104 1540.73 386.687C1539.6 383.286 1538.18 380.169 1536.77 376.768C1539.03 376.201 1547.52 373.934 1550.92 371.383C1554.31 368.832 1557.71 364.581 1557.71 360.047C1557.71 355.796 1554.03 351.828 1549.5 352.395C1543.28 352.962 1537.62 363.164 1536.48 368.549C1536.48 368.832 1535.92 373.084 1535.92 375.067C1535.07 373.084 1534.22 371.1 1533.09 369.116C1530.26 363.448 1527.15 357.779 1524.32 352.111C1523.47 350.411 1522.62 348.71 1521.49 347.01C1522.34 346.727 1532.24 344.459 1536.2 341.625C1539.6 339.075 1542.99 334.823 1542.99 330.289C1542.99 326.038 1539.31 322.07 1534.79 322.637C1528.56 323.204 1522.9 333.406 1521.77 338.791C1521.77 339.075 1521.2 345.026 1521.2 346.443C1519.22 342.759 1517.24 338.791 1515.54 334.823C1513 329.439 1511.02 324.054 1509.32 318.953C1509.6 318.953 1520.07 316.402 1524.03 313.568C1527.43 311.017 1530.83 306.766 1530.83 302.232C1530.83 297.98 1527.15 294.013 1522.62 294.579C1516.39 295.146 1510.73 305.349 1509.6 310.734C1509.6 311.301 1509.04 317.536 1509.04 318.669C1509.04 318.386 1508.75 318.102 1508.75 317.819C1507.05 312.151 1506.21 306.483 1505.64 300.814C1505.36 297.697 1505.07 294.579 1505.07 291.745C1507.05 291.462 1516.11 290.328 1520.07 288.061C1523.75 285.794 1527.71 282.11 1528 277.575C1528.56 273.324 1525.45 269.073 1520.92 269.073C1514.7 269.073 1508.19 278.425 1506.21 283.81C1506.21 284.093 1505.36 287.211 1505.07 289.478C1505.07 288.061 1505.07 286.644 1505.07 285.51C1505.07 280.692 1505.36 276.441 1505.64 272.474C1505.92 270.206 1505.92 268.223 1506.21 266.522C1507.9 265.388 1515.26 260.004 1517.53 256.319C1519.79 252.635 1521.49 247.534 1519.79 243.283C1518.09 239.315 1513.56 237.048 1509.6 239.032C1503.94 241.866 1502.53 253.202 1503.38 258.87C1503.38 259.437 1505.64 266.805 1505.64 266.805C1505.36 268.506 1505.07 270.49 1504.79 272.474C1504.51 276.441 1503.94 280.692 1503.94 285.51C1503.94 290.328 1503.94 295.43 1504.23 301.098C1504.79 306.483 1505.64 312.434 1507.05 318.386C1507.05 318.386 1507.05 318.386 1507.05 318.669C1505.92 316.969 1503.09 312.718 1502.81 312.434C1499.13 308.183 1489.51 301.948 1483.57 304.499C1479.32 306.199 1478.19 311.301 1480.17 315.268C1484.13 319.803 1489.23 321.787 1493.47 322.353Z" fill="#1A7F72"/>
<path d="M1601.85 292.596C1601.85 292.596 1603.83 285.227 1603.83 284.66C1604.68 278.992 1602.7 267.656 1597.04 265.105C1592.8 263.121 1588.27 265.389 1586.85 269.64C1585.44 273.891 1587.14 278.992 1589.68 282.676C1592.51 286.644 1601.85 292.596 1601.85 292.596Z" fill="#1A7F72"/>
<path d="M584.543 202.188C591.901 205.306 609.728 205.022 609.728 205.022C610.011 205.022 605.767 193.403 605.484 192.552C601.522 184.333 589.071 170.73 579.167 172.147C571.809 172.997 567.847 180.366 569.545 187.168C570.96 194.253 578.318 199.354 584.543 202.188Z" fill="#1A7F72"/>
<path d="M590.769 254.052C598.409 255.186 614.256 250.652 615.671 250.085C618.218 259.154 621.613 267.939 625.292 277.008C627.556 282.11 629.82 287.211 632.367 292.312C630.952 290.045 629.537 288.345 629.254 288.061C623.311 281.26 607.747 271.34 598.409 275.308C591.618 278.142 589.637 286.361 593.033 292.596C596.428 298.831 604.918 301.948 611.426 303.082C618.218 304.216 631.801 300.531 635.479 299.398C636.328 301.382 637.46 303.365 638.309 305.066C642.837 314.418 647.648 323.487 651.892 332.556C653.307 335.674 654.722 339.075 656.137 342.192C654.722 340.208 653.873 338.791 653.59 338.508C647.647 331.706 632.084 321.787 622.745 325.755C615.954 328.589 613.973 336.808 617.369 343.043C620.765 349.277 629.254 352.395 635.762 353.529C642.271 354.379 655.005 351.261 659.25 350.128C660.665 353.529 661.796 356.93 662.928 360.047C663.777 362.314 664.626 364.582 665.192 366.849C665.758 369.116 666.324 371.383 667.173 373.651C668.305 377.902 669.437 382.436 670.286 386.687C670.852 389.521 671.418 392.639 671.984 395.473C670.569 392.356 667.456 386.121 667.173 385.554C662.362 377.902 648.496 365.715 638.592 368.266C631.518 369.966 628.405 377.902 630.669 384.42C633.216 391.222 640.856 395.473 647.365 397.457C654.439 399.724 670.286 397.74 672.267 397.457C673.116 402.275 673.965 406.809 674.813 411.06C676.511 419.846 677.643 428.065 678.492 434.867H685.001C683.869 427.782 682.454 419.279 680.473 409.927C679.624 405.109 678.492 400.008 677.36 394.623C678.492 394.056 685.284 391.505 691.226 388.104C696.32 393.773 709.903 400.291 711.601 401.141C709.903 405.676 707.922 409.927 706.224 413.895C702.828 421.547 699.716 428.632 696.886 434.583H703.96C706.507 429.199 709.054 422.964 711.884 416.162C713.865 411.627 715.562 406.809 717.543 401.708C719.524 401.991 735.088 405.392 742.445 403.692C748.954 402.275 757.16 398.307 759.99 391.789C762.82 385.27 760.273 377.335 753.199 375.068C743.577 371.95 728.863 382.72 723.486 390.088C723.203 390.655 720.373 395.473 718.392 398.874C719.241 396.89 719.807 394.906 720.656 392.639C722.071 388.388 723.486 384.137 725.184 379.602C725.75 377.335 726.599 375.068 727.165 372.8C728.014 370.533 728.297 367.982 728.863 365.715C730.277 360.33 731.126 354.662 732.258 348.711C735.937 350.128 748.954 354.662 756.029 354.095C762.82 353.529 771.309 351.261 775.271 345.026C779.233 339.075 777.818 330.856 771.309 327.455C762.254 322.637 746.124 331.423 739.616 337.941C739.333 338.225 735.088 343.609 732.824 346.443C733.39 343.043 733.956 339.642 734.239 335.957C735.371 325.755 736.503 315.552 737.352 305.349C737.635 302.232 737.918 299.114 738.201 295.997C739.616 296.564 754.897 302.232 762.537 301.665C769.328 301.098 777.818 298.831 781.78 292.596C785.741 286.644 784.326 278.425 777.818 275.025C768.763 270.207 752.633 278.992 746.124 285.511C745.558 286.078 739.616 293.446 738.201 295.43C739.05 288.628 739.616 281.543 740.748 275.025C742.163 265.672 744.143 256.603 746.69 248.101C747.256 248.384 763.386 254.336 771.309 253.769C778.101 253.202 786.59 250.935 790.552 244.7C794.514 238.748 793.099 230.53 786.59 227.129C777.535 222.311 761.405 231.096 754.897 237.615C754.331 238.182 748.105 246.117 746.973 247.534C747.256 246.967 747.256 246.4 747.256 245.834C750.086 236.765 754.048 228.262 758.009 220.327C760.273 215.792 762.82 211.541 765.367 207.573C768.197 208.991 781.497 215.509 788.571 215.792C795.363 216.076 804.135 214.659 808.663 208.991C813.19 203.606 812.624 195.104 806.682 191.136C798.192 185.468 781.214 192.269 773.856 197.938C773.573 198.221 769.894 201.905 767.348 204.456C768.48 202.756 769.611 200.772 770.743 199.071C774.988 192.553 779.233 186.885 783.195 182.067C785.458 179.233 787.439 176.682 789.42 174.415C793.099 174.415 807.531 173.848 813.756 171.014C819.982 168.18 827.056 162.795 828.471 155.71C829.886 148.908 825.641 141.539 818.284 140.973C808.097 139.839 796.212 153.726 792.533 162.228C792.25 163.078 788.571 174.698 788.571 174.698H788.854C786.873 176.965 784.892 179.233 782.629 181.783C778.667 186.601 774.139 192.269 769.894 198.504C765.367 204.739 760.839 211.825 756.594 219.76C752.35 227.695 748.388 236.198 745.275 245.267V245.55C745.275 242.433 745.275 234.214 744.992 233.647C743.86 224.578 736.22 207.857 726.316 205.873C718.958 204.456 713.016 210.124 712.45 217.209C711.884 224.295 716.977 231.663 722.071 236.198C727.731 241.299 743.577 246.4 744.992 246.684C742.163 255.469 739.899 264.822 738.201 274.458C737.352 279.843 736.503 285.511 735.654 290.895C735.654 288.345 735.654 286.077 735.654 285.794C734.522 276.725 726.882 260.004 716.977 258.02C709.62 256.603 703.677 262.271 703.111 269.356C702.545 276.442 707.639 283.81 712.733 288.345C717.826 292.879 731.409 297.414 734.805 298.547C734.522 300.815 734.239 302.799 733.956 305.066C732.824 315.269 731.692 325.471 729.994 335.391C729.428 338.791 728.863 342.476 728.297 345.877C728.297 343.609 728.297 341.625 728.297 341.342C727.165 332.273 719.524 315.552 709.62 313.568C702.262 312.151 696.32 317.819 695.754 324.904C695.188 331.99 700.282 339.358 705.375 343.893C710.186 348.144 722.637 352.678 726.882 353.812C726.033 357.213 725.467 360.897 724.618 364.298C724.052 366.565 723.486 368.833 722.637 371.1C721.788 373.367 721.222 375.634 720.373 377.902C718.958 382.153 717.26 386.404 715.562 390.655C714.431 393.489 713.299 396.323 712.167 398.874C712.733 395.473 713.582 388.388 713.582 387.821C713.582 381.869 711.601 371.95 707.356 365.148C707.356 364.298 707.356 363.448 707.073 362.598C705.941 355.512 699.433 350.411 692.358 352.395C682.454 354.946 676.228 372.234 675.662 381.303C675.662 381.869 675.945 387.821 676.228 391.505C675.662 389.238 675.379 387.254 674.813 384.987C673.682 380.736 672.55 376.201 671.418 371.667C670.852 369.399 670.003 367.132 669.437 364.865C668.871 362.598 667.739 360.33 667.173 358.063C665.192 352.678 662.928 347.294 660.665 342.192C664.343 341.342 677.926 337.941 683.303 333.69C688.679 329.439 694.339 322.637 694.339 315.552C694.339 308.467 688.679 302.515 681.322 303.082C671.135 304.216 662.362 320.37 660.665 329.156C660.665 329.722 659.816 336.241 659.816 339.925C658.401 336.808 656.986 333.69 655.288 330.289C650.76 321.22 645.95 312.151 641.139 303.082C639.724 300.248 638.309 297.414 636.894 294.58C638.309 294.296 654.439 290.612 660.382 285.794C665.758 281.543 671.418 274.741 671.418 267.656C671.418 260.571 665.758 254.619 658.401 255.186C648.213 256.32 639.441 272.474 637.743 281.26C637.743 281.826 636.894 291.462 636.611 293.73C633.499 287.495 630.386 281.543 627.556 275.308C623.594 266.806 620.199 258.02 617.652 249.518C618.218 249.234 635.196 245.55 641.422 240.732C646.799 236.481 652.458 229.679 652.458 222.594C652.458 215.509 646.799 209.557 639.441 210.124C629.254 211.258 620.482 227.412 618.784 236.198C618.501 236.765 617.652 246.967 617.652 248.951C617.369 248.384 617.369 247.817 617.086 247.534C614.256 238.465 612.841 229.112 611.992 220.327C611.426 215.225 611.143 210.408 611.143 205.59C614.256 205.306 628.971 203.322 635.196 199.638C641.139 196.237 647.365 190.002 648.213 182.917C649.062 175.832 643.969 169.313 636.611 169.313C626.424 169.313 615.954 184.334 613.124 193.12C612.841 193.686 611.992 198.504 611.143 202.189C611.143 199.921 611.143 197.938 611.143 195.67C611.143 188.018 611.709 180.933 611.992 174.698C612.275 171.014 612.558 167.896 613.124 165.062C615.954 163.078 627.839 154.576 631.518 148.625C634.913 142.673 638.026 134.454 635.196 127.652C632.65 121.134 625.009 117.45 618.501 120.851C609.445 125.669 607.182 143.807 608.596 152.876C608.596 153.726 612.275 165.629 612.275 165.346H612.558C612.275 168.18 611.709 171.297 611.426 174.698C610.86 180.933 610.294 188.018 610.011 195.67C609.728 203.322 609.728 211.825 610.577 220.61C611.426 229.396 612.558 238.748 615.105 248.101V248.384C613.407 245.834 608.879 239.032 608.313 238.465C602.371 231.663 586.807 221.744 577.469 225.712C570.677 228.546 568.696 236.765 572.092 242.999C575.771 249.801 583.977 252.919 590.769 254.052Z" fill="#1A7F72"/>
<path d="M765.367 206.156C765.65 206.156 768.48 194.253 768.763 193.403C769.894 184.334 767.065 166.196 758.009 161.661C751.501 158.544 744.143 162.228 741.597 169.03C739.05 175.832 742.162 184.05 745.841 189.719C750.369 196.52 765.367 206.156 765.367 206.156Z" fill="#1A7F72"/>
</g>
<defs>
<filter id="filter0_d_34_69" x="16" y="120" width="1885" height="324" filterUnits="userSpaceOnUse" color-interpolation-filters="sRGB">
<feFlood flood-opacity="0" result="BackgroundImageFix"/>
<feColorMatrix in="SourceAlpha" type="matrix" values="0 0 0 0 0 0 0 0 0 0 0 0 0 0 0 0 0 0 127 0" result="hardAlpha"/>
<feOffset dy="4"/>
<feGaussianBlur stdDeviation="2"/>
<feColorMatrix type="matrix" values="0 0 0 0 0 0 0 0 0 0 0 0 0 0 0 0 0 0 0.2 0"/>
<feBlend mode="normal" in2="BackgroundImageFix" result="effect1_dropShadow_34_69"/>
<feBlend mode="normal" in="SourceGraphic" in2="effect1_dropShadow_34_69" result="shape"/>
</filter>
<linearGradient id="paint0_linear_34_69" x1="957.41" y1="30.0148" x2="948.5" y2="664.5" gradientUnits="userSpaceOnUse">
<stop stop-color="#1A7F72"/>
<stop offset="1" stop-color="#7ADBAE"/>
</linearGradient>
<linearGradient id="paint1_linear_34_69" x1="927.441" y1="24.2145" x2="921.413" y2="658.734" gradientUnits="userSpaceOnUse">
<stop stop-color="#1A7F72"/>
<stop offset="1" stop-color="#7ADBAE"/>
</linearGradient>
<clipPath id="clip0_34_69">
<rect width="1877" height="316" fill="white" transform="translate(20 120)"/>
</clipPath>
</defs>
</svg>
