<svg xmlns="http://www.w3.org/2000/svg" version="1.1" xmlns:xlink="http://www.w3.org/1999/xlink" xmlns:svgjs="http://svgjs.dev/svgjs" width="120" height="80" viewBox="0 0 2000 1247"><g transform="matrix(1,0,0,1,-1.2121212121212466,0.504858299595071)"><svg viewBox="0 0 396 247" data-background-color="#102e44" preserveAspectRatio="xMidYMid meet" height="1247" width="2000" xmlns="http://www.w3.org/2000/svg" xmlns:xlink="http://www.w3.org/1999/xlink"><g id="tight-bounds" transform="matrix(1,0,0,1,0.2400000000000091,-0.09999999999999432)"><svg viewBox="0 0 395.52 247.2" height="247.2" width="395.52"><g><svg></svg></g><g><svg viewBox="0 0 395.52 247.2" height="247.2" width="395.52"><g transform="matrix(1,0,0,1,75.54432,91.99128414269275)"><svg viewBox="0 0 244.43135999999998 63.21743171461449" height="63.21743171461449" width="244.43135999999998"><g><svg viewBox="0 0 244.43135999999998 63.21743171461449" height="63.21743171461449" width="244.43135999999998"><g><svg viewBox="0 0 244.43135999999998 63.21743171461449" height="63.21743171461449" width="244.43135999999998"><g><svg viewBox="0 0 244.43135999999998 63.21743171461449" height="63.21743171461449" width="244.43135999999998"><g id="textblocktransform"><svg viewBox="0 0 244.43135999999998 63.21743171461449" height="63.21743171461449" width="244.43135999999998" id="textblock"><g><svg viewBox="0 0 244.43135999999998 63.21743171461449" height="63.21743171461449" width="244.43135999999998"><g transform="matrix(1,0,0,1,0,0)"><svg width="244.43135999999998" viewBox="3.5 -33.70000076293945 173.77999877929688 44.95000076293945" height="63.21743171461449" data-palette-color="#ffffff"><path d="M15.95-11.3Q14-11.3 12.68-11.43 11.35-11.55 9.2-11.85L9.2-11.85 9.15-6.6Q9.1-5.25 9.1-2.75L9.1-2.75Q9.1-1.45 8.38-0.73 7.65 0 6.75 0L6.75 0Q5.1 0 4.3-0.43 3.5-0.85 3.5-1.95L3.5-1.95Q3.5-3.4 3.75-6.05L3.75-6.05Q4.3-11.75 4.3-17.75L4.3-17.75Q4.3-23.35 3.95-28.3L3.95-28.3Q4-29 4.67-29.9 5.35-30.8 6.4-30.9L6.4-30.9Q7.55-30.9 10.05-31.3L10.05-31.3Q12.65-31.7 14-31.7L14-31.7Q18.1-31.7 20.38-30.9 22.65-30.1 24.95-28.25L24.95-28.25Q27.45-24.35 27.45-22.75L27.45-22.75Q27.45-19.4 26.1-16.8 24.75-14.2 22.15-12.75 19.55-11.3 15.95-11.3L15.95-11.3ZM14.8-27.45Q13.2-27.45 12.03-27.28 10.85-27.1 9.2-26.7L9.2-26.7Q9.4-22.1 9.4-20L9.4-20Q9.4-17.85 9.25-16.4L9.25-16.4Q11.4-15.95 12.65-15.83 13.9-15.7 15.45-15.7L15.45-15.7Q19.15-15.7 20.68-17.63 22.2-19.55 22.2-22.1L22.2-22.1Q22.2-22.85 21.75-23.95 21.3-25.05 20.95-25.4L20.95-25.4Q19.6-26.6 18.32-27.03 17.05-27.45 14.8-27.45L14.8-27.45ZM38.6-2Q38.6-1.15 37.95-0.5 37.3 0.15 36.35 0.15L36.35 0.15Q34.85 0.15 34.15-0.43 33.45-1 33.45-2.55L33.45-2.55Q33.45-4.4 33.35-7.4L33.35-7.4Q33.25-9.9 33.25-11.6L33.25-11.6Q33.25-12.4 33.35-13.7L33.35-13.7Q33.45-14.9 33.45-15.5L33.45-15.5Q33.3-16.45 32.7-17.07 32.1-17.7 31.15-17.7L31.15-17.7Q30.7-17.7 30.4-18.13 30.1-18.55 30.1-19L30.1-19Q30.1-20.15 31.02-20.75 31.95-21.35 33.25-21.35L33.25-21.35Q35.95-21.35 37-18.15L37-18.15Q38.3-19.65 39.97-20.58 41.65-21.5 43.2-21.5L43.2-21.5Q45.05-21.5 46.57-20.5 48.1-19.5 48.1-17.8L48.1-17.8Q48.1-16.85 47.27-15.85 46.45-14.85 45.6-14.85L45.6-14.85Q45.15-14.85 44.82-15.08 44.5-15.3 44.05-15.75L44.05-15.75Q43.55-16.25 43.2-16.48 42.85-16.7 42.4-16.7L42.4-16.7Q41.6-16.7 40.9-16.45 40.2-16.2 39.95-15.85L39.95-15.85Q39.15-14.6 38.77-13.6 38.4-12.6 38.4-11.45L38.4-11.45Q38.4-10.6 38.35-10.1L38.35-10.1 38.3-7.25Q38.3-6.6 38.35-5.8 38.4-5 38.45-4.6L38.45-4.6Q38.6-3.25 38.6-2L38.6-2ZM70.84-16.05Q71.25-15.35 71.5-14.03 71.75-12.7 71.75-11.65L71.75-11.65Q71.75-9.7 70.9-6.1L70.9-6.1Q67.45 0.2 60.7 0.2L60.7 0.2Q58.2 0.2 55.6-1.45 53-3.1 52-5.25L52-5.25Q50.65-9.55 50.65-10.7L50.65-10.7Q50.65-12.7 51.52-14.95 52.4-17.2 53.75-18.85L53.75-18.85Q54.6-20 56.8-20.83 59-21.65 60.8-21.65L60.8-21.65Q64.3-21.65 66.75-20.33 69.2-19 70.84-16.05L70.84-16.05ZM66.5-8Q66.75-8.65 66.75-11.35L66.75-11.35Q66.75-12.8 66.22-14.2 65.7-15.6 64.7-16.6L64.7-16.6Q64.59-16.7 64.15-16.93 63.7-17.15 62.92-17.38 62.15-17.6 61.15-17.6L61.15-17.6Q58.35-17.6 57.05-15.35 55.75-13.1 55.75-10.25L55.75-10.25Q55.75-9.75 56.02-8.35 56.3-6.95 56.5-6.6L56.5-6.6Q56.65-6.25 57.27-5.63 57.9-5 58.82-4.53 59.75-4.05 60.75-4.05L60.75-4.05Q63-4.05 64.34-5.13 65.7-6.2 66.5-8L66.5-8ZM94.69-0.1Q96.04 0.85 96.52 2 96.99 3.15 96.99 5.2L96.99 5.2Q96.99 6.2 96.42 7.2 95.84 8.2 95.24 8.65L95.24 8.65Q90.49 11.25 85.74 11.25L85.74 11.25Q83.39 11.25 81.69 10.65 79.99 10.05 78.49 9.05L78.49 9.05Q77.49 8.3 76.87 6.98 76.24 5.65 76.24 4.35L76.24 4.35Q76.24 2.55 77.37 1.2 78.49-0.15 80.39-0.75L80.39-0.75Q80.04-1.5 80.04-2.5L80.04-2.5Q80.04-3.45 81.44-5.35L81.44-5.35Q79.04-6.15 77.67-8.2 76.29-10.25 76.29-13L76.29-13Q76.29-14.7 77.09-16.03 77.89-17.35 79.49-19.1L79.49-19.1Q80.59-20.3 82.29-20.85 83.99-21.4 86.54-21.4L86.54-21.4Q88.34-21.4 90.99-20.6L90.99-20.6Q94.14-22.8 96.54-22.8L96.54-22.8Q97.14-22.8 97.92-22.5 98.69-22.2 99.09-21.9L99.09-21.9Q99.39-21.35 99.39-20.05L99.39-20.05Q99.39-19.55 98.97-19.07 98.54-18.6 97.89-18.6L97.89-18.6 96.69-18.65Q95.79-18.75 95.29-18.75L95.29-18.75Q94.74-18.75 93.64-18.65L93.64-18.65Q94.69-17.4 95.27-16 95.84-14.6 95.84-12.35L95.84-12.35Q95.84-10.65 94.59-8.8 93.34-6.95 91.64-5.9L91.64-5.9Q89.04-4.5 85.59-4.45L85.59-4.45Q85.19-4.05 84.92-3.73 84.64-3.4 84.64-3.2L84.64-3.2Q84.64-2.65 85.59-2.35 86.54-2.05 88.49-1.9L88.49-1.9Q89.99-1.8 91.82-1.28 93.64-0.75 94.69-0.1L94.69-0.1ZM85.89-8.55Q88.19-8.55 89.59-9.8 90.99-11.05 90.99-13.35L90.99-13.35Q90.99-15.1 89.74-16.2 88.49-17.3 86.54-17.3L86.54-17.3Q85.29-17.3 83.87-16.88 82.44-16.45 81.84-15.55L81.84-15.55Q81.54-15.15 81.24-14.03 80.94-12.9 80.94-12.3L80.94-12.3Q80.94-11.45 81.67-10.58 82.39-9.7 83.57-9.13 84.74-8.55 85.89-8.55L85.89-8.55ZM89.04 2.3Q86.29 2.05 85.17 1.83 84.04 1.6 83.34 1.3L83.34 1.3Q80.79 2.65 80.79 4.25L80.79 4.25Q80.79 5.75 82.34 6.53 83.89 7.3 85.89 7.3L85.89 7.3Q86.79 7.3 88.34 7.1 89.89 6.9 90.94 6.4L90.94 6.4Q91.64 6.05 91.99 5.73 92.34 5.4 92.34 4.55L92.34 4.55Q92.34 3.5 91.24 2.95 90.14 2.4 89.04 2.3L89.04 2.3ZM122.24-31.3Q122.24-30.8 121.99-28.55L121.99-28.55Q121.44-23.05 121.44-17.4L121.44-17.4Q121.44-12.45 121.59-9.85 121.74-7.25 122.34-5.88 122.94-4.5 124.19-4.5L124.19-4.5Q126.59-4.5 126.59-2.9L126.59-2.9Q126.59-1.85 125.54-1.13 124.49-0.4 123.24-0.4L123.24-0.4Q121.74-0.4 120.44-1.1 119.14-1.8 118.39-3.25L118.39-3.25Q117.34-1.7 115.37-0.78 113.39 0.15 111.54 0.15L111.54 0.15Q108.69 0.15 106.49-1.05 104.29-2.25 103.09-4.33 101.89-6.4 101.89-8.9L101.89-8.9Q101.89-11.3 102.47-13.53 103.04-15.75 104.04-17.2L104.04-17.2Q105.39-19.1 107.67-20.23 109.94-21.35 112.14-21.35L112.14-21.35Q113.49-21.35 114.69-20.83 115.89-20.3 116.79-19.55L116.79-19.55Q116.79-22.9 116.74-23.75L116.74-23.75 116.74-24.8Q116.74-29.45 117.34-31.6L117.34-31.6Q117.89-33.7 119.99-33.7L119.99-33.7Q121.14-33.7 121.69-33.2 122.24-32.7 122.24-31.3L122.24-31.3ZM106.84-9Q106.84-6.7 108.17-5.3 109.49-3.9 111.34-3.9L111.34-3.9Q113.99-3.9 115.27-5.55 116.54-7.2 116.54-9.8L116.54-9.8 116.49-14.75Q114.54-16.9 112.44-16.9L112.44-16.9Q110.99-16.9 109.72-16.18 108.44-15.45 107.69-14L107.69-14Q106.84-12.35 106.84-9L106.84-9ZM132.44-32.1Q134.19-31.95 135.49-31.18 136.79-30.4 136.79-28.85L136.79-28.85Q136.79-27.7 135.71-27.03 134.64-26.35 133.14-26.35L133.14-26.35Q131.69-26.35 131.14-27.1 130.59-27.85 130.59-28.65L130.59-28.65Q130.59-30.15 130.91-31.15 131.24-32.15 132.44-32.1L132.44-32.1ZM136.44-18.95L136.44-9.95 136.44-8.5Q136.44-6.55 136.56-4.83 136.69-3.1 136.89-1.35L136.89-1.35Q136.84-0.85 136.14-0.33 135.44 0.2 134.89 0.2L134.89 0.2Q133.94 0.2 132.96-0.18 131.99-0.55 131.79-1.1L131.79-1.1Q131.49-2.7 131.49-3.95L131.49-3.95Q131.49-8.05 131.24-13.15L131.24-13.15Q131.04-17.65 131.04-19.45L131.04-19.45Q131.04-20.35 131.94-21 132.84-21.65 133.84-21.65L133.84-21.65Q135.29-21.65 135.86-21 136.44-20.35 136.44-18.95L136.44-18.95ZM162.64-31.3Q162.64-30.8 162.39-28.55L162.39-28.55Q161.84-23.05 161.84-17.4L161.84-17.4Q161.84-12.45 161.99-9.85 162.14-7.25 162.74-5.88 163.34-4.5 164.59-4.5L164.59-4.5Q166.99-4.5 166.99-2.9L166.99-2.9Q166.99-1.85 165.94-1.13 164.89-0.4 163.64-0.4L163.64-0.4Q162.14-0.4 160.84-1.1 159.54-1.8 158.79-3.25L158.79-3.25Q157.74-1.7 155.76-0.78 153.79 0.15 151.94 0.15L151.94 0.15Q149.09 0.15 146.89-1.05 144.69-2.25 143.49-4.33 142.29-6.4 142.29-8.9L142.29-8.9Q142.29-11.3 142.86-13.53 143.44-15.75 144.44-17.2L144.44-17.2Q145.79-19.1 148.06-20.23 150.34-21.35 152.54-21.35L152.54-21.35Q153.89-21.35 155.09-20.83 156.29-20.3 157.19-19.55L157.19-19.55Q157.19-22.9 157.14-23.75L157.14-23.75 157.14-24.8Q157.14-29.45 157.74-31.6L157.74-31.6Q158.29-33.7 160.39-33.7L160.39-33.7Q161.54-33.7 162.09-33.2 162.64-32.7 162.64-31.3L162.64-31.3ZM147.24-9Q147.24-6.7 148.56-5.3 149.89-3.9 151.74-3.9L151.74-3.9Q154.39-3.9 155.66-5.55 156.94-7.2 156.94-9.8L156.94-9.8 156.89-14.75Q154.94-16.9 152.84-16.9L152.84-16.9Q151.39-16.9 150.11-16.18 148.84-15.45 148.09-14L148.09-14Q147.24-12.35 147.24-9L147.24-9ZM172.83-32.1Q174.58-31.95 175.88-31.18 177.18-30.4 177.18-28.85L177.18-28.85Q177.18-27.7 176.11-27.03 175.03-26.35 173.53-26.35L173.53-26.35Q172.08-26.35 171.53-27.1 170.98-27.85 170.98-28.65L170.98-28.65Q170.98-30.15 171.31-31.15 171.63-32.15 172.83-32.1L172.83-32.1ZM176.83-18.95L176.83-9.95 176.83-8.5Q176.83-6.55 176.96-4.83 177.08-3.1 177.28-1.35L177.28-1.35Q177.23-0.85 176.53-0.33 175.83 0.2 175.28 0.2L175.28 0.2Q174.33 0.2 173.36-0.18 172.38-0.55 172.18-1.1L172.18-1.1Q171.88-2.7 171.88-3.95L171.88-3.95Q171.88-8.05 171.63-13.15L171.63-13.15Q171.43-17.65 171.43-19.45L171.43-19.45Q171.43-20.35 172.33-21 173.23-21.65 174.23-21.65L174.23-21.65Q175.68-21.65 176.26-21 176.83-20.35 176.83-18.95L176.83-18.95Z" opacity="1" transform="matrix(1,0,0,1,0,0)" fill="#ffffff" class="wordmark-text-0" data-fill-palette-color="primary" id="text-0"></path></svg></g></svg></g></svg></g></svg></g></svg></g></svg></g></svg></g><g><path d="M0 123.6c0-68.262 55.338-123.6 123.6-123.6 54.609 0 100.946 35.414 117.298 84.529h-3.01c-16.239-47.514-61.274-81.679-114.288-81.678-66.688 0-120.749 54.061-120.749 120.749 0 66.688 54.061 120.749 120.749 120.749 53.015 0 98.05-34.165 114.288-81.678h3.01c-16.352 49.115-62.689 84.529-117.298 84.529-68.262 0-123.6-55.338-123.6-123.6z" fill="#ffffff" stroke="transparent" data-fill-palette-color="tertiary"></path></g></svg></g><defs></defs></svg><rect width="395.52" height="247.2" fill="none" stroke="none" visibility="hidden"></rect></g></svg></g></svg>