<svg width="55" height="55" viewBox="0 0 55 55" fill="none" xmlns="http://www.w3.org/2000/svg">
<g clip-path="url(#clip0_34_42)">
<path d="M27.5 0C12.3121 0 0 12.3121 0 27.5C0 42.6879 12.3121 55 27.5 55C42.6879 55 55 42.6879 55 27.5C55 12.3121 42.6879 0 27.5 0ZM37.9914 14.0046L34.1878 14.0063C31.2051 14.0063 30.6284 15.4236 30.6284 17.5032V22.0889H37.741L37.7376 29.2713H30.629V47.7029H23.2103V29.2713H17.0086V22.0889H23.2103V16.792C23.2103 10.645 26.966 7.29714 32.4492 7.29714L37.9919 7.30558V14.0046H37.9914Z" fill="black"/>
</g>
<defs>
<clipPath id="clip0_34_42">
<rect width="55" height="55" fill="white"/>
</clipPath>
</defs>
</svg>
