<svg width="24" height="24" viewBox="0 0 24 24" fill="none" xmlns="http://www.w3.org/2000/svg">
<path d="M21.947 9.179C21.818 8.801 21.477 8.534 21.079 8.503L15.378 8.05L12.911 2.589C12.75 2.23 12.393 2 12 2C11.607 2 11.25 2.23 11.089 2.588L8.62201 8.05L2.92101 8.503C2.53001 8.534 2.19301 8.791 2.06001 9.16C1.92701 9.529 2.02101 9.942 2.30201 10.216L6.51501 14.323L5.02501 20.775C4.93301 21.174 5.09401 21.589 5.43101 21.822C5.60301 21.94 5.80101 22 6.00001 22C6.19301 22 6.38701 21.944 6.55501 21.832L12 18.202L17.445 21.832C17.793 22.064 18.25 22.055 18.59 21.808C18.928 21.561 19.077 21.128 18.962 20.726L17.133 14.326L21.669 10.244C21.966 9.976 22.075 9.558 21.947 9.179Z" fill="#FFB700"/>
</svg>
