<svg width="766" height="647" viewBox="0 0 766 647" fill="none" xmlns="http://www.w3.org/2000/svg">
<g opacity="0.1" clip-path="url(#clip0_10646_2)">
<path d="M242.809 249.08C277.38 243.719 313.554 246.644 347.486 237.893C393.26 226.375 429.899 195.75 469.058 171.219C508.602 147.08 558.37 128.302 602.769 144.321C661.839 165.549 679.391 234.319 688.204 292.208C697.637 353.858 707.069 415.507 716.483 477.529C721.71 510.245 725.984 545.897 707.609 574.45C684.415 610.597 634.25 621.149 589.232 625.616C410.33 644.289 -58.0045 640.305 88.9649 355.924C117.571 300.276 176.926 259.221 242.809 249.08Z" fill="url(#paint0_linear_10646_2)"/>
</g>
<g opacity="0.1" clip-path="url(#clip1_10646_2)">
<path d="M214.395 260.89C248.438 252.83 284.73 252.907 317.871 241.519C362.599 226.444 396.721 193.037 433.834 165.507C471.36 138.339 519.5 115.711 565.02 128.195C625.575 144.721 648.471 211.9 661.801 268.918C676.044 329.638 690.288 390.357 704.541 451.448C712.321 483.653 719.38 518.859 703.303 548.767C683.019 586.622 633.837 601.08 589.309 609.067C412.425 641.727 -54.7773 674.522 69.4133 379.481C93.5626 321.759 149.512 276.171 214.395 260.89Z" fill="url(#paint1_linear_10646_2)"/>
</g>
<path fill-rule="evenodd" clip-rule="evenodd" d="M521 274.497C521 274.497 543.74 239.881 579.639 242.157C607.281 243.934 650.333 259.27 652.2 302.906C654.586 352.615 630.195 338.219 635.106 361.364C640.026 384.867 660.487 386.118 658.046 402.295C655.606 418.473 634.156 434.077 635.137 444.077C636.117 454.077 651.433 477.664 640.972 488.682C628.428 502.262 614.074 501.566 615.413 511.556C618.081 531.18 635.366 534.305 631.492 536.914C627.619 539.522 569.63 542.126 559.328 518.406C551.693 500.704 565.914 482.784 567.431 472.36C570.456 451.154 546.272 431.024 530.863 417.465C515.444 403.549 523.68 376.118 523.312 362.163C523.302 348.199 486.404 335.207 521 274.497Z" fill="#1D3542"/>
<path d="M578.084 251.15C596.292 248.521 636.385 260.355 638.959 303.613C641.477 344.725 613.872 344.379 618.783 367.524C623.703 391.027 644.55 393.342 642.119 409.877C639.679 426.054 620.924 435.143 621.905 445.143C622.885 455.143 638.408 472.995 627.957 484.371C615.413 497.95 600.334 496.916 615.537 529.815" stroke="#01080A" stroke-miterlimit="10" stroke-linecap="round" stroke-linejoin="round"/>
<path d="M651.06 300.43C655.774 343.274 640.167 335.808 645.125 360.742C649.725 385.686 669.13 387.681 666.369 405.299C663.957 422.55 641.018 436.045 642.017 446.761C643.017 457.477 655.74 477.909 640.982 489.041" stroke="#01080A" stroke-miterlimit="10" stroke-linecap="round" stroke-linejoin="round"/>
<path d="M570.78 259.578C588.988 256.95 587.255 272.75 629.61 302.428C632.127 343.539 599.16 343.692 604.439 367.186C609.359 390.689 630.206 393.004 627.775 409.539C625.335 425.716 606.58 434.805 607.56 444.805C608.541 454.805 624.064 472.657 613.612 484.033C601.069 497.612 585.989 496.578 601.192 529.477" stroke="#01080A" stroke-miterlimit="10" stroke-linecap="round" stroke-linejoin="round"/>
<path d="M600.544 301.045C605.21 342.1 572.281 343.685 578.625 366.792C584.61 389.909 605.796 391.499 604.072 407.657C602.706 423.806 584.338 433.959 585.677 443.949C587.373 453.931 603.593 471.048 593.51 482.772C581.701 497.049 573.398 494.761 590.373 526.898" stroke="#01080A" stroke-miterlimit="10" stroke-linecap="round" stroke-linejoin="round"/>
<path d="M567.54 299.768C576.127 340.004 544.008 345.148 552.481 367.483C560.955 389.818 582.084 389.26 582.16 405.73C582.236 422.199 564.98 433.754 567.752 443.707C570.523 453.66 588.486 468.941 579.863 481.701C569.516 497.013 560.883 495.808 581.382 525.704" stroke="#01080A" stroke-miterlimit="10" stroke-linecap="round" stroke-linejoin="round"/>
<path d="M103.795 585.204C103.795 585.204 78.0284 600.206 76.6053 600.602C70.2439 603.992 50.1039 614.907 28.2017 626.943C19.6725 629.674 10.0501 631.718 11.2283 635.626C12.3971 639.176 46.5329 642.573 55.6367 634.455C59.4913 631.131 65.1176 627.044 69.8394 629.426C74.5612 631.808 86.7377 631.487 91.2518 625.997C95.4173 620.874 91.7228 616.674 94.4463 611.231C94.795 610.864 119.459 594.817 119.807 594.45C124.293 587.886 105.538 583.368 103.795 585.204Z" fill="#F4A082"/>
<path d="M359.387 546.953C359.387 546.953 352.498 543.912 349.039 548.658C340.887 552.096 340.162 565.364 340.162 565.364C340.162 565.364 333.348 565.185 329.182 570.308C327.787 571.777 322.368 570.13 323.546 574.038C324.319 576.166 356.033 582.849 358.983 585.994C361.556 588.432 359.123 550.541 359.387 546.953Z" fill="#F4A082"/>
<path d="M339.807 361.633C334.812 362.481 327.027 366.267 322.108 369.977C266.042 391.149 222.758 475.721 198.801 504.998C194.985 509.754 186.22 517.147 182.064 522.627C172.008 535.425 131.993 567.274 98.8283 587.126C98.1215 587.503 104.549 600.224 109.592 601.165C138.713 591.088 194.61 577.081 222.91 535.873C232.24 522.736 285.083 488.042 315.938 462.164C321.951 459.141 338.698 469.083 338.227 478.405C344.034 508.33 351.275 606.25 361.237 617.088C371.199 627.925 378.032 628.819 383.291 624.384C398.907 618.601 411.288 517.299 403.709 460.924C406.328 451.545 412.954 444.567 412.473 439.924C412.473 439.924 338.158 367.047 339.807 361.633Z" fill="#1F5148"/>
<path d="M330.954 364.725C330.954 364.725 359.932 429.04 409.986 447.069" stroke="#1D4941" stroke-width="1.5" stroke-miterlimit="10"/>
<path d="M326.325 367.192C326.325 367.192 351.362 437.767 408.019 450.345" stroke="#1D4941" stroke-width="1.5" stroke-miterlimit="10"/>
<path d="M546.523 304.619C539.059 306.964 515.008 319.056 514.188 315.139C513.792 313.717 514.715 307.964 514.31 306.184C510.747 293.388 536.72 259.044 526.721 260.382C515.298 262.116 431.553 307.292 425.182 310.325C421.648 312.208 395.297 332.239 373.094 346.431C363.226 352.779 348.666 357.817 338.035 362.395C358.497 404.465 410.06 443.568 412.472 439.923C419.691 428.275 438.031 403.442 461.639 401.746C465.239 402.367 492.448 401.291 498.819 398.259C505.19 395.226 542.238 413.943 541.71 393.905C541.181 373.867 523.001 350.356 527.223 347.38C531.445 344.404 542.764 338.734 554.374 330.551C565.646 323.092 553.987 302.273 546.523 304.619Z" fill="#F4A082"/>
<path opacity="0.6" d="M549.388 331.756C544.082 334.403 532.49 329.696 528.343 321.927C524.196 314.159 527.583 312.049 532.813 310.152C538.119 307.506 542.922 303.997 547.069 311.766C551.226 319.892 554.694 329.11 549.388 331.756Z" fill="#DB8C70"/>
<path d="M432.468 328.394C420.762 319.393 460.09 288.636 488.4 261.392C503.781 246.664 544.824 226.604 580.128 219.944C592.945 216.741 648.456 201.671 706.276 219.84C706.276 219.84 707.162 226.262 700.668 224.643C694.184 223.381 606.244 231.788 585.331 240.575C574.333 244.803 540.546 254.646 523.017 269.431C505.488 284.216 491.164 325.414 463.681 316.113C435.473 306.472 428.933 330.278 432.468 328.394Z" fill="#F4A082"/>
<path d="M687.917 216.744C699.254 211.79 710.95 206.827 716.699 207.391C724.955 207.89 733.248 209.819 739.092 213.962C744.926 217.747 756.575 224.601 755.528 225.703C754.482 226.805 724.767 227.946 724.767 227.946C724.767 227.946 714.711 227.137 716.926 229.585C719.141 232.034 730.554 229.942 730.705 235.667C730.705 235.667 721.384 235.555 717.793 235.292C714.202 235.028 692.281 232.742 684.486 222.563C684.844 222.554 683.666 218.646 687.917 216.744Z" fill="#F4A082"/>
<path d="M536.68 502.175C539.697 507.824 558.509 555.309 561.885 601.769C567.973 601.609 572.384 605.79 578.482 605.987C565.833 588.417 578.253 542.972 557.584 493.03C548.404 471.071 547.045 405.938 545.772 398.452C542.907 384.921 542.906 371.315 530.531 364.122C518.157 356.928 485.379 377.845 486.887 394.276C486.887 394.276 512.852 386.788 511.787 400.781C511.872 404.001 533.664 496.525 536.68 502.175Z" fill="#F4A082"/>
<path d="M600.903 613.632C600.903 613.632 583.986 610.856 581.074 609.142C578.152 607.071 572.403 592.899 572.346 590.753L563.364 589.915C556.824 600.114 560.622 608.249 556.099 613.381C554.007 615.585 549.455 619.644 551.632 620.661C554.893 622.007 557.739 621.216 560.529 618.277C563.318 615.339 567.521 611.648 569.397 614.821C570.914 618.004 573.139 620.81 577.455 621.412C581.772 622.014 615.436 621.126 615.021 618.989C614.248 616.861 600.903 613.632 600.903 613.632Z" fill="#F4A082"/>
<path d="M562.6 275.549C562.6 275.549 565.258 267.601 558.529 270.643C544.364 277.104 546.767 286.709 546.796 287.782C546.834 289.213 562.6 275.549 562.6 275.549Z" fill="#F4A082"/>
<path d="M591.31 331.368C591.31 331.368 599.255 333.665 592.903 337.413C579.492 345.286 573.215 338.29 572.112 337.245C571.377 336.548 591.31 331.368 591.31 331.368Z" fill="#F4A082"/>
<path fill-rule="evenodd" clip-rule="evenodd" d="M576.398 268.741C571.431 270.662 565.041 272.979 559.396 276.351C531.123 291.419 532.386 312.154 539.578 326.645C548.701 346.456 580.481 342.038 594.909 331.989C604.06 325.661 607.906 321.979 612.401 315.773C622.277 296.177 611.779 305.763 576.398 268.741Z" fill="#F4A082"/>
<path d="M378.032 343.437C396.382 346.176 435.476 388.114 431.924 416.495C431.924 416.495 457.719 402.566 459.877 402.867C461.309 402.829 462.751 403.15 463.826 403.121C490.507 409.221 504.577 399.182 509.026 391.187C513.474 383.192 524.689 373.587 529.589 369.161C534.499 365.092 535.112 361.138 535.112 361.138L531.483 359.443C531.483 359.443 510.901 380.754 506.914 379.068C502.937 377.741 474.521 360.229 471.185 356.02C468.207 351.802 477.941 313.231 484.689 310.905C491.437 308.579 510.39 307.005 515.451 308.662C516.902 309.339 516.76 303.972 515.328 304.01C513.528 303.699 482.333 303.09 461.806 299.334C455.68 298.063 458.837 295.474 448.093 295.757C436.661 297.133 378.013 342.722 378.032 343.437Z" fill="#FFD2B9"/>
<path d="M585.465 300.011C579.151 305.191 571.338 307.903 569.547 307.95C567.031 307.659 566.927 303.722 565.523 304.834C562.008 307.433 564.289 312.386 566.833 313.751" stroke="#EFAFA3" stroke-width="1.38" stroke-miterlimit="10" stroke-linecap="round" stroke-linejoin="round"/>
<path opacity="0.69" d="M576.634 277.686C578.462 279.07 581.431 282.931 581.893 286.857" stroke="#682C1A" stroke-width="1.31" stroke-miterlimit="10" stroke-linecap="round" stroke-linejoin="round"/>
<path d="M571.668 293.213C568.435 292.94 565.07 287.658 566.408 284.042" stroke="#49241B" stroke-miterlimit="10" stroke-linecap="round" stroke-linejoin="round"/>
<path d="M587.539 324.305C584.307 324.033 580.942 318.75 582.28 315.134" stroke="#49241B" stroke-miterlimit="10" stroke-linecap="round" stroke-linejoin="round"/>
<path opacity="0.69" d="M597.416 318.315C597.35 315.811 595.437 311.206 592.854 308.41" stroke="#682C1A" stroke-width="1.31" stroke-miterlimit="10" stroke-linecap="round" stroke-linejoin="round"/>
<path d="M555.542 306.888C554.506 308.348 554.751 317.651 562.696 319.948" stroke="#BC4926" stroke-width="1.45" stroke-miterlimit="10" stroke-linecap="round" stroke-linejoin="round"/>
<path opacity="0.24" fill-rule="evenodd" clip-rule="evenodd" d="M559.991 298.892C556.768 298.977 553.799 295.117 553.327 290.832C552.847 286.19 555.269 282.903 558.492 282.818C561.715 282.733 564.684 286.594 565.155 290.878C565.268 295.172 563.214 298.807 559.991 298.892Z" fill="#ED5851"/>
<path opacity="0.24" fill-rule="evenodd" clip-rule="evenodd" d="M571.725 322.574C570.368 325.474 571.913 329.73 575.57 332.499C579.218 334.909 583.515 334.795 584.872 331.895C586.229 328.995 584.683 324.739 581.027 321.971C577.379 319.56 573.082 319.674 571.725 322.574Z" fill="#ED5851"/>
<path opacity="0.6" d="M375.244 400.801C373.84 401.912 372.049 401.959 371.314 401.262C370.579 400.565 371.606 398.748 373.01 397.637C374.414 396.526 376.205 396.478 376.94 397.175C377.675 397.872 377.006 399.68 375.244 400.801Z" fill="#DB8C70"/>
<path d="M587.924 257.336C598.328 257.778 621.975 271.119 630.439 293.096" stroke="#01080A" stroke-miterlimit="10" stroke-linecap="round" stroke-linejoin="round"/>
<path opacity="0.56" d="M606.824 626.499C606.871 628.401 483.705 633.09 331.606 636.908C179.509 640.726 56.2656 642.297 56.2159 640.319C56.1682 638.417 179.334 633.728 331.431 629.91C483.53 626.092 606.776 624.597 606.824 626.499Z" fill="black" fill-opacity="0.2"/>
<path opacity="0.5" d="M91.0359 196.712C91.0426 197.423 91.0086 198.151 91.0152 198.861C91.0018 200.912 91.0865 202.971 91.1712 205.029C91.2559 207.087 91.4387 209.153 91.7029 211.185C91.9504 213.176 92.296 215.175 92.5842 217.15C93.0869 220.225 93.4509 223.311 94.0351 226.353C94.2163 227.372 94.3807 228.351 94.5858 229.314C94.7553 229.958 95.0636 230.592 95.3144 231.203C95.3981 231.406 95.5464 231.535 95.6946 231.665C95.9004 231.818 96.2594 231.766 96.3553 231.536C96.4105 231.323 96.5231 231.134 96.5209 230.897C96.5259 230.562 96.4902 230.244 96.4546 229.925C95.9401 226.474 95.4663 223.006 94.9518 219.554C94.5923 216.943 94.3716 214.322 94.3304 211.675C94.292 208.456 94.311 205.261 94.4856 202.097C94.5558 200.879 94.5687 199.637 94.5983 198.436C94.683 197.021 94.7104 195.583 94.7952 194.168C94.9 191.414 95.316 188.722 95.7894 186.054C95.8518 185.742 95.9143 185.431 95.8953 185.154C95.9606 184.271 95.3485 183.476 94.5061 183.394C93.647 183.271 92.9239 183.711 92.605 184.555C92.4684 184.802 92.4466 185.096 92.3842 185.407C92.0335 187.216 91.4698 188.97 90.7913 190.676C90.192 192.112 89.6166 193.49 89.0005 194.885C88.8806 195.172 88.7201 195.476 88.5595 195.779C87.5961 197.602 86.805 199.497 86.0713 201.416C85.8243 202.089 85.6921 202.809 85.6581 203.536C85.5951 204.656 85.8264 205.798 86.3833 206.806C86.5004 207.091 86.6821 207.302 86.9453 207.479C87.0936 207.608 87.3712 207.59 87.5173 207.482C87.6633 207.374 87.752 207.243 87.7258 207.063C87.7068 206.786 87.6305 206.484 87.5708 206.223C87.3228 205.041 87.3116 203.856 87.7097 202.741C88.0766 201.782 88.4602 200.863 88.9419 199.951C89.5027 198.769 90.1377 197.652 90.756 196.494C90.78 196.437 90.8614 196.403 90.9428 196.37C90.993 196.492 91.0432 196.614 91.0359 196.712ZM144.113 211.388C144.479 211.237 144.805 211.103 145.171 210.953C146.945 210.176 148.786 209.563 150.402 208.518C150.443 208.501 150.483 208.484 150.524 208.468C151.881 207.72 153.141 206.964 154.283 205.924C154.769 205.486 155.296 205.032 155.766 204.554C156 204.314 156.235 204.075 156.412 203.812C156.606 203.59 156.686 203.319 156.731 202.968C156.813 202.125 155.911 201.782 155.358 202.057C155.155 202.141 155.009 202.248 154.822 202.373C154.197 202.82 153.572 203.267 152.971 203.656C152.207 204.113 151.393 204.448 150.68 205.026C150.153 205.481 149.552 205.87 148.984 206.341C147.452 207.59 145.761 208.57 143.98 209.444C142.589 210.111 141.248 210.9 139.783 211.502C139.661 211.552 139.58 211.585 139.474 211.676C139.003 211.918 138.572 212.142 138.141 212.367C137.791 212.558 137.442 212.749 137.133 212.924C136.742 213.132 136.393 213.323 136.003 213.531C135.735 213.689 135.409 213.823 135.141 213.98C134.133 214.537 133.166 215.077 132.174 215.675C130.939 216.373 129.72 217.112 128.642 218.078C128.513 218.226 128.326 218.35 128.14 218.475C128.14 218.475 128.058 218.508 128.041 218.468C127.984 218.444 127.91 218.379 127.893 218.338C127.905 217.905 127.958 217.455 127.987 217.063C128.048 215.706 128.207 214.356 128.227 213.016C128.284 211.185 128.323 209.313 128.241 207.492C128.149 205.532 128.074 203.612 127.958 201.71C127.583 197.44 127.208 193.17 127.151 188.864C127.124 186.021 127.138 183.161 127.43 180.282C127.49 179.734 127.533 179.145 127.618 178.54C127.623 178.205 127.685 177.894 127.649 177.576C127.664 177.379 127.597 177.217 127.53 177.054C127.454 176.752 127.052 176.584 126.709 176.677C126.465 176.778 126.238 176.919 126.142 177.148C125.981 177.452 125.862 177.739 125.758 178.067C125.259 179.747 124.957 181.441 124.809 183.167C124.576 185.261 124.481 187.345 124.484 189.437C124.462 193.204 124.522 196.937 124.72 200.662C124.806 201.911 124.85 203.177 124.895 204.443C124.96 206.224 125.002 208.062 125.027 209.859C125.111 212.726 125.172 215.651 125.272 218.559C125.274 219.605 125.316 220.634 125.375 221.704C125.354 221.998 125.373 222.276 125.49 222.561C125.583 222.903 125.863 223.121 126.214 223.167C126.526 223.229 126.81 223.112 126.971 222.808C127.108 222.562 127.227 222.275 127.307 222.004C127.695 220.75 128.38 219.755 129.353 218.88C129.604 218.682 129.839 218.442 130.131 218.227C131.714 217.101 133.363 216.138 135.121 215.321C135.894 215.003 136.667 214.685 137.424 214.327C137.749 214.193 138.092 214.1 138.343 213.901C138.985 213.495 139.677 213.211 140.368 212.926C141.63 212.408 142.892 211.889 144.113 211.388ZM140.394 206.827C140.97 208.113 141.838 209.183 142.957 210.055C143.608 210.596 144.337 210.867 145.163 210.908C145.833 210.919 146.527 210.871 147.128 210.481C147.672 210.068 148.239 209.597 148.675 209.037C149.418 208.066 150.029 207.006 150.525 205.898C151.086 204.716 151.434 203.479 151.822 202.226C152.432 200.12 152.886 197.983 153.184 195.815C153.352 194.604 153.521 193.393 153.591 192.175C153.654 191.055 153.66 189.911 153.625 188.784C153.476 185.182 152.945 181.69 151.435 178.362C151.402 178.28 151.351 178.158 151.301 178.036C150.733 176.653 149.896 175.427 148.954 174.292C148.102 173.262 147.016 172.471 145.665 172.075C144.394 171.646 143.128 171.691 141.916 172.331C141.095 172.764 140.382 173.342 139.809 174.149C138.688 175.703 138.222 177.465 138.183 179.336C138.102 181.224 138.439 183.084 139.036 184.884C139.162 185.308 139.231 185.708 139.121 186.134C139.066 186.347 139.051 186.543 138.996 186.756C138.504 189.146 138.208 191.551 138.026 194.004C137.927 195.615 137.983 197.257 138.138 198.906C138.395 201.036 138.733 203.133 139.691 205.118C139.925 205.687 140.16 206.257 140.394 206.827ZM141.006 179.841L141.054 179.726C140.632 178.235 140.913 176.835 141.603 175.504C142.14 174.38 143.131 173.782 144.29 173.592C145.106 173.494 145.884 173.65 146.558 174.134C147.29 174.642 147.957 175.224 148.495 175.955C149.215 176.896 149.853 177.87 150.264 178.986C150.298 179.067 150.331 179.148 150.365 179.23C151.54 181.744 152.113 184.41 152.326 187.129C152.528 189.472 152.534 191.801 152.221 194.165C152.016 195.867 151.771 197.585 151.37 199.272C150.978 201.098 150.432 202.892 149.672 204.632C149.264 205.608 148.742 206.536 148.145 207.4C147.838 207.811 147.515 208.182 147.118 208.488C146.809 208.662 146.5 208.837 146.215 208.954C145.71 209.114 145.203 209.037 144.791 208.73C144.042 208.182 143.545 207.435 143.17 206.637C142.745 205.718 142.384 204.725 142.105 203.698C141.656 202.027 141.427 200.313 141.297 198.607C141.103 196.165 141.202 193.746 141.482 191.3C141.496 191.104 141.551 190.891 141.607 190.678C141.631 190.62 141.655 190.563 141.703 190.448C141.825 190.398 141.915 190.503 141.99 190.568C142.346 191.088 142.743 191.591 143.099 192.11C143.936 193.336 144.83 194.586 145.854 195.688C146.184 196.028 146.514 196.368 146.868 196.651C147.033 196.821 147.262 196.916 147.492 197.012C147.722 197.108 147.999 197.089 148.243 196.989C148.65 196.822 148.916 196.427 148.831 195.987C148.687 195.522 148.52 195.115 148.231 194.758C147.733 194.011 147.212 193.322 146.715 192.575C145.754 191.162 144.752 189.766 143.896 188.262C143.315 187.312 142.979 186.261 142.537 185.301C142.42 185.016 142.441 184.722 142.504 184.411C142.624 183.314 142.761 182.259 142.882 181.163C142.911 180.771 142.906 180.297 142.878 179.88C142.831 179.186 141.938 178.982 141.533 179.386C141.387 179.494 141.2 179.618 141.054 179.726L141.006 179.841ZM176.68 155.477C176.446 154.907 176.195 154.297 175.961 153.727C175.786 153.418 175.693 153.076 175.495 152.824C175.354 152.597 175.155 152.346 174.892 152.168C174.686 152.015 174.375 151.952 174.066 152.127C173.782 152.244 173.678 152.572 173.697 152.849C173.7 153.086 173.759 153.347 173.86 153.592C174.304 154.788 174.561 156.11 175.046 157.29C175.13 157.493 175.173 157.714 175.216 157.934C175.292 158.236 175.426 158.561 175.502 158.863C175.646 159.327 175.731 159.768 175.875 160.232C176.161 161.161 176.244 162.173 176.425 163.193C177.026 166.276 177.228 169.428 177.053 172.592C176.872 175.045 176.518 177.426 175.968 179.792C175.467 182.044 174.735 184.2 173.93 186.291C173.107 188.341 172.096 190.279 171.068 192.176C170.497 193.22 169.87 194.239 169.094 195.128C168.876 195.408 168.617 195.705 168.342 195.961C168.195 196.068 168.009 196.193 167.805 196.276C167.496 196.451 167.176 196.249 167.14 195.931C167.114 195.752 167.112 195.515 167.126 195.318C167.23 193.373 167.352 191.468 167.456 189.522C167.541 188.108 167.568 186.669 167.653 185.255C167.668 184.25 167.724 183.228 167.698 182.24C167.69 179.674 167.682 177.108 167.634 174.559C167.607 171.716 167.557 168.93 167.252 166.106C167.217 165.788 167.164 165.429 167.129 165.11C167.059 164.711 166.648 164.404 166.239 164.334C165.846 164.305 165.456 164.513 165.312 164.858C165.168 165.202 165.049 165.489 165.003 165.841C164.887 166.602 164.748 167.421 164.69 168.206C164.549 170.642 164.45 173.061 164.309 175.498C164.302 175.596 164.295 175.694 164.271 175.751C164.226 177.958 164.157 180.222 164.113 182.428C164.051 184.594 163.973 186.719 163.993 188.852C164.047 191.066 164.158 193.304 164.726 195.496C164.929 196.222 165.261 196.799 165.732 197.366C166.186 197.893 166.883 198.082 167.55 197.856C168.039 197.655 168.47 197.43 168.817 197.002C169.205 196.557 169.675 196.079 170.029 195.553C170.642 194.73 171.181 193.842 171.761 192.938C172.43 191.902 173.065 190.785 173.602 189.661C174.268 188.388 174.951 187.156 175.502 185.835C176.054 184.514 176.588 183.153 177.042 181.825C177.519 180.44 177.972 179.112 178.311 177.736C179.083 174.754 179.643 171.718 179.672 168.661C179.671 166.807 179.531 164.961 179.154 163.118C178.975 162.335 178.82 161.495 178.502 160.722C178.168 159.908 177.833 159.094 177.662 158.213C177.626 157.895 177.468 157.627 177.368 157.383C177.141 156.715 176.849 156.121 176.598 155.51C176.639 155.494 176.639 155.494 176.68 155.477ZM193.92 167.135C192.468 168.35 191.24 169.759 190.267 171.443C189.061 173.603 188.495 175.929 188.584 178.461C188.662 179.809 189.042 181.08 189.641 182.308C190.49 183.91 191.952 184.689 193.675 184.599C194.745 184.54 195.755 184.22 196.665 183.656C197.745 182.927 198.808 182.157 199.706 181.217C200.183 180.64 200.734 180.129 201.193 179.511C201.701 178.779 202.226 178.088 202.734 177.356C203.685 175.966 204.653 174.617 205.587 173.187C205.877 172.735 206.093 172.218 206.325 171.742C206.397 171.569 206.388 171.431 206.362 171.251C206.369 171.153 206.237 171.064 206.163 171C206.089 170.935 205.95 170.944 205.926 171.002C205.756 171.167 205.546 171.349 205.392 171.554C204.618 172.681 203.804 173.824 203.03 174.951C201.724 176.867 200.213 178.63 198.536 180.223C197.459 181.189 196.314 181.992 194.938 182.463C194.392 182.639 193.877 182.661 193.313 182.56C192.903 182.49 192.624 182.272 192.392 181.939C192.227 181.769 192.16 181.606 192.076 181.403C191.701 180.606 191.448 179.758 191.415 178.868C191.296 177.537 191.374 176.221 191.82 174.991C192.496 173.048 193.345 171.177 194.571 169.532C195.467 168.355 196.43 167.341 197.706 166.626C197.828 166.576 197.95 166.526 198.056 166.435C198.161 166.344 198.233 166.172 198.207 165.992C198.221 165.796 198.023 165.544 197.827 165.53C197.59 165.532 197.336 165.494 197.099 165.496C196.862 165.498 196.601 165.558 196.331 165.479C195.594 165.306 194.977 164.846 194.594 164.147C194.138 163.383 193.803 162.569 193.672 161.671C193.47 160.137 193.586 158.567 193.955 157.036C194.318 155.602 194.819 154.16 195.493 152.789C196.19 151.36 197.134 150.069 198.449 149.1C199.267 148.431 200.163 148.063 201.149 147.8C202.111 147.595 202.922 147.833 203.559 148.57C203.905 148.951 204.211 149.349 204.395 149.796C204.912 150.821 205.184 151.946 205.357 153.064C205.384 153.243 205.427 153.464 205.51 153.667C205.544 153.748 205.675 153.837 205.79 153.885C205.905 153.933 206.149 153.833 206.197 153.718C206.245 153.603 206.334 153.471 206.341 153.373C206.411 152.964 206.456 152.612 206.445 152.237C206.395 151.305 206.247 150.367 205.896 149.513C205.502 148.438 204.88 147.504 203.991 146.728C203.01 145.846 201.814 145.482 200.524 145.584C199.372 145.676 198.298 146.07 197.29 146.627C195.396 147.691 193.997 149.265 192.919 151.04C192.219 152.231 191.658 153.413 191.303 154.748C190.655 157.108 190.481 159.462 190.977 161.827C191.345 163.532 192.255 164.822 193.662 165.814C193.884 166.008 194.131 166.145 194.394 166.322C194.468 166.387 194.478 166.525 194.528 166.648C194.317 166.829 194.147 166.994 193.92 167.135Z" fill="black"/>
<path opacity="0.5" d="M106.384 245.447L106.654 246.234L105.503 246.707L105.638 247.1L106.022 246.943L113.18 243.552L114.716 242.921L114.851 243.314L114.376 244.407L114.895 244.642L115.188 245.419C115.688 246.763 115.589 247.7 114.893 248.233L115.727 249.236L115.749 250.573L115.23 250.338L114.846 250.496C111.337 252.149 109.643 253.144 109.765 253.481L109.223 253.255C105.127 255.748 103.432 257.94 104.139 259.832L105.288 262.949L114.208 258.386L114.75 258.612L114.885 259.005L112.966 259.794L113.101 260.187C114.381 259.661 115.11 259.661 115.291 260.185L115.448 260.569C115.929 261.867 115.914 262.621 115.402 262.831L113.098 263.778L113.233 264.171L115.921 263.067L116.214 263.844C116.378 264.287 113.509 266.513 107.608 270.521L108.801 274.967L109.343 275.193L109.5 275.577L109.252 276.128L109.387 276.521L110.199 277.533L109.815 277.691L110.627 278.704C111.163 279.751 111.084 282.106 110.39 285.77L107.161 286.648L106.103 282.595C105.124 282.997 104.44 282.724 104.05 281.776L104.004 281.663C104.129 280.855 102.938 276.628 100.43 268.984L101.198 268.668L100.679 268.433L99.9134 265.158L100.433 265.393L100.816 265.235L99.7808 261.174L99.2176 259.61C97.9379 260.136 97.1929 260.143 96.9826 259.631L97.3223 258.146C96.2986 258.566 95.6516 258.383 95.3812 257.597C94.51 255.263 94.4583 253.938 95.226 253.622C96.5057 253.097 96.9051 252.185 96.4245 250.886L96.8084 250.729L97.3274 250.964L97.8249 249.862L98.9765 249.389L100.556 250.086L106.384 245.447ZM108.234 246.931L108.369 247.324L109.521 246.851L113.609 244.722L113.451 244.338L111.147 245.285L108.234 246.931ZM106.356 252.638L106.514 253.022L106.898 252.864L114.26 248.942L114.125 248.548L112.838 248.629L112.589 249.179L112.206 249.337L111.687 249.102L106.356 252.638ZM102.482 272.179L104.059 276.467L104.443 276.309L102.866 272.021L102.482 272.179ZM107.547 282.899L108.11 284.463L108.494 284.305L107.931 282.741L107.547 282.899ZM122.513 240.377C122.768 241.169 123.408 241.355 124.431 240.935L125.762 242.183L125.514 242.734L125.898 242.576C126.288 248.75 127.743 255.481 130.263 262.769L131.074 265.128L131.615 265.354L131.751 265.747L131.502 266.298L131.886 266.141L131.637 266.691L132.967 269.286L133.238 270.072C132.548 272.291 132.359 273.865 132.67 274.793L131.134 275.424L128.967 275.417L128.405 272.507L126.306 271.575L124.64 265.528L122.184 258.461L122.546 256.966L122.006 255.393L121.486 255.158L121.351 254.764L122.119 254.449L121.984 254.056L121.465 253.82L120.026 245.886L119.642 246.044L119.891 245.493L119.057 243.143L118.538 242.908L118.403 242.515L122.513 240.377ZM121.107 249.031L122.076 251.774L122.46 251.617L121.491 248.874L121.107 249.031ZM122.097 253.112L122.908 255.471L123.292 255.313L122.481 252.954L122.097 253.112ZM122.93 256.808L123.764 259.158L124.148 259L123.314 256.65L122.93 256.808ZM129.172 272.191L129.848 274.157L130.323 273.065L129.94 271.876L129.172 272.191ZM147.8 229.009L149.109 228.92L149.425 229.688L148.273 230.161L149.514 230.997C149.483 232.505 147.698 233.987 144.161 235.44L141.631 236.929L141.721 238.238L142.104 238.08C142.085 240.217 143.915 249.038 147.594 264.542L150.796 269.06L150.412 269.217C149.84 269.452 148.803 268.383 147.299 266.009L146.106 262.013L145.948 261.629L145.564 261.787L145.88 262.554C145.112 262.87 144.833 263.284 145.043 263.795L145.201 264.179L148.493 270.006L148.651 270.39L147.883 270.705L145.874 270.185L145.648 270.726L145.264 270.884C143.331 269.092 142.03 267.383 141.362 265.757L141.904 265.983L142.288 265.825L140.416 263.454L141.41 262.596L140.621 260.677L139.853 260.992L139.695 260.609C140.463 260.293 140.742 259.879 140.532 259.367L140.374 258.984L139.606 259.299C138.765 257.252 138.728 256.07 139.496 255.755L137.445 250.764C137.703 250.236 137.111 247.338 135.668 242.071L133.138 243.56L127.606 245.384L127.448 245L129.21 243.828L129.368 244.212L129.594 243.67L135.352 241.304L134.879 240.152L129.052 243.444L128.511 243.218L128.127 243.375L125.981 244.706L124.514 244.411L124.109 242.334L123.567 242.108C123.042 240.828 124.314 239.558 127.385 238.296L147.8 229.009ZM145.97 231.107L146.128 231.491L147.663 230.86L147.505 230.476L145.97 231.107ZM140.6 258.442L143.303 267.203L144.071 266.888L142.898 265.126L142.582 264.358L142.877 262.891L142.493 263.049L142.719 262.507L142.561 262.123L142.02 261.897L141.862 261.513L141.999 259.662L140.984 258.284L140.6 258.442ZM153.31 227.774L156.944 228.973C156.629 228.205 156.727 227.716 157.239 227.506L157.623 227.348L168.676 238.96L168.992 239.727L168.608 239.885L166.893 237.897L166.51 238.055L166.825 238.823L172.194 244.245L172.578 244.087C170.867 237.012 169.488 229.458 168.439 221.425L169.906 221.72L170.9 220.863L173.677 221.068L173.834 221.452C173.067 221.767 172.893 222.437 173.314 223.461L173.698 223.303L174.239 223.529L174.623 223.371L174.218 221.294L174.986 220.978L175.144 221.362L174.918 221.904L175.459 222.13L175.617 222.514C176.121 229.222 177.876 238.417 180.881 250.098L180.114 250.413L178.357 243.956C177.845 244.166 178.077 246.913 179.051 252.196C178.418 253.354 177.68 254.106 176.837 254.452L177.153 255.22L176.769 255.378C176.559 254.866 175.942 254.82 174.918 255.241L173.814 252.554C173.337 251.394 168.149 246.048 158.248 236.514L157.864 236.672C158.715 241.654 160.343 248.164 162.749 256.203L162.207 255.977C160.858 257.059 160.353 258.015 160.693 258.843L159.925 259.158C159.017 258.405 158.078 256.847 157.107 254.483L156.723 254.641L158.142 258.096L157.375 258.411L156.202 256.65C153.344 249.695 151.409 240.618 150.397 229.42L153.31 227.774ZM151.88 239.58L152.038 239.964L152.579 240.19L152.353 240.731L152.669 241.499L153.052 241.342L152.805 239.648L152.264 239.422L151.88 239.58ZM168.992 239.727C169.654 239.455 170.587 240.269 171.789 242.168L171.947 242.551L171.563 242.709L168.992 239.727ZM195.667 210.157L198.048 210.683C198.44 213.179 197.91 214.673 196.458 215.164L186.617 219.736L186.887 220.522L188.84 219.878L191.073 218.697L191.611 218.977L192.004 218.842L194.621 217.503L195.417 217.255L195.552 217.648L187.012 222.239L188.354 227.495L188.747 227.36L198.836 222.237L199.342 222.504L199.477 222.898L198.682 223.145L198.84 223.529L201.723 223.031L201.858 223.424C201.889 225.083 198.692 227.751 192.267 231.43L188.461 233.152L188.98 233.387L189.133 239.026L188.749 239.184L187.555 235.636L187.162 235.771L188.607 241.407C195.849 237.234 201.094 234.604 204.342 233.515L206.43 233.264L206.723 234.042L205.936 234.312L206.442 234.579L206.848 235.759C206.506 237.025 205.107 238.075 202.652 238.908L202.787 239.301L205.942 238.243L206.189 239.038L189.404 248.998L189.01 249.133C187.665 249.369 186.883 249.224 186.667 248.697L186.639 248.629L186.234 247.45L185.587 242.859L185.059 242.601L185.836 242.308L186.489 244.283L186.892 244.17C186.517 242.829 186.564 242.088 187.034 241.947L186.497 241.667L185.199 237.739L184.404 237.987L184.664 240.097L184.944 239.56L185.338 239.424L186.126 241.793L185.724 241.905L185.327 240.748L184.934 240.884L185.205 241.67L184.811 241.805L184.541 241.019L183.097 234.037L182.704 234.172L182.824 231.958L182.295 231.7L182.16 231.307L180.333 224.483L180.861 224.741L181.254 224.606L180.984 223.819L179.937 221.979L179.136 218.296L178.731 217.117L179.133 217.004L179.662 217.262L179.92 216.734L180.322 216.621L180.841 216.857L181.099 216.328L182.288 215.945L195.667 210.157ZM183.345 234.832L184.269 237.594L184.662 237.459L183.747 234.72L183.345 234.832ZM196.217 230.123L196.601 229.965L196.714 230.368L190.046 233.926L189.509 233.645L189.383 233.275L192.796 231.688L192.931 232.081L196.217 230.123ZM209.73 203.719C210.617 203.952 212.875 203.323 216.503 201.832L216.639 202.226L213.951 203.33L214.087 203.723C217.293 202.405 219.611 202.35 221.04 203.558L221.31 204.344L219.391 205.133L219.526 205.526L222.348 204.815L222.483 205.208L220.18 206.155L220.315 206.548C221.083 206.233 221.557 206.337 221.737 206.861C217.176 208.736 213.787 212.073 211.571 216.872L211.707 217.265C217.204 216.555 222.335 217.886 227.1 221.26L227.235 221.653C227.663 225.349 226.313 229.493 223.185 234.086L220.995 235.435L221.13 235.829L221.898 235.513C222.152 236.218 220.119 237.951 215.799 240.712L215.528 239.925L217.448 239.137L217.335 238.734C215.694 239.408 213.843 239.122 211.782 237.875C210.397 237.758 209.364 236.871 208.683 235.216C208.621 235.065 208.564 234.904 208.511 234.732L209.392 233.472L210.814 233.785L211.582 233.47C218.344 229.371 221.124 225.537 219.921 221.967C216.264 221.674 213.946 221.729 212.967 222.132L213.102 222.525L208.7 222.539L209.219 222.774L209.512 223.551C205.356 222.514 203.061 221.363 202.629 220.098L203.424 213.489L204.803 211.128L205.073 211.914L209.73 203.719ZM208.75 216.236L208.885 216.63L213.924 209.623L216.725 207.575L216.455 206.788L215.687 207.104C212.256 210.273 209.944 213.318 208.75 216.236ZM217.34 231.104L217.724 230.946L218.222 229.844L217.838 230.002L217.34 231.104ZM224.25 228.264L223.391 230.861L223.775 230.703L224.634 228.106L224.25 228.264ZM220.703 233.312L220.86 233.696L221.244 233.538L222.374 231.727L220.703 233.312ZM217.449 237.79L217.584 238.183L219.119 237.552L220.904 236.37L220.746 235.986L220.362 236.144L217.449 237.79ZM231.995 194.569C232.883 194.802 235.141 194.174 238.769 192.683L238.904 193.076L236.217 194.18L236.352 194.573C239.559 193.256 241.877 193.201 243.305 194.408L243.576 195.195L241.656 195.983L241.792 196.377L244.614 195.666L244.749 196.059L242.446 197.005L242.581 197.398C243.349 197.083 243.823 197.187 244.003 197.711C239.441 199.586 236.053 202.923 233.837 207.722L233.972 208.115C239.47 207.405 244.601 208.737 249.366 212.11L249.501 212.503C249.928 216.199 248.578 220.343 245.451 224.937L243.26 226.286L243.395 226.679L244.163 226.363C244.418 227.068 242.385 228.801 238.064 231.562L237.794 230.776L239.713 229.987L239.601 229.584C237.96 230.259 236.109 229.972 234.048 228.725C232.662 228.608 231.629 227.722 230.949 226.066C230.887 225.915 230.83 225.754 230.777 225.582L231.658 224.323L233.08 224.636L233.848 224.32C240.61 220.222 243.389 216.387 242.186 212.817C238.529 212.525 236.211 212.58 235.233 212.982L235.368 213.375L230.966 213.389L231.485 213.625L231.778 214.402C227.621 213.365 225.327 212.214 224.895 210.948L225.69 204.34L227.069 201.978L227.339 202.764L231.995 194.569ZM231.016 207.087L231.151 207.48L236.19 200.473L238.991 198.425L238.72 197.639L237.953 197.954C234.522 201.124 232.209 204.168 231.016 207.087ZM239.606 221.954L239.99 221.796L240.487 220.694L240.104 220.852L239.606 221.954ZM246.516 219.115L245.656 221.711L246.04 221.554L246.9 218.957L246.516 219.115ZM242.968 224.162L243.126 224.546L243.51 224.388L244.64 222.578L242.968 224.162ZM239.714 228.64L239.849 229.034L241.385 228.403L243.169 227.221L243.011 226.837L242.628 226.994L239.714 228.64Z" fill="black"/>
<path opacity="0.5" d="M124.075 299.624C125.19 299.136 126.165 299.064 127.002 299.406C127.838 299.749 128.532 300.55 129.083 301.808L132.007 308.487L130.25 309.256L127.318 302.559C126.965 301.751 126.532 301.265 126.02 301.101C125.512 300.928 124.903 300.997 124.196 301.306C123.745 301.504 123.393 301.774 123.14 302.116C122.884 302.452 122.73 302.825 122.679 303.235C122.633 303.643 122.678 304.06 122.812 304.487L125.76 311.222L124.004 311.991L121.076 305.303C120.432 303.831 119.386 303.412 117.94 304.045C117.358 304.3 116.932 304.639 116.662 305.063C116.39 305.481 116.252 305.959 116.249 306.498L119.514 313.956L117.757 314.725L113.308 304.562L114.971 303.834L115.508 304.908C115.678 304.341 115.965 303.839 116.37 303.4C116.773 302.955 117.296 302.592 117.941 302.309C118.611 302.016 119.256 301.894 119.875 301.944C120.497 301.985 121.056 302.222 121.551 302.654C121.682 302 121.957 301.409 122.376 300.883C122.801 300.354 123.367 299.934 124.075 299.624ZM141.416 301.726C141.572 302.083 141.765 302.439 141.995 302.794C142.222 303.142 142.45 303.423 142.678 303.637L142.743 303.787L140.912 304.589C140.698 304.391 140.462 304.073 140.203 303.634C140.017 304.164 139.727 304.652 139.334 305.101C138.944 305.54 138.455 305.888 137.866 306.146C137.19 306.442 136.531 306.574 135.89 306.541C135.252 306.499 134.689 306.313 134.201 305.982C133.719 305.648 133.356 305.202 133.112 304.645C132.797 303.925 132.714 303.234 132.865 302.571C133.021 301.905 133.386 301.298 133.959 300.749C134.535 300.19 135.29 299.707 136.223 299.299L137.932 298.55L137.579 297.742C137.307 297.122 136.91 296.718 136.387 296.529C135.868 296.331 135.264 296.383 134.575 296.684C134.155 296.868 133.812 297.108 133.546 297.403C133.277 297.693 133.104 298.004 133.026 298.336C132.951 298.66 132.977 298.966 133.103 299.254L131.346 300.023C131.13 299.528 131.089 298.975 131.224 298.364C131.36 297.752 131.671 297.168 132.159 296.612C132.644 296.049 133.28 295.594 134.07 295.249C134.821 294.92 135.535 294.761 136.211 294.771C136.89 294.772 137.502 294.959 138.046 295.333C138.588 295.7 139.02 296.253 139.344 296.992L141.416 301.726ZM137.462 304.532C137.863 304.357 138.205 304.125 138.489 303.836C138.777 303.539 138.995 303.219 139.144 302.878C139.293 302.536 139.374 302.202 139.388 301.875L138.467 299.771L137.039 300.396C136.037 300.835 135.34 301.33 134.948 301.883C134.552 302.429 134.49 303.012 134.762 303.632C134.907 303.964 135.113 304.228 135.378 304.426C135.643 304.623 135.954 304.737 136.311 304.767C136.665 304.791 137.048 304.713 137.462 304.532ZM145.911 296.781L145.315 298.385L146.886 301.974L145.129 302.742L138.813 288.314L140.57 287.545L144.386 296.262L144.835 294.756L146.504 290.029L148.636 289.096L146.536 295.064L153.555 299.054L151.489 299.959L145.911 296.781ZM161.065 290.282L154.189 293.292C154.485 293.916 154.867 294.431 155.336 294.838C155.805 295.244 156.328 295.501 156.904 295.607C157.484 295.704 158.074 295.621 158.675 295.357C159.264 295.1 159.719 294.759 160.041 294.334C160.369 293.907 160.604 293.397 160.748 292.805L162.171 293.167C162.048 293.907 161.754 294.599 161.289 295.243C160.822 295.88 160.125 296.402 159.198 296.807C158.271 297.213 157.362 297.361 156.471 297.251C155.58 297.142 154.777 296.799 154.062 296.224C153.354 295.646 152.793 294.884 152.379 293.938L152.202 293.535C151.739 292.476 151.541 291.462 151.609 290.492C151.674 289.516 151.953 288.67 152.446 287.954C152.945 287.236 153.582 286.707 154.359 286.367C155.305 285.953 156.181 285.823 156.987 285.978C157.797 286.123 158.515 286.503 159.142 287.116C159.769 287.73 160.296 288.525 160.724 289.502L161.065 290.282ZM158.634 289.51C158.236 288.737 157.729 288.168 157.114 287.802C156.503 287.428 155.79 287.42 154.976 287.776C154.274 288.083 153.801 288.596 153.556 289.315C153.315 290.025 153.339 290.873 153.629 291.858L158.692 289.642L158.634 289.51ZM166.744 287.963C165.426 288.242 164.358 288.292 163.54 288.112C162.729 287.93 162.15 287.441 161.802 286.646C161.566 286.107 161.506 285.544 161.622 284.956C161.737 284.368 162.021 283.815 162.473 283.296C162.931 282.775 163.53 282.352 164.269 282.029C165.058 281.683 165.808 281.523 166.52 281.547C167.232 281.571 167.847 281.757 168.365 282.105C168.887 282.444 169.276 282.907 169.534 283.496L167.778 284.265C167.651 283.977 167.445 283.735 167.158 283.54C166.871 283.345 166.528 283.234 166.128 283.207C165.732 283.172 165.318 283.249 164.886 283.438C164.429 283.638 164.081 283.876 163.844 284.151C163.603 284.421 163.462 284.703 163.419 284.997C163.38 285.283 163.418 285.558 163.533 285.821C163.651 286.09 163.813 286.288 164.017 286.415C164.226 286.532 164.527 286.591 164.922 286.589C165.323 286.585 165.87 286.514 166.563 286.375C167.5 286.196 168.292 286.122 168.939 286.152C169.587 286.182 170.122 286.331 170.546 286.601C170.977 286.868 171.311 287.274 171.549 287.819C171.807 288.407 171.873 289.001 171.748 289.601C171.62 290.194 171.314 290.75 170.832 291.267C170.346 291.778 169.712 292.205 168.93 292.547C168.065 292.926 167.25 293.1 166.483 293.07C165.72 293.031 165.064 292.829 164.517 292.464C163.969 292.1 163.569 291.629 163.317 291.053L165.073 290.284C165.296 290.724 165.589 291.036 165.953 291.22C166.314 291.398 166.698 291.472 167.103 291.444C167.515 291.413 167.918 291.311 168.313 291.138C168.77 290.938 169.134 290.704 169.405 290.437C169.679 290.16 169.853 289.875 169.926 289.582C169.996 289.282 169.97 288.991 169.846 288.71C169.723 288.428 169.557 288.21 169.347 288.055C169.138 287.901 168.826 287.81 168.411 287.782C167.996 287.755 167.44 287.815 166.744 287.963ZM186.127 272.46C187.242 271.972 188.217 271.899 189.054 272.242C189.89 272.585 190.584 273.385 191.135 274.644L194.059 281.323L192.302 282.092L189.37 275.394C189.017 274.586 188.584 274.101 188.072 273.937C187.563 273.764 186.955 273.832 186.248 274.142C185.797 274.339 185.445 274.609 185.192 274.951C184.936 275.287 184.782 275.66 184.73 276.071C184.685 276.479 184.73 276.896 184.864 277.322L187.812 284.057L186.056 284.826L183.128 278.138C182.484 276.667 181.438 276.247 179.992 276.881C179.409 277.136 178.983 277.475 178.714 277.899C178.442 278.317 178.304 278.795 178.301 279.334L181.566 286.792L179.809 287.561L175.36 277.397L177.023 276.669L177.56 277.744C177.73 277.177 178.017 276.674 178.422 276.236C178.825 275.791 179.348 275.427 179.993 275.145C180.663 274.852 181.308 274.73 181.927 274.78C182.549 274.821 183.108 275.058 183.603 275.49C183.734 274.836 184.009 274.245 184.428 273.719C184.853 273.189 185.419 272.77 186.127 272.46ZM202.865 271.983L195.989 274.993C196.285 275.617 196.667 276.133 197.136 276.539C197.605 276.946 198.128 277.202 198.704 277.308C199.284 277.405 199.874 277.322 200.475 277.059C201.064 276.801 201.519 276.46 201.841 276.036C202.169 275.608 202.404 275.099 202.548 274.506L203.971 274.868C203.848 275.608 203.554 276.301 203.089 276.944C202.622 277.581 201.925 278.103 200.998 278.509C200.071 278.914 199.162 279.062 198.271 278.953C197.38 278.843 196.577 278.5 195.862 277.925C195.154 277.347 194.593 276.585 194.179 275.64L194.002 275.236C193.539 274.178 193.341 273.163 193.409 272.193C193.474 271.217 193.753 270.371 194.246 269.656C194.745 268.937 195.382 268.408 196.159 268.068C197.105 267.654 197.981 267.524 198.787 267.679C199.597 267.824 200.315 268.204 200.942 268.817C201.569 269.431 202.096 270.226 202.524 271.203L202.865 271.983ZM200.434 271.211C200.036 270.438 199.529 269.869 198.914 269.504C198.303 269.13 197.59 269.121 196.776 269.477C196.074 269.784 195.601 270.297 195.356 271.016C195.115 271.726 195.139 272.574 195.429 273.559L200.492 271.343L200.434 271.211ZM211.893 261.18C214.066 260.229 215.691 260.984 216.768 263.445L219.684 270.105L217.927 270.874L215.003 264.195C214.664 263.419 214.248 262.929 213.756 262.727C213.271 262.521 212.69 262.567 212.013 262.863C211.475 263.098 211.054 263.458 210.751 263.941C210.454 264.422 210.288 264.965 210.254 265.569L213.437 272.84L211.681 273.608L205.364 259.18L207.121 258.411L209.514 263.878C209.689 263.272 209.978 262.739 210.381 262.279C210.781 261.812 211.285 261.446 211.893 261.18ZM229.055 263.361C229.211 263.718 229.405 264.073 229.634 264.428C229.861 264.776 230.089 265.057 230.317 265.271L230.383 265.421L228.551 266.223C228.338 266.026 228.101 265.707 227.842 265.269C227.656 265.798 227.366 266.287 226.973 266.735C226.583 267.174 226.094 267.523 225.505 267.78C224.829 268.076 224.17 268.208 223.529 268.175C222.891 268.134 222.328 267.947 221.84 267.616C221.358 267.282 220.995 266.837 220.751 266.28C220.436 265.559 220.354 264.868 220.504 264.205C220.66 263.54 221.025 262.932 221.598 262.383C222.174 261.825 222.929 261.341 223.862 260.933L225.572 260.185L225.218 259.377C224.947 258.757 224.549 258.352 224.026 258.163C223.507 257.965 222.903 258.017 222.214 258.319C221.794 258.502 221.452 258.742 221.185 259.038C220.917 259.327 220.743 259.638 220.665 259.971C220.59 260.294 220.616 260.6 220.742 260.888L218.985 261.657C218.769 261.163 218.728 260.61 218.864 259.998C218.999 259.387 219.31 258.803 219.798 258.246C220.283 257.683 220.92 257.229 221.709 256.883C222.46 256.554 223.174 256.395 223.85 256.405C224.529 256.406 225.141 256.593 225.685 256.967C226.227 257.334 226.659 257.888 226.983 258.627L229.055 263.361ZM225.101 266.166C225.502 265.991 225.844 265.759 226.128 265.47C226.416 265.173 226.634 264.853 226.783 264.512C226.932 264.171 227.014 263.837 227.027 263.51L226.106 261.406L224.678 262.031C223.676 262.469 222.979 262.965 222.587 263.517C222.192 264.063 222.13 264.646 222.401 265.266C222.546 265.598 222.752 265.863 223.017 266.06C223.283 266.257 223.594 266.371 223.95 266.402C224.304 266.426 224.688 266.347 225.101 266.166ZM232.859 252.002C233.698 251.635 234.509 251.537 235.293 251.709C236.075 251.874 236.79 252.281 237.44 252.93C238.086 253.572 238.637 254.413 239.092 255.452L239.179 255.649C239.615 256.645 239.847 257.603 239.877 258.523C239.91 259.434 239.726 260.241 239.326 260.947C238.929 261.643 238.321 262.17 237.5 262.529C236.273 263.067 235.136 263.102 234.088 262.635L236.226 267.52L234.47 268.289L228.31 254.217L229.907 253.518L230.486 254.586C230.815 253.412 231.606 252.551 232.859 252.002ZM237.336 256.221C237.029 255.52 236.653 254.934 236.209 254.465C235.768 253.986 235.268 253.671 234.71 253.52C234.157 253.367 233.577 253.423 232.97 253.689C232.419 253.93 232.004 254.261 231.725 254.681C231.447 255.102 231.283 255.58 231.234 256.116L233.377 261.01C234.299 261.703 235.29 261.818 236.348 261.355C236.949 261.091 237.381 260.705 237.643 260.195C237.902 259.678 238.005 259.096 237.952 258.447C237.906 257.796 237.729 257.12 237.422 256.418L237.336 256.221ZM243.661 247.273C244.5 246.906 245.311 246.808 246.096 246.98C246.877 247.145 247.592 247.552 248.242 248.201C248.889 248.843 249.44 249.684 249.895 250.723L249.981 250.921C250.417 251.916 250.65 252.874 250.679 253.794C250.712 254.705 250.529 255.513 250.128 256.218C249.732 256.914 249.123 257.441 248.303 257.8C247.075 258.338 245.938 258.373 244.89 257.906L247.029 262.791L245.272 263.56L239.112 249.489L240.709 248.79L241.288 249.857C241.617 248.683 242.408 247.822 243.661 247.273ZM248.138 251.492C247.831 250.791 247.455 250.205 247.011 249.736C246.57 249.257 246.07 248.942 245.512 248.791C244.959 248.638 244.38 248.694 243.772 248.96C243.221 249.201 242.806 249.532 242.528 249.952C242.249 250.373 242.085 250.851 242.036 251.387L244.179 256.281C245.102 256.974 246.092 257.089 247.15 256.626C247.752 256.363 248.183 255.976 248.445 255.466C248.704 254.95 248.807 254.367 248.754 253.718C248.708 253.067 248.531 252.391 248.224 251.689L248.138 251.492ZM257.467 241.454L258.526 254.97C258.574 255.763 258.47 256.513 258.213 257.223C257.966 257.936 257.435 258.47 256.621 258.827C256.489 258.884 256.309 258.941 256.08 258.996C255.859 259.056 255.689 259.093 255.569 259.108L254.956 257.708C255.03 257.691 255.113 257.666 255.203 257.634C255.296 257.608 255.377 257.58 255.446 257.55C256.041 257.289 256.447 256.963 256.663 256.57C256.888 256.18 256.968 255.63 256.903 254.92L256.832 253.708L248.806 245.245L250.722 244.406L256.57 250.913L255.597 242.272L257.467 241.454Z" fill="black"/>
<g opacity="0.07" clip-path="url(#clip2_10646_2)">
<path d="M11.4 125.16C11.4 125.16 22.285 39.4308 161.23 48.7823C161.23 48.7823 98.5714 168.661 11.4 125.16Z" fill="url(#paint2_linear_10646_2)"/>
<path opacity="0.08" d="M78.3076 129.525C62.9433 105.697 78.6416 75.8871 98.244 51.9379C18.864 67.4104 11.4001 125.16 11.4001 125.16C35.9938 137.462 58.5311 136.873 78.3076 129.525Z" fill="#1F5148"/>
<path opacity="0.8" d="M101.562 111.821L64.6736 99.6891L109.639 75.9073L130.463 82.9867L112.061 74.7496L125.816 67.2948L126.203 67.5489L126.455 67.1649L147.727 55.8529L127.211 66.0129L133.85 51.6867L124.403 66.9166L124.79 67.1707L87.3237 85.435L101.122 57.6747L84.2631 86.7227L38.002 109.104C38.2542 108.72 38.5063 108.336 38.7585 107.952C40.6409 104.242 43.5319 98.9962 46.1707 94.1342C51.7006 84.0261 56.8435 73.664 56.8435 73.664C56.8435 73.664 50.9267 83.518 45.3969 93.626C42.3711 98.234 39.4801 103.48 37.2108 106.936C36.2022 108.472 35.4457 109.624 34.9414 110.392L10.2219 122.738L12.5783 127.582L62.639 101.101L101.562 111.821Z" fill="#1F5148"/>
</g>
<defs>
<linearGradient id="paint0_linear_10646_2" x1="65.2164" y1="363.605" x2="727.447" y2="396.667" gradientUnits="userSpaceOnUse">
<stop stop-color="#1A7F54"/>
<stop offset="1" stop-color="#7ADBAE"/>
</linearGradient>
<linearGradient id="paint1_linear_10646_2" x1="46.3411" y1="389.002" x2="709.123" y2="369.975" gradientUnits="userSpaceOnUse">
<stop stop-color="#1A7F72"/>
<stop offset="1" stop-color="#7ADBAE"/>
</linearGradient>
<linearGradient id="paint2_linear_10646_2" x1="540.425" y1="415.889" x2="-1013.15" y2="-711.019" gradientUnits="userSpaceOnUse">
<stop stop-color="#41CBB9"/>
<stop offset="1" stop-color="#3EB29D"/>
</linearGradient>
<clipPath id="clip0_10646_2">
<rect width="500" height="663.434" fill="white" transform="matrix(-0.0498641 0.998756 0.998756 0.0498641 77.6367 114)"/>
</clipPath>
<clipPath id="clip1_10646_2">
<rect width="500" height="663.434" fill="white" transform="matrix(0.0286964 0.999588 0.999588 -0.0286964 39.1281 139.193)"/>
</clipPath>
<clipPath id="clip2_10646_2">
<rect width="147.461" height="89.8003" fill="white" transform="translate(6 123.263) rotate(-56.7094)"/>
</clipPath>
</defs>
</svg>
