<svg width="704" height="757" viewBox="0 0 704 757" fill="none" xmlns="http://www.w3.org/2000/svg">
<g opacity="0.07" clip-path="url(#clip0_10646_3)">
<path d="M13.4001 125.16C13.4001 125.16 24.285 39.4308 163.23 48.7823C163.23 48.7823 100.571 168.661 13.4001 125.16Z" fill="url(#paint0_linear_10646_3)"/>
<path opacity="0.08" d="M80.3075 129.525C64.9433 105.697 80.6416 75.8871 100.244 51.9379C20.8639 67.4104 13.4 125.16 13.4 125.16C37.9938 137.462 60.531 136.873 80.3075 129.525Z" fill="#1F5148"/>
<path opacity="0.8" d="M103.562 111.821L66.6736 99.6891L111.639 75.9073L132.464 82.9867L114.061 74.7496L127.816 67.2948L128.203 67.5489L128.455 67.1649L149.727 55.8529L129.211 66.0129L135.85 51.6867L126.403 66.9166L126.79 67.1707L89.3237 85.435L103.122 57.6747L86.2631 86.7227L40.0021 109.104C40.2542 108.72 40.5064 108.336 40.7585 107.952C42.6409 104.242 45.5319 98.9962 48.1708 94.1342C53.7006 84.0261 58.8435 73.664 58.8435 73.664C58.8435 73.664 52.9268 83.518 47.3969 93.626C44.3711 98.234 41.4801 103.48 39.2108 106.936C38.2022 108.472 37.4458 109.624 36.9415 110.392L12.222 122.738L14.5784 127.582L64.639 101.101L103.562 111.821Z" fill="#1F5148"/>
</g>
<g opacity="0.1" clip-path="url(#clip1_10646_3)">
<path d="M209.436 357.091C243.658 349.829 279.938 350.753 313.336 340.143C358.404 326.116 393.297 293.515 431.042 266.86C469.193 240.575 517.849 219.078 563.065 232.622C623.217 250.558 644.538 318.254 656.533 375.568C669.354 436.603 682.175 497.639 694.997 559.046C702.022 591.424 708.257 626.786 691.486 656.309C670.324 693.681 620.818 706.986 576.115 713.931C398.516 742.45 -69.3245 764.323 61.7237 472.263C87.2147 415.122 144.213 370.852 209.436 357.091Z" fill="url(#paint1_linear_10646_3)"/>
</g>
<g opacity="0.1" clip-path="url(#clip2_10646_3)">
<path d="M181.717 370.451C215.263 360.525 251.504 358.598 283.966 345.398C327.794 327.877 360.019 292.637 395.556 263.101C431.526 233.903 478.344 208.652 524.483 218.605C585.858 231.763 612.427 297.577 628.884 353.772C646.457 413.612 664.03 473.453 681.634 533.664C691.179 565.39 700.171 600.154 685.77 630.903C667.606 669.82 619.297 686.97 575.278 697.404C400.466 739.777 -64.2136 798.31 43.5022 496.864C64.4286 437.897 117.776 389.29 181.717 370.451Z" fill="url(#paint2_linear_10646_3)"/>
</g>
<path d="M135.546 680.569C135.546 680.569 105.76 686.021 104.307 686.021C92.3205 686.748 42.9202 701.651 44.3732 711.828C45.0997 713.282 52.0012 715.1 54.9071 710.011C65.0777 714.736 68.7101 713.282 75.6116 710.374C80.3337 708.557 84.3293 707.467 88.3249 711.465C91.9573 715.463 103.581 719.098 110.119 715.463C115.931 712.192 113.751 706.74 118.11 702.378C118.474 702.014 147.533 695.108 148.259 694.745C153.708 690.383 137.725 679.478 135.546 680.569Z" fill="#F4A082"/>
<path fill-rule="evenodd" clip-rule="evenodd" d="M526.752 343.619C526.752 343.619 517.671 302.546 482.8 291.641C456.284 283.281 409.79 282.554 391.991 322.901C372.013 369.063 399.982 364.338 386.906 384.693C373.829 405.048 353.851 398.869 350.219 415.225C346.586 431.582 361.116 454.118 356.757 463.205C352.035 472.292 329.151 489.012 334.963 503.552C341.864 520.999 356.031 525.361 350.945 534.448C341.138 551.895 323.702 548.624 326.245 552.622C328.788 556.62 383.273 580.247 401.072 561.345C414.512 547.533 407.973 524.997 410.153 514.456C414.875 493.374 445.387 483.197 464.638 475.564C484.253 467.93 486.433 439.215 491.881 425.766C497.693 412.681 537.649 413.771 526.752 343.619Z" fill="#1D3542"/>
<path d="M480.984 300.729C464.639 291.642 422.503 288.371 404.341 328.717C387.269 366.883 413.422 376.697 400.346 396.689C387.269 416.68 366.565 411.955 362.932 428.312C359.3 444.668 373.829 459.935 369.107 469.022C364.385 478.109 343.317 489.74 349.129 503.916C356.031 521.363 370.923 526.088 344.407 551.532" stroke="#01080A" stroke-miterlimit="10" stroke-linecap="round" stroke-linejoin="round"/>
<path d="M394.17 320.719C374.192 359.612 391.628 358.158 378.188 379.967C364.748 401.776 345.86 397.051 341.864 414.498C337.868 431.945 354.577 453.027 349.855 462.841C345.133 472.655 325.882 487.558 335.326 503.188" stroke="#01080A" stroke-miterlimit="10" stroke-linecap="round" stroke-linejoin="round"/>
<path d="M484.98 311.269C468.634 302.182 464.275 317.812 413.785 330.534C396.713 368.699 427.588 380.694 414.512 401.049C401.435 421.404 380.73 416.315 377.098 432.672C373.466 449.029 387.995 464.295 383.273 473.382C378.551 482.469 357.483 494.101 363.295 508.277C370.197 525.724 385.089 530.449 358.573 555.893" stroke="#01080A" stroke-miterlimit="10" stroke-linecap="round" stroke-linejoin="round"/>
<path d="M441.754 339.985C422.503 377.06 453.015 390.872 438.848 410.5C424.682 430.129 404.341 423.949 399.619 439.943C395.26 455.936 409.063 471.929 403.978 481.016C398.892 490.103 377.098 500.281 382.183 515.183C388.359 532.994 397.076 533.721 369.107 558.074" stroke="#01080A" stroke-miterlimit="10" stroke-linecap="round" stroke-linejoin="round"/>
<path d="M473.356 350.525C450.472 385.42 479.168 402.14 463.186 420.314C447.203 438.488 427.225 430.128 421.413 445.758C415.238 461.388 427.225 478.471 421.413 486.831C415.238 495.191 392.718 503.188 396.35 518.454C400.709 536.629 409.063 538.446 378.915 559.891" stroke="#01080A" stroke-miterlimit="10" stroke-linecap="round" stroke-linejoin="round"/>
<path d="M452.652 380.694C451.199 388.691 450.472 419.587 446.477 418.86C445.024 418.496 433.763 419.95 431.947 419.95C419.234 421.768 397.077 418.86 392.354 431.218C387.996 442.123 433.037 482.833 426.135 509.731C423.23 520.999 411.606 559.891 410.88 571.523C462.822 580.973 516.945 572.25 516.218 567.888C516.218 539.173 501.689 524.633 504.595 501.007C506.774 498.099 514.402 474.109 514.765 466.84C515.129 459.933 548.183 437.398 531.111 426.13C509.68 412.317 483.164 422.131 482.437 417.043C481.711 411.954 482.074 398.868 480.258 384.693C478.442 371.971 454.105 372.334 452.652 380.694Z" fill="#F4A082"/>
<path opacity="0.6" d="M478.441 390.872C478.441 396.688 468.634 405.411 459.553 405.048C450.472 405.048 450.393 401.365 451.293 395.282C451.293 389.466 450.109 383.239 459.19 383.239C468.634 383.602 478.441 384.693 478.441 390.872Z" fill="#DB8C70"/>
<path d="M434.127 352.344C434.127 352.344 428.315 346.165 427.952 353.798C427.225 369.791 436.669 371.972 437.759 372.335C439.212 372.699 434.127 352.344 434.127 352.344Z" fill="#F4A082"/>
<path d="M498.056 352.706C498.056 352.706 503.868 346.526 504.231 354.16C504.958 370.153 495.514 372.334 494.424 372.697C492.971 373.061 498.056 352.706 498.056 352.706Z" fill="#F4A082"/>
<path fill-rule="evenodd" clip-rule="evenodd" d="M434.49 336.713C433.763 342.165 433.037 348.708 433.4 355.614C433.4 387.964 452.652 396.688 469.361 397.051C491.518 398.142 502.415 367.609 500.236 349.799C498.783 338.531 497.33 333.442 493.698 326.536C480.984 308.362 484.617 322.537 434.49 336.713Z" fill="#F4A082"/>
<path d="M515.068 454.666C509.85 447.123 505.602 432.656 504.036 426.139C502.469 419.623 500.997 418.558 500.997 418.558C500.997 418.558 496.62 417.544 495.186 418.66C495.569 419.744 506.237 448.277 502.656 451.248C499.795 453.842 473.517 467.752 463.417 471.927C453.178 468.107 424.616 455.155 421.666 452.661C418.347 449.811 427.33 421.611 427.674 420.514C425.425 420.064 422.05 420.514 422.05 420.514C422.05 420.514 420.753 421.05 419.414 427.617C418.075 434.184 416.13 447.669 411.918 456.104C405.257 470.034 405.548 486.752 419.226 500.328C419.965 501.042 421.106 503.93 421.857 505.371C422.978 507.169 419.808 533.763 419.808 533.763C444.701 544.598 496.942 540.414 510.241 532.184C510.241 532.184 508.926 498.398 509.64 497.658C521.811 487.267 520.285 462.209 515.068 454.666Z" fill="#FFD2B9"/>
<path d="M466.818 343.256C468.634 351.252 467.181 359.613 466.455 361.067C465.002 363.247 461.369 361.43 461.733 363.247C462.459 367.609 467.908 367.973 470.45 366.155" stroke="#EFAFA3" stroke-width="1.38" stroke-miterlimit="10" stroke-linecap="round" stroke-linejoin="round"/>
<path opacity="0.69" d="M442.844 340.711C445.024 339.621 449.746 338.894 453.378 340.348" stroke="#682C1A" stroke-width="1.31" stroke-miterlimit="10" stroke-linecap="round" stroke-linejoin="round"/>
<path d="M454.468 352.343C452.652 355.251 446.114 355.614 443.934 352.706" stroke="#49241B" stroke-miterlimit="10" stroke-linecap="round" stroke-linejoin="round"/>
<path d="M490.065 352.707C488.249 355.614 481.711 355.978 479.531 353.07" stroke="#49241B" stroke-miterlimit="10" stroke-linecap="round" stroke-linejoin="round"/>
<path opacity="0.69" d="M489.339 341.076C487.159 339.985 482.074 339.258 478.442 340.712" stroke="#682C1A" stroke-width="1.31" stroke-miterlimit="10" stroke-linecap="round" stroke-linejoin="round"/>
<path d="M459.19 376.425C459.916 377.879 468.634 382.241 474.446 376.062" stroke="#BC4926" stroke-width="1.45" stroke-miterlimit="10" stroke-linecap="round" stroke-linejoin="round"/>
<path opacity="0.24" fill-rule="evenodd" clip-rule="evenodd" d="M453.741 365.792C452.288 368.7 447.566 369.427 443.208 367.973C438.849 366.156 436.669 362.521 438.485 359.613C439.938 356.705 444.66 355.978 449.019 357.432C453.378 359.249 455.194 362.884 453.741 365.792Z" fill="#ED5851"/>
<path opacity="0.24" fill-rule="evenodd" clip-rule="evenodd" d="M480.984 366.156C482.8 368.7 487.522 369.427 491.518 367.246C495.514 365.066 497.33 361.431 495.514 358.523C493.697 355.979 488.975 355.252 484.98 357.432C480.621 359.613 478.805 363.612 480.984 366.156Z" fill="#ED5851"/>
<path d="M465.728 568.251C465.728 570.068 465.002 571.886 463.912 571.886C462.823 571.886 462.096 570.432 462.096 568.251C462.096 566.434 462.823 564.616 463.912 564.616C464.639 564.98 465.728 566.434 465.728 568.251Z" fill="#EFAFA3"/>
<path d="M429.768 320.72C435.216 311.633 458.464 296.73 482.074 299.274" stroke="#01080A" stroke-miterlimit="10" stroke-linecap="round" stroke-linejoin="round"/>
<path d="M622.647 485.377C626.279 473.746 613.203 455.208 595.767 462.478C574.336 467.93 514.765 554.075 514.765 554.075C514.765 554.075 473.356 568.251 412.696 558.074C410.516 563.162 403.978 577.702 403.978 577.702C403.978 577.702 350.219 606.78 270.307 643.129C239.068 657.304 135.183 679.113 135.183 680.204C135.183 683.839 135.183 696.561 135.183 696.561C135.183 696.561 257.593 710.373 295.37 669.663C295.37 669.663 393.807 660.212 466.455 626.772C518.761 631.134 539.466 602.419 571.43 563.162C596.494 532.266 616.835 503.915 622.647 485.377Z" fill="#1F5148"/>
<path d="M411.928 561.097C411.928 561.097 460.965 575.967 513.676 557.71" stroke="#1D4941" stroke-width="1.44" stroke-miterlimit="10" stroke-linecap="round" stroke-linejoin="round"/>
<path d="M410.354 564.477C410.354 564.477 462.54 580.923 512.223 561.709" stroke="#1D4941" stroke-width="1.44" stroke-miterlimit="10" stroke-linecap="round" stroke-linejoin="round"/>
<path d="M515.401 554.113L506.048 576.247" stroke="#1D4941" stroke-width="1.44" stroke-miterlimit="10" stroke-linecap="round"/>
<path d="M590.682 623.502C590.682 623.502 583.78 652.217 583.417 653.671C582.691 660.94 586.323 673.299 579.058 701.287C591.408 703.104 587.413 712.918 578.332 712.918C552.542 712.918 559.443 696.562 563.439 685.294C565.255 680.205 562.713 674.753 558.717 671.118C554.721 667.483 550.363 656.215 553.632 649.672C556.901 643.857 564.529 645.311 568.524 640.949C568.888 640.585 568.161 616.232 568.524 615.505C572.883 608.962 591.408 621.321 590.682 623.502Z" fill="#F4A082"/>
<path d="M622.647 478.834C627.369 515.909 590.319 607.507 590.319 638.766C590.319 638.766 575.789 645.309 568.161 636.949C569.251 610.051 547.093 562.072 582.327 514.455C603.758 485.013 609.57 487.194 622.647 478.834Z" fill="#1F5148"/>
<path d="M575.212 519.37C575.212 519.37 558.978 546.455 562.414 580.247" stroke="#1D4941" stroke-width="1.75" stroke-miterlimit="10" stroke-linecap="round"/>
<path d="M392.354 431.219C387.269 435.581 360.026 546.807 368.744 551.169C377.825 555.53 465.728 512.276 465.728 512.276C465.728 512.276 463.912 463.206 463.912 450.484C458.827 449.757 452.652 502.098 452.652 502.098C452.652 502.098 399.619 522.09 396.713 524.634C393.807 527.179 409.426 460.661 412.696 455.573C413.785 450.484 397.803 427.221 392.354 431.219Z" fill="#F4A082"/>
<path d="M534.743 431.219C539.829 435.581 567.072 546.807 558.354 551.169C549.273 555.53 461.733 512.276 461.733 512.276C461.733 512.276 463.549 463.206 463.549 450.484C468.634 449.757 474.809 502.098 474.809 502.098C474.809 502.098 527.842 522.09 530.748 524.634C533.654 527.179 518.035 460.661 514.765 455.573C513.312 450.484 529.658 427.221 534.743 431.219Z" fill="#F4A082"/>
<path d="M463.549 513.003L463.912 449.03" stroke="#DB8C70" stroke-width="1.38" stroke-miterlimit="10" stroke-linecap="round" stroke-linejoin="round"/>
<path d="M468.634 556.983C468.634 558.8 467.544 560.254 466.455 560.254C465.365 560.254 464.639 558.437 464.639 556.619C464.639 554.802 465.728 553.348 466.818 553.348C467.908 553.348 468.997 554.802 468.634 556.983Z" fill="#DB8C70"/>
<path d="M404.341 579.883L436.669 596.24" stroke="#1D4941" stroke-width="1.44" stroke-miterlimit="10" stroke-linecap="round"/>
<path opacity="0.56" d="M609.358 715.564C609.378 717.466 486.779 720.34 335.408 721.916C184.04 723.492 61.4087 723.247 61.3881 721.268C61.3683 719.366 183.967 716.492 335.335 714.916C486.706 713.341 609.339 713.661 609.358 715.564Z" fill="black" fill-opacity="0.2"/>
<path opacity="0.5" d="M35.4768 319.32C35.4487 320.031 35.3792 320.756 35.3511 321.466C35.2374 323.514 35.2214 325.574 35.2054 327.634C35.1894 329.694 35.271 331.766 35.4355 333.808C35.5854 335.81 35.8328 337.823 36.0241 339.809C36.376 342.906 36.5887 346.005 37.0235 349.072C37.1546 350.1 37.271 351.085 37.4288 352.056C37.5666 352.708 37.8435 353.357 38.0642 353.979C38.1378 354.186 38.2796 354.322 38.4214 354.459C38.6193 354.622 38.9805 354.587 39.0875 354.363C39.153 354.153 39.2748 353.969 39.2841 353.733C39.3055 353.398 39.2855 353.078 39.2654 352.759C38.9202 349.286 38.6166 345.799 38.2714 342.326C38.04 339.701 37.9476 337.072 38.0359 334.426C38.1549 331.209 38.3301 328.019 38.6591 324.868C38.7889 323.654 38.8624 322.414 38.9507 321.216C39.1045 319.807 39.2021 318.372 39.356 316.963C39.5954 314.217 40.1424 311.549 40.7457 308.907C40.8233 308.599 40.9008 308.292 40.8955 308.013C41.0038 307.134 40.4313 306.311 39.5939 306.187C38.7419 306.023 37.9981 306.427 37.6383 307.255C37.4898 307.494 37.4537 307.787 37.3762 308.095C36.9374 309.885 36.2887 311.609 35.5276 313.28C34.8588 314.684 34.2167 316.033 33.5332 317.396C33.3995 317.677 33.2242 317.972 33.049 318.268C31.9976 320.041 31.1148 321.895 30.2882 323.776C30.0086 324.436 29.8414 325.149 29.7719 325.874C29.6542 326.989 29.8294 328.141 30.3364 329.175C30.4394 329.465 30.6106 329.685 30.8648 329.874C31.0066 330.011 31.2848 330.006 31.4359 329.905C31.5871 329.805 31.6821 329.678 31.6647 329.497C31.6593 329.219 31.5978 328.914 31.551 328.651C31.361 327.457 31.4078 326.274 31.8599 325.179C32.2732 324.239 32.7013 323.34 33.227 322.453C33.8449 321.3 34.5338 320.215 35.208 319.089C35.2347 319.033 35.3176 319.003 35.4006 318.974C35.4447 319.098 35.4889 319.223 35.4768 319.32ZM87.7727 336.573C88.1459 336.441 88.4777 336.323 88.8509 336.19C90.6607 335.501 92.5293 334.978 94.1947 334.014C94.2362 333.999 94.2776 333.985 94.3191 333.97C95.7116 333.289 97.0064 332.596 98.1982 331.613C98.7052 331.2 99.2536 330.772 99.7459 330.317C99.992 330.089 100.238 329.862 100.428 329.608C100.633 329.395 100.725 329.129 100.788 328.78C100.911 327.942 100.027 327.556 99.4609 327.803C99.2536 327.877 99.1024 327.977 98.9098 328.092C98.2637 328.508 97.6177 328.924 96.9983 329.284C96.2131 329.703 95.3838 329.997 94.6428 330.54C94.0943 330.968 93.475 331.328 92.8851 331.771C91.2933 332.943 89.5571 333.839 87.7352 334.625C86.3133 335.223 84.9356 335.946 83.4428 336.475C83.3184 336.52 83.2354 336.549 83.1258 336.635C82.6429 336.853 82.2015 337.056 81.76 337.259C81.4016 337.433 81.0431 337.607 80.726 337.766C80.3261 337.955 79.9676 338.129 79.5677 338.317C79.2921 338.462 78.9604 338.58 78.6848 338.724C77.6508 339.231 76.6583 339.723 75.639 340.272C74.371 340.908 73.1176 341.587 71.994 342.499C71.8576 342.641 71.6649 342.756 71.4723 342.871C71.4723 342.871 71.3894 342.9 71.3747 342.859C71.3185 342.832 71.2476 342.764 71.2329 342.722C71.2663 342.29 71.3412 341.843 71.3894 341.453C71.5164 340.101 71.7411 338.76 71.8267 337.423C71.9725 335.597 72.1036 333.729 72.1102 331.906C72.1142 329.944 72.1329 328.023 72.1102 326.117C71.9443 321.834 71.7784 317.551 71.9321 313.247C72.0445 310.406 72.1983 307.55 72.6303 304.689C72.7172 304.145 72.7895 303.559 72.9032 302.958C72.9245 302.624 73.0021 302.316 72.9821 301.996C73.0061 301.801 72.9473 301.635 72.8884 301.469C72.8269 301.164 72.4336 300.977 72.0872 301.053C71.8384 301.142 71.6043 301.272 71.4973 301.496C71.322 301.792 71.1883 302.073 71.0692 302.395C70.4887 304.048 70.1035 305.726 69.8721 307.442C69.5364 309.522 69.3398 311.599 69.2408 313.689C69.0349 317.45 68.9118 321.182 68.9279 324.912C68.952 326.164 68.9346 327.43 68.9173 328.697C68.8959 330.479 68.8478 332.317 68.7849 334.113C68.7288 336.981 68.6459 339.905 68.6044 342.815C68.5549 343.859 68.5469 344.889 68.5536 345.961C68.5175 346.254 68.5229 346.532 68.6259 346.822C68.7021 347.169 68.971 347.4 69.3201 347.463C69.6278 347.54 69.918 347.437 70.0933 347.142C70.2417 346.902 70.3755 346.622 70.4678 346.355C70.9172 345.122 71.6502 344.162 72.6642 343.335C72.925 343.149 73.1711 342.922 73.4734 342.721C75.1093 341.674 76.8041 340.792 78.5992 340.062C79.3871 339.782 80.175 339.502 80.9481 339.181C81.2798 339.064 81.6263 338.987 81.8871 338.802C82.5479 338.427 83.2529 338.177 83.9578 337.927C85.2433 337.471 86.5287 337.014 87.7727 336.573ZM84.2811 331.836C84.7935 333.148 85.6081 334.26 86.6836 335.185C87.3069 335.758 88.0226 336.064 88.8452 336.146C89.514 336.189 90.2096 336.175 90.8289 335.815C91.3921 335.429 91.982 334.986 92.4448 334.448C93.234 333.515 93.8961 332.486 94.4459 331.404C95.0638 330.251 95.4718 329.032 95.9212 327.799C96.6328 325.725 97.1906 323.613 97.5945 321.462C97.8219 320.261 98.0493 319.06 98.1791 317.847C98.2968 316.731 98.3583 315.589 98.3783 314.461C98.4064 310.856 98.0465 307.342 96.7008 303.945C96.6714 303.862 96.6272 303.737 96.5831 303.613C96.0828 302.203 95.307 300.938 94.4214 299.758C93.6215 298.688 92.5755 297.845 91.2445 297.384C89.9965 296.893 88.7297 296.875 87.4884 297.456C86.647 297.848 85.906 298.391 85.2947 299.168C84.0989 300.666 83.5478 302.402 83.4167 304.27C83.2442 306.152 83.489 308.026 83.9973 309.853C84.103 310.283 84.1525 310.685 84.0214 311.105C83.9559 311.315 83.9318 311.51 83.8662 311.72C83.2576 314.084 82.8443 316.472 82.5434 318.913C82.3655 320.517 82.3415 322.159 82.415 323.814C82.5676 325.954 82.803 328.065 83.6631 330.094C83.8691 330.675 84.0751 331.255 84.2811 331.836ZM86.2124 304.912L86.2659 304.799C85.9168 303.289 86.2659 301.905 87.0203 300.61C87.6115 299.513 88.6308 298.965 89.7972 298.831C90.6172 298.773 91.3863 298.967 92.0364 299.484C92.7427 300.027 93.3808 300.641 93.8824 301.396C94.5552 302.372 95.1451 303.376 95.501 304.51C95.5304 304.593 95.5598 304.676 95.5892 304.759C96.6407 307.328 97.0821 310.019 97.1624 312.745C97.2494 315.095 97.141 317.421 96.713 319.768C96.4255 321.457 96.0964 323.161 95.6135 324.827C95.1333 326.631 94.4993 328.397 93.6553 330.097C93.2005 331.052 92.6334 331.954 91.9953 332.787C91.6689 333.183 91.3278 333.537 90.9158 333.824C90.5988 333.983 90.2818 334.142 89.9915 334.245C89.4792 334.38 88.9763 334.278 88.5803 333.952C87.8593 333.367 87.3992 332.597 87.0634 331.782C86.6835 330.843 86.3718 329.833 86.1431 328.794C85.7766 327.103 85.6321 325.38 85.5852 323.67C85.5103 321.222 85.7283 318.81 86.1269 316.381C86.151 316.185 86.2165 315.975 86.2821 315.765C86.3088 315.709 86.3356 315.653 86.3891 315.541C86.5135 315.497 86.5991 315.606 86.67 315.674C87.0004 316.211 87.3723 316.733 87.7027 317.269C88.4785 318.534 89.3105 319.827 90.279 320.977C90.592 321.333 90.905 321.688 91.2448 321.988C91.4013 322.166 91.626 322.273 91.8507 322.38C92.0755 322.487 92.3537 322.482 92.6025 322.393C93.0172 322.246 93.3021 321.865 93.2379 321.421C93.1175 320.95 92.9703 320.535 92.6988 320.165C92.2386 319.394 91.7517 318.68 91.2916 317.91C90.4007 316.452 89.4683 315.008 88.6871 313.465C88.1534 312.487 87.8685 311.421 87.4738 310.44C87.3708 310.15 87.407 309.857 87.4845 309.549C87.6584 308.461 87.847 307.413 88.0209 306.324C88.069 305.934 88.0878 305.46 88.0797 305.043C88.0664 304.347 87.1848 304.1 86.7608 304.484C86.6097 304.584 86.417 304.699 86.2659 304.799L86.2124 304.912ZM123.034 282.321C122.828 281.741 122.607 281.119 122.401 280.538C122.242 280.221 122.166 279.875 121.98 279.614C121.85 279.38 121.664 279.119 121.41 278.929C121.212 278.766 120.905 278.688 120.588 278.847C120.297 278.95 120.178 279.273 120.184 279.551C120.174 279.788 120.221 280.051 120.309 280.3C120.695 281.517 120.887 282.85 121.314 284.052C121.388 284.259 121.42 284.482 121.452 284.704C121.513 285.009 121.631 285.34 121.693 285.645C121.813 286.116 121.877 286.56 121.998 287.031C122.238 287.973 122.272 288.988 122.403 290.015C122.852 293.124 122.899 296.282 122.57 299.434C122.269 301.875 121.8 304.236 121.135 306.573C120.524 308.797 119.688 310.915 118.781 312.964C117.859 314.972 116.754 316.858 115.635 318.702C115.014 319.716 114.337 320.704 113.519 321.554C113.287 321.823 113.014 322.107 112.727 322.349C112.576 322.449 112.383 322.564 112.176 322.638C111.859 322.797 111.548 322.58 111.528 322.261C111.511 322.08 111.52 321.843 111.544 321.648C111.744 319.71 111.958 317.813 112.157 315.875C112.311 314.466 112.408 313.031 112.562 311.622C112.626 310.619 112.732 309.601 112.755 308.613C112.872 306.05 112.99 303.487 113.066 300.939C113.179 298.097 113.264 295.312 113.098 292.477C113.078 292.157 113.043 291.796 113.023 291.476C112.974 291.074 112.578 290.747 112.173 290.658C111.782 290.609 111.382 290.798 111.222 291.135C111.061 291.472 110.927 291.753 110.864 292.102C110.712 292.857 110.533 293.667 110.436 294.448C110.177 296.875 109.959 299.287 109.699 301.713C109.687 301.811 109.675 301.908 109.649 301.965C109.496 304.166 109.317 306.424 109.164 308.626C108.997 310.786 108.815 312.905 108.731 315.036C108.676 317.25 108.678 319.49 109.138 321.708C109.305 322.443 109.609 323.035 110.052 323.625C110.48 324.173 111.166 324.397 111.844 324.203C112.342 324.026 112.783 323.823 113.151 323.412C113.56 322.987 114.052 322.532 114.432 322.024C115.085 321.232 115.667 320.372 116.29 319.497C117.009 318.495 117.697 317.41 118.289 316.313C119.016 315.075 119.759 313.878 120.374 312.585C120.989 311.293 121.59 309.96 122.107 308.655C122.652 307.295 123.17 305.991 123.575 304.633C124.492 301.693 125.2 298.687 125.378 295.636C125.467 293.783 125.418 291.933 125.132 290.074C124.991 289.284 124.878 288.437 124.598 287.649C124.304 286.82 124.009 285.99 123.881 285.102C123.861 284.782 123.716 284.507 123.628 284.258C123.434 283.58 123.172 282.973 122.951 282.351C122.993 282.336 122.993 282.336 123.034 282.321ZM139.683 294.808C138.174 295.951 136.878 297.298 135.824 298.932C134.515 301.031 133.835 303.327 133.8 305.86C133.813 307.21 134.13 308.498 134.669 309.754C135.438 311.395 136.86 312.245 138.585 312.239C139.657 312.232 140.681 311.962 141.618 311.443C142.732 310.768 143.832 310.051 144.775 309.156C145.279 308.603 145.854 308.119 146.344 307.525C146.887 306.819 147.444 306.154 147.987 305.448C149.005 304.106 150.038 302.806 151.041 301.423C151.353 300.985 151.594 300.48 151.849 300.016C151.929 299.847 151.927 299.708 151.909 299.527C151.921 299.43 151.794 299.335 151.723 299.267C151.653 299.198 151.513 299.201 151.487 299.257C151.309 299.414 151.089 299.585 150.926 299.783C150.098 300.87 149.229 301.973 148.401 303.06C147.003 304.91 145.407 306.597 143.655 308.106C142.531 309.018 141.349 309.765 139.951 310.167C139.397 310.317 138.882 310.313 138.323 310.185C137.918 310.095 137.649 309.864 137.434 309.52C137.277 309.342 137.218 309.176 137.145 308.969C136.809 308.154 136.598 307.295 136.608 306.404C136.555 305.069 136.696 303.759 137.202 302.552C137.973 300.645 138.912 298.817 140.217 297.234C141.169 296.102 142.181 295.136 143.49 294.485C143.615 294.44 143.739 294.396 143.849 294.311C143.958 294.225 144.039 294.057 144.021 293.876C144.045 293.681 143.859 293.42 143.664 293.396C143.427 293.386 143.176 293.336 142.939 293.326C142.702 293.317 142.439 293.364 142.173 293.271C141.445 293.063 140.851 292.573 140.503 291.856C140.085 291.071 139.79 290.242 139.703 289.339C139.576 287.796 139.769 286.234 140.213 284.723C140.645 283.309 141.216 281.892 141.956 280.556C142.722 279.163 143.728 277.919 145.089 277.016C145.939 276.388 146.852 276.064 147.849 275.85C148.821 275.692 149.619 275.969 150.218 276.737C150.546 277.134 150.832 277.546 150.994 278.002C151.46 279.051 151.676 280.188 151.795 281.313C151.813 281.493 151.845 281.715 151.919 281.923C151.948 282.006 152.075 282.101 152.187 282.154C152.3 282.208 152.549 282.119 152.602 282.007C152.656 281.895 152.751 281.768 152.763 281.67C152.852 281.265 152.915 280.916 152.922 280.54C152.918 279.607 152.816 278.663 152.507 277.792C152.166 276.699 151.591 275.736 150.74 274.918C149.804 273.989 148.627 273.567 147.333 273.605C146.179 273.642 145.086 273.983 144.052 274.49C142.108 275.459 140.634 276.963 139.47 278.683C138.713 279.839 138.095 280.992 137.675 282.308C136.913 284.633 136.624 286.977 137.004 289.363C137.288 291.083 138.134 292.417 139.491 293.476C139.703 293.681 139.943 293.829 140.197 294.019C140.268 294.087 140.271 294.227 140.315 294.351C140.095 294.522 139.917 294.679 139.683 294.808Z" fill="black"/>
<path opacity="0.5" d="M55.3452 366.861L56.6574 366.836L56.935 367.618L55.7616 368.035L56.9603 368.93C56.8554 370.436 55.0006 371.828 51.396 373.107L48.7968 374.47L48.822 375.782L49.2132 375.643C49.0895 377.777 50.4859 386.676 53.4025 402.342L56.3803 407.01L55.9891 407.149C55.4063 407.356 54.4221 406.237 53.0366 403.793L52.0398 399.743L51.901 399.351L51.5098 399.49L51.7874 400.273C51.0051 400.55 50.7065 400.95 50.8916 401.471L51.0304 401.862L54.0334 407.843L54.1722 408.234L53.3899 408.512L51.409 407.894L51.1566 408.423L50.7655 408.562C48.9223 406.678 47.7068 404.907 47.1189 403.25L47.6489 403.503L48.04 403.364L46.2862 400.903L47.3208 400.096L46.6268 398.14L45.8445 398.418L45.7057 398.027C46.488 397.749 46.7866 397.35 46.6016 396.828L46.4628 396.437L45.6805 396.714C44.9402 394.628 44.9612 393.447 45.7435 393.169L43.9392 388.084C44.2227 387.569 43.7726 384.646 42.589 379.315L39.9898 380.678L34.375 382.23L34.2362 381.838L36.0531 380.753L36.1919 381.144L36.4442 380.615L42.3114 378.533L41.895 377.359L35.9143 380.362L35.3844 380.11L34.9932 380.249L32.7852 381.473L31.3341 381.107L31.0313 379.012L30.5013 378.76C30.0387 377.456 31.3719 376.249 34.5011 375.139L55.3452 366.861ZM53.4147 368.867L53.5535 369.259L55.1181 368.703L54.9793 368.312L53.4147 368.867ZM46.7151 395.907L48.9864 404.79L49.7686 404.512L48.6835 402.695L48.4059 401.913L48.7718 400.462L48.3807 400.601L48.633 400.071L48.4942 399.68L47.9643 399.427L47.8255 399.036L48.0526 397.194L47.1062 395.768L46.7151 395.907ZM55.3652 366.699L56.5387 366.282L57.6238 368.099C58.4061 367.822 58.6584 367.292 58.3808 366.509L58.772 366.371L59.8318 366.875L60.2735 369.361L60.6646 369.222L60.4123 369.752L60.5511 370.143L61.081 370.396L61.2198 370.787L60.8287 370.925L61.3586 371.178L61.4974 371.569L65.6866 384.615L65.8254 385.007L66.2165 384.868L66.002 380.54L66.7843 380.262L66.6834 388.666L67.4657 388.388L67.4403 373.424L66.658 373.701L66.8978 379.341L66.1155 379.619L65.9767 379.228L66.494 371.998L66.8851 371.859L67.1627 372.641L70.0143 370.749C71.1934 370.762 71.8537 370.968 71.9952 371.367L72.2476 370.837L73.421 370.421L78.3167 379.253L78.7078 379.114C78.2942 377.948 77.9655 370.5 77.7219 356.771L78.1131 356.632L78.9206 357.666L79.3118 357.528L79.0342 356.745L79.4253 356.607C81.358 355.921 82.5399 355.942 82.9709 356.67L83.2484 357.452L82.8826 358.903L83.0214 359.294L83.8036 359.016L83.2232 356.14L84.0055 355.862L85.0654 356.367L85.2042 356.758L87.1996 390.634L86.165 391.441L85.8874 390.659L85.635 391.189L85.2439 391.328L84.7139 391.075C85.0841 392.119 84.878 392.779 84.0957 393.056C81.9443 393.613 80.7624 393.592 80.5502 392.993L80.9413 392.855C80.2179 391.643 79.3725 390.916 78.4052 390.672L73.787 382.622C73.3477 382.795 73.0785 387.001 72.9797 395.239L71.7179 397.889L71.3268 398.028L70.3805 396.602C72.0281 388.591 72.3098 382.766 71.2256 379.127C70.7803 380.062 70.4733 384.575 70.3047 392.665C69.9826 392.78 70.0163 394.529 70.4057 397.914L66.8854 399.164L65.9391 397.738L65.6867 398.268L65.2956 398.406C64.7948 396.995 64.0336 396.091 63.0118 395.694L62.4566 394.129L64.4376 394.747L61.2957 388.376L61.5481 387.846L61.0181 387.593L61.2705 387.063L60.8793 387.202L61.1317 386.672L59.1885 381.196L58.8857 379.102L58.4945 379.24L58.7469 378.711L55.1381 368.541L54.6082 368.288L54.4694 367.897L55.3652 366.699ZM78.4159 358.726C78.8169 372.072 79.2759 379.474 79.793 380.931L79.9318 381.322L80.3229 381.183L79.1982 358.449L78.4159 358.726ZM83.0735 374.042L83.5404 377.84L83.6792 378.231L84.0703 378.092L83.6034 374.294L83.4646 373.903L83.0735 374.042ZM84.0578 384.262L84.5246 388.06L84.8022 388.842L85.1934 388.703L84.5877 384.514L84.4489 384.123L84.0578 384.262ZM92.6678 354.576C92.884 355.38 93.5137 355.597 94.5567 355.227L95.8252 356.538L95.5498 357.076L95.941 356.937C96.0291 363.123 97.1534 369.918 99.3138 377.32L100.009 379.716L100.538 379.968L100.654 380.367L100.379 380.906L100.77 380.767L100.495 381.305L101.696 383.961L101.928 384.76C101.131 386.942 100.865 388.505 101.13 389.447L99.5655 390.002L97.4013 389.889L96.9819 386.955L94.9311 385.921L93.5624 379.801L91.4552 372.622L91.8901 371.146L91.427 369.549L90.9201 369.289L90.8043 368.889L91.5866 368.612L91.4708 368.212L90.9638 367.952L89.9143 359.957L89.5231 360.096L89.7985 359.557L89.0807 357.17L88.5738 356.909L88.458 356.51L92.6678 354.576ZM90.8406 363.151L91.6741 365.938L92.0652 365.799L91.2317 363.012L90.8406 363.151ZM91.6303 367.275L92.3251 369.671L92.7162 369.532L92.0215 367.136L91.6303 367.275ZM92.2813 371.008L92.999 373.395L93.3902 373.256L92.6724 370.869L92.2813 371.008ZM97.7642 386.678L98.3431 388.674L98.8708 387.606L98.5464 386.4L97.7642 386.678ZM107.209 348.613C108.084 348.889 110.37 348.372 114.067 347.06L114.183 347.459L111.445 348.431L111.561 348.83C114.828 347.671 117.146 347.729 118.514 349.005L118.745 349.804L116.79 350.498L116.905 350.897L119.759 350.325L119.875 350.724L117.528 351.557L117.644 351.956C118.426 351.679 118.894 351.806 119.049 352.338C114.401 353.988 110.853 357.155 108.406 361.84L108.521 362.24C114.047 361.799 119.107 363.38 123.701 366.982L123.817 367.381C124.063 371.094 122.513 375.167 119.164 379.602L116.91 380.842L117.026 381.242L117.808 380.964C118.028 381.68 115.913 383.312 111.462 385.858L111.231 385.06L113.187 384.366L113.094 383.958C111.422 384.551 109.587 384.175 107.589 382.829C106.211 382.644 105.223 381.708 104.624 380.021C104.57 379.867 104.52 379.704 104.476 379.529L105.418 378.314L106.823 378.697L107.605 378.419C114.559 374.656 117.523 370.962 116.496 367.337C112.858 366.867 110.54 366.808 109.543 367.162L109.659 367.561L105.261 367.36L105.768 367.621L106.023 368.411C101.922 367.172 99.6863 365.91 99.3166 364.625L100.434 358.063L101.926 355.772L102.158 356.571L107.209 348.613ZM105.619 361.068L105.734 361.467L111.11 354.715L114.008 352.806L113.776 352.007L112.994 352.285C109.412 355.283 106.954 358.211 105.619 361.068ZM113.472 376.337L113.863 376.198L114.414 375.122L114.023 375.261L113.472 376.337ZM120.513 373.839L119.527 376.39L119.918 376.252L120.904 373.7L120.513 373.839ZM116.722 378.707L116.861 379.098L117.252 378.959L118.469 377.206L116.722 378.707ZM113.253 383.021L113.369 383.42L114.934 382.865L116.774 381.772L116.635 381.38L116.244 381.519L113.253 383.021ZM141.167 336.407L142.479 336.382L142.756 337.164L141.583 337.581L142.782 338.477C142.677 339.982 140.822 341.374 137.217 342.653L134.618 344.016L134.643 345.328L135.034 345.189C134.911 347.323 136.307 356.222 139.224 371.888L142.202 376.556L141.81 376.695C141.228 376.902 140.243 375.783 138.858 373.339L137.861 369.289L137.722 368.898L137.331 369.036L137.609 369.819C136.826 370.096 136.528 370.496 136.713 371.017L136.852 371.409L139.855 377.389L139.994 377.78L139.211 378.058L137.23 377.44L136.978 377.97L136.587 378.108C134.744 376.224 133.528 374.453 132.94 372.797L133.47 373.049L133.861 372.91L132.107 370.45L133.142 369.642L132.448 367.686L131.666 367.964L131.527 367.573C132.309 367.295 132.608 366.896 132.423 366.374L132.284 365.983L131.502 366.261C130.762 364.175 130.783 362.993 131.565 362.715L129.76 357.63C130.044 357.115 129.594 354.192 128.41 348.861L125.811 350.224L120.196 351.776L120.058 351.385L121.874 350.3L122.013 350.691L122.266 350.161L128.133 348.079L127.716 346.905L121.736 349.908L121.206 349.656L120.815 349.795L118.606 351.019L117.155 350.653L116.853 348.558L116.323 348.306C115.86 347.002 117.193 345.795 120.322 344.685L141.167 336.407ZM139.236 338.414L139.375 338.805L140.939 338.25L140.801 337.858L139.236 338.414ZM132.536 365.453L134.808 374.336L135.59 374.058L134.505 372.241L134.227 371.459L134.593 370.008L134.202 370.147L134.454 369.617L134.316 369.226L133.786 368.973L133.647 368.582L133.874 366.74L132.928 365.314L132.536 365.453ZM160.356 330.401L162.708 331.043C162.977 333.555 162.375 335.021 160.9 335.441L150.848 339.526L151.08 340.325L153.061 339.777L155.349 338.706L155.873 339.012L156.272 338.897L158.951 337.687L159.758 337.478L159.874 337.878L151.12 342.046L152.203 347.361L152.603 347.245L162.93 342.622L163.422 342.913L163.538 343.313L162.731 343.521L162.87 343.912L165.775 343.555L165.89 343.955C165.84 345.613 162.516 348.122 155.92 351.482L152.034 353.016L152.541 353.277L152.418 358.916L152.027 359.055L151.008 355.453L150.608 355.569L151.776 361.268C159.213 357.455 164.581 355.084 167.878 354.156L169.976 354.007L170.23 354.798L169.432 355.029L169.924 355.321L170.271 356.519C169.868 357.767 168.419 358.747 165.926 359.459L166.042 359.859L169.245 358.955L169.453 359.762L152.201 368.889L151.801 369.005C150.445 369.175 149.672 368.992 149.482 368.455L149.457 368.386L149.11 367.188L148.689 362.571L148.174 362.287L148.964 362.033L149.52 364.038L149.928 363.945C149.619 362.587 149.702 361.849 150.179 361.731L149.655 361.425L148.552 357.439L147.745 357.647L147.902 359.768L148.208 359.244L148.607 359.129L149.279 361.533L148.872 361.625L148.532 360.45L148.133 360.566L148.365 361.365L147.965 361.481L147.734 360.682L146.633 353.638L146.234 353.754L146.462 351.548L145.947 351.265L145.831 350.866L144.339 343.96L144.854 344.244L145.253 344.128L145.022 343.329L144.066 341.44L143.447 337.723L143.099 336.525L143.507 336.432L144.022 336.715L144.305 336.2L144.713 336.108L145.22 336.368L145.503 335.853L146.709 335.529L160.356 330.401ZM146.842 354.445L147.629 357.248L148.028 357.132L147.249 354.352L146.842 354.445ZM159.929 350.37L160.32 350.232L160.413 350.639L153.579 353.867L153.056 353.56L152.949 353.184L156.435 351.766L156.55 352.165L159.929 350.37ZM168.092 327.527L169.656 326.971L171.107 327.337L173.706 325.975C178.231 324.369 183.329 325.496 188.999 329.356L192.343 332.573L192.09 333.103L193.175 334.92L193.869 336.876C196.248 343.579 192.576 350.607 182.854 357.96L179.082 359.739C178.848 359.08 178.187 358.873 177.101 359.121L177.656 360.685L176.483 361.102L175.65 358.755L175.12 358.503L175.372 357.973L175.233 357.582C173.288 357.063 172.182 356.428 171.915 355.676C168.506 343.588 166.756 334.52 166.666 328.473L167.057 328.334L167.587 328.586L168.092 327.527ZM167.915 331.993L169.984 344.03L170.123 344.421L170.514 344.283L168.584 332.637L168.306 331.854L167.915 331.993ZM175.145 332.51C175.33 333.032 174.901 333.478 173.858 333.848C174.502 338.973 175.663 344.727 177.34 351.109C178.859 350.57 182.308 347.878 187.687 343.033L187.548 342.642L186.766 342.92C188.095 340.047 188.352 337.461 187.535 335.16L187.119 333.987C186.101 331.118 183.544 330.117 179.447 330.984L175.145 332.51ZM182.968 329.734L183.106 330.126L184.949 330.353L184.81 329.962L183.359 329.596L182.968 329.734ZM188.431 333.961L189.706 338.794L190.488 338.516L190.071 337.343L189.907 335.639L188.822 333.823L188.431 333.961ZM192.28 336.119L192.545 343.071L192.683 343.462L193.074 343.323L192.948 336.762L192.671 335.98L192.28 336.119ZM189.34 340.245L189.113 342.087L189.504 341.948L189.731 340.106L189.34 340.245ZM189.491 348.118C190.072 347.808 190.707 346.702 191.396 344.8L191.258 344.409L189.491 348.118ZM181.328 353.657L181.466 354.049L183.031 353.493L184.709 352.017L184.57 351.626L184.179 351.765L181.328 353.657ZM178.337 355.159L179.145 356.194L179.927 355.916L180.432 354.856L180.293 354.465L179.902 354.604L178.867 355.411L178.337 355.159ZM174.868 359.033L175.259 358.894L175.397 359.285L174.893 360.345L174.502 360.484L174.363 360.092L174.868 359.033Z" fill="black"/>
<path opacity="0.5" d="M54.6587 429.071C53.2546 429.192 52.1191 429.106 51.2522 428.812C50.3832 428.513 49.7789 427.923 49.4394 427.043C49.2011 426.425 49.1537 425.806 49.2974 425.186C49.4465 424.563 49.7735 423.994 50.2782 423.479C50.7862 422.956 51.4393 422.541 52.2375 422.233C53.1067 421.898 53.9227 421.775 54.6854 421.864C55.4537 421.95 56.1111 422.205 56.6575 422.629C57.2095 423.05 57.6078 423.578 57.8524 424.212L56.2534 424.829C55.9834 424.129 55.5459 423.654 54.9407 423.404C54.3334 423.149 53.5979 423.187 52.7341 423.521C51.9305 423.831 51.3895 424.244 51.1111 424.759C50.8328 425.275 50.8053 425.822 51.0289 426.402C51.1596 426.741 51.3703 427.002 51.6607 427.185C51.9512 427.368 52.3387 427.485 52.8234 427.537C53.3081 427.589 53.917 427.58 54.6502 427.511C55.6677 427.413 56.525 427.422 57.2222 427.536C57.9249 427.648 58.5004 427.878 58.9488 428.226C59.4005 428.567 59.7455 429.046 59.9838 429.664C60.2306 430.303 60.2756 430.933 60.1189 431.552C59.9656 432.164 59.6252 432.723 59.0977 433.227C58.5703 433.732 57.8884 434.146 57.052 434.469C56.2921 434.762 55.5112 434.903 54.7094 434.892C53.911 434.874 53.1903 434.674 52.5476 434.294C51.9048 433.914 51.4369 433.344 51.1437 432.584L52.7345 431.971C52.937 432.495 53.2369 432.882 53.6343 433.131C54.0371 433.377 54.4899 433.501 54.9926 433.502C55.5008 433.5 56.0227 433.396 56.5585 433.19C57.373 432.875 57.939 432.462 58.2565 431.951C58.5741 431.439 58.6189 430.888 58.3912 430.297C58.2414 429.909 58.035 429.618 57.7719 429.424C57.5121 429.223 57.1399 429.097 56.6552 429.045C56.1684 428.988 55.5029 428.997 54.6587 429.071ZM66.6975 430.559C66.3898 430.804 66.0201 431.009 65.5882 431.176C64.9704 431.414 64.4013 431.42 63.8807 431.194C63.3655 430.966 62.9466 430.433 62.6239 429.597L60.4981 424.086L58.8827 424.71L58.4367 423.553L60.0521 422.93L59.2201 420.774L60.7535 420.182L61.5855 422.339L63.2419 421.7L63.6879 422.856L62.0315 423.495L64.1605 429.013C64.3229 429.434 64.52 429.685 64.7519 429.765C64.9817 429.84 65.2469 429.819 65.5476 429.703C65.6624 429.659 65.7849 429.602 65.9153 429.533C66.0435 429.458 66.1444 429.394 66.218 429.341L66.6975 430.559ZM68.566 419.457C68.6644 419.419 68.7927 419.385 68.9508 419.356C69.1069 419.321 69.2175 419.306 69.2827 419.313L69.8237 420.715C69.5717 420.762 69.3146 420.836 69.0522 420.937C68.5492 421.131 68.1715 421.406 67.9191 421.76C67.6721 422.113 67.5419 422.525 67.5284 422.995L69.9611 429.3L68.4277 429.892L65.0049 421.019L66.4973 420.444L66.9192 421.44C67.0054 420.979 67.1844 420.581 67.4562 420.243C67.726 419.901 68.0959 419.639 68.566 419.457ZM79.7189 420.92L73.7165 423.236C73.9459 423.781 74.2536 424.237 74.6398 424.603C75.0259 424.969 75.4637 425.209 75.953 425.321C76.4457 425.426 76.9545 425.378 77.4793 425.175C77.9932 424.977 78.3959 424.702 78.6875 424.351C78.9846 423.998 79.2058 423.57 79.3513 423.068L80.5563 423.432C80.4223 424.062 80.1442 424.643 79.7219 425.177C79.2976 425.705 78.6809 426.125 77.8718 426.437C77.0627 426.749 76.2787 426.841 75.5197 426.713C74.7606 426.585 74.0862 426.261 73.4963 425.742C72.9118 425.22 72.4604 424.546 72.1419 423.721L72.0059 423.368C71.6495 422.444 71.5188 421.568 71.6139 420.74C71.7069 419.907 71.9779 419.193 72.427 418.599C72.8816 418.003 73.4478 417.574 74.1256 417.312C74.9511 416.994 75.7062 416.916 76.3908 417.079C77.0787 417.235 77.6794 417.587 78.1928 418.136C78.7061 418.686 79.1273 419.387 79.4563 420.239L79.7189 420.92ZM77.6667 420.167C77.3551 419.489 76.9429 418.983 76.4302 418.647C75.9208 418.303 75.3108 418.268 74.6002 418.542C73.9879 418.779 73.5632 419.2 73.3262 419.806C73.0924 420.405 73.0808 421.132 73.2911 421.987L77.711 420.282L77.6667 420.167ZM89.0586 419.71C89.1788 420.021 89.3306 420.333 89.5139 420.646C89.6951 420.953 89.8792 421.202 90.0662 421.393L90.1168 421.525L88.5178 422.141C88.3426 421.964 88.1524 421.683 87.9471 421.297C87.7675 421.743 87.5008 422.151 87.147 422.52C86.7965 422.881 86.3643 423.161 85.8504 423.359C85.26 423.587 84.6909 423.674 84.1432 423.622C83.5987 423.562 83.1238 423.381 82.7184 423.079C82.3185 422.775 82.0246 422.379 81.8369 421.893C81.5944 421.264 81.55 420.669 81.7039 420.107C81.8631 419.543 82.1985 419.037 82.7101 418.588C83.2249 418.132 83.8896 417.747 84.7042 417.433L86.1966 416.857L85.9245 416.152C85.7157 415.611 85.391 415.249 84.9504 415.068C84.5131 414.878 83.9938 414.9 83.3925 415.132C83.0262 415.273 82.7235 415.465 82.4844 415.708C82.2431 415.946 82.0827 416.205 82.0031 416.487C81.9268 416.762 81.9371 417.025 82.0342 417.276L80.5008 417.868C80.3341 417.436 80.3204 416.961 80.4596 416.442C80.5987 415.924 80.8876 415.435 81.3263 414.977C81.763 414.514 82.3257 414.149 83.0145 413.883C83.6705 413.63 84.2877 413.521 84.8662 413.555C85.448 413.582 85.9648 413.766 86.4165 414.106C86.8661 414.442 87.2154 414.932 87.4642 415.577L89.0586 419.71ZM85.5657 421.962C85.9156 421.827 86.2176 421.641 86.4719 421.405C86.7295 421.161 86.9287 420.896 87.0693 420.609C87.2099 420.322 87.2923 420.039 87.3164 419.76L86.6078 417.923L85.3614 418.404C84.4867 418.741 83.8708 419.139 83.5137 419.597C83.1545 420.05 83.0793 420.547 83.2881 421.088C83.3999 421.378 83.5656 421.612 83.7854 421.791C84.0052 421.97 84.2672 422.079 84.5714 422.119C84.8734 422.153 85.2049 422.101 85.5657 421.962ZM95.9552 419.272C95.6475 419.517 95.2777 419.722 94.8459 419.889C94.2281 420.127 93.6589 420.133 93.1383 419.907C92.6232 419.678 92.2043 419.146 91.8816 418.31L89.7558 412.799L88.1404 413.422L87.6943 412.266L89.3098 411.643L88.4778 409.486L90.0112 408.895L90.8432 411.052L92.4996 410.412L92.9456 411.569L91.2892 412.208L93.4182 417.726C93.5806 418.147 93.7777 418.398 94.0096 418.478C94.2394 418.553 94.5046 418.532 94.8052 418.416C94.92 418.372 95.0426 418.315 95.1729 418.246C95.3012 418.171 95.4021 418.107 95.4756 418.054L95.9552 419.272ZM103.705 413.061C103.878 413.591 103.889 414.149 103.738 414.734C103.585 415.315 103.293 415.845 102.863 416.325C102.438 416.803 101.92 417.16 101.307 417.396C100.449 417.727 99.6462 417.811 98.8985 417.647C98.1541 417.476 97.5057 417.113 96.9532 416.56C96.3986 416.002 95.9632 415.313 95.6468 414.493L95.5139 414.148C95.1976 413.328 95.0584 412.528 95.0963 411.747C95.1321 410.961 95.3693 410.257 95.8078 409.636C96.2497 409.007 96.8998 408.527 97.7581 408.195C98.436 407.934 99.0911 407.841 99.7234 407.918C100.361 407.992 100.925 408.217 101.416 408.593C101.904 408.964 102.279 409.447 102.541 410.043L101.089 410.603C100.921 410.247 100.688 409.954 100.392 409.723C100.093 409.486 99.7571 409.34 99.3835 409.283C99.0098 409.226 98.6262 409.274 98.2326 409.425C97.6477 409.651 97.2339 409.987 96.9912 410.432C96.7464 410.872 96.6402 411.362 96.6727 411.902C96.7031 412.437 96.828 412.988 97.0474 413.557L97.1802 413.901C97.5303 414.809 98.0093 415.497 98.6172 415.966C99.2307 416.432 99.9692 416.499 100.833 416.166C101.188 416.029 101.491 415.827 101.74 415.562C101.992 415.288 102.166 414.983 102.262 414.644C102.355 414.3 102.353 413.959 102.253 413.621L103.705 413.061ZM107.147 404.573C109.044 403.841 110.407 404.55 111.236 406.698L113.479 412.512L111.945 413.104L109.696 407.273C109.435 406.595 109.097 406.16 108.684 405.968C108.276 405.774 107.777 405.791 107.186 406.018C106.716 406.2 106.342 406.492 106.064 406.894C105.792 407.294 105.629 407.753 105.577 408.269L108.026 414.616L106.492 415.207L101.633 402.612L103.167 402.02L105.008 406.793C105.181 406.28 105.448 405.835 105.811 405.456C106.171 405.072 106.617 404.778 107.147 404.573ZM117.768 405.657C117.437 404.799 117.303 403.965 117.368 403.155C117.432 402.345 117.693 401.629 118.15 401.007C118.61 400.377 119.245 399.906 120.054 399.594C120.874 399.278 121.666 399.198 122.43 399.356C123.192 399.508 123.869 399.862 124.461 400.419C125.052 400.976 125.514 401.683 125.845 402.541L125.917 402.73C126.249 403.588 126.382 404.422 126.318 405.232C126.251 406.037 125.988 406.754 125.527 407.383C125.07 408.006 124.434 408.474 123.62 408.788C122.805 409.102 122.017 409.184 121.255 409.032C120.496 408.872 119.819 408.518 119.224 407.969C118.633 407.412 118.172 406.704 117.84 405.846L117.768 405.657ZM119.374 405.254C119.606 405.856 119.911 406.369 120.288 406.795C120.672 407.219 121.109 407.505 121.6 407.655C122.089 407.799 122.604 407.767 123.145 407.558C123.681 407.351 124.082 407.031 124.347 406.595C124.61 406.155 124.739 405.65 124.733 405.08C124.732 404.509 124.616 403.923 124.384 403.322L124.311 403.133C124.079 402.532 123.772 402.019 123.388 401.595C123.005 401.172 122.568 400.885 122.077 400.735C121.586 400.586 121.07 400.615 120.528 400.824C119.993 401.031 119.593 401.354 119.33 401.795C119.072 402.234 118.943 402.739 118.944 403.31C118.95 403.879 119.069 404.464 119.301 405.066L119.374 405.254ZM133.04 394.773L136.463 403.645L135.004 404.208L134.641 403.34C134.318 404.262 133.585 404.944 132.443 405.384C131.53 405.737 130.713 405.744 129.993 405.406C129.272 405.069 128.693 404.332 128.254 403.195L126.046 397.471L127.579 396.879L129.794 402.619C130.078 403.357 130.43 403.821 130.849 404.012C131.271 404.194 131.72 404.194 132.195 404.01C133.343 403.567 133.946 402.842 134.003 401.834L131.507 395.364L133.04 394.773ZM142.531 401.304C142.224 401.548 141.854 401.754 141.422 401.92C140.804 402.159 140.235 402.165 139.714 401.938C139.199 401.71 138.78 401.178 138.458 400.341L136.332 394.831L134.717 395.454L134.27 394.298L135.886 393.675L135.054 391.518L136.587 390.927L137.419 393.083L139.076 392.444L139.522 393.6L137.865 394.239L139.994 399.758C140.157 400.179 140.354 400.43 140.586 400.51C140.815 400.584 141.081 400.564 141.381 400.448C141.496 400.403 141.619 400.347 141.749 400.277C141.877 400.203 141.978 400.139 142.052 400.085L142.531 401.304ZM146.287 394.655C145.956 393.797 145.823 392.963 145.887 392.153C145.952 391.343 146.212 390.627 146.669 390.005C147.13 389.375 147.765 388.904 148.574 388.592C149.394 388.275 150.186 388.196 150.95 388.353C151.712 388.505 152.389 388.86 152.98 389.416C153.572 389.973 154.033 390.681 154.364 391.539L154.437 391.728C154.768 392.586 154.902 393.42 154.837 394.23C154.771 395.034 154.507 395.751 154.047 396.381C153.59 397.003 152.954 397.472 152.139 397.786C151.325 398.1 150.537 398.181 149.775 398.029C149.016 397.87 148.339 397.515 147.744 396.966C147.153 396.409 146.691 395.702 146.36 394.844L146.287 394.655ZM147.893 394.252C148.125 394.853 148.43 395.367 148.808 395.793C149.191 396.216 149.629 396.503 150.12 396.653C150.609 396.797 151.124 396.765 151.665 396.556C152.201 396.349 152.601 396.028 152.867 395.593C153.13 395.152 153.259 394.647 153.253 394.078C153.252 393.507 153.136 392.92 152.904 392.319L152.831 392.13C152.599 391.529 152.291 391.017 151.908 390.593C151.525 390.169 151.088 389.883 150.597 389.733C150.105 389.583 149.589 389.613 149.048 389.822C148.512 390.028 148.113 390.352 147.85 390.793C147.592 391.231 147.463 391.736 147.464 392.308C147.47 392.877 147.589 393.462 147.821 394.063L147.893 394.252ZM157.405 382.377C156.919 382.565 156.598 382.855 156.441 383.248C156.283 383.636 156.307 384.098 156.514 384.633L156.878 385.576L158.764 384.849L159.21 386.005L157.324 386.733L160.301 394.449L158.767 395.04L155.791 387.324L154.397 387.862L153.951 386.706L155.345 386.168L154.981 385.225C154.616 384.279 154.592 383.453 154.91 382.746C155.231 382.032 155.851 381.498 156.769 381.144C157.103 381.015 157.467 380.925 157.861 380.873L158.251 382.126C157.988 382.178 157.706 382.261 157.405 382.377ZM169.655 386.365C168.516 386.554 167.599 386.556 166.906 386.371C166.219 386.184 165.741 385.743 165.473 385.049C165.292 384.579 165.262 384.094 165.383 383.595C165.505 383.096 165.769 382.633 166.176 382.206C166.588 381.777 167.117 381.438 167.762 381.189C168.45 380.924 169.099 380.815 169.708 380.862C170.317 380.91 170.836 381.093 171.267 381.41C171.7 381.72 172.016 382.132 172.214 382.646L170.681 383.238C170.584 382.986 170.416 382.771 170.178 382.593C169.94 382.415 169.65 382.307 169.309 382.269C168.971 382.224 168.613 382.274 168.236 382.419C167.837 382.573 167.531 382.764 167.317 382.991C167.101 383.212 166.969 383.448 166.921 383.699C166.877 383.942 166.899 384.179 166.988 384.408C167.078 384.643 167.209 384.819 167.379 384.935C167.553 385.044 167.809 385.105 168.147 385.119C168.491 385.131 168.962 385.091 169.561 384.998C170.37 384.881 171.051 384.847 171.604 384.898C172.157 384.948 172.61 385.097 172.963 385.344C173.321 385.589 173.592 385.949 173.776 386.424C173.974 386.938 174.008 387.45 173.877 387.958C173.745 388.462 173.462 388.925 173.03 389.35C172.595 389.769 172.035 390.11 171.352 390.374C170.598 390.665 169.893 390.783 169.237 390.728C168.585 390.666 168.032 390.468 167.576 390.135C167.121 389.802 166.797 389.384 166.603 388.881L168.136 388.289C168.31 388.674 168.549 388.952 168.854 389.124C169.156 389.29 169.482 389.368 169.83 389.359C170.184 389.349 170.533 389.277 170.878 389.144C171.277 388.99 171.597 388.803 171.839 388.584C172.085 388.358 172.244 388.12 172.318 387.872C172.39 387.618 172.378 387.369 172.283 387.123C172.188 386.877 172.054 386.683 171.881 386.543C171.707 386.403 171.443 386.313 171.089 386.274C170.735 386.235 170.257 386.265 169.655 386.365ZM180.465 386.67C180.157 386.914 179.787 387.12 179.355 387.286C178.738 387.525 178.168 387.531 177.648 387.304C177.133 387.076 176.714 386.544 176.391 385.707L174.265 380.197L172.65 380.82L172.204 379.664L173.819 379.041L172.987 376.884L174.521 376.293L175.353 378.449L177.009 377.81L177.455 378.966L175.799 379.605L177.928 385.124C178.09 385.545 178.287 385.795 178.519 385.876C178.749 385.95 179.014 385.93 179.315 385.814C179.429 385.769 179.552 385.713 179.682 385.643C179.811 385.569 179.911 385.505 179.985 385.451L180.465 386.67ZM182.333 375.568C182.432 375.53 182.56 375.496 182.718 375.466C182.874 375.431 182.985 375.417 183.05 375.423L183.591 376.825C183.339 376.872 183.082 376.946 182.819 377.048C182.316 377.242 181.939 377.516 181.686 377.871C181.439 378.224 181.309 378.635 181.296 379.105L183.728 385.411L182.195 386.002L178.772 377.13L180.264 376.554L180.686 377.55C180.772 377.09 180.951 376.691 181.223 376.354C181.493 376.011 181.863 375.749 182.333 375.568ZM193.486 377.031L187.484 379.346C187.713 379.892 188.021 380.348 188.407 380.714C188.793 381.08 189.231 381.319 189.72 381.432C190.213 381.537 190.722 381.488 191.246 381.286C191.76 381.088 192.163 380.813 192.455 380.462C192.752 380.109 192.973 379.681 193.118 379.179L194.323 379.543C194.189 380.173 193.911 380.754 193.489 381.287C193.065 381.815 192.448 382.235 191.639 382.548C190.83 382.86 190.046 382.952 189.287 382.824C188.528 382.696 187.853 382.372 187.263 381.852C186.679 381.33 186.227 380.657 185.909 379.831L185.773 379.479C185.417 378.555 185.286 377.679 185.381 376.851C185.474 376.017 185.745 375.304 186.194 374.709C186.649 374.113 187.215 373.685 187.893 373.423C188.718 373.105 189.473 373.027 190.158 373.19C190.846 373.345 191.446 373.697 191.96 374.247C192.473 374.796 192.894 375.497 193.223 376.35L193.486 377.031ZM191.434 376.277C191.122 375.6 190.71 375.093 190.197 374.757C189.688 374.414 189.078 374.379 188.367 374.653C187.755 374.889 187.33 375.311 187.093 375.917C186.86 376.516 186.848 377.243 187.058 378.097L191.478 376.392L191.434 376.277ZM202.408 373.589L196.405 375.904C196.635 376.45 196.942 376.906 197.328 377.272C197.715 377.638 198.152 377.877 198.642 377.99C199.134 378.095 199.643 378.047 200.168 377.844C200.682 377.646 201.085 377.371 201.376 377.02C201.673 376.667 201.895 376.239 202.04 375.737L203.245 376.101C203.111 376.731 202.833 377.312 202.411 377.846C201.986 378.374 201.37 378.794 200.561 379.106C199.751 379.418 198.967 379.51 198.208 379.382C197.449 379.254 196.775 378.93 196.185 378.41C195.601 377.888 195.149 377.215 194.831 376.389L194.695 376.037C194.338 375.113 194.208 374.237 194.303 373.409C194.396 372.575 194.667 371.862 195.116 371.268C195.57 370.672 196.136 370.243 196.814 369.981C197.64 369.663 198.395 369.585 199.079 369.748C199.767 369.903 200.368 370.256 200.881 370.805C201.395 371.354 201.816 372.055 202.145 372.908L202.408 373.589ZM200.355 372.835C200.044 372.158 199.632 371.651 199.119 371.315C198.61 370.972 198 370.937 197.289 371.211C196.677 371.447 196.252 371.869 196.015 372.475C195.781 373.074 195.769 373.801 195.98 374.655L200.4 372.95L200.355 372.835ZM207.359 371.82C206.219 372.008 205.303 372.01 204.61 371.825C203.922 371.638 203.445 371.198 203.177 370.504C202.995 370.033 202.966 369.549 203.087 369.05C203.208 368.551 203.473 368.088 203.879 367.661C204.292 367.232 204.82 366.893 205.465 366.644C206.154 366.378 206.803 366.269 207.412 366.317C208.021 366.365 208.54 366.547 208.97 366.865C209.404 367.175 209.72 367.587 209.918 368.101L208.385 368.692C208.288 368.441 208.12 368.226 207.882 368.048C207.643 367.87 207.354 367.762 207.012 367.724C206.675 367.678 206.317 367.728 205.94 367.874C205.541 368.028 205.234 368.218 205.02 368.445C204.804 368.667 204.673 368.903 204.625 369.154C204.581 369.397 204.603 369.633 204.691 369.863C204.782 370.098 204.913 370.274 205.083 370.39C205.257 370.499 205.513 370.56 205.851 370.574C206.195 370.586 206.666 370.545 207.264 370.453C208.073 370.335 208.754 370.302 209.308 370.352C209.861 370.402 210.314 370.551 210.667 370.798C211.025 371.043 211.296 371.403 211.479 371.879C211.677 372.393 211.711 372.904 211.581 373.413C211.449 373.916 211.166 374.38 210.733 374.804C210.298 375.223 209.739 375.565 209.056 375.828C208.301 376.119 207.596 376.238 206.941 376.183C206.289 376.12 205.735 375.922 205.28 375.589C204.825 375.256 204.5 374.838 204.306 374.335L205.84 373.744C206.014 374.129 206.253 374.407 206.558 374.578C206.86 374.744 207.186 374.823 207.534 374.814C207.888 374.803 208.237 374.731 208.581 374.598C208.98 374.444 209.301 374.258 209.543 374.039C209.788 373.812 209.948 373.575 210.022 373.327C210.093 373.073 210.082 372.823 209.987 372.577C209.892 372.331 209.758 372.138 209.584 371.998C209.411 371.857 209.147 371.767 208.793 371.728C208.439 371.689 207.961 371.72 207.359 371.82Z" fill="black"/>
<defs>
<linearGradient id="paint0_linear_10646_3" x1="542.425" y1="415.889" x2="-1011.15" y2="-711.019" gradientUnits="userSpaceOnUse">
<stop stop-color="#41CBB9"/>
<stop offset="1" stop-color="#3EB29D"/>
</linearGradient>
<linearGradient id="paint1_linear_10646_3" x1="38.4354" y1="481.243" x2="701.481" y2="477.702" gradientUnits="userSpaceOnUse">
<stop stop-color="#1A7F54"/>
<stop offset="1" stop-color="#7ADBAE"/>
</linearGradient>
<linearGradient id="paint2_linear_10646_3" x1="20.9907" y1="507.644" x2="681.712" y2="452.062" gradientUnits="userSpaceOnUse">
<stop stop-color="#1A7F72"/>
<stop offset="1" stop-color="#7ADBAE"/>
</linearGradient>
<clipPath id="clip0_10646_3">
<rect width="147.461" height="89.8003" fill="white" transform="translate(8 123.263) rotate(-56.7094)"/>
</clipPath>
<clipPath id="clip1_10646_3">
<rect width="500" height="663.434" fill="white" transform="matrix(0.00534047 0.999986 0.999986 -0.00534047 37.0593 231.333)"/>
</clipPath>
<clipPath id="clip2_10646_3">
<rect width="500" height="663.434" fill="white" transform="matrix(0.083827 0.99648 0.99648 -0.083827 0 258.614)"/>
</clipPath>
</defs>
</svg>
