<svg width="339" height="802" viewBox="0 0 339 802" fill="none" xmlns="http://www.w3.org/2000/svg">
<g clip-path="url(#clip0_23_9678)">
<path opacity="0.2" d="M174.293 801.126C259.207 801.126 328.044 788.713 328.044 773.401C328.044 758.089 259.207 745.676 174.293 745.676C89.3787 745.676 20.5421 758.089 20.5421 773.401C20.5421 788.713 89.3787 801.126 174.293 801.126Z" fill="black" fill-opacity="0.2"/>
<path d="M225.838 772.771C224.073 776.048 218.528 777.308 215.503 777.308C211.471 777.308 195.591 778.064 195.591 778.064C195.591 778.064 191.685 780.584 187.652 779.954C186.266 779.828 184.501 778.694 183.115 777.182C180.342 774.535 178.326 770.503 179.964 768.36C182.485 764.957 182.989 739.879 182.989 734.712C182.989 729.671 183.493 725.89 186.14 722.235C188.786 718.581 191.055 712.91 191.055 712.91C206.682 708.121 217.394 714.674 217.394 714.674C217.394 714.674 210.588 738.114 213.109 745.676C215.755 753.237 224.577 762.563 226.09 768.864C226.594 770.502 226.468 771.763 225.838 772.771Z" fill="#F4A082"/>
<path d="M273.349 476.11C265.914 501.441 259.738 519.085 253.941 530.931C245.497 548.322 238.314 553.363 230.374 552.103C222.939 550.969 215.125 547.44 209.58 541.391C206.052 537.484 203.405 532.317 202.775 526.016C202.649 524.63 202.523 523.243 202.523 521.731C202.901 503.08 209.328 442.588 210.462 432.758C211.597 423.558 206.808 408.436 206.052 406.419C206.052 406.293 205.926 406.167 205.926 406.167C205.926 406.167 210.462 390.414 220.671 383.105C221.931 382.223 223.569 381.088 225.585 379.828C240.961 370.124 276.878 351.095 282.423 364.453C282.675 364.579 291.623 413.477 273.349 476.11Z" fill="#1F5148"/>
<path d="M254.067 531.057C253.815 531.687 247.01 552.733 246.758 561.681C246.38 570.881 247.136 594.069 243.859 614.107C240.582 634.145 217.52 714.8 217.52 714.8C205.925 720.093 191.18 713.036 191.18 713.036C191.18 713.036 191.18 713.036 192.567 698.291C193.953 683.546 192.189 637.799 192.567 624.063C192.567 623.937 192.567 623.685 192.567 623.559C193.197 609.696 203.405 585.121 201.262 568.99C198.994 552.607 202.775 526.268 202.775 526.268H203.027L213.235 527.276L254.067 531.057Z" fill="#1F5148"/>
<path d="M282.674 364.579C282.674 369.746 281.288 375.417 276.373 380.206C266.165 390.036 245.623 402.89 223.065 406.167C218.906 406.797 214.495 407.049 210.21 407.049C208.824 406.923 207.563 406.797 206.177 406.671C203.279 406.293 200.254 405.663 197.481 404.907C181.224 400.748 166.731 391.548 156.523 382.727C152.868 379.576 149.718 376.425 147.323 373.527C138.754 363.319 143.795 350.716 146.189 345.802C146.819 344.541 147.323 343.785 147.323 343.785L152.742 344.415L180.972 347.44L213.109 350.969L279.272 350.59C279.398 350.59 282.674 357.018 282.674 364.579Z" fill="#1F5148"/>
<path d="M198.868 403.646C198.616 404.024 198.111 404.403 197.481 404.781C183.492 415.241 92.5023 456.576 58.6015 465.398C57.9713 465.524 57.4672 465.65 56.8371 465.902C54.1906 466.532 51.7961 467.162 49.6537 467.541C46.6291 468.171 50.7879 463.256 48.1414 463.508C48.0153 463.508 42.4702 463.76 42.4702 463.76C35.0347 464.516 24.8267 468.297 19.9117 467.036C14.2406 465.524 12.8543 463.76 9.45162 460.735C7.05714 458.593 5.16676 456.324 3.4024 454.056C2.01613 452.292 1.13395 450.275 0.629848 448.007C-1.63861 438.177 3.65445 424.692 12.3502 416.753C17.5172 411.964 37.1772 398.857 59.6097 385.373C83.6805 370.754 119.724 355.883 134.973 349.834C139.006 348.196 142.912 346.936 146.441 346.053C148.71 345.423 150.852 344.919 152.994 344.667C166.353 342.399 175.427 344.793 181.224 347.692C186.895 350.59 189.29 354.119 189.29 354.119C194.457 363.067 195.465 364.201 197.229 370.502C197.481 371.132 197.607 371.762 197.733 372.392C198.237 374.535 198.616 376.425 198.868 378.316C199.75 388.397 203.404 398.731 198.868 403.646Z" fill="#1F5148"/>
<path d="M222.057 566.596C224.956 568.99 224.704 573.653 221.427 575.543C216.008 578.694 209.328 583.483 206.934 588.398C203.279 595.833 202.901 620.408 192.567 623.433C193.197 609.57 203.405 584.995 201.263 568.864C198.994 552.481 202.775 526.142 202.775 526.142H203.027C202.901 524.756 202.775 523.37 202.775 521.857C203.153 503.206 209.58 442.714 210.715 432.884C211.849 423.685 207.06 408.562 206.304 406.545C203.405 406.167 200.381 405.537 197.608 404.781C183.619 415.241 92.6289 456.577 58.7281 465.399C58.098 465.525 57.5939 465.651 56.9637 465.903L77.5059 422.676C77.5059 422.676 128.924 412.216 159.044 396.842C169.756 391.296 178.074 387.012 180.973 385.499C185.636 382.979 192.567 384.365 200.129 386.382C210.463 389.154 219.284 378.946 226.594 375.417C226.594 375.417 226.342 377.056 226.09 379.954C225.46 385.373 224.325 395.077 223.317 406.167C222.183 417.888 221.049 431.12 220.545 442.21C219.284 469.431 224.577 507.365 218.906 515.43C216.89 518.329 214.874 522.361 213.235 527.024C211.597 531.561 210.337 536.602 209.959 541.391C209.58 545.424 209.833 549.204 210.841 552.229C212.605 557.9 217.646 563.067 222.057 566.596Z" fill="#1D4941"/>
<path d="M209.454 513.035C209.454 513.035 211.849 526.772 200.38 526.016C200.38 526.016 201.011 518.202 199.498 512.909C198.994 511.145 198.112 507.112 196.978 502.449C194.709 492.746 191.559 480.017 189.038 476.741C185.257 471.7 177.822 470.439 177.822 470.439L176.814 459.727L174.797 437.421C174.797 437.421 187.904 435.405 194.709 432.254C201.515 428.977 209.958 429.482 212.227 435.783C214.621 442.084 209.202 461.366 212.227 473.59C215.503 485.94 219.284 510.263 209.454 513.035Z" fill="#F4A082"/>
<path d="M311.031 167.982C307.754 178.442 300.445 192.053 283.683 199.74C283.683 199.74 287.842 214.359 280.911 228.222C273.979 241.958 269.947 277.245 269.064 292.998C268.182 308.751 275.114 333.956 278.516 336.728C281.919 339.501 280.029 343.408 279.399 345.928C278.768 348.449 282.675 350.591 274.105 352.481C265.536 354.372 231.131 357.648 212.479 356.64C193.827 355.632 160.053 348.575 151.609 345.802C143.291 343.029 147.324 341.265 147.072 338.745C146.694 336.098 145.308 332.065 148.962 329.671C152.617 327.276 162.195 302.954 163.077 287.201C163.959 272.078 163.707 238.934 159.044 223.433C158.792 222.803 158.666 222.172 158.414 221.542C156.02 215.241 155.894 209.066 156.398 204.025C157.028 197.472 158.792 193.061 158.792 193.061C154.507 190.54 150.979 187.642 148.08 184.491C140.014 176.048 136.486 166.218 134.973 158.404C134.217 154.246 134.847 150.087 136.738 146.684C136.738 146.558 136.864 146.558 136.864 146.432C136.99 146.18 137.116 146.054 137.242 145.802C137.368 145.676 137.494 145.424 137.494 145.298C140.141 141.139 144.551 138.114 149.718 137.232C159.17 135.72 168.496 133.2 176.562 129.671C178.074 129.041 179.46 128.411 180.973 127.78C188.03 125.008 194.457 122.866 198.616 121.605C200.003 121.227 201.011 120.849 201.767 120.597C202.523 120.345 202.901 120.219 202.901 120.219L225.46 115.556L247.388 122.613C247.388 122.613 249.026 123.244 251.547 124.378C255.454 126.016 261.755 128.915 268.308 132.443C269.695 133.2 271.081 133.956 272.467 134.712C280.029 139.123 289.103 142.525 298.302 145.172C308.384 148.07 314.056 158.278 311.031 167.982Z" fill="#F4A082"/>
<path d="M328.926 284.554C328.17 284.932 327.414 285.058 326.658 285.058C324.893 284.932 322.877 283.924 320.735 282.16C318.34 280.395 315.82 277.749 313.173 274.724C309.518 270.439 305.99 265.398 302.965 260.483C300.697 256.829 298.806 253.3 297.42 250.276C293.639 242.084 288.346 230.364 284.565 218.77C281.919 210.83 279.902 202.891 279.524 196.085C279.398 193.061 279.776 190.036 280.658 187.012C284.565 172.897 297.042 159.034 300.318 155.128C304.351 150.339 308.636 152.355 308.636 152.355C308.636 152.355 328.674 201.63 335.227 235.027C341.529 268.423 336.614 280.395 328.926 284.554Z" fill="#F4A082"/>
<path opacity="0.6" d="M313.047 274.724C306.746 267.288 300.571 257.333 297.294 250.275C290.993 236.413 280.28 212.72 279.398 196.085C279.272 193.06 279.65 190.036 280.532 187.011L310.527 250.653L313.047 274.724Z" fill="#DB8C70"/>
<path d="M159.926 192.935C159.17 196.463 158.036 200.118 156.398 204.025C152.239 214.485 145.559 225.701 139.888 234.901C137.872 238.177 135.856 241.202 134.217 243.848C131.823 247.503 128.546 251.788 124.765 256.073C116.952 264.894 107.248 273.212 101.325 273.842C100.064 273.968 98.9302 273.716 97.922 273.086C92.8809 269.305 89.8563 261.618 92.8809 245.361C94.0152 239.185 96.0316 231.876 99.1822 223.18C109.39 194.321 132.327 154.497 136.864 146.684C136.864 146.558 136.99 146.558 136.99 146.432C137.116 146.18 137.242 145.928 137.368 145.802C137.494 145.676 137.62 145.424 137.62 145.298C137.62 145.298 142.157 144.037 145.433 149.33C147.198 152.229 152.365 160.042 156.146 169.368C157.406 172.267 158.414 175.417 159.17 178.442C160.43 183.357 160.809 188.398 159.926 192.935Z" fill="#F4A082"/>
<path opacity="0.6" d="M169.126 217.509L159.17 223.432C158.918 222.802 158.792 222.172 158.54 221.542C156.146 215.241 156.02 209.066 156.524 204.025C152.365 214.485 145.685 225.701 140.014 234.901L113.423 250.654L147.954 198.228L156.02 182.979L160.556 174.409L168.37 169.494L169.126 217.509Z" fill="#DB8C70"/>
<path d="M249.531 168.234C244.868 184.491 221.805 186.381 221.805 186.381C221.805 186.381 202.901 182.727 197.356 169.368C196.852 168.108 196.474 166.848 196.222 165.335C193.323 148.7 202.271 97.9126 202.271 97.9126L226.216 105.348L250.791 100.559C250.791 100.559 252.051 120.597 251.925 139.627C251.799 150.969 251.169 162.059 249.531 168.234Z" fill="#F4A082"/>
<path opacity="0.6" d="M251.925 139.5C251.421 137.232 250.917 135.09 250.665 133.073C249.405 124.504 247.766 117.068 245.372 116.69C242.977 116.312 232.517 122.109 224.703 122.991C219.915 123.495 215 120.345 211.849 117.824C209.706 116.06 206.43 116.564 204.917 118.833C202.649 122.361 200.128 128.41 199.75 138.618C198.994 157.522 206.808 168.99 206.808 168.99L197.23 169.368C196.726 168.108 191.559 159.916 191.307 158.53C188.408 141.895 202.145 97.9126 202.145 97.9126L226.09 105.348L250.665 100.559C250.791 100.433 252.051 120.471 251.925 139.5Z" fill="#DB8C70"/>
<path opacity="0.6" d="M198.49 137.232C198.49 137.232 205.17 142.147 209.832 143.029C214.621 143.785 220.545 143.281 221.553 145.676C222.561 148.07 221.301 150.843 217.394 148.826C213.487 146.81 210.085 146.432 206.682 146.18C203.279 145.802 198.238 142.903 198.238 142.903L198.49 137.232Z" fill="#DB8C70"/>
<path opacity="0.6" d="M251.799 140.131C251.799 140.131 244.615 144.29 239.826 144.668C235.037 144.92 229.114 143.786 227.98 145.928C226.72 148.196 227.602 151.095 231.761 149.457C235.919 147.944 239.322 147.944 242.599 147.944C246.001 147.944 251.421 145.55 251.421 145.55L251.799 140.131Z" fill="#DB8C70"/>
<path d="M221.553 170.628L223.065 163.445L223.443 171.51L221.553 170.628Z" fill="#E67B70"/>
<path d="M274.105 352.607C265.536 354.497 231.131 357.774 212.479 356.766C193.827 355.757 160.052 348.7 151.609 345.928C148.08 344.667 146.82 343.785 146.442 342.777C145.938 341.517 147.198 340.256 147.072 338.744C146.694 336.098 145.307 332.065 148.962 329.67C152.617 327.276 162.195 302.953 163.077 287.2C163.959 271.447 163.707 236.035 158.414 221.542C153.121 207.049 158.792 192.935 158.792 192.935C162.195 180.962 168.244 169.494 168.244 169.494C168.244 169.494 174.041 158.278 176.94 145.171C178.2 139.122 179.838 132.821 181.099 127.78C188.156 125.008 194.583 122.739 198.742 121.605C198.616 121.983 191.307 136.854 193.575 150.843C194.835 158.404 203.153 163.067 210.715 165.839C217.142 168.234 222.813 169.116 222.813 169.116C222.813 169.116 245.372 168.99 249.278 155.253C251.295 147.818 251.925 139.374 252.051 133.199C252.177 128.158 251.925 124.756 251.925 124.63C255.832 126.268 262.133 129.166 268.686 132.695C269.442 137.862 267.426 146.684 268.056 152.859C269.442 166.217 278.768 182.475 278.768 182.475C278.768 182.475 280.029 184.743 281.415 189.784C282.171 192.43 282.927 195.833 283.683 199.992C283.683 199.992 287.842 214.611 280.911 228.473C280.281 229.86 279.65 231.372 279.02 233.01C276.5 240.193 274.357 250.149 272.719 260.357C270.703 272.834 269.568 285.436 269.064 293.25C268.182 309.003 275.114 334.207 278.516 336.98C281.919 339.752 280.028 343.659 279.398 346.18C278.768 348.574 282.675 350.716 274.105 352.607Z" fill="#D0F4EA"/>
<path d="M281.415 189.532C275.996 174.787 261.125 173.527 251.169 174.409C249.404 174.535 248.27 172.392 249.657 171.132C257.47 163.571 261.755 150.338 258.982 144.667C256.714 140.004 253.815 135.594 252.051 133.073C252.177 128.032 251.925 124.629 251.925 124.503C255.832 126.142 262.133 129.04 268.686 132.569C269.443 137.736 267.426 146.558 268.056 152.733C269.443 166.091 278.768 182.348 278.768 182.348C278.768 182.348 279.903 184.491 281.415 189.532Z" fill="#AAE9D7"/>
<path d="M159.8 342.525C159.8 342.525 178.704 348.322 199.624 349.582C190.425 349.204 172.277 348.196 159.296 346.558C158.792 345.297 160.053 344.037 159.8 342.525Z" fill="#AAE9D7"/>
<path d="M179.209 334.207L149.088 329.671C152.743 327.276 162.321 302.953 163.203 287.2C164.086 271.447 163.833 236.035 158.54 221.542C153.247 207.049 158.918 192.935 158.918 192.935C162.321 180.962 168.37 169.494 168.37 169.494C168.37 169.494 174.168 158.278 177.066 145.171C178.326 139.122 179.965 132.821 181.225 127.78C188.282 125.008 194.71 122.739 198.869 121.605C198.743 121.983 191.433 136.854 193.702 150.843C194.962 158.404 203.279 163.067 210.841 165.839C210.841 165.839 180.847 162.185 172.403 173.779C163.959 185.373 159.549 227.969 177.066 228.221C185.384 228.347 192.819 227.465 198.238 226.331C200.255 225.953 201.389 228.599 199.625 229.734C194.962 232.884 189.039 236.413 184.124 238.051C174.042 241.328 173.663 242.84 170.639 259.727C167.614 276.614 166.354 299.929 166.102 310.893C165.976 318.202 174.798 326.646 180.847 331.435C181.855 332.317 180.847 334.459 179.209 334.207Z" fill="#AAE9D7"/>
<path d="M198.742 121.479C193.953 130.553 192.063 161.681 194.835 169.368C197.608 176.678 199.12 194.573 194.835 206.419C194.709 206.797 194.583 207.175 194.457 207.553C189.794 219.4 171.143 220.408 171.143 220.408L172.655 214.611C165.472 222.046 150.727 222.802 150.727 222.802C150.727 222.802 155.768 215.997 158.414 209.066C159.674 205.789 160.431 202.513 160.052 199.992C159.044 194.321 158.918 183.483 159.8 171.133C160.178 165.84 160.809 160.421 161.565 155.001C164.211 136.854 169.63 120.471 183.871 113.288C198.238 106.104 201.011 88.7129 201.011 88.7129L206.304 93.2498C206.304 93.2498 206.052 95.1401 205.548 98.1647C204.287 104.466 202.019 115.304 198.742 121.479Z" fill="#1D3542"/>
<path d="M279.021 232.758C276.5 239.942 274.358 249.898 272.719 260.106C271.963 253.048 269.191 243.975 260.243 242.084C250.917 240.194 246.38 236.413 244.238 233.641C243.607 232.884 244.49 231.75 245.372 232.128C261.125 239.06 279.021 232.758 279.021 232.758Z" fill="#AAE9D7"/>
<path d="M194.835 169.368C197.608 176.678 199.12 194.573 194.835 206.419C200.885 170.881 181.729 175.796 178.578 155.002C175.302 134.334 189.542 128.789 195.087 121.353C200.633 113.792 202.649 96.2744 202.649 96.2744L205.422 98.1648C204.287 104.466 202.019 115.304 198.742 121.479C193.827 130.553 191.937 161.807 194.835 169.368Z" fill="#01080A"/>
<path d="M188.408 55.8208C188.408 55.8208 181.855 50.6538 180.09 57.4591C178.326 64.1384 182.611 76.6147 186.013 78.001C189.29 79.3873 193.449 76.3627 193.449 76.3627L188.408 55.8208Z" fill="#E67B70"/>
<path d="M263.141 55.8208C263.141 55.8208 269.694 50.6538 271.459 57.4591C273.223 64.1384 268.938 76.6147 265.536 78.001C262.259 79.3873 258.1 76.3627 258.1 76.3627L263.141 55.8208Z" fill="#E67B70"/>
<path d="M226.09 11.712C226.09 11.712 168.748 8.81344 191.181 81.7813C202.271 117.824 226.09 115.556 226.09 115.556C226.09 115.556 249.908 117.95 260.999 81.7813C283.305 8.81344 226.09 11.712 226.09 11.712Z" fill="#F4A082"/>
<path d="M264.906 65.0203C261.881 72.8338 262.259 69.3051 259.991 65.0203C258.1 61.4916 253.437 55.5685 241.465 51.2837C240.583 51.0316 239.701 50.6536 238.818 50.4015C237.306 49.8974 235.794 49.5194 234.029 49.0153C233.525 48.8892 233.021 48.7632 232.517 48.6372C213.865 44.3524 203.657 31.876 203.657 31.876C201.515 43.7223 197.482 45.9907 194.836 48.0071C194.836 48.0071 194.836 48.0071 194.71 48.1331C193.953 48.6372 193.449 49.1413 192.945 49.7714C190.803 52.922 187.904 69.5572 187.904 69.5572C187.904 69.5572 185.51 58.7191 184.376 56.1986C183.241 53.6781 179.208 42.462 183.493 29.1035C187.778 15.6189 198.112 1.88231 226.846 1.00014C240.961 0.496042 255.454 11.8382 260.621 18.5175C266.166 25.5748 267.93 33.5143 268.686 37.295C270.451 44.4784 267.93 57.2068 264.906 65.0203Z" fill="#1D3542"/>
<path d="M238.818 50.4014C237.306 49.8973 235.794 49.5192 234.029 49.0151C231.761 45.9905 230.627 41.3277 229.996 37.673C229.87 37.2949 230.627 37.0428 230.627 37.5469C232.139 42.0838 234.533 48.0069 238.818 50.4014Z" fill="#01080A"/>
<path d="M264.905 65.0204C261.881 72.8339 262.259 69.3052 259.99 65.0204C258.1 61.4917 253.437 55.5686 241.465 51.2838C248.27 52.292 255.58 55.5686 259.108 57.2069C260.369 57.837 261.755 57.2069 262.133 55.9466C266.796 40.9498 263.393 26.5831 260.621 18.6436C266.166 25.7009 267.93 33.6404 268.686 37.4211C270.451 44.4785 267.93 57.2069 264.905 65.0204Z" fill="#01080A"/>
<path d="M185.888 51.2839C185.888 51.2839 192.189 50.0237 194.709 48.1333C193.953 48.6374 193.449 49.1415 192.945 49.7716C190.803 52.9222 187.904 69.5574 187.904 69.5574C187.4 61.9959 190.803 51.2839 190.803 51.2839C189.416 51.662 185.888 51.2839 185.888 51.2839Z" fill="#01080A"/>
<path d="M203.783 32.0022C201.641 43.8485 197.608 46.1169 194.961 48.1333C197.482 46.243 199.624 41.202 201.011 37.0432C201.893 34.3967 201.767 31.4981 201.389 29.6078C201.389 29.2297 201.767 29.1037 202.019 29.3557L203.783 32.0022Z" fill="#01080A"/>
<path d="M220.167 196.589C219.788 197.093 214.621 204.151 192.945 220.534C122.371 274.22 101.072 273.842 101.072 273.842C100.442 271.448 100.064 269.179 99.9382 267.037C97.5437 239.942 122.875 225.575 139.762 218.518C156.776 211.46 188.282 197.724 202.271 191.17C203.279 190.666 204.287 190.288 205.044 189.784C211.597 186.633 215.504 188.902 217.646 191.674C219.536 193.943 220.167 196.589 220.167 196.589Z" fill="#F4A082"/>
<path d="M220.166 196.589C216.764 200.496 212.731 200.496 209.454 199.11C205.674 197.472 202.775 193.817 202.271 191.296C202.271 191.296 202.271 191.296 202.271 191.17C203.027 188.902 216.008 147.314 217.142 140.005C218.024 134.46 219.41 132.065 221.427 132.317C221.805 132.317 222.183 132.569 222.561 132.695C223.317 133.199 223.695 134.082 223.695 134.964V175.417C223.695 175.417 227.35 188.272 220.166 196.589Z" fill="#F4A082"/>
<path opacity="0.6" d="M220.166 196.589C219.788 197.094 214.621 204.151 192.945 220.534C122.371 274.22 101.072 273.842 101.072 273.842C101.072 273.842 101.072 273.842 101.072 273.716C100.064 269.431 101.955 264.894 105.735 262.626C114.053 257.585 126.908 252.922 134.721 249.646C148.962 243.848 186.14 221.416 197.356 213.855C208.572 206.293 208.824 198.984 208.824 198.984C208.824 198.984 209.076 198.984 209.328 198.858C211.345 198.606 218.528 197.22 217.772 191.927C217.772 191.801 217.772 191.675 217.772 191.548C217.016 185.373 221.805 175.039 221.805 175.039C221.805 175.039 221.931 139.627 221.805 135.216C221.679 133.577 222.057 132.947 222.561 132.695C223.317 133.199 223.695 134.082 223.695 134.964V175.417C223.695 175.417 227.35 188.272 220.166 196.589Z" fill="#DB8C70"/>
<path d="M329.052 275.733C328.674 278.631 327.792 281.782 326.658 284.932C326.406 284.806 324.642 284.428 320.735 282.034C311.787 276.741 291.245 261.996 248.9 220.534C245.372 217.131 242.347 214.107 239.827 211.334C227.602 198.606 224.956 193.439 224.956 193.439C224.956 193.439 229.366 181.341 240.709 188.524C249.909 194.447 268.686 208.31 284.692 218.644C288.472 221.038 292.001 223.307 295.278 225.197C310.401 234.019 332.833 250.528 329.052 275.733Z" fill="#F4A082"/>
<path d="M244.867 191.17C244.867 191.17 231.131 147.44 229.996 140.004C228.862 132.569 226.72 130.805 223.443 133.325V175.417C223.443 175.417 219.788 188.272 226.972 196.589C234.155 204.781 244.111 195.833 244.867 191.17Z" fill="#F4A082"/>
<path opacity="0.6" d="M328.926 284.554C328.17 284.932 327.414 285.058 326.658 285.058C324.894 284.932 322.877 283.924 320.735 282.159C311.787 276.866 291.245 262.122 248.9 220.66C245.371 217.257 242.347 214.232 239.826 211.46C240.583 212.09 282.927 246.243 303.091 260.483C307.754 263.76 311.283 266.028 312.795 266.406C317.332 267.793 325.272 271.699 329.305 275.732C331.951 278.757 332.833 281.907 328.926 284.554Z" fill="#DB8C70"/>
<path d="M218.449 70.1328C216.564 72.0121 213.81 73.1688 210.91 73.1688C208.156 73.1688 205.546 72.1567 203.661 70.4219" stroke="black" stroke-width="0.512" stroke-miterlimit="10" stroke-linecap="round" stroke-linejoin="round"/>
<path d="M249.624 70.1328C247.738 72.0121 244.984 73.1688 242.084 73.1688C239.328 73.1688 236.718 72.1567 234.835 70.4219" stroke="black" stroke-width="0.512" stroke-miterlimit="10" stroke-linecap="round" stroke-linejoin="round"/>
<path d="M235.704 97.478C233.384 99.213 230.049 100.225 226.425 100.225C222.944 100.225 219.9 99.3575 217.58 97.7672" stroke="black" stroke-width="0.512" stroke-miterlimit="10" stroke-linecap="round" stroke-linejoin="round"/>
<path d="M231.211 103.406C230.05 103.841 228.454 104.13 226.569 104.13C224.83 104.13 223.235 103.841 222.074 103.551" stroke="black" stroke-width="0.512" stroke-miterlimit="10" stroke-linecap="round" stroke-linejoin="round"/>
<path d="M206.56 57.1444C212.361 54.9758 216.419 58.3009 217 61.4814C217 61.4814 213.375 60.3248 207.865 61.0476C202.355 61.9151 197.86 64.2281 197.86 64.2281C197.86 64.2281 200.76 59.1683 206.56 57.1444Z" fill="#372E2A"/>
<path d="M246.724 57.1444C240.923 54.9758 236.864 58.3009 236.284 61.4814C236.284 61.4814 239.909 60.3248 245.419 61.0476C250.929 61.9151 255.424 64.2281 255.424 64.2281C255.424 64.2281 252.524 59.1683 246.724 57.1444Z" fill="#372E2A"/>
<path d="M227.757 74.0942C226.587 77.4549 227.106 81.2356 229.186 84.0362C230.098 85.1564 231.137 86.2766 231.657 87.677C232.178 89.2172 231.786 91.0376 230.747 92.1578C229.837 93.418 228.276 94.1181 226.846 94.2581" stroke="black" stroke-width="0.512" stroke-miterlimit="10" stroke-linecap="round" stroke-linejoin="round"/>
<path d="M200.904 71.7238C200.904 71.7238 202.936 72.3035 204.819 71.2891" stroke="black" stroke-width="0.512" stroke-miterlimit="10" stroke-linecap="round" stroke-linejoin="round"/>
<path d="M252.09 71.7238C252.09 71.7238 250.058 72.3035 248.175 71.2891" stroke="black" stroke-width="0.512" stroke-miterlimit="10" stroke-linecap="round" stroke-linejoin="round"/>
<path opacity="0.6" d="M196.978 502.576C194.709 492.872 191.559 480.143 189.038 476.867C185.257 471.826 177.822 470.565 177.822 470.565L176.814 459.853C179.838 459.727 187.904 459.223 192.567 456.325C198.238 452.67 193.953 466.407 196.474 474.85C198.994 483.294 201.263 512.531 196.978 502.576Z" fill="#DB8C70"/>
<path d="M177.822 470.44C177.822 470.44 157.91 470.44 134.721 472.33C116.321 473.842 66.5415 470.314 36.1693 468.297C28.3558 467.793 22.5586 467.289 19.9121 466.911C19.786 466.911 19.786 466.911 19.786 466.911C19.66 466.785 18.1477 465.525 16.8875 463.508C16.0053 462.122 15.2491 460.358 15.2491 458.215C15.2491 458.215 12.9807 450.276 20.4162 444.731C21.1723 444.227 21.9285 443.723 22.8106 443.218C33.1447 437.673 54.9471 425.827 68.0538 423.685C81.2864 421.542 96.1574 422.803 107.878 424.945C119.598 427.087 144.173 434.775 153.247 435.909C155.893 436.161 174.923 437.421 174.923 437.421C174.923 437.421 178.074 452.418 178.452 462.878C178.578 465.903 178.452 468.675 177.822 470.44Z" fill="#1F5148"/>
<path d="M177.822 470.44C177.822 470.44 157.91 470.44 134.721 472.33C116.321 473.842 66.5414 470.314 36.1693 468.297C28.3557 467.793 22.5585 467.289 19.912 466.911C19.786 466.911 19.786 466.911 19.786 466.911C19.786 466.911 19.786 466.911 19.66 466.785C17.7696 465.147 16.8874 462.5 17.5175 459.98C18.9038 454.435 22.4325 449.772 30.6242 451.914C47.7636 456.451 72.8427 451.032 100.568 456.199C123.505 460.484 160.682 463.886 178.452 462.878C178.578 465.903 178.452 468.675 177.822 470.44Z" fill="#1D4941"/>
<path opacity="0.6" d="M223.821 772.771C224.703 772.771 225.207 773.905 224.451 774.535C222.057 776.552 218.024 777.434 215.503 777.434C211.471 777.434 195.591 778.19 195.591 778.19C195.591 778.19 191.685 780.71 187.652 780.08C186.265 779.954 184.501 778.82 183.115 777.308C183.493 775.922 186.013 776.174 190.676 776.678C196.221 777.308 193.701 772.771 193.701 772.771C193.701 772.771 201.262 774.913 212.479 773.401C217.142 772.645 220.922 772.645 223.821 772.771Z" fill="#DB8C70"/>
</g>
<defs>
<clipPath id="clip0_23_9678">
<rect width="339" height="802" fill="white"/>
</clipPath>
</defs>
</svg>
