<svg width="745" height="594" viewBox="0 0 745 594" fill="none" xmlns="http://www.w3.org/2000/svg">
<g opacity="0.1" clip-path="url(#clip0_20_230)">
<path d="M534.731 156.676C500.471 149.597 464.196 150.715 430.742 140.283C385.599 126.498 350.533 94.0832 312.646 67.6301C274.355 41.5497 225.585 20.3127 180.443 34.0981C120.387 52.3544 99.4281 120.164 87.7395 177.541C75.2447 238.644 62.7498 299.746 50.255 361.222C43.403 393.636 37.3571 429.031 54.2856 458.465C75.6477 495.723 125.224 508.763 169.963 515.469C347.712 543.04 815.662 562.414 683.056 271.058C657.261 214.053 600.026 170.089 534.731 156.676Z" fill="url(#paint0_linear_20_230)"/>
</g>
<g opacity="0.1" clip-path="url(#clip1_20_230)">
<path d="M562.521 169.889C528.922 160.142 492.671 158.408 460.14 145.382C416.219 128.095 383.806 93.0282 348.112 63.6825C311.987 34.6765 265.034 9.67646 218.949 19.8754C157.646 33.3608 131.428 99.3154 115.271 155.598C98.0178 215.531 80.7647 275.465 63.4824 335.769C54.1069 367.546 45.301 402.357 59.8666 433.029C78.2378 471.848 126.637 488.74 170.712 498.938C345.748 540.378 810.733 596.428 701.409 295.561C680.168 236.708 626.562 188.386 562.521 169.889Z" fill="url(#paint1_linear_20_230)"/>
</g>
<path d="M239.171 393.32C239.171 393.021 237.076 424.127 259.217 450.447C254.131 448.652 249.343 446.858 244.556 445.063C243.659 439.081 238.572 412.163 227.801 389.133C227.801 388.834 224.51 418.444 243.659 444.764C238.872 442.671 234.084 440.577 229.297 438.483C228.699 432.8 225.707 406.779 216.432 384.347C216.432 384.048 211.645 412.163 228.4 438.184C223.612 435.791 219.125 433.399 214.637 431.006C214.637 425.921 213.141 400.797 205.361 378.664C205.361 378.365 199.677 404.686 213.739 430.408C209.251 427.716 204.763 425.024 200.275 422.332C200.574 417.547 200.874 393.918 194.291 372.084C194.291 371.785 187.709 396.61 199.378 421.734C194.89 418.743 190.701 415.752 186.512 412.761C187.11 408.275 188.906 385.843 183.819 364.906C183.819 364.906 176.339 387.637 185.914 412.163C181.725 408.873 177.536 405.583 173.647 402.293C174.245 398.106 177.536 377.169 173.647 357.13C173.647 357.13 165.568 378.365 173.048 401.994C169.159 398.704 165.269 395.115 161.38 391.226C162.277 387.637 166.466 367.897 163.773 348.755C163.773 348.755 155.096 368.196 161.08 390.927C157.191 387.338 153.6 383.45 150.01 379.562C150.908 376.272 155.994 358.027 154.498 339.782C154.498 339.782 145.522 357.728 149.711 378.964C146.121 375.075 142.53 370.888 139.239 366.701C140.436 364.009 146.121 347.26 145.522 329.912C145.522 329.912 136.247 346.362 138.94 366.402C135.649 362.214 132.357 358.027 129.366 353.541C130.562 351.148 136.845 335.894 137.145 319.743C137.145 319.743 127.87 334.399 129.066 353.241C126.074 348.755 123.082 344.269 120.09 339.782C121.287 337.689 128.169 324.229 129.066 308.976C129.066 308.976 119.791 322.136 120.09 339.483C117.098 334.698 114.406 330.211 112.012 325.127C112.91 323.631 120.09 311.368 121.886 297.311C121.886 297.311 112.91 308.976 112.012 324.828C109.319 320.042 106.926 314.958 104.831 309.873C105.43 308.976 112.91 298.208 115.004 285.048C115.004 285.048 106.327 295.217 104.831 309.574C103.934 307.779 103.036 305.686 102.438 303.891C102.737 302.994 106.327 289.235 104.831 274.879C104.831 274.879 99.4458 288.637 102.438 303.592C101.54 301.199 100.343 298.806 99.4458 296.414C99.745 296.713 99.745 297.012 100.044 297.311C100.044 297.311 97.9499 281.16 91.3675 267.103C91.3675 267.103 91.9659 282.954 99.4458 296.115C100.343 298.507 101.241 301.199 102.438 303.592C101.241 301.797 92.5643 289.535 81.7932 281.758C81.7932 281.758 90.1707 297.012 102.438 303.891C103.335 305.686 103.934 307.779 104.831 309.574C93.1627 301.199 79.6989 297.61 79.6989 297.61C90.4699 308.078 103.635 309.574 104.831 309.574C106.926 314.658 109.319 319.743 112.012 324.529C98.5482 316.154 83.5884 313.163 83.5884 313.163C95.8555 323.93 110.217 324.828 112.012 324.828C114.406 329.613 117.098 334.399 120.09 339.184C104.831 331.109 88.3756 328.417 88.3756 328.417C102.438 339.483 117.996 339.184 120.09 339.184C122.783 343.97 125.775 348.456 129.066 352.942C112.012 345.166 94.0603 343.371 94.0603 343.371C109.619 354.438 126.673 353.241 129.066 353.241C132.058 357.728 135.349 361.915 138.641 366.103C119.791 358.924 100.343 358.027 100.343 358.027C117.996 369.093 135.948 366.701 138.94 366.402C142.231 370.589 145.821 374.776 149.412 378.664C128.767 372.383 107.823 372.383 107.823 372.383C127.271 383.151 146.42 379.562 149.711 378.964C153.301 382.852 156.892 386.74 160.781 390.628C138.341 385.245 116.201 386.441 116.201 386.441C137.444 396.909 157.789 391.825 161.38 390.927C165.269 394.516 169.159 398.106 173.048 401.695C149.113 397.507 125.476 399.9 125.177 400.199C148.514 410.069 169.757 403.489 173.347 402.293C177.237 405.882 181.426 409.172 185.615 412.163C159.884 409.471 135.05 413.359 134.751 413.359C160.183 422.631 182.024 414.257 186.213 412.462C190.402 415.752 194.59 418.743 199.078 421.734C171.851 420.538 145.522 425.921 145.522 425.921C173.048 434.296 195.787 424.127 199.677 422.033C204.165 425.024 208.653 427.716 213.141 430.408C184.119 431.006 156.892 437.885 156.892 438.184C186.512 445.362 209.55 433.399 214.038 431.006C218.526 433.698 223.313 436.09 227.801 438.483C197.283 440.876 169.159 449.849 169.159 449.849C200.574 455.831 224.51 441.773 228.699 438.782C233.486 441.175 238.273 443.269 243.06 445.362C211.345 449.849 182.024 460.616 182.024 460.915C215.534 465.701 239.769 449.251 243.958 445.961C248.745 448.054 253.831 449.849 258.619 451.643C225.707 458.522 195.488 471.383 195.488 471.383C231.092 474.374 255.327 455.831 259.815 451.942C266.098 454.036 272.382 456.13 278.964 457.924C279.263 457.326 279.263 456.429 279.562 455.831C272.98 454.335 266.697 452.241 260.414 450.148C258.918 444.764 251.737 416.649 239.171 393.32Z" fill="url(#paint2_linear_20_230)"/>
<path d="M188.008 433.997C188.008 433.698 199.078 454.335 223.912 462.112C220.022 463.009 216.133 463.906 212.243 464.504C209.251 461.214 195.189 445.961 178.733 435.791C178.733 435.492 188.307 455.831 211.345 464.804C207.456 465.402 203.566 466 199.677 466.598C196.984 463.308 184.717 448.054 169.458 437.287C169.458 436.988 177.536 456.728 198.779 466.598C194.89 466.897 191 467.196 187.11 467.495C185.016 464.205 173.946 448.952 160.183 437.885C160.183 437.586 167.064 456.728 186.512 467.495C182.623 467.794 178.733 467.794 174.544 467.794C172.749 464.504 163.474 449.251 150.608 438.184C150.608 438.184 156.293 456.429 173.946 467.794C170.056 467.794 166.167 467.495 161.978 467.196C160.482 464.205 152.703 449.251 141.034 437.885C141.034 437.885 145.522 455.532 161.679 467.196C157.789 466.897 153.9 466.598 149.711 466C148.514 463.009 141.932 448.353 131.46 437.287C131.46 437.287 134.751 454.036 149.412 466C145.522 465.402 141.633 464.804 137.743 463.906C136.845 461.214 131.46 447.157 122.185 435.791C122.185 435.791 124.578 451.643 137.444 463.607C133.554 462.71 129.665 461.813 125.775 460.915C125.177 458.523 120.988 444.764 112.61 433.698C112.61 433.698 114.106 448.653 125.476 460.616C121.586 459.42 117.697 458.523 113.807 457.027C113.209 454.933 110.217 441.773 103.036 431.006C103.036 431.006 103.635 445.063 113.508 456.728C109.618 455.532 106.028 454.036 102.139 452.541C101.839 450.447 99.745 438.184 93.4619 428.015C93.4619 428.015 93.4619 441.175 101.839 452.541C97.9498 451.045 94.3594 449.251 90.7691 447.456C90.7691 445.662 89.5723 434.296 83.8876 424.127C83.8876 424.127 83.2892 436.39 90.4699 447.157C86.8795 445.362 82.99 443.568 79.3996 441.474C79.3996 439.979 79.1004 429.51 74.3133 419.939C74.3133 419.939 73.1165 431.006 79.1004 441.474C75.51 439.381 71.9197 437.287 68.3293 434.894C68.3293 433.997 68.6285 424.127 64.739 414.855C64.739 414.855 63.243 425.024 68.0301 434.595C66.8333 433.698 65.3374 432.801 64.1406 431.903C63.8414 431.305 60.5502 420.837 53.9679 412.462C53.9679 412.462 56.0622 423.23 64.1406 431.903C62.6446 430.707 60.8494 429.81 59.3534 428.613C59.6526 428.613 59.6526 428.912 59.9518 428.912C59.9518 428.912 52.1727 419.341 42.2992 413.359C42.2992 413.359 49.1807 423.23 59.0542 428.613C60.5502 429.81 62.3454 431.006 63.8414 432.202C62.3454 431.604 51.8735 427.118 42 426.52C42 426.52 53.3695 432.801 64.1406 432.202C65.3374 433.1 66.8333 433.997 68.0301 434.894C57.259 434.296 47.3855 437.287 47.3855 437.287C58.4558 439.68 67.4317 435.193 68.3293 434.894C71.9197 437.287 75.2108 439.381 78.8012 441.474C66.8333 441.474 56.0623 445.662 56.0623 445.662C68.3293 447.456 77.6044 442.072 78.8012 441.474C82.3916 443.568 85.9819 445.362 89.5723 447.456C76.7068 448.353 65.0382 453.438 65.0382 453.438C78.2028 454.933 88.3755 448.353 89.5723 447.456C93.1627 449.251 97.0522 451.045 100.643 452.541C86.8795 454.634 74.6125 460.616 74.6125 460.616C88.9739 461.214 99.4458 453.737 100.942 452.541C104.831 454.036 108.422 455.532 112.311 457.027C97.6506 460.018 84.7851 467.495 84.7851 467.495C100.343 467.495 111.114 458.523 112.61 457.326C116.5 458.523 120.39 460.018 124.279 460.915C108.721 465.103 95.257 473.776 95.257 473.776C112.012 472.879 122.783 462.71 124.578 460.915C128.468 462.112 132.357 463.009 136.247 463.906C119.791 469.589 106.028 479.459 106.028 479.459C123.98 477.365 134.751 466 136.546 463.906C140.436 464.804 144.325 465.402 148.215 466C131.161 473.178 117.098 484.245 117.098 484.245C135.948 480.955 146.719 468.393 148.514 466C152.404 466.598 156.293 467.196 160.482 467.495C142.829 476.169 128.767 488.731 128.767 488.731C148.514 484.245 159.285 470.187 161.08 467.495C164.97 467.794 168.859 468.094 173.048 468.094C155.096 478.263 140.735 492.32 140.735 492.619C161.679 486.936 171.851 471.085 173.647 468.094C177.536 468.094 181.426 468.094 185.614 468.094C167.363 480.057 153.002 495.61 153.002 495.909C174.843 488.731 184.717 471.384 186.512 468.094C190.402 467.794 194.291 467.794 198.48 467.196C180.229 480.955 165.568 498.302 165.568 498.302C188.008 489.329 197.582 470.785 199.078 467.196C202.968 466.897 206.857 466.299 210.747 465.701C192.197 481.254 178.135 500.097 178.135 500.396C201.472 489.628 210.149 469.589 211.645 465.701C215.534 465.103 219.424 464.205 223.313 463.308C205.062 480.955 191 501.293 191 501.592C214.936 489.03 222.715 467.495 224.211 463.308C228.998 462.112 234.084 460.915 238.871 459.121C238.572 458.523 238.572 457.924 238.273 457.625C233.486 459.121 228.699 460.616 223.912 461.813C221.518 458.523 205.661 443.568 188.008 433.997Z" fill="url(#paint3_linear_20_230)"/>
<path d="M296.617 409.471C296.018 409.172 291.829 379.263 281.058 375.674C269.689 371.486 268.791 381.656 268.791 381.656C268.193 381.356 261.012 349.653 252.934 345.166C244.257 340.381 240.368 349.653 240.368 349.653C240.068 349.653 236.777 324.529 229.297 317.35C221.518 310.172 220.321 321.239 220.321 321.239C220.022 321.239 216.133 297.909 211.046 291.928C205.661 285.946 199.976 295.218 199.976 295.517C199.677 295.517 196.685 270.393 192.496 266.205C187.709 262.018 185.016 267.701 185.016 267.701C184.717 267.701 180.229 238.39 169.159 239.287C157.191 240.483 165.568 271.888 165.868 271.589C165.868 271.589 160.482 267.103 158.388 273.085C155.994 279.366 169.458 305.387 169.757 305.088C169.757 305.088 158.986 299.704 158.687 308.677C158.388 317.949 175.143 341.577 175.442 341.278C175.442 341.278 164.97 332.604 166.466 345.166C167.962 358.326 191.299 379.562 191.598 378.964C191.598 378.964 180.528 376.87 182.323 388.834C184.119 401.695 218.825 424.725 218.825 424.127C218.825 424.127 207.456 421.435 211.944 436.39C217.03 452.242 252.635 461.215 252.335 460.616C252.635 460.616 230.494 464.505 254.43 482.45C279.862 500.695 314.568 466 313.97 466C313.671 465.701 328.93 419.64 314.868 404.985C300.207 389.731 296.617 409.172 296.617 409.471Z" fill="url(#paint4_linear_20_230)"/>
<path opacity="0.07" d="M314.868 405.583C300.207 389.731 296.617 409.172 296.617 409.471C296.018 409.172 291.829 379.263 281.058 375.674C269.689 371.487 268.791 381.656 268.791 381.656C268.193 381.357 261.012 349.653 252.934 345.166C244.257 340.381 240.368 349.653 240.368 349.653C240.068 349.653 236.777 324.529 229.297 317.351C226.305 314.659 224.211 314.36 223.014 315.556C233.785 349.354 240.966 399.302 209.55 418.444C214.337 422.033 217.928 424.127 218.825 424.426H219.125C219.125 424.426 219.125 424.426 218.825 424.426C217.629 424.127 207.755 422.632 212.243 436.689C217.03 451.943 250.54 460.916 252.635 460.916C251.139 461.215 231.99 465.402 255.028 482.749C280.46 500.994 315.167 466.299 314.568 466.299C313.97 466.299 329.229 420.239 314.868 405.583Z" fill="#1F5148"/>
<path opacity="0.8" d="M278.366 393.32C277.468 407.677 277.767 422.631 279.263 437.885C259.516 420.538 241.864 400.798 226.904 379.562C226.006 364.906 226.604 350.55 227.801 336.492C225.707 349.353 224.809 362.514 224.51 376.272C209.251 354.438 196.685 330.81 187.111 305.686C187.111 305.088 187.111 303.891 187.41 302.396C187.709 300.003 187.709 296.713 188.008 293.423C188.307 290.133 188.307 287.142 188.607 284.45C188.607 282.057 188.906 280.562 188.906 280.562C188.906 280.562 188.607 282.057 188.307 284.45C188.008 286.843 187.709 289.834 187.41 293.124C187.111 296.414 187.111 299.704 187.111 302.097C187.111 303.592 187.111 304.789 187.111 305.387C180.528 288.637 175.442 271.589 171.852 253.943C177.835 283.553 187.709 312.266 201.472 339.184C200.874 338.586 199.677 337.689 197.882 336.492C195.189 334.698 191.898 332.006 188.307 329.613C184.717 327.221 181.127 324.828 178.434 323.033C175.741 321.239 173.946 320.042 173.946 320.042C173.946 320.042 175.741 321.538 178.135 323.931C180.827 326.024 184.119 328.716 187.709 331.408C191.299 333.801 194.89 336.193 197.582 337.689C199.378 338.586 200.874 339.483 201.472 339.782C208.353 353.242 215.833 366.103 224.51 378.665C231.99 389.731 240.368 400.199 249.044 410.369C234.384 407.677 219.125 403.789 204.165 398.704C220.022 404.985 235.88 409.77 251.438 413.06C265.799 429.211 281.956 444.166 299.309 457.326C287.94 461.215 276.271 464.505 264.303 467.196C277.169 465.402 289.735 462.71 301.703 459.121C308.285 463.906 314.868 468.393 321.749 472.879C322.048 471.982 322.647 471.384 322.946 470.486C308.285 461.214 294.522 451.045 281.357 439.979C279.263 424.127 278.066 408.574 278.366 393.32Z" fill="#1F5148"/>
<path d="M505.755 405.882C505.755 405.583 507.849 436.689 485.709 463.009C490.795 461.215 495.582 459.42 500.369 457.626C501.267 451.644 506.353 424.725 517.124 401.695C517.124 401.396 520.416 431.006 501.267 457.326C506.054 455.233 510.841 453.139 515.628 451.045C516.227 445.363 519.219 419.342 528.494 396.91C528.494 396.61 533.281 424.725 516.526 450.746C521.313 448.354 525.801 445.961 530.289 443.568C530.289 438.484 531.785 413.36 539.564 391.227C539.564 390.928 545.249 417.248 531.187 442.97C535.675 440.278 540.163 437.586 544.651 434.894C544.351 430.109 544.052 406.481 550.634 384.647C550.634 384.348 557.217 409.172 545.548 434.296C550.036 431.305 554.225 428.314 558.414 425.323C557.815 420.837 556.02 398.405 561.106 377.468C561.106 377.468 568.586 400.2 559.012 424.725C563.201 421.435 567.389 418.145 571.279 414.855C570.681 410.668 567.389 389.731 571.279 369.692C571.279 369.692 579.357 390.928 571.578 414.556C575.468 411.266 579.357 407.677 583.247 403.789C582.349 400.2 578.161 380.459 580.853 361.317C580.853 361.317 589.53 380.758 583.546 403.49C587.436 399.9 591.026 396.012 594.616 392.124C593.719 388.834 588.632 370.589 590.128 352.345C590.128 352.345 599.104 370.29 594.916 391.526C598.506 387.638 602.096 383.45 605.387 379.263C604.191 376.571 598.506 359.822 599.104 342.474C599.104 342.474 608.379 358.925 605.687 378.964C608.978 374.777 612.269 370.589 615.261 366.103C614.064 363.71 607.781 348.456 607.482 332.305C607.482 332.305 616.757 346.961 615.56 365.804C618.552 361.317 621.544 356.831 624.536 352.345C623.339 350.251 616.458 336.792 615.56 321.538C615.56 321.538 624.835 334.698 624.536 352.045C627.528 347.26 630.221 342.774 632.614 337.689C631.717 336.194 624.536 323.931 622.741 309.873C622.741 309.873 631.717 321.538 632.614 337.39C635.307 332.604 637.701 327.52 639.795 322.435C639.197 321.538 631.717 310.771 629.622 297.61C629.622 297.61 638.299 307.78 639.795 322.136C640.693 320.342 641.59 318.248 642.189 316.453C641.889 315.556 638.299 301.798 639.795 287.441C639.795 287.441 645.181 301.2 642.189 316.154C643.086 313.761 644.283 311.369 645.181 308.976C644.881 309.275 644.881 309.574 644.582 309.873C644.582 309.873 646.677 293.722 653.259 279.665C653.259 279.665 652.661 295.517 645.181 308.677C644.283 311.07 643.385 313.761 642.189 316.154C643.385 314.36 652.062 302.097 662.833 294.32C662.833 294.32 654.456 309.574 642.189 316.453C641.291 318.248 640.693 320.342 639.795 322.136C651.464 313.761 664.928 310.172 664.928 310.172C654.157 320.641 640.992 322.136 639.795 322.136C637.701 327.221 635.307 332.305 632.614 337.091C646.078 328.716 660.739 325.725 661.038 325.725C648.771 336.493 634.41 337.39 632.614 337.39C630.221 342.175 627.528 346.961 624.536 351.746C639.795 343.671 656.251 340.979 656.251 340.979C642.189 352.045 626.63 351.746 624.536 351.746C621.843 356.532 618.851 361.018 615.56 365.505C632.614 357.728 650.566 355.934 650.566 355.934C635.008 367 617.954 365.804 615.56 365.804C612.568 370.29 609.277 374.477 605.986 378.665C624.835 371.487 644.283 370.589 644.283 370.589C626.63 381.656 608.679 379.263 605.687 378.964C602.396 383.151 598.805 387.339 595.215 391.227C615.859 384.946 636.803 384.946 636.803 384.946C617.355 395.713 598.207 392.124 594.916 391.526C591.325 395.414 587.735 399.302 583.845 403.19C606.285 397.807 628.426 399.003 628.426 399.003C607.183 409.471 586.837 404.387 583.247 403.49C579.357 407.079 575.468 410.668 571.578 414.257C595.514 410.07 619.15 412.462 619.45 412.761C596.112 422.632 574.869 416.052 571.279 414.855C567.389 418.444 563.201 421.734 559.012 424.725C584.743 422.033 609.576 425.922 609.875 425.922C584.444 435.194 562.602 426.819 558.414 425.024C554.225 428.314 550.036 431.305 545.548 434.296C572.775 433.1 599.104 438.484 599.104 438.484C571.578 446.858 548.839 436.689 544.95 434.595C540.462 437.586 535.974 440.278 531.486 442.97C560.508 443.568 587.735 450.447 587.735 450.746C558.114 457.925 535.076 445.961 530.588 443.568C526.1 446.26 521.313 448.653 516.825 451.045C547.343 453.438 575.468 462.411 575.468 462.411C544.052 468.393 520.116 454.336 515.928 451.345C511.141 453.737 506.353 455.831 501.566 457.925C533.281 462.411 562.602 473.178 562.602 473.477C529.092 478.263 504.857 461.813 500.669 458.523C495.881 460.616 490.795 462.411 486.008 464.206C518.92 471.085 549.138 483.946 549.138 483.946C513.534 486.937 489.299 468.393 484.811 464.505C478.528 466.598 472.245 468.692 465.663 470.487C465.363 469.888 465.363 468.991 465.064 468.393C471.647 466.897 477.93 464.804 484.213 462.71C485.709 457.027 492.889 429.212 505.755 405.882Z" fill="url(#paint5_linear_20_230)"/>
<path opacity="0.82" d="M386.675 372.982C386.376 372.682 398.343 401.395 385.478 433.398C389.667 430.108 393.855 426.818 397.745 423.528C396.847 417.547 392.958 390.329 396.249 365.205C395.95 364.906 408.815 391.824 398.643 422.93C402.532 419.64 406.422 416.051 410.311 412.462C409.114 407.078 403.729 381.356 405.524 356.831C405.225 356.531 418.689 381.655 410.91 411.864C414.5 408.275 418.39 404.386 421.681 400.498C420.185 395.414 413.602 371.486 413.902 347.858C413.602 347.858 427.665 370.888 422.279 399.601C425.87 395.713 429.161 391.824 432.452 387.637C430.657 383.151 422.878 360.719 422.279 338.287C421.98 338.287 436.341 359.522 433.05 387.039C436.341 382.852 439.333 378.664 442.325 374.477C440.53 370.29 431.853 349.652 430.058 328.417C430.058 328.417 444.42 347.858 442.924 373.879C445.916 369.692 448.908 365.205 451.6 360.719C449.506 357.13 440.231 337.988 437.538 317.948C437.538 317.948 451.9 335.595 451.9 360.42C454.592 355.933 457.285 351.447 459.679 346.661C457.584 343.371 447.711 326.024 444.121 307.181C444.121 307.181 458.482 323.033 459.978 346.362C462.372 341.577 464.765 336.791 466.859 332.006C464.765 329.314 454.293 313.462 450.104 295.815C450.104 295.815 464.466 310.172 467.159 331.707C469.253 326.921 471.347 321.837 473.143 316.752C471.347 314.359 460.576 300.302 455.49 283.852C455.49 283.852 469.552 296.414 473.143 316.453C474.938 311.368 476.733 306.284 478.229 301.199C476.434 299.405 465.663 286.843 460.277 271.589C460.277 271.589 473.741 282.655 478.229 300.9C479.725 295.815 481.221 290.432 482.418 285.347C480.922 283.852 469.851 273.084 464.167 259.027C464.167 259.027 477.032 268.598 482.418 285.347C483.615 279.963 484.811 274.58 485.709 269.196C484.213 268 473.741 258.728 467.757 245.867C467.757 245.867 480.024 254.241 485.709 268.897C486.606 263.513 487.504 258.13 488.102 252.447C487.205 251.849 476.733 243.773 470.45 232.108C470.45 232.108 482.119 238.988 488.102 252.148C488.402 250.054 488.402 247.96 488.701 245.867C488.102 244.969 480.323 233.006 477.331 218.948C477.331 218.948 486.606 230.314 488.701 245.568C489 242.876 489 240.483 489.299 237.791C489.299 238.09 489.299 238.389 489 238.689C489 238.689 485.709 222.837 487.803 207.284C487.803 207.284 492.291 222.537 489.299 237.492C489.299 240.184 489 242.876 488.701 245.568C489.299 243.474 493.488 229.118 501.267 218.35C501.267 218.35 497.976 235.398 488.701 245.867C488.701 247.96 488.402 250.054 488.102 252.148C496.48 240.483 508.149 233.006 508.149 233.006C501.267 246.166 489.299 251.849 488.102 252.447C487.504 257.831 486.906 263.513 486.008 268.897C496.181 256.634 509.345 249.157 509.345 249.157C501.267 263.214 487.504 268.598 486.008 269.196C485.111 274.58 484.213 279.963 483.016 285.347C494.984 272.785 509.645 265.308 509.645 265.308C499.771 279.963 484.811 285.048 483.016 285.646C481.819 291.03 480.323 296.115 478.827 301.498C492.59 288.936 509.046 281.459 509.046 281.459C497.677 297.012 481.221 301.199 478.827 301.797C477.331 306.882 475.536 311.966 473.741 317.051C489.299 304.489 507.55 297.311 507.55 297.311C494.386 313.163 476.434 316.752 473.741 317.35C471.946 322.435 469.851 327.22 467.757 332.305C485.41 320.042 505.157 313.462 505.157 313.462C490.197 329.912 470.749 332.305 467.458 332.903C465.364 337.689 462.97 342.474 460.576 347.26C480.024 335.296 501.566 329.314 501.866 329.314C484.811 345.764 463.868 347.559 460.576 347.559C458.183 352.344 455.49 356.831 452.797 361.616C474.339 350.25 497.677 345.166 497.677 345.166C478.528 361.915 456.388 362.214 452.498 362.214C449.805 366.701 446.813 371.187 444.121 375.673C467.757 364.906 492.59 360.719 492.59 361.018C471.347 377.767 447.711 376.571 443.522 376.272C440.53 380.758 437.538 384.945 434.247 389.133C459.679 379.263 486.307 376.272 486.606 376.571C463.269 393.021 438.436 390.628 433.948 390.03C430.657 394.217 427.365 398.105 423.775 402.293C451.301 393.619 479.426 391.824 479.725 392.124C453.994 408.275 427.964 404.087 423.177 403.19C419.586 407.078 415.996 410.966 412.406 414.556C442.026 407.377 471.647 406.779 471.946 407.078C443.821 422.631 416.894 416.649 411.807 415.453C408.217 419.042 404.327 422.631 400.139 426.22C431.554 420.537 462.97 421.734 462.97 421.734C432.452 436.689 404.627 428.613 399.241 426.818C395.351 430.408 391.163 433.698 386.974 436.689C420.484 432.8 453.096 435.492 453.096 435.791C420.185 449.849 391.462 439.679 386.076 437.586C380.691 441.773 375.305 445.362 369.62 449.25C369.321 448.652 368.723 448.054 368.424 447.456C374.108 443.867 379.494 439.979 384.88 436.09C383.982 427.716 381.888 399.003 386.675 372.982Z" fill="url(#paint6_linear_20_230)"/>
<path d="M448.01 421.734C448.609 421.435 452.797 391.526 463.568 387.937C474.938 383.749 475.835 393.919 475.835 393.919C476.434 393.619 483.615 361.916 491.693 357.429C500.37 352.644 504.259 361.916 504.259 361.916C504.558 361.916 508.149 336.792 515.329 329.613C523.109 322.435 524.305 333.502 524.305 333.502C524.604 333.502 528.494 310.172 533.58 304.19C538.966 298.209 544.651 307.48 544.651 307.78C544.95 307.78 547.942 282.656 552.131 278.468C556.918 274.281 559.61 279.964 559.61 279.964C559.91 279.964 564.398 250.653 575.468 251.55C587.436 252.746 579.058 284.151 578.759 283.852C578.759 283.852 584.145 279.366 586.239 285.348C588.633 291.629 575.169 317.65 574.87 317.351C574.87 317.351 585.641 311.967 585.94 320.94C586.239 330.212 569.484 353.84 569.185 353.541C569.185 353.541 579.657 344.867 578.161 357.429C576.665 370.589 553.327 391.825 553.028 391.227C553.028 391.227 564.098 389.133 562.303 401.097C560.508 413.958 525.801 436.988 525.801 436.39C525.801 436.39 537.171 433.698 532.683 448.653C527.596 464.505 491.992 473.477 492.291 472.879C491.992 472.879 514.133 476.767 490.197 494.713C464.765 512.958 430.058 478.263 430.657 478.263C430.956 477.964 415.697 431.903 429.759 417.248C444.42 401.994 448.309 421.435 448.01 421.734Z" fill="url(#paint7_linear_20_230)"/>
<path opacity="0.05" d="M429.759 417.846C444.42 401.994 448.01 421.435 448.01 421.734C448.608 421.435 452.797 391.526 463.568 387.937C474.938 383.749 475.835 393.919 475.835 393.919C476.434 393.62 483.614 361.916 491.693 357.429C500.37 352.644 504.259 361.916 504.259 361.916C504.558 361.916 508.149 336.792 515.329 329.614C518.321 326.922 520.416 326.623 521.613 327.819C510.841 361.617 503.661 411.565 535.076 430.707C530.289 434.296 526.699 436.39 525.801 436.689H525.502C525.502 436.689 525.502 436.689 525.801 436.689C526.998 436.39 536.872 434.894 532.384 448.952C527.596 464.206 494.086 473.178 491.992 473.178C493.488 473.478 512.637 477.665 489.598 495.012C464.167 513.257 429.46 478.562 430.058 478.562C430.956 478.562 415.697 432.801 429.759 417.846Z" fill="#1F5148"/>
<path opacity="0.8" d="M466.56 405.883C467.458 420.239 467.159 435.194 465.663 450.447C485.41 433.1 503.062 413.36 518.022 392.124C518.92 377.469 518.321 363.112 517.124 349.055C519.219 361.916 520.116 375.076 520.416 388.834C535.675 367 548.241 343.372 557.815 318.248C557.815 317.65 557.815 316.454 557.516 314.958C557.217 312.565 557.217 309.275 556.918 305.985C556.618 302.695 556.618 299.704 556.319 297.012C556.319 294.62 556.02 293.124 556.02 293.124C556.02 293.124 556.319 294.62 556.618 297.012C556.918 299.405 557.217 302.396 557.516 305.686C557.815 308.976 557.815 312.266 557.815 314.659C557.815 316.154 557.815 317.351 557.815 317.949C564.398 301.2 569.484 284.151 573.074 266.505C567.09 296.115 557.217 324.828 543.454 351.747C544.052 351.148 545.249 350.251 547.044 349.055C549.737 347.26 553.028 344.568 556.618 342.176C560.209 339.783 563.799 337.39 566.492 335.596C569.185 333.801 570.98 332.605 570.98 332.605C570.98 332.605 569.484 334.1 566.791 336.493C564.098 338.586 560.807 341.278 557.217 343.97C553.627 346.363 550.036 348.756 547.343 350.251C545.548 351.148 544.052 352.046 543.454 352.345C536.572 365.804 529.092 378.665 520.416 391.227C512.936 402.293 504.558 412.762 495.882 422.931C510.542 420.239 525.801 416.351 540.761 411.266C524.904 417.547 509.046 422.333 493.488 425.623C479.127 441.774 462.97 456.728 445.616 469.889C456.986 473.777 468.655 477.067 480.623 479.759C467.757 477.964 455.191 475.272 443.223 471.683C436.641 476.469 430.058 480.955 423.177 485.441C422.878 484.544 422.279 483.946 421.98 483.049C436.641 473.777 450.404 463.608 463.568 452.541C465.663 436.689 466.56 420.837 466.56 405.883Z" fill="#1F5148"/>
<path d="M221.817 483.048C221.817 483.048 144.924 511.462 91.3674 391.526C91.6666 391.526 219.723 391.526 221.817 483.048Z" fill="url(#paint8_linear_20_230)"/>
<path opacity="0.1" d="M196.086 425.622C182.922 448.951 150.908 448.353 122.185 442.969C170.355 502.19 221.817 483.048 221.817 483.048C221.219 457.326 210.747 438.782 196.086 425.622Z" fill="#1A7F72"/>
<path opacity="0.4" d="M170.954 413.659L176.938 449.55L136.845 422.631L133.554 402.293L135.05 421.435L122.783 413.36V412.761H122.185L103.335 399.9L120.988 412.761L106.028 413.36L122.783 414.556V414.257L154.797 437.586L125.177 438.483L157.191 439.381L196.685 468.094C196.086 468.094 195.787 468.094 195.189 468.094C191 468.094 185.614 468.094 180.229 468.094C169.458 468.094 158.388 468.094 158.388 468.094C158.388 468.094 169.159 468.692 180.229 468.991C185.614 469.29 191 469.589 195.189 469.589C196.685 469.589 198.181 469.888 199.377 469.888L220.62 485.142L223.612 480.955L179.331 451.045L170.954 413.659Z" fill="#1F5148"/>
<path d="M549.139 464.803C549.139 464.803 610.773 518.64 703.524 425.622C703.524 425.323 583.845 379.861 549.139 464.803Z" fill="url(#paint9_linear_20_230)"/>
<path opacity="0.05" d="M594.018 420.238C597.908 446.559 628.126 457.625 656.849 462.71C590.727 500.994 549.438 464.803 549.438 464.803C559.012 440.876 575.468 427.417 594.018 420.238Z" fill="#1F5148"/>
<path opacity="0.4" d="M621.544 417.846L603.293 449.251L650.267 438.184L660.739 420.239L652.661 437.586L667.022 434.296L667.321 433.997L667.92 434.296L690.06 428.912L669.116 434.595L682.88 440.278L666.723 435.492L667.022 435.193L628.725 445.662L655.952 457.027L625.733 446.559L578.759 459.42C579.058 459.719 579.657 459.719 580.255 460.018C584.145 461.514 589.231 463.308 594.317 465.402C604.49 469.29 614.663 473.178 614.663 473.178C614.663 473.178 604.49 469.888 594.018 466.299C588.932 464.505 583.546 463.009 579.956 461.813C578.46 461.214 576.964 460.915 576.066 460.616L550.934 467.495L549.737 462.411L601.797 450.148L621.544 417.846Z" fill="#1F5148"/>
<path d="M371.416 422.332C371.416 422.332 435.743 408.873 421.082 304.789C421.082 304.789 334.016 358.925 371.416 422.332Z" fill="url(#paint10_linear_20_230)"/>
<path opacity="0.1" d="M364.833 372.084C383.683 382.254 405.225 368.495 422.279 352.344C414.799 413.06 371.416 422.033 371.416 422.033C360.944 404.387 360.345 387.338 364.833 372.084Z" fill="#1A7F72"/>
<path opacity="0.6" d="M376.502 353.541L387.572 380.459L403.131 345.166L396.847 329.912L404.028 343.372L408.815 332.604L408.516 332.305L409.115 332.006L416.594 315.257L410.012 331.408L420.484 325.426L409.713 333.502L409.414 333.202L397.446 362.514L417.791 350.55L396.548 364.906L381.888 401.097C382.187 400.798 382.486 400.798 382.785 400.499C385.478 398.704 389.367 396.311 392.958 394.218C400.438 389.731 407.619 384.946 407.619 384.946C407.619 384.946 400.438 389.731 393.257 394.816C389.667 397.208 386.076 399.9 383.384 401.695C382.486 402.592 381.588 403.19 380.691 403.489L372.912 422.931L369.022 421.435L386.376 382.254L376.502 353.541Z" fill="#1F5148"/>
<path d="M249.942 329.314C249.942 329.314 182.922 303.293 217.329 193.526C217.329 193.526 301.703 267.701 249.942 329.314Z" fill="url(#paint11_linear_20_230)"/>
<path opacity="0.2" d="M240.667 219.547C248.745 247.662 246.351 273.683 217.628 297.012C230.195 321.538 249.942 329.314 249.942 329.314C282.554 290.432 261.012 246.764 240.667 219.547Z" fill="#1A7F72"/>
<path opacity="0.6" d="M256.524 253.943L239.769 281.16L228.998 240.184L238.572 224.632L228.4 238.091L225.108 225.529L225.408 225.23L225.108 224.931L220.022 205.49L224.211 224.332L214.038 216.257L224.211 226.725L224.51 226.426L231.99 260.224L211.944 243.773L232.289 262.915L241.564 304.789C241.265 304.49 240.966 304.19 240.667 303.891C237.974 301.499 234.383 298.209 230.793 295.218C223.612 288.937 216.432 282.656 216.432 282.656C216.432 282.656 223.313 289.236 230.195 295.816C233.486 299.106 237.076 302.396 239.47 305.088C240.367 305.985 241.265 306.882 241.863 307.48L246.95 329.912L251.438 328.716L239.769 283.254L256.524 253.943Z" fill="#1F5148"/>
<path d="M380.668 232.902C401.312 232.304 413.28 239.781 429.437 252.343C445.593 264.905 501.244 269.69 501.244 269.69C496.158 257.727 503.937 208.974 497.654 195.814C491.371 182.654 483.891 165.606 479.403 156.932C474.915 148.258 467.734 133.304 472.521 124.032C477.308 115.059 495.559 110.273 504.535 116.554C513.81 122.835 512.015 130.313 512.015 130.313C512.015 130.313 517.7 129.714 518.298 144.669C518.897 159.624 515.905 177.869 518.298 187.739C520.692 197.609 544.628 282.252 536.549 302.291C528.471 322.331 474.316 314.554 452.176 308.273C430.035 302.291 415.375 293.02 398.021 296.01C380.369 299.001 362.716 321.733 362.716 321.733C362.716 321.733 324.419 336.986 327.411 290.627C326.214 277.168 345.662 246.959 345.662 246.959L380.668 232.902Z" fill="#F4A082"/>
<path opacity="0.3" d="M384.857 232.902C383.361 232.902 382.164 232.902 380.668 232.902L345.961 247.259C345.961 247.259 326.214 277.467 327.71 290.926C324.419 337.286 363.015 322.032 363.015 322.032C363.015 322.032 366.605 317.546 371.991 312.162C327.411 319.041 356.134 254.736 384.857 232.902Z" fill="url(#paint12_linear_20_230)"/>
<path d="M246.628 260.418C246.628 260.418 258.296 194.319 262.784 174.878C267.272 155.437 274.752 118.05 284.326 97.4124C294.2 76.4759 300.184 60.3248 310.656 59.1285C321.128 57.9321 395.029 65.4094 413.28 68.4004C431.531 71.3913 448.286 71.3913 462.049 80.3641C475.812 89.636 491.969 104.292 494.662 112.068C497.654 119.844 500.945 124.929 489.575 127.92C478.206 130.911 464.443 127.92 455.766 121.639C447.089 115.358 431.83 99.207 420.76 94.1224C404.005 88.4396 338.182 101.6 323.82 97.1133C323.82 97.1133 321.128 114.76 316.041 130.313C310.955 145.866 304.073 185.645 310.356 205.983C316.939 226.023 246.628 260.418 246.628 260.418Z" fill="#F4A082"/>
<path opacity="0.55" d="M267.871 151.848C265.776 160.521 264.28 168.597 262.784 174.878C258.296 194.319 246.628 260.419 246.628 260.419C246.628 260.419 317.238 226.322 310.656 205.984C309.459 202.394 308.86 198.506 308.561 194.02C290.909 201.497 259.493 191.029 267.871 151.848Z" fill="url(#paint13_linear_20_230)"/>
<path d="M338.182 87.2431C341.473 78.5694 331.599 63.6147 320.529 65.1102C309.459 66.6057 304.373 68.9984 300.782 77.9712C300.782 77.9712 305.27 69.2975 312.152 71.3912C312.152 71.3912 296.893 72.5875 295.995 92.6268C295.097 112.666 314.545 112.965 314.545 112.965L338.182 87.2431Z" fill="#1D3542"/>
<path d="M335.686 74.1284C325.214 75.0257 314.742 81.3067 306.365 85.494C313.246 83.1012 318.033 81.0076 324.915 81.0076C311.451 81.0076 304.27 94.1677 300.979 107.926C306.365 113.609 314.742 113.908 314.742 113.908L338.379 87.8867C339.875 83.6994 338.678 78.3157 335.686 74.1284Z" fill="url(#paint14_linear_20_230)"/>
<path d="M319.033 180.261C302.278 178.467 297.192 155.736 299.585 133.902C301.979 112.068 320.23 82.1585 351.047 78.2703C371.991 75.5785 401.013 92.9259 407.296 103.693C417.768 121.938 415.375 141.678 415.375 141.678L319.033 180.261Z" fill="#1D3542"/>
<path d="M410.587 113.563C418.067 124.929 418.067 159.026 404.304 171.887C390.541 184.449 406.099 196.412 387.25 205.983C387.25 205.983 397.722 199.702 394.132 185.645C390.541 171.289 398.32 128.518 398.32 128.518L410.587 113.563Z" fill="#1D3542"/>
<path opacity="0.3" d="M500.047 222.733C499.748 240.977 497.953 262.213 500.945 269.69C500.945 269.69 492.567 269.092 481.198 267.298C483.591 282.551 473.419 296.609 467.734 311.863C493.166 316.648 530.266 318.742 536.549 302.292C537.148 301.095 537.447 299.6 537.746 297.805C511.118 283.15 509.921 249.352 500.047 222.733Z" fill="url(#paint15_linear_20_230)"/>
<path d="M348.354 353.137C352.244 338.781 363.015 322.032 363.015 322.032C363.015 322.032 332.497 322.032 337.883 293.618C341.473 274.775 380.967 233.201 380.967 233.201L374.983 232.603L328.308 237.089L309.16 202.394C309.16 202.394 304.373 200.6 300.782 202.394C297.192 204.189 256.8 238.585 246.927 255.334C237.053 272.083 222.692 274.775 224.487 291.524C226.282 308.273 233.164 319.041 236.455 328.313C237.951 332.5 239.447 347.156 244.832 366.597C280.736 376.467 319.332 373.775 348.354 353.137Z" fill="#FFD2B9"/>
<path d="M235.557 326.518C235.857 327.117 236.156 327.715 236.156 328.313C237.652 332.5 239.148 347.156 244.533 366.597C280.736 376.766 319.332 374.074 348.354 353.138C352.244 338.781 363.015 322.032 363.015 322.032C363.015 322.032 351.346 322.032 343.567 315.153C318.734 344.464 269.965 340.875 235.557 326.518Z" fill="#FFD2B9"/>
<path d="M244.533 366.298C250.816 388.131 262.485 416.246 286.72 442.267C286.72 442.267 349.551 452.437 363.015 378.56C363.015 378.56 346.858 377.962 346.858 362.409C346.858 359.418 347.457 356.128 348.354 352.838C319.332 373.775 280.736 376.467 244.533 366.298Z" fill="#F4A082"/>
<path opacity="0.7" d="M346.859 362.709C346.859 359.718 347.457 356.428 348.354 353.138C342.071 357.624 335.19 361.512 328.009 364.204C338.78 396.805 313.947 427.014 285.224 440.772C285.822 441.37 286.122 441.969 286.72 442.567C286.72 442.567 347.756 453.932 363.015 378.86C363.015 378.561 346.859 377.962 346.859 362.709Z" fill="url(#paint16_linear_20_230)"/>
<path d="M565.272 394.413C549.714 361.512 534.754 329.509 532.361 322.032C527.873 306.778 517.401 284.047 511.417 269.391C505.433 254.736 506.031 245.763 505.433 238.286C504.535 231.107 504.535 223.032 497.953 221.835C491.071 220.639 492.867 234.697 487.78 241.277C482.694 247.857 485.087 260.419 486.883 278.364C488.678 296.31 473.12 302.89 475.513 321.733C477.907 340.576 492.268 328.612 504.535 345.361C511.118 354.633 514.11 382.748 518.298 409.666C535.352 410.264 551.21 403.684 565.272 394.413Z" fill="#F4A082"/>
<path opacity="0.7" d="M512.614 372.28C514.708 383.645 516.503 396.805 518.298 409.965C535.352 410.264 551.21 403.684 565.272 394.412C564.674 393.216 564.375 392.319 563.776 391.122C544.927 391.721 525.479 385.739 512.614 372.28Z" fill="#F4A082"/>
<path d="M601.475 473.672C598.483 464.699 581.429 429.107 564.973 394.412C551.21 403.684 535.053 410.264 517.999 409.965C521.589 432.996 525.778 455.128 533.856 464.4C526.077 459.914 451.877 436.884 442.901 430.005C433.626 423.125 431.531 407.872 412.383 393.216C393.234 378.561 372.589 383.944 362.716 378.561C362.716 378.561 347.457 444.361 283.13 438.379C218.802 432.397 136.523 441.968 140.114 480.252C144.003 518.536 194.268 517.041 215.212 517.639C235.857 518.536 307.664 516.742 338.481 516.742C368.999 516.742 388.148 498.497 394.431 497.6C400.415 496.702 529.668 532.893 572.752 527.509C615.238 522.724 607.758 491.319 601.475 473.672Z" fill="#1F5148"/>
<path d="M321.726 157.231C321.726 157.231 312.152 194.02 310.357 199.403C306.467 212.264 216.708 267.896 256.8 294.216C298.688 321.733 374.684 232.304 374.684 232.304C374.684 232.304 360.622 231.705 355.834 220.938C351.346 210.171 359.425 192.823 359.425 192.823C359.425 192.823 339.977 152.147 321.726 157.231Z" fill="#F4A082"/>
<path opacity="0.7" d="M356.134 220.938C351.646 210.171 359.724 192.823 359.724 192.823C359.724 192.823 340.276 152.147 321.726 157.231C321.726 157.231 321.128 159.325 319.332 166.503C322.624 196.113 336.387 231.107 362.716 245.464C370.196 237.687 374.983 232.304 374.983 232.304C374.983 232.304 360.622 232.005 356.134 220.938Z" fill="url(#paint17_linear_20_230)"/>
<path d="M404.603 118.947C404.603 118.947 407.895 144.37 407.595 155.736C407.296 167.101 401.612 169.195 400.116 172.186C398.62 175.476 398.62 183.551 394.132 191.926C389.644 200.301 373.487 215.853 363.015 215.255C350.449 214.358 335.788 199.403 330.702 189.533C325.616 179.962 324.12 159.624 324.12 159.624C324.12 159.624 313.648 161.418 312.451 148.258C311.254 134.799 316.041 127.023 326.812 132.406C326.812 132.406 328.608 101.899 363.913 101.301C398.62 100.403 404.603 118.947 404.603 118.947Z" fill="#F4A082"/>
<path opacity="0.4" d="M338.481 158.727C342.67 134.201 357.63 116.854 377.077 101.899C373.188 101.301 368.401 101.002 363.314 101.002C328.009 101.6 326.214 132.107 326.214 132.107C315.443 126.724 310.656 134.5 311.852 147.959C313.049 161.419 323.521 159.325 323.521 159.325C323.521 159.325 325.017 179.962 330.103 189.234C334.891 198.207 347.457 211.666 359.126 214.358C341.473 203.89 336.686 178.766 338.481 158.727Z" fill="url(#paint18_linear_20_230)"/>
<path d="M407.296 125.228C395.628 135.996 380.668 143.473 356.134 136.893C356.134 136.893 372.889 134.5 380.668 128.219C362.716 135.697 338.78 127.322 333.993 141.379C329.206 155.437 342.969 190.431 325.915 196.413C325.915 196.413 337.284 192.225 330.403 175.476C326.214 165.606 317.238 149.754 322.923 125.228C328.608 100.703 348.654 89.6362 374.983 92.6272C401.312 95.9172 410.887 113.564 410.887 113.564L407.296 125.228Z" fill="#1D3542"/>
<path d="M382.558 163.12C384.8 164.456 387.035 165.408 389.495 166.048C391.841 166.652 394.33 166.791 396.927 166.581C394.574 167.632 391.745 167.769 389.133 167.209C386.559 166.534 384.085 165.125 382.558 163.12Z" fill="#2E2430"/>
<path d="M357.638 156.92C359.841 158.322 362.048 159.338 364.488 160.049C366.815 160.721 369.298 160.933 371.901 160.799C369.518 161.78 366.686 161.835 364.092 161.199C361.538 160.45 359.107 158.969 357.638 156.92Z" fill="#2E2430"/>
<path d="M399.9 157.088C396.557 153.145 391.631 151.389 386.546 152.292C385.773 152.388 386.08 153.613 386.854 153.517C391.497 152.717 395.984 154.354 398.998 158.069C399.43 158.631 400.328 157.761 399.9 157.088Z" fill="#1D3542"/>
<path d="M359.471 149.393C363.967 146.843 369.197 146.892 373.66 149.492C374.352 149.848 373.642 150.893 372.948 150.535C368.865 148.185 364.09 148.176 359.979 150.625C359.381 151.004 358.838 149.878 359.471 149.393Z" fill="#1D3542"/>
<path d="M366.869 180.214C368.113 180.586 369.14 181.113 370.23 181.439C371.317 181.764 372.407 182.09 373.399 182.166C374.489 182.492 375.481 182.568 376.629 182.69C377.779 182.814 378.927 182.936 380.292 182.903C379.151 183.885 377.917 184.618 376.648 184.9C375.377 185.182 374.012 185.215 372.708 185.046C371.404 184.876 370.221 184.302 369.313 183.369C368.286 182.842 367.44 181.707 366.869 180.214Z" fill="#A34F31"/>
<path d="M361.893 195.029C366.278 198.585 371.776 199.64 377.199 198.411C378.215 198.145 377.71 196.676 376.867 196.993C371.791 198.324 366.738 197.024 362.648 193.743C361.888 193.142 361.133 194.428 361.893 195.029Z" fill="#A34F31"/>
<path d="M325.914 196.114C325.616 196.412 325.914 196.114 325.914 196.114V196.114Z" fill="url(#paint19_linear_20_230)"/>
<path opacity="0.47" d="M407.595 109.376C399.517 119.844 383.36 121.938 370.794 121.938C377.676 119.545 384.557 115.059 389.344 108.18C373.188 121.938 347.756 115.059 333.993 131.21C321.128 142.276 334.891 168.896 332.497 183.252C333.395 192.524 327.411 195.515 326.214 196.113C342.969 189.832 329.206 155.137 334.292 141.08C339.079 127.023 363.015 135.397 380.967 127.92C373.188 134.201 356.433 136.594 356.433 136.594C380.967 143.174 395.927 135.696 407.595 124.929L410.887 113.264C410.587 113.563 409.69 111.769 407.595 109.376Z" fill="url(#paint20_linear_20_230)"/>
<g opacity="0.7">
<path d="M443.499 94.1223C443.499 94.1223 444.397 94.4214 446.192 95.0196C447.089 95.3187 447.987 95.9169 449.184 96.5151C450.381 97.1133 451.577 98.0105 452.774 99.2069C455.168 101.301 457.86 103.992 460.852 106.684C462.348 108.18 463.844 109.077 465.64 109.974C466.537 110.273 467.435 110.572 468.632 111.171C469.529 111.47 470.726 112.367 471.624 113.563C471.923 114.162 472.222 114.76 472.222 115.358C472.222 115.657 472.521 116.554 472.222 117.452C471.923 118.947 470.726 120.143 469.529 120.443C467.136 121.34 465.041 120.742 462.947 120.443C462.049 120.143 461.152 120.143 459.955 119.844C459.057 119.545 458.16 119.246 457.262 118.947C455.467 118.349 453.971 117.751 452.475 116.853C450.979 115.956 449.782 115.358 448.585 114.76C447.389 114.162 446.491 113.264 445.893 112.965C444.995 112.367 444.397 112.068 444.097 111.769C443.798 111.47 443.499 111.171 443.499 111.171C443.499 111.171 444.397 111.769 446.192 112.367C447.089 112.666 447.987 113.264 449.184 113.862C450.381 114.461 451.577 114.76 453.073 115.657C454.569 116.255 456.065 116.853 457.86 117.452C458.758 117.751 459.656 118.05 460.553 118.349C461.451 118.648 462.348 118.648 463.246 118.947C465.041 119.246 467.136 119.246 468.632 118.947C469.529 118.648 469.828 118.349 470.128 117.452C470.128 117.153 470.128 116.853 470.128 116.255C470.128 115.956 469.828 115.657 469.828 115.358C468.931 114.162 466.836 113.563 465.041 112.666C462.947 111.769 461.152 110.273 459.955 108.778C457.262 105.787 454.869 103.095 452.475 101.001C451.278 99.8051 450.081 98.9078 449.184 98.3096C448.286 97.4123 447.089 97.1133 446.491 96.5151C444.397 94.4214 443.499 94.1223 443.499 94.1223Z" fill="url(#paint21_linear_20_230)"/>
</g>
<path d="M496.756 117.452C496.756 117.452 502.74 126.424 492.567 129.116C482.395 131.808 471.025 128.219 471.025 128.219C471.025 128.219 470.726 134.799 471.624 138.388C472.82 142.276 471.923 139.585 471.923 139.585C471.923 139.585 474.316 134.201 480.899 133.902C487.481 133.603 494.363 131.21 498.252 127.023C502.441 122.835 496.756 117.452 496.756 117.452Z" fill="url(#paint22_linear_20_230)"/>
<path opacity="0.2" d="M267.871 472.775C267.871 472.775 226.881 459.017 212.519 459.017C212.519 459.017 246.628 456.026 270.264 465.896C293.901 475.766 316.64 486.533 327.71 484.44C338.78 482.346 342.371 478.757 342.371 478.757C342.371 478.757 338.182 485.337 324.419 487.73C310.057 489.823 267.871 472.775 267.871 472.775Z" fill="#192E2A"/>
<path d="M261.887 518.237C295.696 518.536 328.607 519.134 335.489 520.331C349.85 522.724 373.188 523.322 387.848 524.219C402.509 525.116 409.69 529.304 416.272 531.696C422.555 534.089 429.437 537.379 433.027 531.995C436.618 526.911 424.35 522.424 420.76 515.545C417.469 508.666 405.8 505.675 390.242 499.992C374.385 494.31 375.282 478.458 358.826 472.775C342.071 467.092 346.26 484.14 327.411 487.43C317.238 489.225 292.405 480.252 268.17 472.775C260.69 486.832 259.493 502.983 261.887 518.237Z" fill="#F4A082"/>
<path opacity="0.5" d="M320.529 487.43C308.262 486.234 287.917 479.056 267.871 472.775C260.69 486.832 259.792 502.684 261.887 518.237C263.981 518.237 266.375 518.237 268.469 518.237C279.24 499.095 300.184 491.917 320.529 487.43Z" fill="#F4A082"/>
<defs>
<linearGradient id="paint0_linear_20_230" x1="706.392" y1="279.914" x2="43.3369" y2="279.913" gradientUnits="userSpaceOnUse">
<stop stop-color="#1A7F54"/>
<stop offset="1" stop-color="#7ADBAE"/>
</linearGradient>
<linearGradient id="paint1_linear_20_230" x1="723.978" y1="306.221" x2="62.9687" y2="254.169" gradientUnits="userSpaceOnUse">
<stop stop-color="#1A7F72"/>
<stop offset="1" stop-color="#7ADBAE"/>
</linearGradient>
<linearGradient id="paint2_linear_20_230" x1="622.888" y1="131" x2="-369.703" y2="635.922" gradientUnits="userSpaceOnUse">
<stop stop-color="#41CBB9"/>
<stop offset="1" stop-color="#307E70"/>
</linearGradient>
<linearGradient id="paint3_linear_20_230" x1="264.888" y1="249.5" x2="-145.366" y2="906.488" gradientUnits="userSpaceOnUse">
<stop stop-color="#41CBB9"/>
<stop offset="1" stop-color="#307E70"/>
</linearGradient>
<linearGradient id="paint4_linear_20_230" x1="460.229" y1="-107.922" x2="-133.731" y2="787.426" gradientUnits="userSpaceOnUse">
<stop stop-color="#41CBB9"/>
<stop offset="1" stop-color="#3EB39D"/>
</linearGradient>
<linearGradient id="paint5_linear_20_230" x1="267.888" y1="236" x2="834.423" y2="510.595" gradientUnits="userSpaceOnUse">
<stop stop-color="#41CBB9"/>
<stop offset="1" stop-color="#307E70"/>
</linearGradient>
<linearGradient id="paint6_linear_20_230" x1="155.388" y1="279.5" x2="866.554" y2="387.999" gradientUnits="userSpaceOnUse">
<stop stop-color="#41CBB9"/>
<stop offset="1" stop-color="#307E70"/>
</linearGradient>
<linearGradient id="paint7_linear_20_230" x1="197.922" y1="-277.093" x2="791.886" y2="618.262" gradientUnits="userSpaceOnUse">
<stop stop-color="#41CBB9"/>
<stop offset="1" stop-color="#359D8A"/>
</linearGradient>
<linearGradient id="paint8_linear_20_230" x1="263.318" y1="-300.83" x2="86.2439" y2="926.581" gradientUnits="userSpaceOnUse">
<stop stop-color="#41CBB9"/>
<stop offset="1" stop-color="#32BFA6"/>
</linearGradient>
<linearGradient id="paint9_linear_20_230" x1="805.317" y1="-355.151" x2="534.945" y2="855.249" gradientUnits="userSpaceOnUse">
<stop stop-color="#41CBB9"/>
<stop offset="1" stop-color="#319E8B"/>
</linearGradient>
<linearGradient id="paint10_linear_20_230" x1="-61.0381" y1="-177.53" x2="739.505" y2="769.93" gradientUnits="userSpaceOnUse">
<stop stop-color="#41CBB9"/>
<stop offset="1" stop-color="#4DD0B9"/>
</linearGradient>
<linearGradient id="paint11_linear_20_230" x1="656.364" y1="-98.4832" x2="-287.976" y2="705.81" gradientUnits="userSpaceOnUse">
<stop stop-color="#41CBB9"/>
<stop offset="1" stop-color="#2EA892"/>
</linearGradient>
<linearGradient id="paint12_linear_20_230" x1="749.813" y1="84.3766" x2="-356.611" y2="645.359" gradientUnits="userSpaceOnUse">
<stop offset="0.00537634" stop-color="#F5906B"/>
<stop offset="0.7473" stop-color="#F5906B"/>
</linearGradient>
<linearGradient id="paint13_linear_20_230" x1="698.204" y1="-17.3717" x2="-408.177" y2="543.589" gradientUnits="userSpaceOnUse">
<stop offset="0.00537634" stop-color="#F5906B"/>
<stop offset="0.7473" stop-color="#F5906B"/>
</linearGradient>
<linearGradient id="paint14_linear_20_230" x1="666.153" y1="-80.6798" x2="-440.285" y2="480.309" gradientUnits="userSpaceOnUse">
<stop stop-color="#313F46"/>
<stop offset="1" stop-color="#305062"/>
</linearGradient>
<linearGradient id="paint15_linear_20_230" x1="775.211" y1="134.469" x2="-331.216" y2="695.453" gradientUnits="userSpaceOnUse">
<stop offset="0.00537634" stop-color="#EA7951"/>
<stop offset="0.7473" stop-color="#F5906B"/>
</linearGradient>
<linearGradient id="paint16_linear_20_230" x1="790.455" y1="164.549" x2="-315.953" y2="725.523" gradientUnits="userSpaceOnUse">
<stop offset="0.00537634" stop-color="#F5906B"/>
<stop offset="0.7473" stop-color="#F5906B"/>
</linearGradient>
<linearGradient id="paint17_linear_20_230" x1="713.714" y1="13.1691" x2="-392.714" y2="574.154" gradientUnits="userSpaceOnUse">
<stop offset="0.00537634" stop-color="#F5906B"/>
<stop offset="0.7473" stop-color="#F5906B"/>
</linearGradient>
<linearGradient id="paint18_linear_20_230" x1="698.987" y1="-15.8267" x2="-407.385" y2="545.129" gradientUnits="userSpaceOnUse">
<stop offset="0.00537634" stop-color="#F5906B"/>
<stop offset="0.7473" stop-color="#F5906B"/>
</linearGradient>
<linearGradient id="paint19_linear_20_230" x1="707.637" y1="3.03147" x2="-396.353" y2="563.489" gradientUnits="userSpaceOnUse">
<stop stop-color="#000077"/>
<stop offset="0.1459" stop-color="#020087"/>
<stop offset="0.7232" stop-color="#0B00C1"/>
<stop offset="1" stop-color="#0F00D8"/>
</linearGradient>
<linearGradient id="paint20_linear_20_230" x1="695.493" y1="-22.7381" x2="-410.905" y2="538.231" gradientUnits="userSpaceOnUse">
<stop stop-color="#305062"/>
<stop offset="1" stop-color="#305062"/>
</linearGradient>
<linearGradient id="paint21_linear_20_230" x1="442.782" y1="107.187" x2="472.369" y2="107.187" gradientUnits="userSpaceOnUse">
<stop offset="0.00537634" stop-color="#F5906B"/>
<stop offset="0.7473" stop-color="#F5906B"/>
</linearGradient>
<linearGradient id="paint22_linear_20_230" x1="713.379" y1="12.5242" x2="-393.042" y2="573.505" gradientUnits="userSpaceOnUse">
<stop offset="0.00537634" stop-color="#F5906B"/>
<stop offset="0.7473" stop-color="#F5906B"/>
</linearGradient>
<clipPath id="clip0_20_230">
<rect width="500" height="663.434" fill="white" transform="translate(706.434 30) rotate(90)"/>
</clipPath>
<clipPath id="clip1_20_230">
<rect width="500" height="663.434" fill="white" transform="translate(743.638 57.0825) rotate(94.5026)"/>
</clipPath>
</defs>
</svg>
