<svg width="923" height="941" viewBox="0 0 923 941" fill="none" xmlns="http://www.w3.org/2000/svg">
<g opacity="0.1" clip-path="url(#clip0_23_228)">
<path d="M696.987 231.654C690.552 194.296 660.44 167.961 611.963 171.278C570.182 173.838 538.231 188.375 494.225 159.086C326.132 46.7299 262.681 164.472 258.509 256.483C252.707 388.623 210.523 406.521 165.866 468.394C134.68 511.726 113.338 549.665 120.88 607.509C131.96 693.969 205.853 736.48 278.825 729.176C314.804 725.621 353.333 716.14 377.288 712.08C441.507 701.19 465.782 707.067 548.329 717.751C709.4 735.504 779.919 620.794 708.141 513.153C646.703 421.073 641.615 415.557 673.039 336.747C686.704 303.61 704.457 274.427 696.987 231.654Z" fill="url(#paint0_linear_23_228)"/>
</g>
<g opacity="0.1" clip-path="url(#clip1_23_228)">
<path d="M673.998 210.976C664.151 174.37 631.742 150.919 583.776 158.684C542.409 165.08 511.932 182.496 465.416 157.384C287.692 60.98 235.351 184.064 239.667 276.068C246.055 408.181 205.699 429.887 166.927 495.608C139.863 541.627 122.105 581.37 134.94 638.274C153.932 723.347 231.426 758.874 303.416 744.883C338.914 738.031 376.407 725.043 399.887 718.795C462.83 702.038 487.543 705.656 570.723 708.695C732.744 711.544 792.403 590.828 711.02 490.253C641.366 404.22 635.792 399.196 659.827 317.828C670.383 283.574 685.373 252.88 673.998 210.976Z" fill="url(#paint1_linear_23_228)"/>
</g>
<g opacity="0.5">
<path d="M730 483.035C718.377 483.571 701.695 482.605 681.355 479.495C660.692 476.384 636.262 471.128 610.002 462.868C603.437 460.83 596.764 458.47 589.984 455.896C586.648 454.608 583.204 453.214 579.868 451.819C576.532 450.318 573.088 448.816 569.644 447.314C555.761 441.414 540.371 437.124 524.335 436.051C516.371 435.515 508.407 435.729 500.551 436.587C499.582 436.695 498.614 436.802 497.645 436.909C496.676 437.016 495.708 437.124 494.739 437.338C492.802 437.66 490.973 437.982 489.035 438.304C487.206 438.733 485.269 439.162 483.439 439.591C481.609 440.02 479.78 440.556 477.95 441.093C477.089 441.307 476.121 441.629 475.26 441.843C474.399 442.165 473.43 442.487 472.569 442.702C471.708 443.023 470.74 443.345 469.879 443.56L468.587 443.989L467.296 444.525C463.852 445.812 460.408 447.207 457.072 448.494C455.35 449.138 453.735 449.781 452.014 450.425C450.292 451.069 448.677 451.712 447.063 452.463C443.834 453.858 440.606 455.145 437.377 456.539C424.57 461.903 412.624 467.052 401.001 471.128C389.593 475.848 378.4 478.207 368.069 479.28C362.903 479.709 357.952 479.816 353.217 479.495C348.589 479.173 344.177 478.422 340.195 477.349C332.231 475.204 325.989 471.45 321.684 467.588C317.379 463.726 314.904 459.865 313.289 457.183C312.428 455.896 311.998 454.823 311.675 454.072C311.352 453.321 311.137 452.999 311.137 452.999C311.137 452.999 311.245 453.428 311.567 454.072C311.89 454.823 312.321 455.896 313.074 457.29C314.473 459.972 316.949 463.941 321.253 468.017C323.406 469.948 326.096 471.986 329.217 473.809C332.338 475.526 335.998 477.135 339.98 478.315C343.962 479.495 348.482 480.246 353.217 480.675C357.952 481.104 363.011 480.996 368.176 480.567C373.45 480.138 378.831 479.28 384.427 477.993C387.225 477.349 390.024 476.598 392.929 475.633C395.727 474.668 398.526 473.595 401.431 472.522C413.055 468.446 425.216 463.297 437.915 458.041C441.144 456.754 444.372 455.359 447.601 453.965C449.215 453.214 450.937 452.678 452.552 452.034C454.166 451.39 455.888 450.747 457.61 450.103C460.946 448.816 464.39 447.529 467.834 446.241L469.125 445.705L470.417 445.276C471.278 444.954 472.139 444.74 473 444.418C473.861 444.096 474.722 443.882 475.69 443.56C476.551 443.238 477.52 443.023 478.381 442.809C480.21 442.38 481.932 441.736 483.87 441.307C485.699 440.878 487.529 440.449 489.358 440.02C491.188 439.698 493.125 439.376 494.955 439.054C495.923 438.84 496.892 438.733 497.753 438.625L500.658 438.304C508.3 437.445 516.156 437.231 524.12 437.767C539.94 438.733 555.115 443.023 568.891 448.816C572.334 450.318 575.778 451.819 579.115 453.321C582.558 454.823 585.895 456.11 589.339 457.397C596.119 459.972 602.791 462.332 609.464 464.37C635.939 472.629 660.476 477.671 681.14 480.675C701.48 483.678 718.269 484.322 730 483.571V483.035Z" fill="#FF706E"/>
<path d="M730 469.733H729.892C718.377 470.27 701.695 468.661 681.355 464.906C661.015 461.152 637.123 455.252 611.078 446.992C604.621 444.954 597.948 442.702 591.276 440.234C589.554 439.591 587.94 439.054 586.218 438.411C584.496 437.767 582.881 437.124 581.159 436.48C577.715 435.193 574.379 433.691 570.935 432.404C557.052 426.826 541.77 423.179 525.842 422.428C517.878 421.999 510.022 422.428 502.38 423.393C494.739 424.359 487.313 426.075 480.103 428.113C465.681 432.082 452.444 438.196 440.39 444.525C428.229 450.854 416.929 457.183 405.736 461.795C402.938 462.975 400.14 463.941 397.449 465.013C394.759 466.086 391.961 466.944 389.27 467.695C383.889 469.304 378.616 470.484 373.557 471.342C363.441 472.951 353.97 472.951 346.006 471.342C338.042 469.733 331.585 466.408 327.065 462.975C322.545 459.543 319.531 456.11 317.702 453.643C316.733 452.463 316.088 451.498 315.657 450.854C315.227 450.21 314.904 449.889 314.904 449.889C314.904 449.889 315.119 450.21 315.442 450.961C315.872 451.605 316.41 452.678 317.379 453.857C319.101 456.325 322.007 459.864 326.634 463.512C331.262 467.051 337.719 470.484 345.791 472.308C353.863 474.131 363.441 474.131 373.773 472.629C378.939 471.879 384.212 470.591 389.701 469.09C392.391 468.339 395.189 467.481 397.988 466.408C400.786 465.335 403.584 464.37 406.382 463.19C417.682 458.577 429.09 452.248 441.144 446.027C453.197 439.698 466.327 433.798 480.533 429.829C487.636 427.791 495.062 426.182 502.596 425.217C510.129 424.251 517.878 423.93 525.734 424.251C541.447 425.002 556.514 428.649 570.182 434.013C573.626 435.3 577.07 436.802 580.406 438.089C582.128 438.733 583.85 439.376 585.464 440.02C587.186 440.663 588.8 441.307 590.522 441.843C597.303 444.311 603.975 446.456 610.432 448.494C636.584 456.646 660.584 462.439 680.924 466.086C701.265 469.626 718.162 471.02 729.677 470.27H729.785V469.733H730Z" fill="#FF706E"/>
<path d="M730 456.861C729.785 456.861 729.569 456.861 729.354 456.861C723.65 457.075 716.655 456.861 708.583 456.003C700.512 455.145 691.364 453.643 681.355 451.498C671.346 449.352 660.369 446.778 648.853 443.452C637.23 440.234 624.961 436.373 612.154 431.975C605.805 429.722 599.347 427.255 592.782 424.466C586.218 421.677 579.33 419.21 572.227 417.064C565.124 414.919 557.805 413.095 550.272 411.701C542.738 410.306 534.99 409.341 527.133 409.019C519.277 408.697 511.421 409.126 503.887 410.306C496.246 411.486 488.928 413.632 482.04 416.099C480.318 416.635 478.596 417.279 476.874 418.03C475.152 418.673 473.43 419.317 471.816 420.068C468.48 421.462 465.143 422.857 461.915 424.359C460.3 425.109 458.686 425.86 457.072 426.611C455.457 427.362 453.951 428.22 452.336 428.971C449.215 430.473 446.202 432.082 443.189 433.691C437.162 436.802 431.458 440.127 425.754 443.131C420.05 446.134 414.454 448.816 408.965 451.283C397.988 456.11 387.333 459.757 377.324 462.01C367.315 464.262 358.06 464.906 349.988 464.048C346.006 463.619 342.24 462.761 339.011 461.795C337.397 461.152 335.782 460.723 334.383 459.972C333.63 459.65 332.984 459.328 332.231 459.006C331.585 458.685 330.939 458.255 330.294 457.934C325.343 455.145 322.114 452.034 319.962 449.889C318.886 448.816 318.24 447.85 317.702 447.314C317.164 446.778 316.949 446.456 316.841 446.456C316.841 446.456 317.056 446.778 317.487 447.421C317.917 448.065 318.67 448.923 319.639 450.103C321.684 452.356 324.913 455.574 329.863 458.577C330.509 458.899 331.155 459.328 331.8 459.65C332.446 459.972 333.199 460.294 333.953 460.615C335.352 461.366 336.966 461.903 338.688 462.546C342.024 463.619 345.791 464.477 349.881 465.013C358.06 465.872 367.531 465.335 377.539 463.19C387.656 461.044 398.418 457.397 409.503 452.677C415.099 450.318 420.696 447.529 426.4 444.525C432.104 441.522 437.808 438.304 443.834 435.085C446.848 433.584 449.861 431.867 452.982 430.366C454.489 429.615 456.103 428.864 457.717 428.006C459.332 427.255 460.946 426.504 462.56 425.753C465.789 424.251 469.018 422.857 472.354 421.462C473.968 420.711 475.69 420.175 477.412 419.532C479.134 418.888 480.856 418.244 482.578 417.708C489.466 415.241 496.676 413.203 504.21 412.023C511.636 410.843 519.385 410.414 527.133 410.736C534.882 411.057 542.523 412.023 550.057 413.31C557.483 414.597 564.801 416.421 571.796 418.566C578.792 420.711 585.679 423.071 592.137 425.86C598.702 428.649 605.267 431.117 611.616 433.369C624.423 437.874 636.8 441.522 648.423 444.74C660.046 447.958 671.023 450.532 681.14 452.57C691.256 454.608 700.404 456.003 708.583 456.754C716.763 457.612 723.758 457.719 729.569 457.29C729.785 457.29 730 457.29 730.215 457.29V456.861H730Z" fill="#FF706E"/>
<path d="M730 443.131C729.892 443.131 729.785 443.131 729.677 443.131C729.031 443.131 728.278 443.238 727.632 443.238C716.332 443.989 699.758 441.951 679.956 437.445C660.046 433.047 636.8 426.075 611.293 417.386C604.944 415.134 598.379 412.988 591.814 410.521C585.141 408.054 578.469 405.587 571.581 403.119C557.698 397.971 542.416 395.182 526.703 395.289C518.846 395.289 511.098 396.04 503.672 397.22C499.905 397.863 496.246 398.614 492.587 399.365C490.757 399.794 488.928 400.223 487.098 400.76C485.269 401.189 483.547 401.832 481.825 402.369C474.722 404.514 468.157 407.41 461.592 410.306C455.242 413.31 449 416.528 443.189 419.961C441.682 420.819 440.283 421.677 438.776 422.428C437.377 423.286 435.978 424.144 434.579 425.002C431.781 426.719 429.09 428.435 426.4 430.258C423.709 431.975 421.126 433.691 418.436 435.3C415.853 436.909 413.162 438.518 410.579 439.913C400.14 445.812 390.024 450.425 380.338 453.536C370.652 456.646 361.504 458.255 353.54 458.148C349.558 458.041 345.791 457.612 342.455 456.861C339.119 456.003 336.213 454.93 333.63 453.75C332.338 453.107 331.155 452.463 330.078 451.819C329.002 451.068 328.034 450.532 327.173 449.889C326.312 449.245 325.558 448.601 324.805 448.065C324.159 447.421 323.513 446.885 322.975 446.349C322.437 445.812 322.007 445.383 321.576 444.954C321.146 444.525 320.823 444.203 320.608 443.881C320.07 443.345 319.747 443.023 319.747 443.023C319.747 443.023 319.962 443.345 320.5 443.989C320.715 444.311 321.038 444.632 321.469 445.061C321.792 445.491 322.222 446.027 322.76 446.563C323.298 447.1 323.944 447.636 324.59 448.387C325.343 449.03 326.096 449.674 326.957 450.318C327.818 451.068 328.787 451.605 329.863 452.356C330.939 452.999 332.123 453.75 333.415 454.394C335.998 455.681 339.011 456.861 342.347 457.719C345.791 458.577 349.558 459.114 353.647 459.221C361.827 459.435 371.082 457.934 380.876 454.823C390.669 451.712 400.893 447.1 411.44 441.307C414.023 439.805 416.714 438.304 419.404 436.695C422.095 435.085 424.678 433.369 427.368 431.653C430.059 429.937 432.749 428.22 435.547 426.504C436.947 425.646 438.346 424.788 439.745 423.93C441.144 423.071 442.65 422.321 444.05 421.462C449.861 418.137 455.996 415.026 462.345 412.023C468.802 409.234 475.367 406.338 482.363 404.192C484.085 403.656 485.807 403.012 487.636 402.583C489.466 402.154 491.188 401.618 493.017 401.296C496.676 400.438 500.336 399.794 503.995 399.151C511.421 397.971 519.062 397.327 526.81 397.327C542.308 397.22 557.375 400.009 571.043 405.05C577.931 407.517 584.711 409.985 591.383 412.452C598.056 414.812 604.621 417.064 610.97 419.21C636.584 427.791 659.938 434.656 679.848 438.947C699.758 443.238 716.44 445.169 727.847 444.203C728.601 444.203 729.247 444.096 729.892 444.096C730 444.096 730.108 444.096 730.215 444.096V443.131H730Z" fill="#FF706E"/>
<path d="M730 429.937C729.139 430.044 728.386 430.151 727.417 430.258C721.821 430.688 714.825 430.58 706.861 429.508C698.897 428.542 689.857 426.826 680.064 424.466C660.369 419.746 637.338 412.237 612.154 403.334C605.805 401.081 599.347 398.829 592.783 396.469C589.446 395.289 586.11 394.109 582.666 393.036C579.222 391.964 575.778 390.784 572.119 390.033C557.806 386.815 542.631 384.777 527.133 384.884C511.636 384.991 496.354 387.244 482.47 392.071C468.587 396.898 455.996 403.441 444.48 410.199C441.574 411.916 438.776 413.632 435.978 415.348C433.18 417.064 430.489 418.781 427.799 420.497C422.418 423.93 417.359 427.362 412.194 430.366C402.077 436.48 392.176 441.736 382.813 445.491C373.45 449.245 364.517 451.498 356.553 452.034C352.571 452.249 348.805 452.141 345.468 451.605C342.132 451.069 339.119 450.21 336.536 449.138C335.244 448.601 334.06 447.958 332.984 447.421C331.908 446.778 330.832 446.241 329.971 445.598C329.11 444.954 328.249 444.418 327.495 443.882C326.85 443.238 326.204 442.702 325.558 442.273C325.02 441.843 324.482 441.307 324.159 440.985C323.729 440.556 323.406 440.234 323.191 440.02C322.652 439.484 322.33 439.269 322.33 439.269C322.33 439.269 322.545 439.591 323.083 440.127C323.298 440.449 323.621 440.771 324.052 441.2C324.482 441.629 324.913 442.165 325.451 442.594C325.989 443.131 326.634 443.667 327.28 444.311C328.034 444.847 328.787 445.491 329.648 446.134C330.509 446.778 331.585 447.314 332.661 448.065C333.737 448.709 335.029 449.245 336.32 449.889C338.903 451.069 342.024 451.927 345.468 452.57C348.912 453.107 352.679 453.321 356.769 453.107C364.948 452.678 373.988 450.425 383.459 446.671C392.929 442.916 402.938 437.875 413.162 431.653C418.328 428.649 423.494 425.217 428.767 421.784C431.458 420.068 434.148 418.352 436.947 416.635C439.745 414.919 442.543 413.203 445.449 411.594C456.964 404.836 469.556 398.4 483.224 393.68C496.892 388.96 511.959 386.815 527.349 386.707C542.739 386.6 557.806 388.531 572.012 391.749C575.563 392.5 579.007 393.573 582.343 394.645C585.787 395.718 589.123 396.898 592.352 398.078C599.025 400.438 605.482 402.69 611.832 404.943C637.123 413.846 660.261 421.141 680.064 425.753C689.965 428.006 699.005 429.722 707.077 430.58C715.148 431.438 722.144 431.546 727.848 431.009C728.709 430.902 729.57 430.795 730.323 430.688V429.937H730Z" fill="#FF706E"/>
<path d="M496.354 408.268C496.246 408.161 496.138 408.268 495.923 408.268C495.815 408.268 495.708 408.376 495.493 408.376C495.385 408.376 495.17 408.483 494.955 408.483C494.201 408.698 493.34 408.59 492.156 408.161C490.219 407.518 488.174 406.445 486.991 408.805C486.56 409.77 486.452 410.521 486.345 411.916C486.345 413.846 486.452 416.206 486.775 418.137C486.883 418.995 486.991 419.853 486.991 420.819C486.991 421.033 487.098 422.964 486.991 423.501C486.668 423.179 485.269 422.857 484.515 422.964C483.116 423.071 481.932 423.715 481.502 423.93C480.641 424.466 480.103 425.539 480.426 426.719C480.748 427.791 481.609 428.435 482.793 428.435C483.009 428.435 483.116 428.435 483.331 428.435C484.192 428.328 485.161 428.113 486.022 427.791C488.928 426.397 488.605 422.535 488.282 419.853C488.174 418.244 487.959 416.635 487.744 415.026C487.636 413.632 487.852 413.096 489.251 413.096C490.327 413.096 491.403 413.31 492.479 413.203C493.34 413.096 494.309 412.774 494.955 412.237C495.6 411.701 495.923 410.95 496.031 410.307C496.461 409.448 496.354 408.268 496.354 408.268Z" fill="#477E7F"/>
<path d="M413.916 462.761C414.777 464.37 417.144 464.263 418.651 463.297C419.404 462.868 420.48 462.224 420.911 461.581C421.664 460.508 421.234 459.328 421.126 458.148C420.911 456.539 420.373 454.608 419.942 452.999C419.297 450.639 418.759 448.494 418.328 446.992C418.113 446.241 418.005 445.598 418.005 445.169C417.898 444.74 418.005 444.632 418.005 444.525C418.005 444.525 417.898 444.525 417.79 444.632C417.682 444.74 417.575 444.954 417.575 445.169C417.467 445.705 417.467 446.349 417.575 447.1C417.682 448.709 418.22 450.961 418.866 453.321C419.189 454.823 420.05 456.646 420.05 458.148C418.758 458.255 417.252 458.47 416.068 458.899C414.884 459.328 413.808 460.401 413.916 461.688C413.7 462.117 413.808 462.439 413.916 462.761Z" fill="#325F62"/>
<path d="M437.485 431.975C436.408 430.58 434.041 431.224 432.749 432.297C432.104 432.833 431.243 433.691 430.92 434.442C430.382 435.729 431.027 436.695 431.458 437.875C431.996 439.376 432.965 441.2 433.61 442.702C434.686 444.954 435.655 446.885 436.408 448.28C436.731 449.031 436.947 449.567 437.162 449.996C437.269 450.425 437.269 450.532 437.377 450.64C437.377 450.64 437.485 450.64 437.592 450.532C437.7 450.425 437.7 450.21 437.7 449.996C437.7 449.46 437.592 448.816 437.377 448.065C436.947 446.456 435.978 444.418 434.902 442.273C434.256 440.878 433.072 439.269 432.857 437.767C434.041 437.446 435.547 436.909 436.624 436.266C437.7 435.515 438.561 434.442 438.238 433.048C437.808 432.511 437.7 432.189 437.485 431.975Z" fill="#477E7F"/>
<path d="M356.769 449.245C355.585 446.242 353.432 443.667 350.742 442.165C348.051 440.664 345.038 440.127 342.24 440.342C340.841 440.449 339.549 440.771 338.258 441.2C337.074 441.736 335.89 442.38 334.921 443.238C333.845 444.203 333.092 445.383 332.661 446.563V446.671V446.778C332.554 447.1 332.338 447.421 332.338 447.958C332.231 448.387 332.123 449.031 332.123 449.567C332.123 450.747 332.446 452.356 333.415 453.643C333.63 453.965 333.953 454.287 334.276 454.608C334.598 454.823 335.029 455.145 335.459 455.359C336.32 455.788 337.181 456.003 338.258 456.003C339.226 456.003 340.302 455.574 341.056 455.038C341.809 454.501 342.347 453.643 342.455 452.785C342.67 451.819 342.455 450.961 342.132 450.318C341.701 449.674 341.163 449.138 340.625 448.816C339.441 448.172 336.536 448.494 335.89 448.601C335.244 448.709 335.782 446.456 336.32 445.598C337.935 443.345 340.302 442.273 342.885 441.951C347.836 441.414 354.078 444.954 355.154 450.103C356.23 454.93 354.293 460.401 349.773 463.834C348.159 465.121 346.114 465.979 344.392 466.73C342.67 467.588 340.948 468.232 339.334 468.661C336.966 469.304 334.598 469.948 332.338 470.591C331.047 470.913 330.186 471.021 330.078 472.522C330.078 473.059 330.078 473.488 330.186 473.917C330.294 474.668 330.509 475.204 330.724 475.633C330.724 475.74 330.832 475.955 331.047 476.062C331.047 476.062 331.155 476.062 331.155 476.169H331.262C331.37 476.277 331.477 476.277 331.693 476.277C332.123 476.384 332.661 476.277 333.199 476.277C335.459 476.169 338.796 475.526 342.67 474.024C344.607 473.273 346.652 472.308 348.697 471.021C350.742 469.733 352.894 468.124 354.616 465.979C357.952 462.01 359.244 455.252 356.769 449.245Z" fill="#325F62"/>
<path d="M366.239 449.567C364.948 449.138 363.333 449.674 363.011 451.605C362.688 454.93 366.132 455.145 367.208 453.429C368.284 451.605 367.531 449.996 366.239 449.567Z" fill="#325F62"/>
<path d="M366.454 458.47C365.163 458.041 363.549 458.577 363.226 460.508C362.795 463.834 366.347 464.048 367.423 462.332C368.499 460.508 367.746 458.899 366.454 458.47Z" fill="#325F62"/>
<path d="M466.65 395.182C466.327 395.289 465.574 395.718 464.498 396.147C463.744 396.469 462.883 396.684 461.807 397.005C460.731 397.22 459.547 397.542 458.363 397.863C455.996 398.614 453.843 399.473 452.336 400.438C451.798 400.76 449.753 401.725 449.753 402.369C449.753 402.905 450.076 403.763 450.292 404.514C450.722 406.123 451.691 408.161 452.659 410.414C453.52 412.13 454.274 413.739 454.812 415.134C453.951 415.026 453.09 415.241 452.229 415.67C450.937 416.314 450.076 417.279 449.753 417.708C449.108 418.459 449.108 419.746 449.753 420.604C450.399 421.463 451.475 421.784 452.552 421.355C452.659 421.248 452.875 421.248 452.982 421.141C453.735 420.712 456.211 419.317 456.318 417.172C456.426 415.992 455.78 414.919 455.35 413.846C454.812 412.452 454.274 411.165 453.628 409.878C453.413 409.341 452.444 406.981 452.229 406.552C452.659 406.338 453.197 406.123 453.951 405.694C455.35 404.943 457.395 403.978 459.762 403.227C460.946 402.905 462.13 402.583 463.206 402.261C464.282 401.94 465.251 401.511 466.004 401.082C466.65 400.652 467.188 400.331 467.511 400.009C468.049 401.082 469.341 404.192 469.879 405.372C471.063 407.839 472.246 410.092 473 411.808C472.139 411.808 471.385 411.916 470.524 412.345C469.233 412.988 468.372 413.954 468.049 414.383C467.403 415.134 467.403 416.421 468.049 417.386C468.695 418.244 469.771 418.566 470.847 418.137C470.955 418.03 471.17 418.03 471.385 417.923C472.139 417.494 473 416.957 473.538 416.314C475.475 414.168 474.829 413.096 473 409.019C472.354 407.625 471.816 406.23 471.063 404.836C469.771 402.154 468.695 399.902 467.834 398.078C467.403 397.22 466.865 395.933 466.65 395.182C466.865 395.075 466.758 395.075 466.65 395.182Z" fill="#325F62"/>
<path d="M398.31 436.373C397.988 436.48 397.234 436.909 396.158 437.231C395.405 437.445 394.544 437.66 393.467 437.874C392.391 438.089 391.207 438.304 390.024 438.625C387.548 439.269 385.396 440.02 383.889 440.878C383.351 441.2 381.306 442.058 381.199 442.702C381.199 443.238 381.414 444.096 381.629 444.954C382.06 446.563 382.813 448.709 383.674 450.961C384.427 452.785 385.073 454.394 385.611 455.788C384.75 455.681 383.889 455.788 383.028 456.217C381.737 456.754 380.768 457.719 380.445 458.041C379.692 458.792 379.692 460.079 380.338 460.937C380.983 461.903 382.06 462.224 383.136 461.795C383.243 461.688 383.459 461.688 383.674 461.581C384.427 461.259 386.903 459.972 387.225 457.826C387.333 456.646 386.795 455.574 386.472 454.501C386.042 453.107 385.503 451.819 384.965 450.425C384.75 449.889 384.535 449.459 384.32 448.923C384.75 448.816 385.288 448.494 386.042 448.172C387.548 447.529 389.593 446.563 391.961 446.027C393.145 445.705 394.328 445.49 395.405 445.169C396.481 444.954 397.449 444.525 398.203 444.203C398.956 443.881 399.387 443.452 399.817 443.131C400.248 444.203 400.786 445.49 401.324 446.778C402.4 449.352 403.369 451.605 404.122 453.321C403.261 453.214 402.508 453.428 401.539 453.75C400.248 454.287 399.279 455.252 398.956 455.574C398.203 456.325 398.203 457.612 398.849 458.577C399.494 459.543 400.57 459.864 401.647 459.435C401.754 459.328 401.97 459.328 402.185 459.221C403.046 458.899 403.799 458.363 404.445 457.719C406.49 455.681 405.952 454.608 404.23 450.425C403.691 449.03 403.153 447.636 402.508 446.241C401.324 443.452 400.463 441.092 399.709 439.376C399.279 438.518 398.849 437.124 398.633 436.373C398.418 436.265 398.31 436.265 398.31 436.373Z" fill="#477E7F"/>
<path d="M524.443 405.479C524.12 403.763 521.645 403.227 520.03 403.656C519.169 403.87 517.986 404.192 517.34 404.729C516.264 405.587 516.371 406.767 516.264 408.054C516.048 409.663 516.048 411.701 515.941 413.31C515.833 415.777 515.941 417.923 515.833 419.532C515.833 420.282 515.726 420.926 515.726 421.355C515.618 421.784 515.51 421.892 515.618 421.999C515.618 421.999 515.726 421.999 515.833 421.999C515.941 421.892 516.156 421.784 516.264 421.57C516.479 421.141 516.694 420.497 516.802 419.639C517.125 418.03 517.232 415.777 517.34 413.31C517.34 411.808 517.125 409.77 517.555 408.376C518.847 408.59 520.246 408.805 521.537 408.698C522.829 408.59 524.12 407.947 524.443 406.552C524.443 406.123 524.443 405.801 524.443 405.479Z" fill="#325F62"/>
<path d="M545.859 395.074C545.537 393.358 543.061 392.822 541.447 393.251C540.586 393.465 539.402 393.787 538.757 394.324C537.68 395.182 537.788 396.362 537.68 397.649C537.465 399.258 537.465 401.296 537.357 402.905C537.25 405.372 537.357 407.518 537.25 409.127C537.25 409.877 537.142 410.521 537.142 410.95C537.035 411.379 536.927 411.487 537.035 411.594C537.035 411.594 537.142 411.594 537.25 411.594C537.357 411.487 537.573 411.379 537.68 411.165C537.896 410.736 538.111 410.092 538.218 409.234C538.541 407.625 538.649 405.372 538.757 402.905C538.757 401.403 538.541 399.365 538.972 397.971C540.263 398.185 541.662 398.4 542.954 398.292C544.245 398.185 545.537 397.542 545.859 396.147C545.967 395.718 545.967 395.396 545.859 395.074Z" fill="#477E7F"/>
<path d="M570.182 410.95C570.074 410.843 569.967 410.95 569.751 410.95C569.644 410.95 569.536 411.057 569.321 411.057C569.213 411.057 568.998 411.165 568.783 411.165C568.03 411.379 567.169 411.272 565.985 410.843C564.048 410.199 562.003 409.127 560.819 411.486C560.388 412.452 560.281 413.203 560.173 414.597C560.173 416.528 560.281 418.888 560.604 420.819C560.711 421.677 560.819 422.535 560.819 423.5C560.819 423.715 560.927 425.646 560.819 426.182C560.496 425.86 559.097 425.539 558.344 425.646C556.945 425.753 555.761 426.397 555.33 426.611C554.469 427.148 553.931 428.22 554.254 429.4C554.577 430.473 555.438 431.117 556.622 431.117C556.729 431.117 556.945 431.117 557.16 431.117C558.021 431.009 558.989 430.795 559.85 430.473C562.756 429.078 562.433 425.217 562.11 422.535C562.003 420.926 561.787 419.317 561.572 417.708C561.465 416.314 561.68 415.777 563.079 415.777C564.155 415.777 565.231 415.992 566.308 415.884C567.169 415.777 568.137 415.455 568.783 414.919C569.429 414.383 569.751 413.632 569.859 412.988C570.29 412.237 570.29 411.057 570.182 410.95Z" fill="#325F62"/>
<path d="M607.634 424.788C607.527 423.715 606.666 422.857 605.482 422.75C605.374 422.75 605.159 422.75 604.944 422.75C604.083 422.75 601.285 422.75 600.101 424.573C599.455 425.539 599.455 426.826 599.347 427.899C599.132 429.293 598.917 436.587 598.809 437.982C598.809 438.518 598.702 441.522 598.702 442.058C598.271 441.951 597.625 441.951 596.872 441.951C595.258 441.951 592.998 441.844 590.63 441.307C589.446 441.093 588.262 440.771 587.186 440.556C586.11 440.342 585.034 440.235 584.173 440.235C583.527 440.235 582.989 440.342 582.558 440.449C582.666 438.196 582.774 433.584 582.989 432.082C583.635 432.511 584.496 432.726 585.464 432.833C586.863 432.94 588.155 432.511 588.585 432.297C589.554 431.975 590.2 430.795 589.984 429.722C589.877 428.65 589.016 427.791 587.832 427.684C587.724 427.684 587.509 427.684 587.294 427.684C586.433 427.684 585.464 427.684 584.603 428.006C581.913 428.864 581.913 430.151 581.59 434.657C581.482 436.158 581.375 437.66 581.267 439.162C580.837 442.38 580.514 444.847 580.514 445.062C580.621 445.169 580.514 445.169 581.052 445.276C581.482 445.383 581.913 445.276 582.989 445.491C583.742 445.598 584.603 445.705 585.679 445.812C586.756 445.92 587.832 446.242 589.123 446.563C591.599 447.1 593.859 447.314 595.581 447.207C596.119 447.207 599.025 447.314 599.347 446.778C599.563 446.349 599.563 445.705 599.67 444.847C599.885 443.238 599.993 440.771 600.208 438.411C600.316 436.48 600.531 428.864 600.746 427.47C601.5 427.899 602.361 428.22 603.222 428.22C604.621 428.328 605.912 427.899 606.343 427.684C607.204 427.04 607.742 425.968 607.634 424.788Z" fill="#477E7F"/>
<path d="M576.532 405.908C576.747 407.625 579.007 408.483 580.729 408.161C581.59 408.054 582.774 407.839 583.527 407.41C584.603 406.659 584.711 405.479 584.926 404.299C585.249 402.69 585.572 400.76 585.787 399.043C586.11 396.576 586.325 394.431 586.54 392.822C586.648 392.071 586.756 391.427 586.863 390.998C586.971 390.569 587.079 390.462 587.079 390.355C587.079 390.355 586.971 390.247 586.863 390.355C586.756 390.462 586.54 390.569 586.433 390.784C586.11 391.213 585.895 391.856 585.679 392.607C585.249 394.216 584.819 396.362 584.496 398.829C584.28 400.331 584.388 402.369 583.742 403.763C582.558 403.441 581.052 403.012 579.76 403.012C578.469 403.012 577.177 403.549 576.639 404.836C576.532 405.265 576.424 405.587 576.532 405.908Z" fill="#325F62"/>
<path d="M636.907 418.888C636.8 418.781 636.692 418.888 636.477 418.888C636.369 418.888 636.262 418.995 636.046 418.995C635.939 418.995 635.723 419.103 635.508 419.103C634.755 419.317 633.894 419.21 632.71 418.781C630.773 418.137 628.728 417.065 627.544 419.424C627.114 420.39 627.006 421.141 626.899 422.535C626.899 424.466 627.006 426.826 627.329 428.757C627.437 429.615 627.544 430.473 627.544 431.438C627.544 431.653 627.652 433.584 627.544 434.12C627.221 433.798 625.822 433.477 625.069 433.584C623.67 433.691 622.486 434.335 622.056 434.549C621.195 435.086 620.657 436.158 620.979 437.338C621.302 438.411 622.163 439.055 623.347 439.055C623.455 439.055 623.67 439.055 623.885 439.055C624.746 438.947 625.715 438.733 626.576 438.411C629.481 437.016 629.159 433.155 628.836 430.473C628.728 428.864 628.513 427.255 628.298 425.646C628.19 424.251 628.405 423.715 629.804 423.715C630.881 423.715 631.957 423.93 633.033 423.822C633.894 423.715 634.863 423.393 635.508 422.857C636.154 422.321 636.477 421.57 636.584 420.926C637.015 420.068 636.907 418.888 636.907 418.888Z" fill="#477E7F"/>
<path d="M604.836 282.073C604.621 282.394 604.298 282.931 603.975 283.36C603.652 283.896 603.329 284.54 602.791 285.183C600.962 287.972 597.948 291.727 593.321 295.91C592.137 296.983 590.845 297.948 589.554 299.021C588.801 299.557 588.155 300.094 587.401 300.523C587.079 300.737 586.648 301.059 586.325 301.274C585.895 301.488 585.572 301.81 585.141 302.025C582.02 304.17 578.254 306.101 574.272 307.924C566.2 311.572 556.406 314.575 545.429 316.399C534.344 318.222 522.075 318.866 508.945 317.793C502.38 317.257 495.6 316.291 488.82 314.682C487.098 314.253 485.376 313.824 483.654 313.395C481.932 312.859 480.21 312.43 478.489 311.893C475.045 310.821 471.601 309.533 468.157 308.246C454.166 303.312 439.422 298.056 423.709 293.872C407.996 289.689 391.53 286.578 374.418 284.54C357.307 282.716 340.41 283.038 324.267 284.325C308.124 285.613 292.626 288.402 278.205 292.37C263.784 296.232 250.438 300.737 238.062 305.564C225.686 310.392 214.493 315.433 204.484 320.582C199.964 323.049 195.874 325.302 192 327.662V329.056C196.09 326.696 200.394 324.336 205.022 321.977C215.031 316.935 226.224 311.893 238.6 307.174C250.977 302.454 264.322 298.056 278.635 294.194C292.949 290.225 308.231 287.651 324.374 286.363C340.41 285.076 357.199 284.754 374.203 286.578C391.207 288.616 407.674 291.62 423.171 295.803C438.776 299.987 453.413 305.135 467.511 310.07C471.063 311.25 474.399 312.537 477.95 313.717C479.672 314.36 481.394 314.79 483.116 315.219C484.838 315.648 486.56 316.077 488.282 316.506C495.17 318.008 502.058 318.973 508.623 319.509C521.86 320.582 534.344 319.831 545.429 317.9C556.514 315.97 566.415 312.859 574.487 309.104C578.577 307.174 582.236 305.135 585.357 302.99C585.787 302.775 586.11 302.454 586.541 302.239C586.971 301.917 587.294 301.703 587.617 301.381C588.37 300.845 589.123 300.308 589.769 299.772C591.061 298.592 592.46 297.627 593.536 296.554C598.164 292.263 601.177 288.294 602.899 285.505C603.329 284.862 603.76 284.218 603.975 283.574C604.298 283.038 604.513 282.609 604.729 282.18C605.159 281.429 605.267 281 605.267 281C605.59 281 605.267 281.322 604.836 282.073Z" fill="#82BAB0"/>
<path d="M604.944 289.689C604.729 290.011 604.406 290.547 604.083 290.976C603.76 291.512 603.437 292.156 602.899 292.8C601.069 295.589 598.056 299.343 593.428 303.526C592.244 304.599 590.953 305.564 589.662 306.637C588.908 307.174 588.262 307.71 587.509 308.246C587.186 308.461 586.756 308.783 586.433 309.104C586.002 309.319 585.68 309.641 585.249 309.855C582.128 312.001 578.469 313.931 574.379 315.755C566.308 319.402 556.622 322.513 545.537 324.336C534.559 326.16 522.183 326.804 509.053 325.731C502.488 325.195 495.816 324.229 488.928 322.62C485.484 321.762 482.148 320.904 478.704 319.724C475.26 318.651 471.816 317.364 468.264 316.184C461.269 313.824 454.058 311.357 446.525 309.104C442.866 307.924 438.991 306.852 435.225 305.779C431.35 304.706 427.584 303.634 423.602 302.668C415.745 300.63 407.674 298.914 399.494 297.519C391.207 296.018 382.813 295.052 374.203 294.409C365.594 293.765 357.091 293.658 348.697 293.979C340.302 294.194 332.016 295.374 324.052 296.661C308.124 299.45 292.841 302.99 278.743 308.032C264.86 313.073 251.838 318.544 239.784 324.015C227.73 329.593 216.861 335.278 207.067 340.856C201.686 343.967 196.628 347.077 192 350.188V351.583C196.843 348.365 202.116 345.147 207.82 341.928C217.614 336.458 228.484 330.773 240.537 325.302C252.591 319.831 265.613 314.468 279.604 309.641C293.595 304.706 308.769 301.274 324.697 298.485C332.661 297.198 340.733 296.018 349.02 295.803C357.307 295.481 365.809 295.589 374.311 296.232C382.813 296.876 391.207 297.841 399.387 299.343C407.566 300.737 415.638 302.454 423.386 304.385C427.261 305.35 431.135 306.423 435.009 307.388C438.776 308.461 442.543 309.533 446.31 310.713C453.736 312.966 460.946 315.326 467.942 317.686C471.493 318.866 474.829 320.153 478.381 321.226C481.825 322.406 485.376 323.264 488.82 324.122C495.708 325.624 502.596 326.589 509.161 327.125C522.398 328.198 534.882 327.447 545.967 325.516C557.052 323.586 566.846 320.475 575.025 316.613C579.007 314.682 582.774 312.644 585.895 310.499C586.325 310.284 586.648 309.962 587.079 309.748C587.509 309.426 587.832 309.212 588.155 308.89C588.908 308.353 589.662 307.817 590.307 307.281C591.599 306.101 592.998 305.135 594.074 304.063C598.702 299.772 601.608 295.803 603.329 293.014C603.76 292.37 604.19 291.727 604.406 291.083C604.729 290.547 604.944 290.118 605.159 289.689C605.59 288.938 605.697 288.509 605.697 288.509C605.697 288.616 605.374 289.045 604.944 289.689Z" fill="#82BAB0"/>
<path d="M605.051 297.305C604.836 297.627 604.513 298.056 604.19 298.592C603.868 299.128 603.545 299.772 603.007 300.416C601.177 303.097 598.271 306.959 593.644 311.035C589.123 315.219 582.774 319.402 574.917 323.157C566.953 326.804 557.375 329.915 546.505 331.738C535.636 333.562 523.474 334.313 510.56 333.347C504.102 332.811 497.43 331.953 490.757 330.451C487.421 329.7 483.977 328.842 480.641 327.769C477.305 326.696 473.861 325.516 470.309 324.444C466.865 323.264 463.314 322.191 459.762 321.011C456.103 320.046 452.444 318.973 448.785 318.008C446.955 317.471 445.126 316.935 443.189 316.506C441.251 316.077 439.422 315.648 437.485 315.219C435.548 314.79 433.61 314.361 431.673 313.932C429.736 313.502 427.799 313.073 425.862 312.752C421.88 312.108 417.898 311.357 413.916 310.713C411.871 310.284 409.934 310.177 407.889 309.855C405.844 309.641 403.799 309.426 401.754 309.104C399.71 308.89 397.665 308.675 395.62 308.354C393.575 308.246 391.423 308.139 389.378 307.924C387.333 307.817 385.181 307.71 383.136 307.495C380.983 307.388 378.939 307.174 376.786 307.281C372.589 307.281 368.284 307.174 364.194 307.174C362.15 307.066 359.997 307.281 357.952 307.388C355.908 307.495 353.755 307.603 351.71 307.71C343.423 307.924 335.352 308.783 327.388 310.177C319.532 311.572 311.783 313.395 304.464 315.755C297.146 318.222 290.151 320.904 283.371 323.586C256.035 334.42 232.143 346.005 213.309 357.59C205.237 362.631 198.134 367.566 192 372.5V373.895C198.242 368.96 205.668 363.919 213.955 358.77C232.896 347.292 256.681 335.922 283.909 325.195C290.689 322.513 297.792 319.831 305.003 317.471C312.213 315.111 319.854 313.288 327.603 312.001C335.459 310.713 343.423 309.748 351.71 309.533C353.755 309.426 355.8 309.319 357.845 309.319C359.89 309.212 361.934 309.104 364.087 309.104C368.284 309.104 372.481 309.212 376.679 309.212C378.831 309.212 380.876 309.319 382.921 309.426C384.965 309.533 387.118 309.641 389.163 309.855C391.207 309.963 393.36 310.07 395.405 310.284C397.449 310.499 399.494 310.713 401.539 311.035C403.584 311.25 405.629 311.464 407.674 311.786C409.718 312.001 411.763 312.215 413.7 312.644C417.682 313.288 421.664 314.039 425.539 314.682C427.476 315.004 429.413 315.433 431.35 315.862C433.287 316.291 435.225 316.72 437.054 317.15C438.991 317.579 440.821 318.008 442.758 318.437C444.588 318.866 446.525 319.402 448.354 319.939C452.014 320.904 455.673 321.977 459.332 322.942C462.883 324.122 466.435 325.195 469.879 326.375C473.323 327.555 476.767 328.627 480.21 329.7C483.654 330.665 487.098 331.631 490.542 332.382C497.322 333.883 504.102 334.742 510.667 335.171C523.69 336.136 535.958 335.278 546.936 333.347C557.913 331.416 567.599 328.198 575.563 324.444C583.527 320.582 589.877 316.184 594.397 311.893C598.917 307.603 601.823 303.741 603.545 300.952C603.975 300.308 604.406 299.665 604.621 299.128C604.944 298.592 605.159 298.163 605.374 297.734C605.805 296.983 605.912 296.661 605.912 296.554C605.697 296.232 605.482 296.661 605.051 297.305Z" fill="#82BAB0"/>
<path d="M605.697 305.243C605.482 305.564 605.267 305.993 604.944 306.53C604.621 307.066 604.298 307.71 603.76 308.353C601.93 311.035 599.025 314.789 594.612 318.866C593.536 319.938 592.244 320.904 590.953 321.976C590.307 322.513 589.554 322.942 588.908 323.478C588.155 324.015 587.509 324.551 586.648 325.087C583.527 327.125 580.083 329.163 576.209 331.094C572.334 332.918 568.03 334.634 563.294 336.243C558.667 337.745 553.608 339.032 548.227 340.105C537.573 342.143 525.519 343.108 512.712 342.465C506.362 342.143 499.69 341.392 493.017 340.105C489.681 339.461 486.345 338.71 482.901 337.745C481.179 337.316 479.565 336.78 477.843 336.243C476.121 335.707 474.399 335.063 472.785 334.527C465.897 332.167 458.794 330.022 451.475 327.984C444.157 326.053 436.624 324.229 428.767 322.835C421.019 321.44 413.055 320.26 404.875 319.509C396.696 318.866 388.409 318.329 380.122 318.544C378.078 318.544 375.925 318.651 373.88 318.758C371.836 318.866 369.683 318.866 367.638 319.08C365.594 319.295 363.549 319.402 361.504 319.509C359.459 319.724 357.414 319.938 355.369 320.153C353.325 320.367 351.28 320.689 349.343 321.011C347.298 321.333 345.361 321.547 343.316 321.976C339.334 322.727 335.459 323.693 331.585 324.658C316.303 328.734 301.882 333.669 288.429 339.032C261.524 349.652 238.17 361.88 220.197 374.431C211.264 380.76 203.623 387.196 197.489 393.417C195.444 395.455 193.614 397.493 192 399.532V400.926C193.83 398.673 195.982 396.421 198.242 394.168C204.376 388.054 212.018 381.725 220.95 375.503C238.923 363.06 262.169 351.046 289.075 340.534C302.527 335.278 316.949 330.343 332.123 326.374C335.89 325.409 339.764 324.444 343.639 323.693C345.576 323.264 347.621 323.049 349.558 322.727C351.603 322.406 353.54 322.084 355.585 321.869C357.63 321.655 359.674 321.44 361.612 321.226C363.656 321.011 365.701 320.904 367.746 320.797C369.791 320.582 371.836 320.582 373.88 320.475C375.925 320.475 377.97 320.26 380.122 320.26C388.409 320.153 396.696 320.582 404.768 321.226C412.839 321.869 420.696 323.156 428.444 324.444C436.193 325.838 443.727 327.662 450.937 329.485C458.256 331.523 465.359 333.561 472.139 335.921C475.583 336.994 479.027 338.281 482.363 339.139C485.807 340.105 489.251 340.856 492.587 341.499C499.367 342.787 506.04 343.43 512.497 343.752C525.411 344.288 537.573 343.323 548.335 341.07C553.716 339.998 558.774 338.603 563.51 337.101C568.245 335.492 572.55 333.669 576.424 331.845C580.298 329.914 583.85 327.769 586.971 325.731C587.724 325.195 588.478 324.658 589.231 324.122C589.984 323.586 590.63 323.049 591.276 322.513C592.567 321.44 593.859 320.367 594.935 319.295C599.347 315.111 602.253 311.142 603.975 308.461C604.406 307.817 604.729 307.173 605.051 306.637C605.374 306.101 605.59 305.672 605.805 305.243C606.235 304.492 606.343 304.17 606.343 304.17C606.343 304.17 606.128 304.492 605.697 305.243Z" fill="#82BAB0"/>
<path d="M605.805 315.433C605.374 316.077 604.836 317.149 603.868 318.544C602.146 321.226 599.24 324.98 594.72 329.056C592.46 331.094 589.877 333.132 586.863 335.278C583.742 337.316 580.298 339.354 576.532 341.178C572.657 343.001 568.352 344.825 563.725 346.326C559.097 347.828 554.039 349.115 548.765 350.188C538.111 352.333 526.272 353.299 513.466 352.655C500.766 352.012 487.206 349.866 473.753 345.039C472.031 344.503 470.309 343.859 468.587 343.323C466.865 342.787 465.036 342.25 463.314 341.714C459.762 340.641 456.211 339.676 452.552 338.71C445.233 336.887 437.7 335.278 429.951 333.991C414.454 331.523 398.095 330.451 381.522 331.094C373.235 331.416 364.948 332.167 356.984 333.24C354.939 333.454 353.002 333.883 350.957 334.098C349.02 334.42 346.975 334.634 345.038 335.063C341.056 335.814 337.289 336.887 333.522 337.959C325.989 340.212 318.778 342.894 311.675 345.683C304.68 348.472 297.9 351.368 291.335 354.479C265.29 366.815 243.12 380.545 226.224 394.383C217.829 401.248 210.726 408.22 205.022 414.764C202.224 417.982 199.749 421.307 197.596 424.311C196.628 425.812 195.552 427.314 194.691 428.709C193.83 430.21 193.076 431.605 192.323 432.892C192.215 433.107 192.108 433.321 192 433.536V435.037C192.323 434.501 192.538 433.857 192.969 433.321C193.722 432.034 194.583 430.639 195.336 429.245C196.305 427.85 197.273 426.349 198.35 424.847C200.502 421.843 202.977 418.733 205.776 415.515C211.479 409.078 218.583 402.321 226.977 395.455C243.874 381.725 266.044 368.102 292.088 355.873C298.545 352.87 305.325 349.974 312.321 347.185C319.316 344.396 326.527 341.821 333.953 339.569C337.72 338.496 341.486 337.423 345.361 336.672C347.298 336.243 349.235 336.029 351.28 335.707C353.217 335.385 355.262 335.063 357.199 334.849C365.163 333.776 373.342 333.132 381.629 332.703C398.203 332.06 414.346 333.132 429.736 335.6C437.485 336.78 444.911 338.496 452.229 340.212C455.888 341.178 459.439 342.036 462.991 343.216C464.713 343.752 466.543 344.288 468.264 344.825C469.986 345.361 471.708 346.005 473.43 346.541C487.098 351.475 500.766 353.621 513.681 354.157C526.488 354.693 538.541 353.621 549.196 351.368C554.577 350.295 559.635 348.901 564.263 347.292C568.891 345.683 573.195 343.859 577.07 341.928C580.944 339.998 584.388 337.852 587.509 335.814C590.523 333.669 593.213 331.523 595.365 329.378C599.778 325.195 602.684 321.333 604.298 318.544C605.159 317.257 605.697 316.077 606.128 315.326C606.558 314.575 606.666 314.253 606.666 314.253C606.558 314.36 606.235 314.682 605.805 315.433Z" fill="#82BAB0"/>
<path d="M291.335 333.991C290.151 332.382 288.537 330.987 286.707 330.129C285.308 329.485 283.694 329.378 282.294 329.807C280.895 330.236 279.712 330.987 278.851 331.845C277.99 332.703 277.451 333.562 277.021 334.634C276.591 334.205 276.052 333.776 275.622 333.454C273.9 331.953 272.07 330.344 270.241 328.627C270.026 328.413 269.918 328.305 269.703 328.091C269.918 326.696 270.026 325.409 270.241 324.015C270.564 321.011 270.887 318.008 270.456 314.79C270.241 313.181 269.81 311.572 269.165 310.07C268.519 308.568 267.55 307.174 266.259 306.101C265.613 305.565 264.86 305.028 263.999 304.706C263.138 304.385 262.062 304.277 261.093 304.599C260.124 304.921 259.371 305.565 258.833 306.208C258.295 306.852 257.757 307.495 257.434 308.353C256.788 310.07 257.003 311.786 257.326 313.181C257.757 314.682 258.295 316.077 258.941 317.257C260.232 319.831 261.954 322.084 263.568 324.122C264.429 325.195 265.29 326.16 266.044 327.125C266.259 327.447 266.582 327.769 266.797 327.984C266.689 328.413 266.582 328.949 266.474 329.378C266.044 331.523 265.613 333.883 265.398 336.458C265.183 338.925 265.29 341.607 266.151 344.181C267.012 346.756 268.627 349.008 270.671 350.617C274.438 354.05 280.895 353.943 285.308 351.797C286.384 351.261 287.568 350.51 288.537 349.652C288.967 350.188 289.29 350.725 289.72 351.261C290.366 352.334 291.012 353.299 291.335 354.264C291.442 354.372 291.442 354.479 291.442 354.586C291.442 354.693 291.55 354.801 291.442 354.801V354.908L291.335 355.015C291.227 355.123 291.012 355.23 290.797 355.337C290.258 355.444 289.613 355.659 289.075 355.981C288.537 356.195 288.106 356.41 287.783 356.732C287.46 356.946 287.137 357.268 286.922 357.482C286.707 357.697 286.492 358.019 286.384 358.233C286.276 358.448 286.169 358.662 286.061 358.877C286.061 358.984 285.954 359.091 285.954 359.199C285.308 360.271 285.523 361.666 286.384 362.631C287.245 363.597 288.752 363.704 289.828 363.168C291.119 362.631 292.088 361.666 292.734 360.486C293.918 358.448 294.133 356.088 293.487 353.835C293.164 352.655 292.626 351.583 292.088 350.51C291.55 349.545 290.904 348.686 290.258 347.721C290.904 346.863 291.335 346.005 291.658 345.254C293.057 342.358 293.595 339.14 292.411 336.029C292.303 335.814 292.303 335.707 292.196 335.492C292.088 335.171 291.765 334.634 291.335 333.991ZM260.985 316.291C260.34 315.111 259.909 313.931 259.586 312.644C259.263 311.464 259.263 310.177 259.586 309.104C260.447 306.744 262.815 306.101 264.752 307.71C264.86 307.924 265.613 308.568 266.259 310.07C267.012 311.786 267.658 314.468 267.873 317.793C267.873 318.222 267.981 318.651 267.981 319.08C267.981 319.509 267.981 319.938 267.981 320.368C267.981 321.226 267.981 322.191 267.766 323.157C267.658 323.8 267.55 324.551 267.443 325.302C266.689 324.444 266.044 323.586 265.29 322.727C263.784 320.797 262.169 318.651 260.985 316.291ZM278.42 349.223C277.344 349.116 276.16 348.794 275.191 348.257C274.223 347.721 273.254 346.863 272.609 346.005C271.102 344.181 270.456 341.714 270.241 339.032C270.026 336.672 270.241 334.312 270.456 331.845C271.209 332.596 272.501 333.669 274.223 335.063C274.976 335.6 275.73 336.351 276.483 337.101C276.483 337.423 276.483 337.638 276.483 337.96C276.591 339.89 277.236 341.285 277.99 342.143C278.205 342.465 278.635 342.679 278.958 342.894C280.25 343.538 279.066 341.929 278.851 341.499C278.42 340.641 278.205 339.676 278.205 338.71C278.528 338.925 278.851 339.247 279.173 339.569C280.142 340.427 281.003 341.392 281.972 342.25C282.402 342.679 282.94 343.216 283.478 343.645C283.909 344.181 284.447 344.717 284.877 345.254C285.308 345.79 285.846 346.327 286.276 346.863C286.384 346.97 286.492 347.077 286.599 347.185C286.169 347.506 285.631 347.828 284.77 348.257C282.725 349.223 280.68 349.545 278.42 349.223ZM290.689 340.641C290.581 342.465 289.613 344.288 288.429 345.468C287.46 344.288 286.599 343.323 285.415 342.143C283.371 340.105 281.111 337.96 278.743 335.921C278.743 335.814 278.743 335.814 278.851 335.707C278.851 335.492 279.066 335.278 279.173 335.063C279.281 334.849 279.389 334.634 279.496 334.42C280.034 333.562 280.895 332.811 282.079 332.382C283.263 331.953 284.662 332.06 285.954 332.596C287.245 333.24 288.429 334.312 289.397 335.707C290.151 337.101 290.797 338.818 290.689 340.641Z" fill="#E75B5A"/>
<path d="M557.052 306.315C556.945 306.208 556.837 306.208 556.622 306.315C556.514 306.315 556.406 306.423 556.191 306.423C556.084 306.423 555.868 306.53 555.653 306.53C554.9 306.744 553.931 306.637 552.747 306.208C550.81 305.457 548.765 304.384 547.474 306.744C547.043 307.71 546.828 308.568 546.828 309.855C546.721 311.893 546.936 314.253 547.151 316.291C547.259 317.149 547.259 318.115 547.366 318.973C547.366 319.188 547.474 321.118 547.366 321.762C547.043 321.44 545.644 321.118 544.891 321.118C543.492 321.226 542.2 321.762 541.77 322.084C540.801 322.62 540.371 323.693 540.586 324.873C540.801 325.945 541.77 326.696 542.954 326.696C543.169 326.696 543.277 326.696 543.492 326.696C544.353 326.589 545.429 326.482 546.182 326.053C549.088 324.658 548.873 320.797 548.658 318.008C548.55 316.399 548.335 314.682 548.227 313.073C548.12 311.679 548.335 311.142 549.842 311.142C550.918 311.142 552.102 311.357 553.178 311.25C554.146 311.142 555.115 310.928 555.761 310.284C556.514 309.748 556.729 308.89 556.945 308.353C557.16 307.495 557.052 306.315 557.052 306.315Z" fill="#FCA7A7"/>
<path d="M336.536 299.021C336.859 300.737 339.334 301.381 341.056 300.845C341.917 300.63 343.101 300.308 343.746 299.772C344.823 298.914 344.715 297.734 344.823 296.447C345.038 294.73 345.038 292.692 345.038 291.083C345.038 288.616 345.038 286.363 345.038 284.754C345.038 283.896 345.145 283.253 345.145 282.931C345.253 282.502 345.361 282.394 345.253 282.287C345.253 282.287 345.145 282.287 345.038 282.287C344.93 282.394 344.715 282.502 344.607 282.716C344.392 283.145 344.177 283.789 344.069 284.647C343.746 286.256 343.639 288.616 343.639 291.083C343.639 292.585 343.962 294.623 343.531 296.125C342.24 295.91 340.733 295.696 339.441 295.803C338.15 295.91 336.859 296.661 336.536 297.948C336.428 298.27 336.428 298.699 336.536 299.021Z" fill="#E75B5A"/>
<path d="M338.796 321.869C338.365 320.367 335.89 319.938 334.276 320.367C333.415 320.582 332.231 320.904 331.585 321.44C330.509 322.191 330.617 323.264 330.509 324.336C330.401 325.731 330.401 327.554 330.401 328.949C330.401 331.094 330.509 333.025 330.509 334.42C330.509 335.063 330.509 335.707 330.401 336.029C330.401 336.35 330.186 336.565 330.294 336.565C330.294 336.565 330.401 336.565 330.509 336.565C330.617 336.458 330.832 336.35 330.939 336.136C331.155 335.707 331.37 335.17 331.478 334.42C331.693 333.025 331.8 331.094 331.8 328.949C331.8 327.662 331.477 325.945 331.8 324.658C333.092 324.873 334.599 324.98 335.89 324.765C337.181 324.658 338.473 324.015 338.796 322.835C338.903 322.406 338.903 322.084 338.796 321.869Z" fill="#FCA7A7"/>
<path d="M317.056 291.298C316.626 291.298 315.872 291.512 314.689 291.512C313.828 291.512 312.967 291.512 311.89 291.405C310.814 291.298 309.63 291.191 308.231 291.083C305.648 290.976 303.281 291.191 301.666 291.512C301.128 291.62 298.761 291.941 298.545 292.585C298.33 293.121 298.33 294.087 298.33 294.838C298.222 296.554 298.438 298.807 298.653 301.274C298.868 303.205 299.083 305.028 299.191 306.53C298.438 306.208 297.469 306.101 296.501 306.208C295.101 306.423 293.918 307.066 293.487 307.281C292.626 307.817 292.196 308.997 292.519 310.177C292.841 311.25 293.81 311.893 294.994 311.786C295.209 311.786 295.317 311.786 295.532 311.679C296.393 311.572 299.191 311.035 300.052 308.997C300.483 307.924 300.267 306.637 300.267 305.457C300.267 303.956 300.16 302.561 299.944 301.059C299.837 300.523 299.729 297.949 299.622 297.412C300.052 297.412 300.698 297.305 301.451 297.198C303.065 296.983 305.325 296.661 307.801 296.769C309.092 296.769 310.276 296.876 311.352 296.983C312.428 296.983 313.505 296.983 314.366 296.769C315.119 296.661 315.765 296.447 316.195 296.232C316.303 297.412 316.518 300.845 316.733 302.239C317.056 305.028 317.379 307.603 317.594 309.426C316.841 309.104 315.98 308.997 315.011 309.104C313.612 309.319 312.428 309.963 311.998 310.177C311.137 310.713 310.707 311.893 311.029 313.073C311.352 314.146 312.321 314.79 313.505 314.682C313.72 314.682 313.828 314.682 314.043 314.575C314.904 314.468 315.872 314.253 316.733 313.717C319.316 312.322 319.101 311.035 318.563 306.53C318.455 305.028 318.348 303.419 318.132 301.917C317.81 298.914 317.594 296.339 317.271 294.409C317.164 293.443 317.056 291.941 317.164 291.191C317.271 291.298 317.164 291.298 317.056 291.298Z" fill="#E75B5A"/>
<path d="M443.511 293.872C443.404 293.765 443.296 293.872 443.081 293.872C442.973 293.872 442.866 293.979 442.651 294.087C442.543 294.087 442.328 294.194 442.112 294.301C441.359 294.516 440.39 294.516 439.207 294.087C437.162 293.443 435.117 292.478 434.041 294.945C433.61 295.91 433.503 296.768 433.503 298.056C433.503 300.094 433.826 302.454 434.041 304.384C434.148 305.243 434.256 306.208 434.364 307.066C434.364 307.281 434.579 309.212 434.471 309.855C434.148 309.533 432.749 309.212 431.888 309.319C430.489 309.533 429.305 310.177 428.875 310.391C428.014 310.928 427.584 312.108 427.906 313.288C428.229 314.36 429.198 315.004 430.382 315.004C430.597 315.004 430.705 315.004 430.92 315.004C431.781 314.897 432.749 314.682 433.61 314.253C436.516 312.751 436.086 308.782 435.763 306.101C435.548 304.492 435.332 302.775 435.117 301.166C434.902 299.772 435.117 299.236 436.624 299.236C437.7 299.236 438.884 299.343 439.96 299.236C440.929 299.128 441.79 298.807 442.543 298.163C443.189 297.519 443.512 296.768 443.619 296.125C443.619 295.052 443.619 293.872 443.511 293.872Z" fill="#FCA7A7"/>
<path d="M389.055 296.661C388.84 295.481 387.979 294.73 386.795 294.623C386.687 294.623 386.472 294.623 386.257 294.623C385.396 294.623 382.49 294.73 381.306 296.661C380.661 297.627 380.768 299.021 380.553 300.094C380.338 301.595 380.338 308.997 380.23 310.499C380.23 311.035 380.23 314.146 380.23 314.682C379.8 314.682 379.154 314.682 378.293 314.682C376.571 314.682 374.311 314.682 371.836 314.253C370.652 314.039 369.468 313.717 368.284 313.502C367.208 313.288 366.132 313.18 365.271 313.288C364.625 313.288 364.087 313.395 363.656 313.502C363.764 311.142 363.764 306.53 363.872 304.921C364.625 305.35 365.486 305.564 366.454 305.564C367.854 305.564 369.145 305.135 369.683 304.921C370.652 304.492 371.19 303.419 371.082 302.239C370.867 301.166 370.006 300.308 368.822 300.201C368.607 300.201 368.499 300.201 368.284 300.201C367.423 300.201 366.347 300.308 365.486 300.63C362.795 301.595 362.795 302.883 362.58 307.495C362.472 308.997 362.472 310.606 362.365 312.108C362.042 315.433 361.719 317.9 361.827 318.115C361.934 318.222 361.827 318.222 362.365 318.329C362.795 318.329 363.226 318.329 364.41 318.437C365.163 318.544 366.024 318.544 367.208 318.651C368.284 318.758 369.468 319.08 370.759 319.295C373.342 319.724 375.602 319.938 377.324 319.831C377.862 319.831 380.876 319.831 381.199 319.295C381.414 318.866 381.306 318.222 381.414 317.257C381.521 315.54 381.629 313.073 381.737 310.606C381.844 308.675 381.844 300.845 381.952 299.343C382.705 299.772 383.566 299.986 384.535 300.094C385.934 300.094 387.225 299.665 387.764 299.45C388.625 299.021 389.163 297.841 389.055 296.661Z" fill="#FCA7A7"/>
<path d="M463.206 323.586C463.099 323.478 462.991 323.586 462.776 323.586C462.668 323.586 462.561 323.693 462.345 323.8C462.238 323.8 462.022 323.907 461.807 324.015C461.054 324.229 460.085 324.229 458.901 323.8C456.857 323.156 454.812 322.191 453.736 324.658C453.305 325.624 453.197 326.482 453.197 327.769C453.197 329.807 453.52 332.167 453.736 334.098C453.843 334.956 453.951 335.921 454.058 336.78C454.058 336.994 454.274 338.925 454.166 339.569C453.843 339.247 452.444 338.925 451.583 339.032C450.184 339.247 449 339.89 448.57 340.105C447.709 340.641 447.278 341.821 447.601 343.001C447.924 344.074 448.893 344.717 450.076 344.717C450.292 344.717 450.399 344.717 450.615 344.717C451.476 344.61 452.444 344.396 453.305 343.967C456.211 342.465 455.78 338.496 455.457 335.814C455.242 334.205 455.027 332.489 454.812 330.88C454.597 329.485 454.812 328.949 456.318 328.949C457.395 328.949 458.579 329.056 459.655 328.949C460.623 328.842 461.484 328.52 462.238 327.876C462.883 327.233 463.206 326.482 463.314 325.838C463.314 324.873 463.206 323.693 463.206 323.586Z" fill="#E75B5A"/>
<path d="M411.333 307.603C410.902 305.886 408.427 305.35 406.813 305.886C405.952 306.101 404.768 306.423 404.122 307.066C403.046 308.032 403.261 309.104 403.153 310.392C403.046 312.108 403.046 314.146 403.046 315.755C403.046 318.222 403.153 320.475 403.153 322.084C403.153 322.835 403.153 323.586 403.046 323.907C403.046 324.336 402.831 324.444 402.938 324.551C402.938 324.551 403.046 324.551 403.153 324.551C403.261 324.444 403.476 324.336 403.584 324.122C403.799 323.693 404.014 322.942 404.122 322.191C404.337 320.475 404.445 318.222 404.445 315.755C404.445 314.253 404.122 312.215 404.445 310.713C405.736 310.928 407.243 311.142 408.534 310.928C409.826 310.713 411.117 310.07 411.44 308.675C411.333 308.246 411.333 307.924 411.333 307.603Z" fill="#E75B5A"/>
<path d="M534.021 329.593C533.591 327.876 531.115 327.34 529.501 327.876C528.64 328.091 527.456 328.52 526.811 329.056C525.734 330.022 525.95 331.094 525.842 332.382C525.734 334.098 525.734 336.136 525.734 337.745C525.734 340.212 525.842 342.465 525.842 344.074C525.842 344.825 525.842 345.576 525.734 345.897C525.734 346.326 525.519 346.434 525.627 346.541C525.627 346.541 525.734 346.541 525.842 346.541C525.95 346.434 526.165 346.326 526.272 346.112C526.488 345.683 526.703 344.932 526.811 344.181C527.026 342.465 527.133 340.212 527.133 337.745C527.133 336.243 526.811 334.205 527.133 332.703C528.425 332.918 529.932 333.132 531.223 332.918C532.515 332.703 533.806 332.06 534.129 330.665C534.129 330.343 534.129 330.022 534.021 329.593Z" fill="#E75B5A"/>
<path d="M497.753 301.703C497.322 301.703 496.569 301.917 495.385 301.917C494.524 301.917 493.663 301.917 492.587 301.81C491.511 301.703 490.327 301.596 488.928 301.488C486.345 301.381 483.977 301.596 482.363 301.917C481.825 302.025 479.457 302.347 479.242 302.99C479.027 303.526 479.027 304.492 479.027 305.243C478.919 306.959 479.134 309.212 479.349 311.679C479.565 313.61 479.78 315.433 479.888 316.935C479.134 316.613 478.166 316.506 477.197 316.613C475.798 316.828 474.614 317.471 474.184 317.686C473.323 318.222 472.892 319.402 473.215 320.582C473.538 321.655 474.507 322.298 475.69 322.191C475.906 322.191 476.013 322.191 476.228 322.084C477.089 321.977 479.888 321.44 480.749 319.402C481.179 318.33 480.964 317.042 480.964 315.862C480.964 314.361 480.856 312.966 480.641 311.464C480.533 310.928 480.426 308.354 480.318 307.817C480.749 307.817 481.394 307.71 482.255 307.603C483.87 307.388 486.13 307.066 488.713 307.174C490.004 307.174 491.188 307.281 492.264 307.388C493.34 307.388 494.416 307.388 495.277 307.174C496.031 307.066 496.677 306.852 497.107 306.637C497.215 307.817 497.43 311.25 497.645 312.644C497.968 315.433 498.291 318.008 498.506 319.831C497.753 319.509 496.892 319.402 495.923 319.509C494.524 319.724 493.34 320.368 492.91 320.582C492.049 321.118 491.618 322.298 491.941 323.478C492.264 324.551 493.233 325.195 494.416 325.087C494.632 325.087 494.739 325.087 494.955 324.98C495.816 324.873 496.784 324.658 497.645 324.122C500.228 322.728 500.013 321.44 499.475 316.935C499.367 315.433 499.259 313.824 499.044 312.322C498.721 309.319 498.506 306.745 498.183 304.814C498.076 303.848 497.968 302.347 498.076 301.596C497.968 301.703 497.86 301.703 497.753 301.703Z" fill="#E75B5A"/>
<path d="M497.645 344.396C498.076 346.112 500.551 346.648 502.165 346.112C503.026 345.897 504.21 345.468 504.856 344.932C505.824 343.967 505.717 342.894 505.824 341.607C505.932 339.89 505.932 337.96 505.932 336.243C505.932 333.776 505.824 331.523 505.824 329.914C505.824 329.164 505.824 328.52 505.932 328.091C505.932 327.662 506.04 327.555 506.04 327.447C506.04 327.447 505.932 327.447 505.824 327.447C505.717 327.555 505.502 327.662 505.394 327.876C505.179 328.305 504.963 328.949 504.856 329.807C504.641 331.416 504.533 333.669 504.641 336.243C504.641 337.745 505.071 339.783 504.641 341.285C503.349 341.07 501.842 340.963 500.551 341.07C499.259 341.285 497.968 341.929 497.753 343.323C497.538 343.752 497.538 344.074 497.645 344.396Z" fill="#FCA7A7"/>
</g>
<path opacity="0.1" d="M211.496 266.779C211.625 265.618 212.699 264.8 213.859 264.929C214.675 265.015 215.362 265.618 215.62 266.392L225.457 294.615C226.66 294.4 227.905 294.357 229.108 294.615C232.759 295.304 235.422 297.67 234.907 299.907C234.392 302.144 231.17 303.306 227.476 302.489C223.782 301.671 221.161 299.434 221.677 297.197L213.859 274.696C213.215 276.331 209.091 286.441 210.38 289.926C210.637 291.044 209.993 292.163 208.876 292.507C207.759 292.808 206.599 292.163 206.256 291.001C204.667 286.441 210.981 270.479 211.496 266.779Z" fill="#1A7F72"/>
<path opacity="0.1" d="M322.106 232.361C325.843 233.006 329.022 231.715 329.409 229.435C329.838 227.155 327.089 224.918 323.395 224.401C322.192 224.229 320.946 224.272 319.744 224.574L311.84 204.783L325.414 194.629L333.317 214.42C332.888 216.7 335.594 218.808 339.331 219.454C343.068 220.099 346.247 218.808 346.634 216.528C347.063 214.248 344.314 212.011 340.62 211.495C339.417 211.322 338.171 211.365 336.969 211.667L325.886 183.874C325.843 183.788 325.843 183.702 325.8 183.616C325.757 183.53 325.714 183.443 325.671 183.357C325.586 183.271 325.457 183.142 325.371 183.099L325.07 182.884L324.598 182.755L324.34 182.841L323.91 183.013L323.653 183.142L323.395 183.271L322.879 183.487L305.783 196.264C305.01 196.824 304.752 197.856 305.096 198.76L316.565 227.499C316.221 229.65 318.369 231.715 322.106 232.361Z" fill="#1A7F72"/>
<path opacity="0.15" d="M383.06 276.029C384.219 278.611 386.367 279.987 387.914 279.299C389.46 278.611 389.718 275.986 388.472 273.491C388.085 272.673 387.527 271.942 386.84 271.297L395.688 258.132L407.63 262.219L398.781 275.384C397.235 276.072 397.02 278.654 398.223 281.192C399.383 283.773 401.53 285.15 403.077 284.462C404.623 283.773 404.881 281.149 403.635 278.654C403.249 277.836 402.69 277.105 402.003 276.459L414.46 257.96C414.503 257.916 414.546 257.873 414.589 257.787C414.632 257.744 414.675 257.658 414.718 257.615C414.761 257.529 414.761 257.4 414.761 257.314V257.056L414.675 256.712L414.503 256.583L414.202 256.368L414.03 256.239L413.859 256.11L413.472 255.98L398.438 250.818C397.75 250.603 397.02 250.861 396.633 251.42L383.747 270.565C382.243 271.254 381.9 273.448 383.06 276.029Z" fill="#7ADBAE"/>
<path opacity="0.15" d="M619.356 239.847C618.454 239.115 617.123 239.288 616.393 240.191C615.877 240.836 615.791 241.74 616.178 242.471L628.85 269.533C627.819 270.221 626.917 271.082 626.229 272.071C624.082 275.126 623.867 278.654 625.8 279.901C627.733 281.149 630.825 279.729 632.93 276.545C635.035 273.362 635.293 269.963 633.36 268.715L623.265 247.161C624.855 247.892 634.863 252.237 636.367 255.636C636.968 256.626 638.214 256.97 639.245 256.411C640.276 255.851 640.619 254.561 640.061 253.528C637.956 249.14 622.277 242.17 619.356 239.847Z" fill="#7ADBAE"/>
<path opacity="0.08" d="M713.514 366.292C713.514 365.13 712.526 364.184 711.367 364.184C710.55 364.184 709.777 364.7 709.476 365.431L696.59 392.407C695.43 392.063 694.184 391.89 692.939 391.977C689.202 392.278 686.324 394.343 686.624 396.623C686.882 398.903 689.975 400.409 693.755 400.022C697.535 399.635 700.37 397.656 700.069 395.375L710.336 373.907C710.808 375.585 713.772 386.082 712.097 389.438C711.71 390.514 712.269 391.718 713.3 392.192C714.373 392.622 715.619 392.106 716.049 390.987C718.111 386.599 713.6 370.035 713.514 366.292Z" fill="#1A7F72"/>
<path opacity="0.1" d="M678.463 313.502L663.343 286.527C662.87 285.709 661.882 285.279 660.98 285.494L640.319 290.786L639.846 291.044L639.588 291.173L639.331 291.302L638.901 291.561L638.686 291.69L638.514 292.12L638.472 292.507C638.472 292.636 638.472 292.765 638.472 292.937C638.514 293.023 638.557 293.109 638.6 293.195C638.643 293.281 638.686 293.367 638.729 293.41L653.377 319.482C652.389 320.214 651.573 321.16 650.929 322.236C649.039 325.463 649.039 328.991 651.057 330.109C653.076 331.185 656.083 329.55 657.93 326.237C659.777 322.924 659.82 319.482 657.801 318.364L647.363 299.778L663.772 295.605L674.21 314.191C673.222 314.922 672.406 315.869 671.762 316.944C669.872 320.171 669.872 323.699 671.891 324.817C673.91 325.893 676.916 324.258 678.764 320.945C680.654 317.589 680.396 314.664 678.463 313.502Z" fill="#1A7F72"/>
<path opacity="0.15" d="M677.604 202.029L681.813 171.354C681.942 170.408 681.427 169.461 680.568 169.117L660.937 160.813L660.379 160.727L660.078 160.684L659.777 160.641L659.305 160.555L659.047 160.512L658.617 160.77L658.36 161.028C658.274 161.115 658.188 161.244 658.145 161.373C658.145 161.459 658.102 161.588 658.102 161.674C658.102 161.76 658.059 161.846 658.059 161.932L653.978 191.575C652.733 191.575 651.53 191.833 650.37 192.306C646.891 193.726 644.786 196.566 645.731 198.631C646.676 200.739 650.069 201.212 653.549 199.706C657.028 198.2 659.133 195.447 658.188 193.382L661.109 172.258L676.702 178.883L673.781 200.007C672.535 200.007 671.332 200.266 670.172 200.739C666.693 202.159 664.588 204.998 665.533 207.063C666.478 209.171 669.872 209.645 673.351 208.139C676.873 206.59 678.463 204.095 677.604 202.029Z" fill="#7ADBAE"/>
<path d="M546.418 165.675C540.104 156.726 537.613 161.502 532.157 156.253C527.905 152.166 524.726 150.918 521.59 151.004C518.498 150.918 515.319 152.166 511.023 156.253C505.568 161.502 503.034 156.726 496.762 165.675C490.448 174.624 505.869 184.003 505.869 184.003L520.817 186.627C520.817 186.627 521.161 185.164 521.633 182.798C522.106 185.164 522.449 186.627 522.449 186.627L537.398 184.003C537.312 184.003 552.733 174.624 546.418 165.675Z" fill="#2C2858"/>
<path d="M522.578 250.99C542.293 250.99 558.274 233.808 558.274 212.613C558.274 191.418 542.293 174.237 522.578 174.237C502.864 174.237 486.883 191.418 486.883 212.613C486.883 233.808 502.864 250.99 522.578 250.99Z" fill="#2C2858"/>
<path d="M491.908 273.491L557.63 275.083L526.53 303.521L491.908 273.491Z" fill="#F4A082"/>
<path d="M557.716 400.022H487.441C478.163 411.38 475.07 424.201 474.039 432.418C473.309 438.226 470.645 443.604 466.393 447.605C445.388 467.568 386.367 526.251 396.977 545.569C406.771 563.423 460.637 552.065 485.809 545.655C489.03 544.837 491.779 544.106 493.884 543.504C499.511 542.686 503.463 543.59 505.267 544.751C509.434 547.462 515.534 562.864 518.841 571.985C520.302 575.986 525.027 578.481 529.279 578.438C529.279 578.438 529.107 543.289 528.162 524.488C527.175 505.686 514.46 512.914 503.291 517.217C501.53 517.905 499.297 518.593 496.762 519.282L457.029 520.701C457.029 520.701 494.529 482.067 507.931 474.624C521.333 467.138 527.217 477.635 527.217 477.635L532.157 714.779C532.286 721.877 532.372 732.16 532.028 733.365C531.513 735.172 521.633 751.09 528.377 751.09C535.121 751.09 542.166 751.09 542.166 751.09C542.166 751.09 549.211 751.09 555.955 751.09C562.699 751.09 552.819 735.172 552.303 733.365C551.96 732.246 552.046 722.738 552.174 715.682C552.174 715.682 560.937 658.332 562.011 615.955C563.085 573.577 568.97 546.644 577.561 486.842C586.109 426.954 557.716 400.022 557.716 400.022Z" fill="#F4A082"/>
<path d="M553.549 388.75L557.415 374.294L549.898 366.421L522.535 372.444L495.173 366.421L487.656 374.294L491.522 388.75L487.441 400.022H516.479H528.592H557.63L553.549 388.75Z" fill="#F4A082"/>
<path d="M540.104 278.309C526.917 284.031 514.846 281.751 505.267 277.062C489.718 269.447 470.946 273.061 459.305 285.924C447.922 298.487 437.054 311.007 437.054 311.007C437.054 311.007 459.348 330.668 476.702 332.777C476.702 332.777 485.164 371.798 486.883 374.337C486.883 374.337 495.602 378.467 508.317 380.618C512.956 381.479 517.467 381.866 521.848 381.866C522.106 381.866 522.407 381.866 522.664 381.866C522.922 381.866 523.223 381.866 523.48 381.866C527.819 381.866 532.372 381.479 537.011 380.618C549.726 378.467 558.446 374.337 558.446 374.337C560.121 371.798 568.626 332.777 568.626 332.777C585.98 330.668 604.193 314.019 604.193 314.019C604.193 314.019 595.903 302.574 586.668 290.313C575.8 275.943 556.599 271.168 540.104 278.309Z" fill="#E62552"/>
<path d="M489.331 299.176C487.355 301.628 485.508 304.166 483.833 306.748C482.157 309.372 480.697 312.083 479.451 314.922C478.248 317.762 477.303 320.687 476.788 323.742C476.273 326.797 476.187 329.894 476.573 333.035C475.585 330.023 475.328 326.797 475.671 323.613C475.972 320.429 476.874 317.289 478.12 314.363C479.408 311.437 480.998 308.684 482.888 306.103C484.778 303.564 486.882 301.198 489.331 299.176Z" fill="#C4204A"/>
<path d="M555.826 299.176C557.802 301.628 559.649 304.166 561.324 306.748C562.999 309.372 564.46 312.083 565.705 314.922C566.908 317.762 567.853 320.687 568.369 323.742C568.884 326.797 568.97 329.894 568.583 333.035C569.571 330.023 569.829 326.797 569.485 323.613C569.185 320.429 568.283 317.289 567.037 314.363C565.748 311.437 564.159 308.684 562.269 306.103C560.379 303.564 558.274 301.198 555.826 299.176Z" fill="#C4204A"/>
<path d="M534.391 254.174H513.772V274.825H534.391V254.174Z" fill="#F4A082"/>
<path d="M534.391 266.564V254.174H513.772V264.714C518.197 267.124 524.769 268.5 534.391 266.564Z" fill="#DB8C70"/>
<path d="M563.815 217.303C561.796 216.313 559.477 216.485 557.372 217.561C558.102 198.588 542.638 182.626 523.18 183.271C503.721 182.583 488.257 198.545 488.987 217.561C486.882 216.485 484.563 216.313 482.544 217.303C478.678 219.196 477.518 224.66 479.881 229.478C482.243 234.297 487.269 236.663 491.135 234.77C491.651 234.512 492.166 234.168 492.596 233.781C494.786 249.484 507.888 261.229 523.223 261.014C538.558 261.229 551.616 249.484 553.85 233.781C554.279 234.168 554.752 234.512 555.31 234.77C559.176 236.663 564.202 234.297 566.565 229.478C568.841 224.66 567.638 219.196 563.815 217.303Z" fill="#F4A082"/>
<path d="M517.681 218.421C516.221 217.905 514.889 217.518 513.515 217.303C512.14 217.044 510.809 217.001 509.477 217.13C508.188 217.303 506.857 217.561 505.611 218.12L505.138 218.292C504.967 218.335 504.838 218.464 504.666 218.507L503.678 218.98C503.034 219.325 502.432 219.712 501.702 220.056C502.089 219.411 502.518 218.765 503.034 218.163C503.592 217.647 504.108 217.044 504.795 216.657C506.083 215.711 507.673 215.194 509.262 215.022C510.852 214.85 512.484 215.108 513.944 215.711C515.405 216.313 516.736 217.173 517.681 218.421Z" fill="#07095B"/>
<path d="M529.279 218.378C530.224 217.131 531.513 216.27 532.973 215.625C534.434 215.022 536.066 214.764 537.656 214.893C539.245 215.065 540.834 215.582 542.123 216.485C542.81 216.872 543.326 217.475 543.884 217.991C544.4 218.55 544.829 219.196 545.216 219.841C544.485 219.54 543.884 219.11 543.24 218.808L542.295 218.335C542.123 218.249 541.994 218.163 541.822 218.12L541.35 217.948C540.104 217.389 538.772 217.131 537.441 217.001C536.109 216.872 534.778 216.958 533.403 217.217C532.071 217.475 530.74 217.862 529.279 218.378Z" fill="#07095B"/>
<path d="M523.695 220.357C523.566 221.863 523.652 223.369 523.953 224.875C524.082 225.649 524.296 226.381 524.597 227.112C524.898 227.843 525.284 228.575 525.929 229.22L526.229 229.435L526.487 229.607C526.573 229.693 526.745 229.779 526.831 229.866C527.046 230.038 527.174 230.253 527.303 230.511C527.518 230.984 527.432 231.586 527.175 232.146C526.616 233.307 525.413 234.168 524.039 234.813C525.542 234.727 527.175 234.168 528.12 232.705C528.592 232.017 528.85 230.984 528.549 230.081C528.463 229.866 528.377 229.607 528.248 229.435C528.12 229.22 527.948 229.048 527.819 228.876C527.647 228.704 527.475 228.575 527.303 228.446C527.174 228.36 527.174 228.36 527.132 228.274L526.96 228.145C526.53 227.757 526.187 227.155 525.886 226.553C525.585 225.95 525.327 225.262 525.07 224.574C524.554 223.24 524.168 221.82 523.695 220.357Z" fill="#DB8C70"/>
<path d="M625.972 353.213C619.743 342.328 608.618 330.109 597.363 319.31C583.102 329.808 574.253 331.658 570.516 332.475C592.466 347.749 594.013 353.987 594.013 353.987C582.501 357.214 533.575 356.31 533.575 356.31C533.575 356.31 531.943 352.008 529.967 349.297C527.991 346.587 527.089 329.679 525.456 325.161C525.199 324.473 524.941 323.871 524.64 323.355C523.008 321.849 521.977 322.107 521.376 322.537L520.731 323.355C520.474 323.785 520.259 324.301 520.044 324.86C518.412 329.378 517.51 346.286 515.534 348.996C513.558 351.707 511.925 356.009 511.925 356.009C511.925 356.009 462.999 356.913 451.487 353.686C451.487 353.686 452.733 347.62 474.683 332.346C470.989 331.873 461.711 329.077 447.836 319.267C436.582 330.066 425.671 342.07 419.443 352.954C403.592 380.704 502.905 375.283 520.516 368.443C520.516 368.443 521.547 368.486 522.578 367.281C523.695 368.744 524.855 368.701 524.855 368.701C542.51 375.585 641.779 380.962 625.972 353.213Z" fill="#F4A082"/>
<path opacity="0.5" d="M528.334 743.432C528.334 743.432 531.47 740.894 533.446 743.432C533.446 743.432 537.742 741.926 539.717 742.873C541.693 743.819 543.068 742.572 547.278 743.432C551.487 744.292 552.475 742.787 554.924 743.432L551.53 735.645C551.058 734.526 549.941 733.795 548.738 733.752L536.109 733.236C534.906 733.193 533.79 733.795 533.188 734.87L528.334 743.432Z" fill="#DB8C70"/>
<path d="M488.687 489.897C496.247 483.056 503.42 477.076 507.888 474.581C521.29 467.095 527.175 477.592 527.175 477.592L527.733 504.783C539.073 507.579 554.494 509.774 574.211 509.171C575.241 502.202 576.358 494.802 577.518 486.756C586.109 426.911 557.716 400.022 557.716 400.022H487.441C478.163 411.38 475.07 424.201 474.039 432.418C473.309 438.226 470.645 443.604 466.393 447.605C463.429 450.402 459.735 453.973 455.568 458.103C461.539 467.955 472.192 481.637 488.687 489.897Z" fill="#1F5148"/>
<g opacity="0.5">
<path opacity="0.5" d="M528.077 520.96C528.42 525.735 528.635 530.554 528.85 535.329C528.936 537.739 529.022 540.105 529.108 542.514L529.279 549.699L529.408 556.884C529.408 559.293 529.451 561.66 529.451 564.069C529.451 568.844 529.451 573.663 529.279 578.439C528.936 573.663 528.678 568.844 528.506 564.069C528.42 561.66 528.334 559.293 528.248 556.884L528.077 549.699L527.948 542.514C527.948 540.105 527.905 537.739 527.905 535.329C527.905 530.554 527.948 525.735 528.077 520.96Z" fill="#DB8C70"/>
</g>
<path d="M456.986 520.658C454.408 522.594 451.659 524.229 448.867 525.735C446.032 527.241 443.154 528.575 440.147 529.779C438.644 530.382 437.14 530.898 435.637 531.457C434.864 531.715 434.09 531.93 433.36 532.146L432.2 532.49C431.814 532.576 431.427 532.705 431.041 532.791L428.721 533.35L426.359 533.823L425.199 534.039L423.996 534.211C423.223 534.297 422.407 534.426 421.633 534.469C422.407 534.254 423.18 534.039 423.953 533.867L425.113 533.565L426.273 533.221L428.549 532.576L430.826 531.844C433.833 530.855 436.84 529.822 439.761 528.618C440.491 528.317 441.221 528.058 441.951 527.714C442.682 527.413 443.412 527.112 444.142 526.768L446.333 525.821C447.063 525.477 447.793 525.176 448.481 524.832C451.316 523.584 454.151 522.164 456.986 520.658Z" fill="#DB8C70"/>
<path d="M522.535 322.193C522.793 325.936 522.922 329.722 523.008 333.465C523.051 335.358 523.094 337.208 523.137 339.101L523.18 344.737L523.137 350.373C523.094 352.266 523.094 354.116 523.051 356.009C522.965 359.752 522.836 363.538 522.578 367.281C522.321 363.538 522.192 359.752 522.106 356.009C522.063 354.116 522.02 352.266 522.02 350.373L521.977 344.737L522.02 339.101C522.063 337.208 522.063 335.358 522.106 333.465C522.149 329.722 522.278 325.936 522.535 322.193Z" fill="#DB8C70"/>
<path d="M451.487 353.686C448.352 353.643 445.259 353.729 442.166 354.03C440.62 354.159 439.116 354.417 437.57 354.719C436.024 354.977 434.563 355.407 433.017 355.794C433.36 355.622 433.704 355.45 434.091 355.278L434.649 355.02L435.207 354.805L436.324 354.417L437.441 354.073C437.613 354.03 437.828 353.944 437.999 353.901L438.558 353.772C438.944 353.686 439.331 353.6 439.718 353.514C440.491 353.385 441.264 353.256 442.08 353.17C443.67 352.998 445.216 352.955 446.805 352.998C448.352 353.17 449.941 353.299 451.487 353.686Z" fill="#DB8C70"/>
<path d="M593.841 353.944C596.977 353.901 600.07 353.987 603.162 354.288C604.709 354.417 606.212 354.675 607.759 354.977C609.305 355.235 610.765 355.665 612.312 356.052C611.968 355.88 611.625 355.708 611.238 355.536L610.679 355.278L610.121 355.063L609.004 354.675L607.887 354.331C607.716 354.288 607.501 354.202 607.329 354.159L606.771 354.073C606.384 353.987 605.997 353.901 605.611 353.815C604.838 353.686 604.064 353.557 603.248 353.471C601.659 353.299 600.113 353.256 598.523 353.299C596.977 353.428 595.388 353.6 593.841 353.944Z" fill="#DB8C70"/>
<path d="M488.987 217.475C488.987 217.475 500.113 194.759 510.594 192.048C521.075 189.295 518.498 200.438 534.434 204.783C550.327 209.085 544.357 220.658 557.415 217.518L558.317 210.161C558.317 210.161 553.205 197.297 553.205 196.824C553.205 196.35 544.528 187.402 543.583 187.057C542.638 186.713 534.176 183.444 533.102 183.228C532.028 183.013 520.989 180.991 520.474 180.991C520.001 180.991 511.968 180.518 509.735 181.809C507.501 183.099 499.554 182.755 496.805 185.982C494.056 189.209 492.295 197.082 491.822 198.114C491.35 199.19 486.84 206.676 486.925 208.139C487.011 209.559 488.987 217.475 488.987 217.475Z" fill="#2C2858"/>
<path opacity="0.3" d="M516.736 240.879C516.736 240.879 521.075 238.9 525.542 241.267C525.542 241.267 529.838 237.997 533.661 240.449C533.661 240.449 532.587 247.376 525.07 247.591C517.553 247.763 516.736 240.879 516.736 240.879Z" fill="#F79691"/>
<path d="M512.613 238.771C513.515 239.374 514.46 239.933 515.448 240.406C516.393 240.879 517.424 241.31 518.412 241.654C520.431 242.342 522.578 242.772 524.683 242.772C526.831 242.772 528.936 242.342 530.912 241.525C532.888 240.707 534.735 239.503 536.41 238.126C535.68 238.943 534.864 239.675 533.962 240.363C533.102 241.052 532.114 241.611 531.126 242.084C530.138 242.557 529.065 242.945 527.991 243.203C526.917 243.461 525.8 243.547 524.683 243.59C522.449 243.59 520.216 243.117 518.197 242.256C516.135 241.439 514.245 240.277 512.613 238.771Z" fill="white"/>
<path d="M503.377 224.703C503.764 225.305 504.193 225.778 504.709 226.251C504.451 226.338 504.236 226.381 503.979 226.381C503.635 226.424 503.291 226.424 502.948 226.338C502.776 226.338 502.604 226.251 502.432 226.251C502.26 226.208 502.089 226.165 501.917 226.079C502.089 226.165 502.218 226.251 502.389 226.294C502.561 226.338 502.733 226.424 502.905 226.467C503.248 226.596 503.592 226.639 503.979 226.682C504.322 226.725 504.666 226.682 505.01 226.639C504.838 226.768 504.666 226.854 504.494 226.983C504.193 227.155 503.893 227.284 503.549 227.37C503.377 227.413 503.206 227.456 503.034 227.456C502.862 227.499 502.69 227.499 502.518 227.499C502.69 227.499 502.862 227.542 503.034 227.542C503.206 227.542 503.377 227.542 503.549 227.499C503.893 227.456 504.279 227.37 504.623 227.284C504.924 227.198 505.224 227.026 505.482 226.854C509.391 229.478 515.276 228.058 517.681 224.703C512.226 226.768 507.673 226.596 503.377 224.703Z" fill="#333333"/>
<path d="M545.13 224.703C544.743 225.305 544.314 225.778 543.798 226.251C544.056 226.338 544.271 226.381 544.528 226.381C544.872 226.424 545.216 226.424 545.559 226.338C545.731 226.338 545.903 226.251 546.075 226.251C546.247 226.208 546.419 226.165 546.59 226.079C546.419 226.165 546.29 226.251 546.118 226.294C545.946 226.338 545.774 226.424 545.602 226.467C545.259 226.596 544.915 226.639 544.528 226.682C544.185 226.725 543.841 226.682 543.498 226.639C543.669 226.768 543.841 226.854 544.013 226.983C544.314 227.155 544.614 227.284 544.958 227.37C545.13 227.413 545.302 227.456 545.473 227.456C545.645 227.499 545.817 227.499 545.989 227.499C545.817 227.499 545.645 227.542 545.473 227.542C545.302 227.542 545.13 227.542 544.958 227.499C544.614 227.456 544.228 227.37 543.884 227.284C543.583 227.198 543.283 227.026 543.025 226.854C539.116 229.478 533.231 228.058 530.826 224.703C536.281 226.768 540.834 226.596 545.13 224.703Z" fill="#333333"/>
<path d="M332.673 334.799C332.673 334.799 333.446 316.299 313.644 311.867C293.842 307.436 290.019 330.066 275.543 327.872C275.543 327.872 290.706 345.469 307.63 340.263C320.474 336.305 325.543 337.853 327.261 338.8C328.292 339.402 329.495 339.617 330.611 339.23C331.9 338.843 333.06 337.681 332.673 334.799Z" fill="#2C2858"/>
<path d="M318.97 338.37C318.584 337.853 318.713 337.165 319.228 336.821C321.376 335.401 326.874 332.217 333.489 331.873C334.091 331.83 334.649 332.346 334.649 332.949C334.649 333.508 334.177 334.024 333.618 334.024C327.562 334.325 322.364 337.337 320.431 338.585C319.916 338.929 319.314 338.843 318.97 338.37Z" fill="#07095B"/>
<path d="M309.477 372.014C309.477 372.014 303.807 348.695 317.338 339.962C330.869 331.228 345.173 332.218 354.924 337.423C364.675 342.672 370.517 360.914 366.135 371.326L333.747 361.387L309.477 372.014Z" fill="#2C2858"/>
<path d="M316.565 410.993L363.386 412.111L341.221 432.375L316.565 410.993Z" fill="#F4A082"/>
<path d="M364.761 410.778C360.036 410.476 357.974 411.337 353.506 413.531C349.469 415.51 344.83 416.887 339.804 416.844C334.735 416.887 330.096 415.51 326.101 413.531C321.634 411.337 316.78 410.433 312.055 410.778C314.632 446.358 305.783 451.65 305.783 451.65L313.429 501.126C313.429 501.126 324.039 507.838 339.847 507.321C355.611 507.838 366.264 501.126 366.264 501.126L373.309 450.66C373.266 450.617 362.183 446.315 364.761 410.778Z" fill="#F5A3B7"/>
<path d="M343.197 628.13L342.381 589.711C341.694 576.331 332.63 581.493 324.684 584.548C324.211 584.72 323.653 584.935 323.094 585.107C322.794 590.356 322.407 597.67 322.063 603.091C323.953 603.22 325.285 603.65 326.101 604.167C329.065 606.103 333.403 617.073 335.766 623.527C336.797 626.41 340.147 628.173 343.197 628.13Z" fill="#F4A082"/>
<path d="M359.477 725.836C359.477 725.836 359.649 724.631 359.95 722.523L345.044 718.393L345.173 725.19C345.259 730.224 345.345 737.581 345.087 738.442C344.701 739.732 337.656 751.047 342.51 751.047C347.321 751.047 352.347 751.047 352.347 751.047C352.347 751.047 357.373 751.047 362.184 751.047C366.995 751.047 359.95 739.732 359.606 738.442C359.348 737.581 359.391 730.826 359.477 725.836Z" fill="#F4A082"/>
<path d="M347.493 397.225H331.556V413.187H347.493V397.225Z" fill="#F4A082"/>
<path d="M347.493 406.819V397.225H331.556V405.357C334.993 407.207 340.062 408.282 347.493 406.819Z" fill="#DB8C70"/>
<path d="M370.259 368.701C368.713 367.927 366.909 368.056 365.276 368.916C365.835 354.245 353.893 341.898 338.816 342.414C323.738 341.898 311.797 354.245 312.355 368.916C310.723 368.099 308.919 367.97 307.373 368.701C304.409 370.164 303.464 374.38 305.311 378.123C307.158 381.866 311.024 383.673 314.031 382.21C314.46 381.995 314.804 381.737 315.147 381.436C316.866 393.568 326.96 402.689 338.816 402.517C350.671 402.689 360.809 393.568 362.484 381.436C362.828 381.737 363.171 381.995 363.601 382.21C366.565 383.673 370.474 381.866 372.321 378.123C374.168 374.38 373.223 370.164 370.259 368.701Z" fill="#F4A082"/>
<path d="M334.606 369.561C333.489 369.174 332.415 368.873 331.385 368.701C330.311 368.529 329.28 368.443 328.292 368.572C327.261 368.701 326.273 368.916 325.285 369.346L324.898 369.475C324.769 369.518 324.641 369.604 324.555 369.647L323.824 369.992C323.309 370.25 322.879 370.551 322.321 370.809C322.622 370.293 322.965 369.82 323.352 369.346C323.782 368.959 324.168 368.486 324.727 368.185C325.714 367.453 326.96 367.066 328.163 366.937C329.409 366.808 330.654 366.98 331.814 367.453C332.845 367.927 333.876 368.615 334.606 369.561Z" fill="#2C2858"/>
<path d="M343.541 369.519C344.271 368.572 345.302 367.884 346.376 367.41C347.493 366.937 348.781 366.722 349.984 366.851C351.23 366.98 352.433 367.367 353.464 368.099C353.979 368.4 354.409 368.873 354.838 369.26C355.225 369.691 355.568 370.207 355.869 370.68C355.311 370.422 354.838 370.121 354.366 369.863L353.635 369.519C353.507 369.476 353.378 369.389 353.292 369.346L352.905 369.217C351.917 368.787 350.886 368.572 349.898 368.486C348.867 368.4 347.836 368.443 346.806 368.658C345.732 368.83 344.658 369.131 343.541 369.519Z" fill="#2C2858"/>
<path d="M339.245 372.444C339.116 373.605 339.202 374.767 339.417 375.929C339.546 376.531 339.675 377.09 339.89 377.65C340.104 378.209 340.405 378.811 340.921 379.285L341.135 379.457L341.307 379.586C341.393 379.672 341.522 379.715 341.565 379.801C341.737 379.93 341.823 380.102 341.909 380.274C342.08 380.618 341.995 381.091 341.823 381.522C341.393 382.425 340.448 383.114 339.417 383.587C340.577 383.544 341.823 383.071 342.596 381.952C342.982 381.393 343.154 380.618 342.94 379.887C342.897 379.715 342.811 379.543 342.682 379.371C342.596 379.198 342.467 379.069 342.338 378.94C342.209 378.811 342.08 378.725 341.909 378.596C341.823 378.553 341.823 378.51 341.78 378.467L341.651 378.381C341.307 378.08 341.049 377.607 340.835 377.133C340.577 376.66 340.405 376.144 340.233 375.585C339.89 374.638 339.589 373.562 339.245 372.444Z" fill="#DB8C70"/>
<path opacity="0.5" d="M342.51 745.626C342.51 745.626 344.744 743.819 346.118 745.626C346.118 745.626 349.168 744.551 350.586 745.239C351.96 745.927 352.948 745.024 355.955 745.626C358.962 746.272 359.649 745.196 361.41 745.626L358.962 740.076C358.618 739.259 357.845 738.743 356.986 738.7L348.008 738.312C347.149 738.269 346.333 738.743 345.946 739.474L342.51 745.626Z" fill="#DB8C70"/>
<g opacity="0.5">
<path opacity="0.5" d="M342.338 587.215C342.596 590.614 342.768 594.056 342.897 597.455C342.982 599.176 343.025 600.854 343.068 602.575L343.197 607.694L343.283 612.814C343.283 614.535 343.326 616.213 343.326 617.934C343.326 621.333 343.326 624.774 343.197 628.173C342.94 624.774 342.768 621.333 342.639 617.934C342.553 616.213 342.51 614.535 342.467 612.814L342.338 607.694L342.252 602.575C342.252 600.854 342.209 599.176 342.209 597.455C342.209 594.013 342.209 590.614 342.338 587.215Z" fill="#F79691"/>
</g>
<path d="M291.694 587C289.89 588.377 287.914 589.538 285.895 590.614C283.876 591.69 281.814 592.636 279.709 593.496C278.636 593.927 277.562 594.314 276.488 594.658C275.929 594.83 275.414 595.002 274.855 595.174L274.039 595.433C273.782 595.519 273.481 595.562 273.223 595.648L271.548 596.078L269.873 596.422L269.014 596.594L268.154 596.723C267.596 596.809 267.038 596.852 266.479 596.938C267.038 596.809 267.596 596.637 268.111 596.508L268.928 596.293L269.744 596.035L271.376 595.562L273.008 595.045C275.156 594.357 277.304 593.583 279.366 592.765C279.881 592.55 280.397 592.335 280.955 592.12C281.471 591.905 281.986 591.69 282.501 591.474L284.048 590.786C284.563 590.528 285.079 590.313 285.594 590.098C287.656 589.065 289.718 588.076 291.694 587Z" fill="#F79691"/>
<path d="M355.654 374.595C355.354 375.025 354.709 375.757 354.065 376.187C351.144 378.166 346.72 377.091 344.915 374.595C348.996 376.187 352.433 376.058 355.654 374.595Z" fill="#333333"/>
<path d="M323.051 374.595C323.352 375.025 323.996 375.757 324.641 376.187C327.562 378.166 331.986 377.091 333.79 374.595C329.709 376.187 326.273 376.058 323.051 374.595Z" fill="#333333"/>
<path d="M366.221 501.083H313.386C204.795 631.959 248.91 615.653 324.082 603.392C324.34 597.283 324.039 590.184 323.653 584.892C322.063 586.656 294.099 586.699 291.694 587C296.032 584.075 343.283 528.403 341.909 568.07C341.909 568.07 342.338 589.668 342.381 589.711C342.381 589.366 342.338 589.065 342.295 588.764L343.025 628.13C343.068 628.13 343.111 628.13 343.154 628.13C343.197 631.701 343.24 698.43 343.713 724.889H360.422C363.429 698.43 373.008 648.093 376.101 620.257C381.728 564.069 391.092 529.779 366.221 501.083Z" fill="#1A7F72"/>
<path d="M411.84 467.568C407.415 459.824 364.761 410.734 364.761 410.734C364.761 410.734 367.209 435.946 374.941 445.626L373.309 450.574C385.637 463.997 389.073 468.041 389.073 468.041C380.869 470.365 346.032 469.719 346.032 469.719C346.032 469.719 344.872 466.622 343.455 464.728C342.037 462.792 341.393 450.746 340.233 447.519C340.104 447.089 339.933 446.745 339.761 446.444L339.331 445.884C339.116 445.712 338.816 445.583 338.429 445.669C338.043 445.626 337.742 445.755 337.57 445.884L337.141 446.444C336.969 446.745 336.797 447.132 336.668 447.519C335.508 450.746 334.864 462.792 333.446 464.728C332.029 466.665 330.869 469.719 330.869 469.719C330.869 469.719 296.032 470.365 287.828 468.041C287.828 468.041 288.73 463.739 304.366 452.854L307.544 450.101C315.276 440.377 312.141 410.691 312.141 410.691C312.141 410.691 269.486 459.738 265.062 467.525C253.807 487.273 324.469 483.444 337.055 478.539C337.055 478.539 337.742 478.582 338.472 477.764V477.721C339.202 478.582 339.933 478.539 339.933 478.539C345.216 480.604 360.852 482.454 376.359 482.454C397.45 482.54 418.326 479.012 411.84 467.568Z" fill="#F4A082"/>
<path d="M384.649 482.54H376.273H367.682C373.266 482.798 379.065 482.798 384.649 482.54Z" fill="#FDBEB9"/>
<path d="M338.386 445.669C338.558 448.337 338.644 451.004 338.73 453.714C338.773 455.048 338.773 456.382 338.816 457.716L338.859 461.717V465.718C338.816 467.052 338.816 468.385 338.773 469.719C338.73 472.386 338.644 475.054 338.429 477.764C338.257 475.097 338.172 472.43 338.086 469.719C338.043 468.385 338.043 467.052 338 465.718L337.957 461.717V457.716C338 456.382 338 455.048 338.043 453.714C338.129 451.047 338.214 448.337 338.386 445.669Z" fill="#DB8C70"/>
<path d="M287.785 468.084C285.551 468.041 283.361 468.084 281.17 468.342C280.053 468.428 278.979 468.644 277.905 468.816C276.831 469.031 275.758 469.332 274.684 469.59C274.941 469.461 275.199 469.332 275.457 469.246L275.843 469.074L276.23 468.945L277.003 468.644L277.819 468.428C277.948 468.385 278.077 468.342 278.206 468.299L278.636 468.213C278.893 468.17 279.194 468.084 279.452 468.041C280.01 467.955 280.568 467.869 281.127 467.783C282.244 467.654 283.361 467.611 284.477 467.654C285.551 467.74 286.668 467.826 287.785 468.084Z" fill="#DB8C70"/>
<path d="M389.159 468.299C391.393 468.256 393.584 468.299 395.774 468.558C396.891 468.644 397.965 468.859 399.039 469.031C400.113 469.246 401.187 469.547 402.261 469.805C402.003 469.676 401.745 469.547 401.488 469.461L401.101 469.289L400.714 469.117L399.941 468.816L399.125 468.601C398.996 468.558 398.867 468.515 398.738 468.472L398.309 468.386C398.051 468.342 397.75 468.256 397.493 468.213C396.934 468.127 396.376 468.041 395.817 467.955C394.701 467.826 393.584 467.783 392.467 467.826C391.35 467.912 390.233 468.041 389.159 468.299Z" fill="#DB8C70"/>
<path d="M312.055 410.778C312.055 410.778 301.831 415.94 295.689 420.329C289.546 424.717 289.718 445.411 305.74 451.65C321.806 457.888 318.627 431.214 318.627 431.214L312.055 410.778Z" fill="#F57191"/>
<path d="M364.718 410.778C364.718 410.778 374.941 415.94 381.084 420.329C387.226 424.717 387.055 445.411 371.032 451.65C354.967 457.888 358.146 431.214 358.146 431.214L364.718 410.778Z" fill="#F57191"/>
<path d="M331.513 386.082C332.287 389.051 335.809 391.245 340.019 391.245C345.259 391.245 347.708 388.922 348.438 385.91L331.513 386.082Z" fill="white"/>
<path d="M313.257 370.164C313.257 370.164 331.342 362.85 340.964 351.707C340.964 351.707 340.749 357.816 338.73 359.967C339.374 360.398 351.874 355.407 354.752 345.813C357.63 336.219 340.534 339.919 340.534 339.919C340.534 339.919 330.783 338.327 330.354 338.542C329.924 338.757 322.965 342.93 322.665 343.275C322.364 343.576 313.214 356.569 313.214 356.569L310.895 361.387L310.379 368.013L313.257 370.164Z" fill="#2C2858"/>
<path opacity="0.56" d="M612.998 754.504C612.998 756.407 537.366 758.004 443.997 758.004C350.63 758.004 274.998 756.483 274.998 754.504C274.998 752.602 350.63 751.004 443.997 751.004C537.366 751.004 612.998 752.602 612.998 754.504Z" fill="black" fill-opacity="0.2"/>
<defs>
<linearGradient id="paint0_linear_23_228" x1="198.066" y1="291.735" x2="724.577" y2="649.2" gradientUnits="userSpaceOnUse">
<stop stop-color="#1A7F72"/>
<stop offset="1" stop-color="#7ADBAE"/>
</linearGradient>
<linearGradient id="paint1_linear_23_228" x1="182.727" y1="316.735" x2="739.912" y2="624.209" gradientUnits="userSpaceOnUse">
<stop stop-color="#1A7F72"/>
<stop offset="1" stop-color="#7ADBAE"/>
</linearGradient>
<clipPath id="clip0_23_228">
<rect width="636.505" height="705.231" fill="white" transform="translate(396.132) rotate(34.1738)"/>
</clipPath>
<clipPath id="clip1_23_228">
<rect width="636.505" height="705.231" fill="white" transform="translate(353.093 8.00415) rotate(28.8914)"/>
</clipPath>
</defs>
</svg>
